<?xml version="1.0" standalone="no"?>
<!DOCTYPE svg PUBLIC "-//W3C//DTD SVG 1.1//EN" "http://www.w3.org/Graphics/SVG/1.1/DTD/svg11.dtd" >
<svg xmlns="http://www.w3.org/2000/svg" xmlns:xlink="http://www.w3.org/1999/xlink" version="1.1">
<metadata>
Created by FontForge 20161003 at Mon Nov  6 13:47:26 2017
 By www-data
(c) 2015 Apple Inc. All rights reserved.
</metadata>
<defs>
<font id="SFCompactDisplayUltralight" horiz-adv-x="1800" >
  <font-face 
    font-family="SFCompactDisplayUltralight"
    font-weight="100"
    font-stretch="normal"
    units-per-em="2048"
    panose-1="2 11 3 4 3 2 2 6 2 4"
    ascent="1638"
    descent="-410"
    x-height="1030"
    cap-height="1358"
    bbox="-470 -499 2048 1950"
    underline-thickness="50"
    underline-position="-150"
    unicode-range="U+0020-1F189"
  />
<missing-glyph horiz-adv-x="2048" 
d="M100 -494v360h1848v-360h-1848zM100 -77v360h1848v-360h-1848zM100 340v360h1848v-360h-1848zM100 757v359h1848v-359h-1848zM100 1173v360h1848v-360h-1848zM100 1590v360h1848v-360h-1848z" />
    <glyph glyph-name=".notdef" horiz-adv-x="2048" 
d="M100 -494v360h1848v-360h-1848zM100 -77v360h1848v-360h-1848zM100 340v360h1848v-360h-1848zM100 757v359h1848v-359h-1848zM100 1173v360h1848v-360h-1848zM100 1590v360h1848v-360h-1848z" />
    <glyph glyph-name=".null" horiz-adv-x="0" 
 />
    <glyph glyph-name="nonmarkingreturn" horiz-adv-x="0" 
 />
    <glyph glyph-name="space" unicode=" " horiz-adv-x="425" 
 />
    <glyph glyph-name="exclam" unicode="!" horiz-adv-x="479" 
d="M210 1358h57l-4 -995h-48zM172 53q0 28 19.5 48t47.5 20t48 -20t20 -48t-20 -47.5t-48 -19.5t-47.5 19.5t-19.5 47.5z" />
    <glyph glyph-name="quotedbl" unicode="&#x22;" horiz-adv-x="556" 
d="M140 1358h69l-14 -412h-41zM347 1358h69l-14 -412h-41z" />
    <glyph glyph-name="numbersign" unicode="#" horiz-adv-x="1198" 
d="M1148 889h-257l-81 -410h243l-10 -52h-244l-89 -427h-53l88 427h-372l-89 -427h-53l88 427h-243l10 52h245l81 410h-231l10 52h232l87 423h54l-88 -423h373l87 423h54l-88 -423h257zM466 889l-81 -410h372l81 410h-372z" />
    <glyph glyph-name="dollar" unicode="$" horiz-adv-x="1080" 
d="M182 1040q0 -211 284 -288l59 -16v581q-159 -5 -251 -78.5t-92 -198.5zM925 350q0 123 -80.5 193.5t-253.5 117.5l-11 3v-622q161 11 253 91t92 217zM580 -147h-55v135q-108 1 -194.5 33.5t-139 84t-80 111t-27.5 121.5h61q2 -115 102 -203.5t278 -93.5v637l-94 26
q-148 41 -229 127t-81 209q0 145 108.5 235t295.5 95v134h55v-135q179 -9 281.5 -97.5t104.5 -211.5h-58q-1 44 -21 86t-58 79.5t-102.5 62.5t-146.5 29v-595l40 -10q190 -48 278 -135t88 -224q0 -163 -112 -257.5t-294 -105.5v-137z" />
    <glyph glyph-name="percent" unicode="%" horiz-adv-x="1445" 
d="M146 1083v-39q0 -120 52.5 -189t125.5 -69q72 0 124 69t52 189v39q0 118 -52 187.5t-124 69.5q-73 0 -125.5 -69.5t-52.5 -187.5zM93 1043v40q0 141 68.5 224t162.5 83q93 0 161 -83t68 -224v-40q0 -141 -68 -224t-161 -83q-94 0 -162.5 83t-68.5 224zM945 337v-39
q0 -120 52.5 -189t125.5 -69q72 0 124 69t52 189v39q0 118 -52 187.5t-124 69.5q-73 0 -125.5 -69.5t-52.5 -187.5zM892 297v40q0 141 68.5 224t162.5 83q93 0 161 -83t68 -224v-40q0 -141 -68 -224t-161 -83q-94 0 -162.5 83t-68.5 224zM235 0h-63l512 679l512 679h63
l-512 -679z" />
    <glyph glyph-name="ampersand" unicode="&#x26;" horiz-adv-x="1261" 
d="M1146 0l-173 186q-89 -103 -215 -158t-255 -55q-84 0 -160 24t-135.5 68.5t-94.5 114.5t-35 156q0 46 11 87t39 89t86.5 96.5t144.5 91.5l85 43q-113 114 -160.5 189.5t-47.5 159.5q0 129 93.5 203.5t223.5 74.5q137 0 221 -82.5t84 -200.5q0 -103 -77 -188t-245 -168
l432 -461q43 62 74.5 175t36.5 226q2 50 2 78h55q0 -30 -2 -84q-5 -123 -39.5 -242.5t-86.5 -190.5l219 -232h-81zM388 654q-250 -129 -250 -320q0 -129 102.5 -217.5t260.5 -88.5q118 0 236.5 52t195.5 145l-448 479zM496 769q169 81 235.5 155t66.5 160q0 99 -68 165
t-179 66q-108 0 -181.5 -63t-73.5 -163q0 -40 12 -77t42.5 -78.5t60 -74t85.5 -90.5z" />
    <glyph glyph-name="quotesingle" unicode="'" horiz-adv-x="349" 
d="M140 1358h69l-14 -412h-41z" />
    <glyph glyph-name="parenleft" unicode="(" horiz-adv-x="558" 
d="M412 1362h46q-28 -36 -54.5 -78.5t-62 -118.5t-61.5 -159t-44.5 -199.5t-18.5 -240.5q0 -457 241 -829h-51q-29 39 -58 86.5t-64.5 127t-62 166.5t-44.5 205.5t-18 243.5t18.5 240t43.5 194.5t63 156.5t65.5 118t61.5 87z" />
    <glyph glyph-name="parenright" unicode=")" horiz-adv-x="557" 
d="M100 1362h45q34 -46 61.5 -87t65.5 -118t63 -156.5t43.5 -194.5t18.5 -240t-18 -243.5t-44.5 -205.5t-62 -166.5t-64 -127t-57.5 -86.5h-51q241 377 241 829q0 124 -18.5 240.5t-44.5 199t-62 159t-62 118.5t-54 79z" />
    <glyph glyph-name="asterisk" unicode="*" horiz-adv-x="944" 
d="M499 656h-53l4 314l-276 -158l-25 45l284 149l-284 167l25 44l276 -177l-4 333h53l-5 -333l276 177l25 -44l-284 -167l284 -149l-25 -45l-276 158z" />
    <glyph glyph-name="plus" unicode="+" horiz-adv-x="1040" 
d="M547 529v-473h-54v473h-426v53h426v459h54v-459h427v-53h-427z" />
    <glyph glyph-name="comma" unicode="," horiz-adv-x="325" 
d="M122 -315h-51l78 403h69z" />
    <glyph glyph-name="hyphen" unicode="&#x2011;" horiz-adv-x="754" 
d="M692 536h-630v52h630v-52z" />
    <glyph glyph-name="hyphen" unicode="-" horiz-adv-x="754" 
d="M692 536h-630v52h630v-52z" />
    <glyph glyph-name="period" unicode="." horiz-adv-x="415" 
d="M140 53q0 28 19.5 48t47.5 20t48 -20t20 -48t-20 -47.5t-48 -19.5t-47.5 19.5t-19.5 47.5z" />
    <glyph glyph-name="slash" unicode="/" horiz-adv-x="611" 
d="M87 -317h-55l490 1752h57z" />
    <glyph glyph-name="zero" unicode="0" horiz-adv-x="1080" 
d="M167 727v-96q0 -293 102.5 -452t270.5 -159t270.5 159t102.5 452v96q0 293 -102.5 452t-270.5 159t-270.5 -159t-102.5 -452zM108 635v88q0 320 118 493.5t314 173.5t314 -173.5t118 -493.5v-88q0 -320 -118 -493.5t-314 -173.5t-314 173.5t-118 493.5z" />
    <glyph glyph-name="one" unicode="1" horiz-adv-x="746" 
d="M498 0h-57v1295h-4l-342 -224v58l346 229h57v-1358z" />
    <glyph glyph-name="two" unicode="2" horiz-adv-x="1080" 
d="M198 1025h-57v4q0 66 25 128.5t72 115.5t125 85t175 32q95 0 172 -29.5t124.5 -79.5t72.5 -114t25 -135q0 -60 -17 -117t-52.5 -111.5t-60 -86t-68.5 -81.5l-512 -580v-5h743v-51h-817v52l544 619q45 51 66.5 79t53.5 78t46 102t14 110q0 55 -21 107t-60.5 95.5
t-105 69.5t-147.5 26q-157 0 -248 -92.5t-92 -216.5v-4z" />
    <glyph glyph-name="three" unicode="3" horiz-adv-x="1089" 
d="M379 675v52h117q170 0 265 91t95 224q0 127 -90.5 211.5t-247.5 84.5q-87 0 -154.5 -30.5t-104.5 -78t-55 -97t-18 -95.5h-58q0 43 12 88t41.5 93.5t73 86t112.5 61.5t153 24q183 0 289.5 -97.5t106.5 -247.5q0 -75 -26.5 -138.5t-69.5 -105t-94.5 -66.5t-105.5 -30v-2
q69 -5 133 -30t116.5 -67.5t84 -108.5t31.5 -144q0 -170 -125 -277.5t-315 -107.5q-105 0 -191 32.5t-140 86t-83 118.5t-29 132h59q0 -58 26.5 -114t74 -101.5t122.5 -73.5t164 -28q165 0 272 94t107 236q0 146 -117.5 235.5t-295.5 89.5h-135z" />
    <glyph glyph-name="four" unicode="4" horiz-adv-x="1090" 
d="M711 1358h84v-962h205v-51h-205v-345h-52v345h-661v51zM145 396h598v912h-4l-594 -908v-4z" />
    <glyph glyph-name="five" unicode="5" horiz-adv-x="1090" 
d="M120 325h59q1 -36 13.5 -74.5t41.5 -80.5t70 -75t104.5 -54t140.5 -21q163 0 272.5 116t109.5 280q0 169 -107 283t-277 114q-121 0 -213.5 -59.5t-126.5 -124.5h-59l95 729h653v-51h-607l-84 -611h2q11 21 38 47.5t69 55t105 48t132 19.5q194 0 316 -127.5t122 -322.5
q0 -187 -126 -317.5t-317 -130.5q-89 0 -162.5 24.5t-121 62.5t-81 86.5t-47.5 94.5t-14 89z" />
    <glyph glyph-name="six" unicode="6" horiz-adv-x="1060" 
d="M965 1045h-54q-7 49 -32 99t-65 94t-101.5 72t-132.5 28q-202 0 -316 -184.5t-114 -561.5h1h1q31 109 142.5 192.5t275.5 83.5q106 0 202 -53t159.5 -158.5t63.5 -241.5q0 -197 -123.5 -322t-313.5 -125q-202 0 -326 152q-134 165 -134 465q0 214 34.5 370.5t100 251
t152.5 139t199 44.5q78 0 147.5 -31t117.5 -81.5t78.5 -111t37.5 -121.5zM173 454q0 -183 112 -309t275 -126q165 0 271 111.5t106 277.5q0 179 -110.5 293.5t-258.5 114.5q-104 0 -192 -40.5t-145.5 -124.5t-57.5 -197z" />
    <glyph glyph-name="seven" unicode="7" horiz-adv-x="1040" 
d="M110 1358h805v-55l-594 -1303h-64l599 1302v4h-746v52z" />
    <glyph glyph-name="eight" unicode="8" horiz-adv-x="1100" 
d="M550 19q172 0 282.5 97t110.5 251q0 143 -109.5 236t-283.5 93t-283.5 -93t-109.5 -236q0 -154 110.5 -251t282.5 -97zM550 742q146 0 244 83t98 211q0 136 -96.5 219t-245.5 83t-245.5 -83t-96.5 -219q0 -128 98 -211t244 -83zM550 -32q-197 0 -324.5 110t-127.5 281
q0 81 31 149.5t80 110.5t100 67.5t99 31.5v7q-32 6 -66 20.5t-69 41.5t-62 61.5t-44.5 85t-17.5 107.5q0 154 111 251t290 97t290 -97t111 -251q0 -57 -17.5 -107.5t-44.5 -85t-62 -61.5t-69 -41.5t-66 -20.5v-7q48 -6 99 -31.5t100 -67.5t80 -110.5t31 -149.5
q0 -171 -127.5 -281t-324.5 -110z" />
    <glyph glyph-name="nine" unicode="9" horiz-adv-x="1060" 
d="M110 316h54q4 -40 18 -79t41 -78.5t64 -69.5t92 -49t120 -19q100 0 173 39.5t126 127.5t79 234.5t26 354.5h-2q-18 -55 -47 -102.5t-74 -91.5t-113 -69t-152 -25q-85 0 -162 30.5t-136.5 87t-95 143.5t-35.5 193q0 193 121.5 320t303.5 127q101 0 180.5 -37t139.5 -114
t92 -206t32 -304q0 -205 -30 -352t-90.5 -236.5t-144 -130.5t-196.5 -41q-70 0 -131.5 20.5t-105 55t-76 80t-50 94t-21.5 97.5zM880 905q0 121 -42.5 218.5t-127.5 156.5t-199 59q-159 0 -263 -115t-104 -282q0 -180 108 -290.5t271 -110.5q146 0 251.5 107t105.5 257z" />
    <glyph glyph-name="colon" unicode=":" horiz-adv-x="385" 
d="M125 77q0 28 19.5 48t47.5 20t48 -20t20 -48t-20 -47.5t-48 -19.5t-47.5 19.5t-19.5 47.5zM125 817q0 28 19.5 48t47.5 20t48 -20t20 -48t-20 -47.5t-48 -19.5t-47.5 19.5t-19.5 47.5z" />
    <glyph glyph-name="semicolon" unicode=";" horiz-adv-x="398" 
d="M139 -271h-51l69 359h69zM107 817q0 28 19.5 48t47.5 20t48 -20t20 -48t-20 -47.5t-48 -19.5t-47.5 19.5t-19.5 47.5z" />
    <glyph glyph-name="less" unicode="&#x3c;" horiz-adv-x="1040" 
d="M120 476v60l760 546v-62l-710 -506v-11l710 -470v-62z" />
    <glyph glyph-name="equal" unicode="=" horiz-adv-x="1040" 
d="M929 342h-820v52h820v-52zM929 699h-820v52h820v-52z" />
    <glyph glyph-name="greater" unicode="&#x3e;" horiz-adv-x="1040" 
d="M920 536v-60l-760 -505v62l710 470v11l-710 506v62z" />
    <glyph glyph-name="question" unicode="?" horiz-adv-x="859" 
d="M60 1075q4 60 27 114t66 100t116.5 73.5t168.5 27.5q157 0 259 -84t102 -227q0 -103 -51.5 -179t-156.5 -154q-97 -73 -127 -132.5t-30 -134.5v-97h-57v102q0 90 37 156t147 149q95 72 137 137t42 152q0 123 -88.5 191.5t-219.5 68.5q-69 0 -125 -19t-89.5 -47
t-57.5 -65.5t-34 -69t-13 -62.5h-53zM341 53q0 28 19.5 48t47.5 20t48 -20t20 -48t-20 -47.5t-48 -19.5t-47.5 19.5t-19.5 47.5z" />
    <glyph glyph-name="at" unicode="@" horiz-adv-x="1630" 
d="M1242 183q-86 0 -145.5 44.5t-68.5 118.5h-4q-4 -18 -16 -40.5t-36 -52.5t-69 -50t-102 -20q-111 0 -183.5 76.5t-72.5 227.5v100q0 134 66 214.5t189 80.5q58 0 102 -18.5t66.5 -46t33.5 -49.5t14 -39h4v137h48v-468q0 -50 17 -85.5t45 -53t56.5 -25t59.5 -7.5
q97 0 165.5 90t68.5 281v39q0 125 -43.5 236.5t-123 197.5t-202.5 136.5t-273 50.5h-7q-148 0 -271 -50t-210 -142.5t-135.5 -229t-48.5 -304.5v-31q0 -162 51.5 -292.5t142 -214.5t211 -128.5t260.5 -44.5h9q160 0 288 41v-46q-111 -41 -288 -41h-9q-156 0 -287.5 48
t-227 138.5t-149.5 227t-54 306.5v44q0 351 197.5 558.5t520.5 207.5h7q129 0 240.5 -36t193 -99t140.5 -146.5t88 -181t29 -201.5v-54q0 -197 -82.5 -300.5t-204.5 -103.5zM599 492q0 -131 58.5 -196t146.5 -65q38 0 73 12t67 37.5t51 72t19 107.5v135q0 97 -54 168.5
t-155 71.5q-96 0 -151 -68t-55 -184v-91z" />
    <glyph glyph-name="A" unicode="A" horiz-adv-x="1177" 
d="M130 0h-60l487 1358h63l487 -1358h-61l-166 470h-584zM591 1289h-5l-273 -769h549z" />
    <glyph glyph-name="B" unicode="B" horiz-adv-x="1205" 
d="M198 0v1358h420q189 0 295.5 -87.5t106.5 -243.5q0 -75 -25.5 -137t-64.5 -98.5t-77 -57.5t-73 -27v-4q60 -6 114 -27.5t100.5 -61t73.5 -104t27 -146.5q0 -167 -113.5 -265.5t-325.5 -98.5h-458zM255 1305v-581h378q87 0 159.5 31t120.5 99.5t48 165.5q0 137 -92.5 211
t-259.5 74h-354zM255 671v-618h398q182 0 282.5 83t100.5 227q0 152 -107.5 230t-271.5 78h-402z" />
    <glyph glyph-name="C" unicode="C" horiz-adv-x="1245" 
d="M199 814v-270q0 -83 15.5 -158t50.5 -142.5t86.5 -116.5t128 -78t171.5 -29q184 0 299 102.5t115 251.5h55v-4q0 -166 -129.5 -284t-339.5 -118q-108 0 -194.5 31t-144.5 85t-97 129.5t-56 160t-17 181.5v247q0 95 18 180.5t57.5 160.5t97 129.5t142 86t188.5 31.5
q110 0 201 -37t146.5 -96.5t85.5 -129t30 -139.5v-4h-55q0 60 -27 121t-76.5 113.5t-129.5 86t-175 33.5q-113 0 -201 -43.5t-140 -118t-78.5 -166.5t-26.5 -196z" />
    <glyph glyph-name="D" unicode="D" horiz-adv-x="1297" 
d="M198 1358h345q159 0 277.5 -48t191 -138t108 -213t35.5 -279q0 -158 -34.5 -280.5t-106 -213t-190.5 -138.5t-281 -48h-345v1358zM255 1305v-1252h290q144 0 250.5 44t172.5 127.5t98 197t32 258.5q0 143 -32.5 256.5t-98.5 196.5t-173 127.5t-249 44.5h-290z" />
    <glyph glyph-name="E" unicode="E" horiz-adv-x="1093" 
d="M963 53v-53h-765v1358h765v-53h-708v-582h674v-53h-674v-617h708z" />
    <glyph glyph-name="F" unicode="F" horiz-adv-x="1043" 
d="M255 0h-57v1358h755v-53h-698v-591h640v-53h-640v-661z" />
    <glyph glyph-name="G" unicode="G" horiz-adv-x="1261" 
d="M1104 1015h-53q-4 39 -20 81t-48.5 86t-78 78t-113.5 56t-148 22q-213 0 -328.5 -143.5t-115.5 -386.5v-241q0 -119 27 -217t81 -172.5t142.5 -116t205.5 -41.5q183 0 297 97.5t114 270.5v202h-421v52h474v-254q0 -200 -130 -310t-337 -110q-106 0 -191.5 30.5
t-144.5 84.5t-98.5 129.5t-57.5 164t-18 190.5v241q0 266 130 424t370 158q110 0 199.5 -34.5t144 -90t84.5 -120t34 -130.5z" />
    <glyph glyph-name="H" unicode="H" horiz-adv-x="1326" 
d="M1128 0h-57v689h-816v-689h-57v1358h57v-617h816v617h57v-1358z" />
    <glyph glyph-name="I" unicode="I" horiz-adv-x="493" 
d="M275 0h-57v1358h57v-1358z" />
    <glyph glyph-name="J" unicode="J" horiz-adv-x="922" 
d="M70 293h57q0 -41 13.5 -82.5t43 -82.5t87 -67t135.5 -26q128 0 206.5 80t78.5 236v1007h57v-1008q0 -182 -93 -274.5t-251 -92.5q-75 0 -134.5 21t-96 53.5t-60.5 75t-33.5 82t-9.5 78.5z" />
    <glyph glyph-name="K" unicode="K" horiz-adv-x="1121" 
d="M1037 1358l-573 -612l607 -746h-74l-574 709l-168 -177v-532h-57v1358h57v-749h1l706 749h75z" />
    <glyph glyph-name="L" unicode="L" horiz-adv-x="1022" 
d="M952 52v-52h-754v1358h57v-1306h697z" />
    <glyph glyph-name="M" unicode="M" horiz-adv-x="1574" 
d="M251 0h-53v1358h58l529 -1185h4l530 1185h57v-1358h-53v1232h-4l-504 -1127h-56l-504 1127h-4v-1232z" />
    <glyph glyph-name="N" unicode="N" horiz-adv-x="1326" 
d="M255 0h-57v1358h60l809 -1256h4v1256h57v-1358h-60l-809 1256h-4v-1256z" />
    <glyph glyph-name="O" unicode="O" horiz-adv-x="1310" 
d="M198 815v-272q0 -234 122 -378.5t335 -144.5t335 144.5t122 378.5v272q0 233 -122.5 378t-334.5 145t-334.5 -145t-122.5 -378zM142 551v256q0 267 135 425t378 158t378 -159t135 -426v-254q0 -267 -135 -425t-378 -158t-378 158t-135 425z" />
    <glyph glyph-name="P" unicode="P" horiz-adv-x="1141" 
d="M198 1358h422q203 0 312 -105t109 -290q0 -184 -109 -288t-312 -104h-365v-571h-57v1358zM255 1305v-682h363q173 0 269 90t96 250q0 162 -95.5 252t-269.5 90h-363z" />
    <glyph glyph-name="Q" unicode="Q" horiz-adv-x="1310" 
d="M142 564v242q0 267 134.5 425.5t378.5 158.5t378.5 -158.5t134.5 -425.5v-242q0 -165 -53 -291.5t-154 -200.5l179 -244h-64l-159 215q-111 -63 -262 -63q-244 0 -378.5 158.5t-134.5 425.5zM198 815v-260q0 -234 121.5 -378.5t335.5 -144.5q129 0 229 56l-182 247h69
l157 -218q89 68 136.5 181.5t47.5 256.5v260q0 233 -122.5 378t-334.5 145t-334.5 -145t-122.5 -378z" />
    <glyph glyph-name="R" unicode="R" horiz-adv-x="1181" 
d="M632 1358q185 0 295 -102t110 -273q0 -150 -81.5 -242.5t-218.5 -121.5l322 -619h-66l-318 608h-420v-608h-57v1358h434zM255 659h368q162 0 259 87.5t97 236.5q0 150 -96 237t-260 87h-368v-648z" />
    <glyph glyph-name="S" unicode="S" horiz-adv-x="1158" 
d="M120 338h59q1 -39 13 -79.5t42 -84t74 -77t115.5 -55t159.5 -21.5q176 0 286 88.5t110 224.5q0 68 -21.5 118t-69 86t-106.5 61t-149 49l-157 42q-153 41 -231.5 122.5t-78.5 219.5q0 161 114.5 259.5t311.5 98.5q101 0 182 -27.5t131.5 -74.5t77 -105t26.5 -123h-59
q-1 38 -13 75.5t-40 74t-68 64.5t-101.5 45.5t-135.5 17.5q-171 0 -268.5 -84t-97.5 -222q0 -121 69.5 -186.5t216.5 -105.5l150 -41q98 -27 162.5 -54.5t115.5 -69t74.5 -99.5t23.5 -138q0 -168 -127 -268.5t-333 -100.5q-98 0 -178.5 24.5t-131 63t-85 89t-49 98.5
t-14.5 95z" />
    <glyph glyph-name="T" unicode="T" horiz-adv-x="1077" 
d="M568 0h-57v1305h-451v53h957v-53h-449v-1305z" />
    <glyph glyph-name="U" unicode="U" horiz-adv-x="1327" 
d="M242 1358v-891q0 -205 109.5 -324.5t311.5 -119.5q204 0 312.5 118.5t108.5 325.5v891h58v-891q0 -230 -126 -364.5t-353 -134.5t-352.5 134.5t-125.5 364.5v891h57z" />
    <glyph glyph-name="V" unicode="V" horiz-adv-x="1204" 
d="M631 0h-68l-493 1358h61l466 -1291h4l473 1291h60z" />
    <glyph glyph-name="W" unicode="W" horiz-adv-x="1733" 
d="M495 0h-69l-356 1358h61l329 -1281h4l372 1281h61l372 -1281h4l329 1281h61l-356 -1358h-69l-369 1269h-5z" />
    <glyph glyph-name="X" unicode="X" horiz-adv-x="1154" 
d="M1084 1358l-473 -681l470 -677h-68l-435 631h-4l-435 -631h-67l470 677l-472 681h68l437 -633h4l438 633h67z" />
    <glyph glyph-name="Y" unicode="Y" horiz-adv-x="1104" 
d="M581 0h-56v610l-475 748h68l432 -686h6l433 686h65l-473 -746v-612z" />
    <glyph glyph-name="Z" unicode="Z" horiz-adv-x="1155" 
d="M100 0v49l885 1254v4h-858v51h928v-49l-886 -1254v-5h886v-50h-955z" />
    <glyph glyph-name="bracketleft" unicode="[" horiz-adv-x="562" 
d="M160 1358h319v-44h-266v-1491h279v-44h-332v1579z" />
    <glyph glyph-name="backslash" unicode="\" horiz-adv-x="608" 
d="M576 -317h-52l-492 1752h54z" />
    <glyph glyph-name="bracketright" unicode="]" horiz-adv-x="562" 
d="M83 1358h319v-1579h-332v44h279v1491h-266v44z" />
    <glyph glyph-name="asciicircum" unicode="^" horiz-adv-x="753" 
d="M656 794h-56l-222 503h-4l-222 -503h-55l251 570h56z" />
    <glyph glyph-name="underscore" unicode="_" horiz-adv-x="854" 
d="M875 -182h-896v52h896v-52z" />
    <glyph glyph-name="grave" unicode="`" horiz-adv-x="760" 
d="M494 1206h-55l-256 301h66z" />
    <glyph glyph-name="a" unicode="a" horiz-adv-x="1003" 
d="M778 178q-8 -26 -31 -56.5t-62 -63.5t-103 -54.5t-139 -21.5q-152 0 -244.5 82t-92.5 223q0 130 89.5 207t257.5 77h329v159q0 133 -78 199t-212 66q-127 0 -195 -54.5t-88 -158.5h-56q16 122 102 194t241 72q158 0 250 -79t92 -224v-745h-56v178h-4zM444 35
q140 0 239 87t99 225v171h-329q-143 0 -214.5 -62t-71.5 -168q0 -115 76.5 -184t200.5 -69z" />
    <glyph glyph-name="b" unicode="b" horiz-adv-x="1097" 
d="M581 -18q-80 0 -145 24t-104.5 62t-62.5 74t-34 71h-4v-213h-56v1435h56v-621h4q5 21 17.5 46.5t40.5 60t65 62t96.5 46.5t128.5 19q170 0 279.5 -117.5t109.5 -312.5v-204q0 -106 -32.5 -190.5t-88 -136t-124.5 -78.5t-146 -27zM581 35q65 0 123.5 23.5t106.5 70t76 124
t28 176.5v177q0 181 -95.5 285t-238.5 104q-82 0 -150 -32.5t-111 -86.5t-66 -123t-23 -143v-185q0 -168 96.5 -279t253.5 -111z" />
    <glyph glyph-name="c" unicode="c" horiz-adv-x="1031" 
d="M125 436v166q0 212 111.5 329t288.5 117q89 0 162 -28t118.5 -74.5t71.5 -101t29 -111.5h-54q-15 108 -100.5 185t-226.5 77q-154 0 -249 -106.5t-95 -300.5v-142q0 -200 94 -305.5t259 -105.5q76 0 136 21.5t96.5 58t57.5 77.5t29 87h53q-5 -53 -28.5 -103t-66 -95
t-115.5 -72t-167 -27q-186 0 -295 116.5t-109 337.5z" />
    <glyph glyph-name="d" unicode="d" horiz-adv-x="1097" 
d="M516 1048q80 0 145 -24t104.5 -62t62.5 -74t34 -71h4v618h56v-1435h-56v216h-4q-5 -21 -17.5 -46.5t-40.5 -60t-65 -62t-96.5 -46.5t-128.5 -19q-170 0 -279.5 117.5t-109.5 312.5v204q0 106 32.5 190.5t88 136t124.5 78.5t146 27zM516 995q-65 0 -123.5 -23.5
t-106.5 -70t-76 -124t-28 -176.5v-177q0 -181 95.5 -285t238.5 -104q66 0 123 21.5t98.5 58.5t70.5 86t43.5 105.5t14.5 115.5v181q0 168 -96.5 280t-253.5 112z" />
    <glyph glyph-name="e" unicode="e" horiz-adv-x="1040" 
d="M531 -18q-191 0 -298.5 123t-107.5 348v107q0 238 107 363t288 125t288 -125t107 -363v-42h-734v-61q0 -203 94 -312.5t257 -109.5q74 0 134 21t96.5 54t57 70.5t24.5 74.5h56q-4 -45 -27.5 -90.5t-66 -87.5t-114.5 -68.5t-161 -26.5zM181 569h678v4q0 200 -92 311
t-247 111t-247 -111t-92 -311v-4z" />
    <glyph glyph-name="f" unicode="f" horiz-adv-x="604" 
d="M218 0v980h-173v50h173v146q0 134 62.5 191t185.5 57q45 0 83 -7v-50q-42 6 -82 6q-100 0 -146.5 -44.5t-46.5 -151.5v-147h273v-50h-273v-980h-56z" />
    <glyph glyph-name="g" unicode="g" horiz-adv-x="1097" 
d="M529 -298q157 0 247 78.5t90 204.5v287h-4q-5 -21 -17.5 -46.5t-40.5 -60t-65 -62t-95.5 -46.5t-127.5 -19q-171 0 -281 117.5t-110 312.5v148q0 106 32.5 190.5t88.5 136t125.5 78.5t146.5 27q79 0 143.5 -24t104 -62t62.5 -74t34 -71h4v213h56v-1043
q0 -151 -105.5 -244.5t-288.5 -93.5q-91 0 -164 25t-116 65t-65.5 86t-24.5 93h57q6 -82 88 -149t226 -67zM518 995q-66 0 -124.5 -23.5t-106.5 -70t-76.5 -124t-28.5 -176.5v-121q0 -181 96 -285t240 -104q108 0 189 56t120 142t39 187v129q0 167 -96 278.5t-252 111.5z
" />
    <glyph glyph-name="h" unicode="h" horiz-adv-x="1099" 
d="M175 0v1435h56v-615h4q27 93 116 160.5t228 67.5q157 0 256 -98t99 -271v-679h-56v673q0 140 -80.5 231t-220.5 91q-109 0 -189.5 -54t-118.5 -136t-38 -178v-627h-56z" />
    <glyph glyph-name="i" unicode="i" horiz-adv-x="416" 
d="M180 0v1030h56v-1030h-56zM148 1309q0 26 17.5 43.5t42.5 17.5q26 0 43.5 -18t17.5 -43t-17.5 -42.5t-43.5 -17.5t-43 17.5t-17 42.5z" />
    <glyph glyph-name="j" unicode="j" horiz-adv-x="416" 
d="M148 1309q0 26 17.5 43.5t42.5 17.5q26 0 43.5 -18t17.5 -43t-17.5 -42.5t-43.5 -17.5t-43 17.5t-17 42.5zM236 1030v-1110q0 -132 -50 -189.5t-154 -57.5q-42 0 -68 7v53q33 -7 65 -7q80 0 115.5 42.5t35.5 147.5v1114h56z" />
    <glyph glyph-name="k" unicode="k" horiz-adv-x="994" 
d="M231 433v-433h-56v1435h56v-929h4l578 524h80l-462 -418l485 -612h-73l-455 574z" />
    <glyph glyph-name="l" unicode="l" horiz-adv-x="436" 
d="M190 0v1435h56v-1435h-56z" />
    <glyph glyph-name="m" unicode="m" horiz-adv-x="1648" 
d="M175 0v1030h56v-184h4q8 32 28 64.5t53.5 65t88.5 52.5t123 20q130 0 209 -65.5t100 -160.5h4q6 32 27 68t57 73t96 61t133 24q146 0 237.5 -88.5t91.5 -253.5v-706h-56v691q0 150 -75.5 227t-198.5 77q-94 0 -163 -47t-101 -117.5t-32 -151.5v-679h-56v687
q0 147 -73.5 227.5t-200.5 80.5q-142 0 -219 -96.5t-77 -240.5v-658h-56z" />
    <glyph glyph-name="n" unicode="n" horiz-adv-x="1095" 
d="M175 0v1030h56v-210h4q27 93 115 160.5t227 67.5q157 0 255 -97.5t98 -271.5v-679h-56v673q0 140 -79.5 231t-219.5 91q-109 0 -189 -54t-117.5 -136t-37.5 -178v-627h-56z" />
    <glyph glyph-name="o" unicode="o" horiz-adv-x="1080" 
d="M539 1048q178 0 297 -120.5t119 -333.5v-163q0 -109 -32.5 -195.5t-89.5 -141.5t-132 -83.5t-162 -28.5t-162 29t-131.5 84t-88.5 141t-32 195v163q0 217 116 335.5t298 118.5zM539 995q-158 0 -258 -106.5t-100 -303.5v-145q0 -196 99.5 -300.5t259.5 -104.5
q158 0 258 104t100 301v145q0 195 -101 302.5t-258 107.5z" />
    <glyph glyph-name="p" unicode="p" horiz-adv-x="1097" 
d="M581 -18q-80 0 -145 24t-104.5 62t-62.5 74t-34 71h-4v-539h-56v1356h56v-216h4q5 21 17.5 46.5t40.5 60t65 62t96.5 46.5t128.5 19q170 0 279.5 -117.5t109.5 -312.5v-204q0 -106 -32.5 -190.5t-88 -136t-124.5 -78.5t-146 -27zM581 35q65 0 123.5 23.5t106.5 70t76 124
t28 176.5v177q0 181 -95.5 285t-238.5 104q-66 0 -123 -21.5t-98.5 -58.5t-70.5 -86t-43.5 -105.5t-14.5 -115.5v-181q0 -168 96.5 -280t253.5 -112z" />
    <glyph glyph-name="q" unicode="q" horiz-adv-x="1097" 
d="M125 616q0 106 32.5 190.5t88 136t124.5 78.5t146 27q80 0 145 -24t104.5 -62t62.5 -74t34 -71h4v213h56v-1356h-56v542h-4q-5 -21 -17.5 -46.5t-40.5 -60t-65 -62t-96.5 -46.5t-128.5 -19q-170 0 -279.5 117.5t-109.5 312.5v204zM516 995q-65 0 -123.5 -23.5t-106.5 -70
t-76 -124t-28 -176.5v-177q0 -181 95.5 -285t238.5 -104q82 0 150 32.5t111 86.5t66 123t23 143v185q0 168 -96.5 279t-253.5 111z" />
    <glyph glyph-name="r" unicode="r" horiz-adv-x="665" 
d="M175 0v1030h56v-213h4q60 229 299 229q37 0 81 -8v-54q-40 9 -88 9q-140 0 -218 -108t-78 -297v-588h-56z" />
    <glyph glyph-name="s" unicode="s" horiz-adv-x="950" 
d="M137 773q0 128 93 201.5t247 73.5q74 0 133.5 -18t97 -46.5t63 -65t35.5 -70.5t10 -66h-56q0 24 -8.5 51t-29.5 56.5t-52 52.5t-81.5 38t-112.5 15q-122 0 -201 -56t-79 -164q0 -39 12.5 -69t32.5 -51.5t58.5 -40.5t78 -32.5t102.5 -31.5q150 -43 192 -60
q123 -52 153 -144q11 -36 11 -79q0 -140 -107 -212.5t-267 -72.5q-98 0 -172.5 27.5t-114.5 71.5t-59 89.5t-19 90.5h56q0 -26 9 -55t32 -60t57 -55t89 -40t122 -16q86 0 155 23.5t114.5 78t45.5 132.5q0 29 -7.5 53t-17.5 41.5t-34 34t-42.5 27t-59 25t-67.5 22.5t-83 24
q-57 16 -93.5 28.5t-78.5 30.5t-67 37.5t-47.5 45.5t-32.5 59.5t-10 75.5z" />
    <glyph glyph-name="t" unicode="t" horiz-adv-x="617" 
d="M218 1030v248h56v-248h273v-50h-273v-780q0 -92 42 -126.5t143 -34.5q56 0 103 9v-48q-46 -10 -110 -10q-131 0 -182.5 50t-51.5 179v761h-173v50h173z" />
    <glyph glyph-name="u" unicode="u" horiz-adv-x="1095" 
d="M920 1030v-1030h-56v211h-4q-14 -41 -40.5 -79t-67.5 -73t-103 -56t-136 -21q-153 0 -250.5 89.5t-97.5 259.5v699h56v-693q0 -136 79.5 -219t214.5 -83q83 0 151 33t110.5 88.5t65 123t22.5 140.5v610h56z" />
    <glyph glyph-name="v" unicode="v" horiz-adv-x="917" 
d="M429 0l-384 1030h62l350 -956h5l350 956h60l-384 -1030h-59z" />
    <glyph glyph-name="w" unicode="w" horiz-adv-x="1386" 
d="M1346 1030l-285 -1030h-59l-307 951h-4l-307 -951h-59l-285 1030h62l251 -945h5l305 945h60l305 -945h5l251 945h62z" />
    <glyph glyph-name="x" unicode="x" horiz-adv-x="917" 
d="M790 0l-330 472h-4l-332 -472h-64l365 520l-355 510h67l321 -460h4l323 460h64l-356 -508l364 -522h-67z" />
    <glyph glyph-name="y" unicode="y" horiz-adv-x="912" 
d="M867 1030l-371 -1028l-49 -129q-41 -108 -96.5 -154t-154.5 -46q-50 0 -93 10v53q48 -10 92 -10q76 0 122 40t74 115l40 107l-386 1042h62l351 -972h4l345 972h60z" />
    <glyph glyph-name="z" unicode="z" horiz-adv-x="890" 
d="M95 0v46l640 930v4h-640v50h710v-50l-639 -926v-4h639v-50h-710z" />
    <glyph glyph-name="braceleft" unicode="{" horiz-adv-x="669" 
d="M164 608v-18q82 -8 119 -58.5t37 -154.5v-393q0 -213 241 -213h68v-53h-31q-88 0 -147 13t-103 45.5t-64.5 90.5t-20.5 146v332q0 111 -32.5 157.5t-130.5 46.5v98q98 0 130.5 47.5t32.5 159.5v276q0 87 20.5 143.5t65 87.5t103 43t146.5 12h31v-52h-68q-123 0 -182 -51
t-59 -162v-329q0 -104 -37 -155t-119 -59z" />
    <glyph glyph-name="bar" unicode="|" horiz-adv-x="343" 
d="M199 -308h-55v1743h55v-1743z" />
    <glyph glyph-name="braceright" unicode="}" horiz-adv-x="669" 
d="M505 590v18q-82 8 -119 59t-37 155v329q0 111 -59 162t-182 51h-68v52h31q88 0 146.5 -12t103 -43t65 -87.5t20.5 -143.5v-276q0 -111 33 -159t130 -48v-98q-97 0 -130 -46.5t-33 -157.5v-332q0 -88 -20.5 -146t-64.5 -90.5t-103 -45.5t-147 -13h-31v53h68q241 0 241 213
v393q0 104 37 154.5t119 58.5z" />
    <glyph glyph-name="asciitilde" unicode="~" horiz-adv-x="1127" 
d="M777 534q-55 0 -104 24t-85 58t-70 67.5t-74.5 57.5t-82.5 24q-73 0 -123.5 -60.5t-51.5 -161.5h-55q0 119 67 195.5t165 76.5q51 0 97.5 -24t82 -57.5t70.5 -67.5t77 -58t87 -24q80 0 122.5 65t46.5 157h55q0 -47 -12.5 -92.5t-38 -87t-70.5 -67t-103 -25.5z" />
    <glyph glyph-name="nonbreakingspace" unicode="&#xa0;" horiz-adv-x="425" 
 />
    <glyph glyph-name="exclamdown" unicode="&#xa1;" horiz-adv-x="480" 
d="M268 -334h-57l4 995h48zM306 971q0 -28 -19.5 -48t-47.5 -20t-48 20t-20 48t20 47.5t48 19.5t47.5 -19.5t19.5 -47.5z" />
    <glyph glyph-name="cent" unicode="&#xa2;" horiz-adv-x="1080" 
d="M926 441q-5 -50 -27.5 -98.5t-62 -92.5t-106.5 -72.5t-151 -32.5v-237h-57v237q-175 10 -276 126t-101 327v166q0 204 104 320t273 125v242h57v-242q81 -4 147.5 -34.5t108 -76t65 -98t26.5 -105.5h-53q-15 107 -99.5 184.5t-222.5 77.5q-157 0 -253.5 -106.5
t-96.5 -300.5v-142q0 -200 95.5 -305.5t263.5 -105.5q75 0 134 22t94.5 59t56 77.5t29.5 85.5h52z" />
    <glyph glyph-name="sterling" unicode="&#xa3;" horiz-adv-x="1080" 
d="M966 54v-54h-874v56q36 0 62.5 3t61.5 18.5t57 42.5t38 79t16 125v354h-258v54h258v347q0 151 84 231t236 80q148 0 237 -82.5t94 -190.5h-58q-2 38 -19.5 75.5t-49 70t-84 52.5t-116.5 20q-133 0 -200 -67t-67 -195v-341h339v-54h-339v-361q0 -210 -102 -253v-10h684z
" />
    <glyph glyph-name="currency" unicode="&#xa4;" horiz-adv-x="1080" 
d="M943 217l-191 191q-91 -78 -212 -78q-120 0 -211 78l-191 -191l-38 37l192 191q-76 88 -76 212q0 123 76 211l-192 191l38 37l191 -191q91 78 211 78q121 0 212 -78l191 191l37 -37l-191 -191q76 -88 76 -211q0 -124 -76 -212l191 -191zM270 657q0 -114 78.5 -193.5
t191.5 -79.5t191.5 79.5t78.5 193.5q0 113 -78.5 193t-191.5 80t-191.5 -80t-78.5 -193z" />
    <glyph glyph-name="yen" unicode="&#xa5;" horiz-adv-x="1080" 
d="M829 345h-263v-345h-56v345h-264v53h264v197h-264v53h240l-451 710h68l432 -686h6l433 686h65l-450 -710h240v-53h-263v-197h263v-53z" />
    <glyph glyph-name="brokenbar" unicode="&#xa6;" horiz-adv-x="343" 
d="M199 783h-55v654h55v-654zM199 -309h-55v685h55v-685z" />
    <glyph glyph-name="section" unicode="&#xa7;" horiz-adv-x="944" 
d="M794 53q0 101 -78.5 155t-259.5 97q-61 15 -100 26t-85 28t-73.5 37t-52.5 47.5t-36 64.5t-11 83q0 55 20.5 102t53.5 78t65 50.5t63 29.5v4q-29 15 -47 25.5t-45.5 33t-43 47t-27.5 63.5t-12 85q0 123 94.5 202t243.5 79q153 0 245 -78.5t92 -215.5h-57q0 79 -42.5 135
t-103 80t-131.5 24q-135 0 -209 -66t-74 -158q0 -107 76.5 -163.5t239.5 -101.5q67 -18 106.5 -31t88.5 -37t75.5 -50.5t45 -68.5t18.5 -95q0 -90 -50 -158.5t-114 -105.5v-4q32 -11 60 -27.5t57.5 -43.5t47 -68t17.5 -92q0 -134 -105.5 -226t-276.5 -92q-180 0 -278 83.5
t-98 223.5h51q2 -113 89 -183.5t239 -70.5q144 0 233 76t89 177zM615 318q26 14 50 33t50.5 49t43 72.5t16.5 90.5q0 63 -44 117.5t-150 85.5l-214 62q-74 -13 -143 -78t-69 -155q0 -89 58 -137.5t189 -83.5z" />
    <glyph glyph-name="dieresis" unicode="&#xa8;" horiz-adv-x="760" 
d="M237 1246q-23 0 -39.5 16.5t-16.5 39.5t16.5 39.5t39.5 16.5t39.5 -16.5t16.5 -39.5t-16.5 -39.5t-39.5 -16.5zM523 1246q-23 0 -39.5 16.5t-16.5 39.5t16.5 39.5t39.5 16.5t39.5 -16.5t16.5 -39.5t-16.5 -39.5t-39.5 -16.5z" />
    <glyph glyph-name="copyright" unicode="&#xa9;" horiz-adv-x="1653" 
d="M538 638v100q0 153 79.5 232t219.5 79q118 0 186 -58.5t79 -130.5h-64q-12 53 -62 93t-139 40q-239 0 -239 -260v-97q0 -125 63 -190.5t176 -65.5q91 0 142.5 33.5t62.5 87.5h65q-14 -73 -85.5 -125t-184.5 -52q-141 0 -220 79t-79 235zM185 635q0 -182 80.5 -328
t229 -230t337.5 -84t338 84t229.5 230t80.5 328v110q0 125 -48 239t-132 198.5t-206 134.5t-262 50t-261.5 -49.5t-205.5 -134t-132 -198.5t-48 -240v-110zM832 -57q-155 0 -287 53t-223 145.5t-142 221t-51 276.5v106q0 139 52.5 263t144.5 214t223.5 142.5t282.5 52.5
q152 0 284 -53t223.5 -144t144 -214.5t52.5 -260.5v-106q0 -198 -87 -356.5t-248 -249t-369 -90.5z" />
    <glyph glyph-name="ordfeminine" unicode="&#xaa;" horiz-adv-x="604" 
d="M276 781q-79 0 -126.5 43t-47.5 116q0 72 48 111.5t136 39.5h156v69q0 61 -36 91t-99 30q-60 0 -92 -23.5t-38 -55.5h-53q5 58 54.5 93t131.5 35q85 0 136 -41.5t51 -124.5v-374h-53v82h-3q-17 -35 -58.5 -63t-106.5 -28zM286 829q66 0 111 40t45 101v75h-156
q-64 0 -97 -28t-33 -75q0 -53 37 -83t93 -30z" />
    <glyph glyph-name="guillemotleft" unicode="&#xab;" horiz-adv-x="1152" 
d="M538 565l374 404h72l-368 -403v-6l368 -405h-81l-365 402v8zM153 565l374 404h72l-368 -403v-6l368 -405h-81l-365 402v8z" />
    <glyph glyph-name="logicalnot" unicode="&#xac;" horiz-adv-x="1040" 
d="M902 174h-57v349h-722v54h779v-403z" />
    <glyph glyph-name="registered" unicode="&#xae;" horiz-adv-x="1171" 
d="M589 419q-210 0 -343 132t-133 336v45q0 193 134.5 323t341.5 130q206 0 340.5 -130.5t134.5 -322.5v-45q0 -204 -132 -336t-343 -132zM588 467q188 0 306.5 117t118.5 298v56q0 170 -119 285t-306 115q-184 0 -303.5 -116t-119.5 -284v-56q0 -182 117 -298.5t306 -116.5
zM469 1131v-223h137q57 0 90.5 29.5t33.5 81.5t-33 82t-91 30h-137zM469 645h-49v532h190q77 0 123.5 -43.5t46.5 -114.5q0 -116 -110 -149q12 -20 26 -45t43.5 -77.5t57.5 -102.5h-55l-122 216h-151v-216z" />
    <glyph glyph-name="macron" unicode="&#xaf;" horiz-adv-x="760" 
d="M659 1279h-558v44h558v-44z" />
    <glyph glyph-name="degree" unicode="&#xb0;" horiz-adv-x="451" 
d="M226 1013q-74 0 -125 51.5t-51 124.5q0 72 51.5 123.5t124.5 51.5q72 0 123.5 -51.5t51.5 -123.5q0 -73 -51.5 -124.5t-123.5 -51.5zM226 1062q53 0 90.5 37.5t37.5 89.5q0 53 -37.5 90.5t-90.5 37.5q-51 0 -89 -37.5t-38 -90.5q0 -52 38 -89.5t89 -37.5z" />
    <glyph glyph-name="plusminus" unicode="&#xb1;" horiz-adv-x="1040" 
d="M546 700v-334h-53v334h-411v57h411v313h53v-313h411v-57h-411zM958 159h-876v57h876v-57z" />
    <glyph glyph-name="twosuperior" unicode="&#xb2;" horiz-adv-x="650" 
d="M165 1210h-53v2q0 73 51 125.5t147 52.5q92 0 146 -49.5t54 -123.5q0 -47 -24.5 -89.5t-80.5 -101.5l-219 -231v-4h336v-45h-412v36l262 278q40 42 61.5 77.5t21.5 78.5q0 55 -39.5 91.5t-107.5 36.5q-69 0 -106 -38.5t-37 -93.5v-2z" />
    <glyph glyph-name="threesuperior" unicode="&#xb3;" horiz-adv-x="616" 
d="M222 1051v44h62q69 0 110 36.5t41 92.5q0 53 -39.5 87t-105.5 34q-65 0 -103.5 -31.5t-40.5 -71.5h-50q1 58 53.5 103t141.5 45q90 0 144 -46.5t54 -113.5q0 -61 -42 -103.5t-92 -49.5v-3q62 -5 109.5 -45t47.5 -111q0 -80 -62 -131t-161 -51q-92 0 -148 44t-58 109h50
q2 -46 46.5 -77.5t113.5 -31.5q75 0 121 38t46 98q0 61 -47.5 98t-121.5 37h-69z" />
    <glyph glyph-name="acute" unicode="&#xb4;" horiz-adv-x="760" 
d="M304 1206h-55l246 301h65z" />
    <glyph glyph-name="mu" unicode="&#xb5;" horiz-adv-x="1149" 
d="M175 -326v1356h56v-693q0 -137 77 -219.5t212 -82.5q155 0 249.5 107.5t94.5 277.5v610h56v-818q0 -93 25 -130.5t87 -37.5q24 0 62 4v-52q-35 -5 -64 -5q-85 0 -125.5 48.5t-40.5 161.5v15h-4q-30 -104 -120.5 -169t-221.5 -65q-198 0 -283 151h-4v-459h-56z" />
    <glyph glyph-name="paragraph" unicode="&#xb6;" horiz-adv-x="1141" 
d="M689 -210h-57v747h-20q-49 0 -103.5 12t-114.5 42.5t-107 75.5t-78 118.5t-31 163.5q0 98 31 174.5t77.5 121t108 73t114 38t104.5 9.5h76v-1575zM867 -210v1575h57v-1575h-57z" />
    <glyph glyph-name="periodcentered" unicode="&#xb7;" horiz-adv-x="415" 
d="M140 544q0 28 19.5 48t47.5 20t48 -20t20 -48t-20 -47.5t-48 -19.5t-47.5 19.5t-19.5 47.5z" />
    <glyph glyph-name="cedilla" unicode="&#xb8;" horiz-adv-x="760" 
d="M293 -186v39l66 147h52l-60 -139q84 0 144 -37t60 -115q0 -81 -68 -123.5t-158 -42.5q-70 0 -116 16v50q46 -16 122 -16q65 0 113 28.5t48 83.5q0 109 -153 109h-50z" />
    <glyph glyph-name="onesuperior" unicode="&#xb9;" horiz-adv-x="498" 
d="M333 746h-53v555h-3l-166 -108v52l169 113h53v-612z" />
    <glyph glyph-name="ordmasculine" unicode="&#xba;" horiz-adv-x="588" 
d="M294 1282q-75 0 -121.5 -51t-46.5 -141v-70q0 -90 46 -140t122 -50q75 0 121 50t46 140v70q0 89 -46.5 140.5t-120.5 51.5zM294 1330q96 0 158.5 -62t62.5 -171v-84q0 -110 -62 -171t-159 -61q-98 0 -160 61t-62 171v84q0 109 62.5 171t159.5 62z" />
    <glyph glyph-name="guillemotright" unicode="&#xbb;" horiz-adv-x="1152" 
d="M999 565v-8l-365 -402h-81l368 405v6l-368 403h72zM614 565v-8l-365 -402h-81l368 405v6l-368 403h72z" />
    <glyph glyph-name="onequarter" unicode="&#xbc;" horiz-adv-x="1445" 
d="M879 193h277v406h-3q-34 -47 -141 -204t-133 -198v-4zM1126 644h81v-451h97v-45h-97v-148h-51v148h-334v46q19 32 79 121t142 208t83 121zM302 746h-53v555h-3l-166 -108v52l169 113h53v-612zM208 0h-63l512 679l512 679h63l-512 -679z" />
    <glyph glyph-name="onehalf" unicode="&#xbd;" horiz-adv-x="1445" 
d="M272 746h-53v555h-3l-166 -108v52l169 113h53v-612zM178 0h-63l512 679l512 679h63l-512 -679zM969 464h-53v2q0 73 51 125.5t147 52.5q92 0 146 -49.5t54 -123.5q0 -47 -24.5 -89.5t-80.5 -101.5l-219 -231v-4h336v-45h-412v36l262 278q40 42 61.5 77.5t21.5 78.5
q0 55 -39.5 91.5t-107.5 36.5q-69 0 -106 -38.5t-37 -93.5v-2z" />
    <glyph glyph-name="threequarters" unicode="&#xbe;" horiz-adv-x="1445" 
d="M974 193h277v406h-3q-34 -47 -141 -204t-133 -198v-4zM1221 644h81v-451h97v-45h-97v-148h-51v148h-334v46q19 32 79 121t142 208t83 121zM179 1051v44h62q69 0 110 36.5t41 92.5q0 53 -39.5 87t-105.5 34q-65 0 -103.5 -31.5t-40.5 -71.5h-50q1 58 53.5 103t141.5 45
q90 0 144 -46.5t54 -113.5q0 -61 -42 -103.5t-92 -49.5v-3q62 -5 109.5 -45t47.5 -111q0 -80 -62 -131t-161 -51q-92 0 -148 44t-58 109h50q2 -46 46.5 -77.5t113.5 -31.5q75 0 121 38t46 98q0 61 -47.5 98t-121.5 37h-69zM269 0h-63l512 679l512 679h63l-512 -679z" />
    <glyph glyph-name="questiondown" unicode="&#xbf;" horiz-adv-x="859" 
d="M799 -51q-4 -60 -27 -114t-66 -100t-116.5 -73.5t-168.5 -27.5q-157 0 -259 84t-102 227q0 103 51.5 179t156.5 154q97 73 127 132.5t30 134.5v97h57v-102q0 -90 -37 -156t-147 -149q-95 -72 -137 -137t-42 -152q0 -123 88.5 -191.5t219.5 -68.5q69 0 125 19t89.5 47
t57.5 65.5t34 69t13 62.5h53zM518 971q0 -28 -19.5 -48t-47.5 -20t-48 20t-20 48t20 47.5t48 19.5t47.5 -19.5t19.5 -47.5z" />
    <glyph glyph-name="Agrave" unicode="&#xc0;" horiz-adv-x="1177" 
d="M130 0h-60l487 1358h63l487 -1358h-61l-166 470h-584zM591 1289h-5l-273 -769h549zM627 1512h-55l-256 301h66z" />
    <glyph glyph-name="Aacute" unicode="&#xc1;" horiz-adv-x="1177" 
d="M130 0h-60l487 1358h63l487 -1358h-61l-166 470h-584zM591 1289h-5l-273 -769h549zM606 1512h-55l246 301h65z" />
    <glyph glyph-name="Acircumflex" unicode="&#xc2;" horiz-adv-x="1177" 
d="M130 0h-60l487 1358h63l487 -1358h-61l-166 470h-584zM591 1289h-5l-273 -769h549zM296 1512l275 205h28l275 -205h-79l-208 156h-4l-208 -156h-79z" />
    <glyph glyph-name="Atilde" unicode="&#xc3;" horiz-adv-x="1177" 
d="M130 0h-60l487 1358h63l487 -1358h-61l-166 470h-584zM591 1289h-5l-273 -769h549zM707 1517q-46 0 -84 17t-59.5 38t-52 38t-64.5 17q-44 0 -72 -28.5t-28 -86.5h-48q0 78 41 118t107 40q36 0 66 -11.5t51 -27.5t41 -32t46 -27.5t57 -11.5q51 0 75.5 26.5t24.5 88.5h48
q0 -77 -38 -117.5t-111 -40.5z" />
    <glyph glyph-name="Adieresis" unicode="&#xc4;" horiz-adv-x="1177" 
d="M130 0h-60l487 1358h63l487 -1358h-61l-166 470h-584zM591 1289h-5l-273 -769h549zM444 1515q-23 0 -39.5 16.5t-16.5 39.5t16.5 39.5t39.5 16.5t39.5 -16.5t16.5 -39.5t-16.5 -39.5t-39.5 -16.5zM730 1515q-23 0 -39.5 16.5t-16.5 39.5t16.5 39.5t39.5 16.5t39.5 -16.5
t16.5 -39.5t-16.5 -39.5t-39.5 -16.5z" />
    <glyph glyph-name="Aring" unicode="&#xc5;" horiz-adv-x="1177" 
d="M130 0h-60l487 1358h63l487 -1358h-61l-166 470h-584zM591 1289h-5l-273 -769h549zM589 1513q-71 0 -120 49t-49 120q0 70 49 118t120 48q70 0 120 -48.5t50 -117.5q0 -70 -50.5 -119.5t-119.5 -49.5zM467 1680q0 -49 36.5 -85.5t85.5 -36.5q51 0 87 36t36 86
q0 51 -36 87t-87 36q-49 0 -85.5 -36t-36.5 -87z" />
    <glyph glyph-name="AE" unicode="&#xc6;" horiz-adv-x="1816" 
d="M881 1305l-463 -755h529v755h-66zM947 500h-559l-307 -500h-60l827 1358h864v-53h-708v-582h674v-53h-674v-617h708v-53h-765v500z" />
    <glyph glyph-name="Ccedilla" unicode="&#xc7;" horiz-adv-x="1245" 
d="M619 -467q-70 0 -116 16v50q46 -16 122 -16q65 0 113 28.5t48 83.5q0 109 -153 109h-50v39l56 125q-105 2 -190 34t-141.5 86t-94.5 128.5t-54.5 158.5t-16.5 180v247q0 95 18 180.5t57.5 160.5t97 129.5t142 86t188.5 31.5q110 0 201 -37t146.5 -96.5t85.5 -129
t30 -139.5v-4h-55q0 60 -27 121t-76.5 113.5t-129.5 86t-175 33.5q-113 0 -201 -43.5t-140 -118t-78.5 -166.5t-26.5 -196v-270q0 -83 15.5 -158t50.5 -142.5t86.5 -116.5t128 -78t171.5 -29q184 0 299 102.5t115 251.5h55v-4q0 -102 -50.5 -189.5t-149.5 -145.5t-228 -66
l-51 -118q84 0 144 -37t60 -115q0 -81 -68 -123.5t-158 -42.5z" />
    <glyph glyph-name="Egrave" unicode="&#xc8;" horiz-adv-x="1093" 
d="M963 53v-53h-765v1358h765v-53h-708v-582h674v-53h-674v-617h708zM616 1512h-55l-256 301h66z" />
    <glyph glyph-name="Eacute" unicode="&#xc9;" horiz-adv-x="1093" 
d="M963 53v-53h-765v1358h765v-53h-708v-582h674v-53h-674v-617h708zM595 1512h-55l246 301h65z" />
    <glyph glyph-name="Ecircumflex" unicode="&#xca;" horiz-adv-x="1093" 
d="M963 53v-53h-765v1358h765v-53h-708v-582h674v-53h-674v-617h708zM289 1512l275 205h28l275 -205h-79l-208 156h-4l-208 -156h-79z" />
    <glyph glyph-name="Edieresis" unicode="&#xcb;" horiz-adv-x="1093" 
d="M963 53v-53h-765v1358h765v-53h-708v-582h674v-53h-674v-617h708zM435 1515q-23 0 -39.5 16.5t-16.5 39.5t16.5 39.5t39.5 16.5t39.5 -16.5t16.5 -39.5t-16.5 -39.5t-39.5 -16.5zM721 1515q-23 0 -39.5 16.5t-16.5 39.5t16.5 39.5t39.5 16.5t39.5 -16.5t16.5 -39.5
t-16.5 -39.5t-39.5 -16.5z" />
    <glyph glyph-name="Igrave" unicode="&#xcc;" horiz-adv-x="493" 
d="M275 0h-57v1358h57v-1358zM285 1512h-55l-256 301h66z" />
    <glyph glyph-name="Iacute" unicode="&#xcd;" horiz-adv-x="493" 
d="M275 0h-57v1358h57v-1358zM264 1512h-55l246 301h65z" />
    <glyph glyph-name="Icircumflex" unicode="&#xce;" horiz-adv-x="505" 
d="M281 0h-57v1358h57v-1358zM-40 1512l275 205h28l275 -205h-79l-208 156h-4l-208 -156h-79z" />
    <glyph glyph-name="Idieresis" unicode="&#xcf;" horiz-adv-x="494" 
d="M276 0h-57v1358h57v-1358zM103 1515q-23 0 -39.5 16.5t-16.5 39.5t16.5 39.5t39.5 16.5t39.5 -16.5t16.5 -39.5t-16.5 -39.5t-39.5 -16.5zM389 1515q-23 0 -39.5 16.5t-16.5 39.5t16.5 39.5t39.5 16.5t39.5 -16.5t16.5 -39.5t-16.5 -39.5t-39.5 -16.5z" />
    <glyph glyph-name="Eth" unicode="&#xd0;" horiz-adv-x="1350" 
d="M596 0h-345v670h-159v53h159v635h345q159 0 277.5 -48t191 -138t108 -213t35.5 -279q0 -158 -34.5 -280.5t-106 -213t-190.5 -138.5t-281 -48zM308 53h290q144 0 250.5 44t172.5 127.5t98 197t32 258.5q0 143 -32.5 256.5t-98.5 196.5t-173 127.5t-249 44.5h-290v-582
h374v-53h-374v-617z" />
    <glyph glyph-name="Ntilde" unicode="&#xd1;" horiz-adv-x="1326" 
d="M255 0h-57v1358h60l809 -1256h4v1256h57v-1358h-60l-809 1256h-4v-1256zM781 1517q-46 0 -84 17t-59.5 38t-52 38t-64.5 17q-44 0 -72 -28.5t-28 -86.5h-48q0 78 41 118t107 40q36 0 66 -11.5t51 -27.5t41 -32t46 -27.5t57 -11.5q51 0 75.5 26.5t24.5 88.5h48
q0 -77 -38 -117.5t-111 -40.5z" />
    <glyph glyph-name="Ograve" unicode="&#xd2;" horiz-adv-x="1310" 
d="M198 815v-272q0 -234 122 -378.5t335 -144.5t335 144.5t122 378.5v272q0 233 -122.5 378t-334.5 145t-334.5 -145t-122.5 -378zM142 551v256q0 267 135 425t378 158t378 -159t135 -426v-254q0 -267 -135 -425t-378 -158t-378 158t-135 425zM693 1512h-55l-256 301h66z
" />
    <glyph glyph-name="Oacute" unicode="&#xd3;" horiz-adv-x="1310" 
d="M198 815v-272q0 -234 122 -378.5t335 -144.5t335 144.5t122 378.5v272q0 233 -122.5 378t-334.5 145t-334.5 -145t-122.5 -378zM142 551v256q0 267 135 425t378 158t378 -159t135 -426v-254q0 -267 -135 -425t-378 -158t-378 158t-135 425zM672 1512h-55l246 301h65z" />
    <glyph glyph-name="Ocircumflex" unicode="&#xd4;" horiz-adv-x="1310" 
d="M198 815v-272q0 -234 122 -378.5t335 -144.5t335 144.5t122 378.5v272q0 233 -122.5 378t-334.5 145t-334.5 -145t-122.5 -378zM142 551v256q0 267 135 425t378 158t378 -159t135 -426v-254q0 -267 -135 -425t-378 -158t-378 158t-135 425zM363 1512l275 205h28l275 -205
h-79l-208 156h-4l-208 -156h-79z" />
    <glyph glyph-name="Otilde" unicode="&#xd5;" horiz-adv-x="1310" 
d="M198 815v-272q0 -234 122 -378.5t335 -144.5t335 144.5t122 378.5v272q0 233 -122.5 378t-334.5 145t-334.5 -145t-122.5 -378zM142 551v256q0 267 135 425t378 158t378 -159t135 -426v-254q0 -267 -135 -425t-378 -158t-378 158t-135 425zM773 1517q-46 0 -84 17
t-59.5 38t-52 38t-64.5 17q-44 0 -72 -28.5t-28 -86.5h-48q0 78 41 118t107 40q36 0 66 -11.5t51 -27.5t41 -32t46 -27.5t57 -11.5q51 0 75.5 26.5t24.5 88.5h48q0 -77 -38 -117.5t-111 -40.5z" />
    <glyph glyph-name="Odieresis" unicode="&#xd6;" horiz-adv-x="1310" 
d="M198 815v-272q0 -234 122 -378.5t335 -144.5t335 144.5t122 378.5v272q0 233 -122.5 378t-334.5 145t-334.5 -145t-122.5 -378zM142 551v256q0 267 135 425t378 158t378 -159t135 -426v-254q0 -267 -135 -425t-378 -158t-378 158t-135 425zM511 1515q-23 0 -39.5 16.5
t-16.5 39.5t16.5 39.5t39.5 16.5t39.5 -16.5t16.5 -39.5t-16.5 -39.5t-39.5 -16.5zM797 1515q-23 0 -39.5 16.5t-16.5 39.5t16.5 39.5t39.5 16.5t39.5 -16.5t16.5 -39.5t-16.5 -39.5t-39.5 -16.5z" />
    <glyph glyph-name="multiply" unicode="&#xd7;" horiz-adv-x="1040" 
d="M849 178l-328 329l-329 -329l-38 37l329 329l-329 330l37 37l330 -329l329 329l37 -37l-329 -330l329 -329z" />
    <glyph glyph-name="Oslash" unicode="&#xd8;" horiz-adv-x="1310" 
d="M655 -32q-279 0 -415 207l-116 -135l-35 29l127 147q-74 139 -74 336v254q0 267 134.5 425.5t378.5 158.5q269 0 406 -194l125 144l37 -25l-137 -159q82 -143 82 -350v-254q0 -267 -134.5 -425.5t-378.5 -158.5zM198 543q0 -159 58 -280l766 887q-60 90 -153 139t-214 49
q-212 0 -334.5 -145t-122.5 -378v-272zM655 20q214 0 335.5 144.5t121.5 378.5v272q0 169 -66 295l-767 -890q59 -95 154.5 -147.5t221.5 -52.5z" />
    <glyph glyph-name="Ugrave" unicode="&#xd9;" horiz-adv-x="1327" 
d="M242 1358v-891q0 -205 109.5 -324.5t311.5 -119.5q204 0 312.5 118.5t108.5 325.5v891h58v-891q0 -230 -126 -364.5t-353 -134.5t-352.5 134.5t-125.5 364.5v891h57zM702 1512h-55l-256 301h66z" />
    <glyph glyph-name="Uacute" unicode="&#xda;" horiz-adv-x="1327" 
d="M242 1358v-891q0 -205 109.5 -324.5t311.5 -119.5q204 0 312.5 118.5t108.5 325.5v891h58v-891q0 -230 -126 -364.5t-353 -134.5t-352.5 134.5t-125.5 364.5v891h57zM681 1512h-55l246 301h65z" />
    <glyph glyph-name="Ucircumflex" unicode="&#xdb;" horiz-adv-x="1327" 
d="M242 1358v-891q0 -205 109.5 -324.5t311.5 -119.5q204 0 312.5 118.5t108.5 325.5v891h58v-891q0 -230 -126 -364.5t-353 -134.5t-352.5 134.5t-125.5 364.5v891h57zM371 1512l275 205h28l275 -205h-79l-208 156h-4l-208 -156h-79z" />
    <glyph glyph-name="Udieresis" unicode="&#xdc;" horiz-adv-x="1327" 
d="M242 1358v-891q0 -205 109.5 -324.5t311.5 -119.5q204 0 312.5 118.5t108.5 325.5v891h58v-891q0 -230 -126 -364.5t-353 -134.5t-352.5 134.5t-125.5 364.5v891h57zM519 1515q-23 0 -39.5 16.5t-16.5 39.5t16.5 39.5t39.5 16.5t39.5 -16.5t16.5 -39.5t-16.5 -39.5
t-39.5 -16.5zM805 1515q-23 0 -39.5 16.5t-16.5 39.5t16.5 39.5t39.5 16.5t39.5 -16.5t16.5 -39.5t-16.5 -39.5t-39.5 -16.5z" />
    <glyph glyph-name="Yacute" unicode="&#xdd;" horiz-adv-x="1104" 
d="M581 0h-56v610l-475 748h68l432 -686h6l433 686h65l-473 -746v-612zM544 1512h-55l246 301h65z" />
    <glyph glyph-name="Thorn" unicode="&#xde;" horiz-adv-x="1129" 
d="M198 1358h57v-263h345q193 0 307 -93.5t114 -270.5q0 -176 -114 -269.5t-307 -93.5h-345v-368h-57v1358zM255 1042v-622h343q177 0 271 77t94 234q0 311 -365 311h-343z" />
    <glyph glyph-name="germandbls" unicode="&#xdf;" horiz-adv-x="1129" 
d="M246 0h-56v1077q0 163 91.5 253.5t270.5 90.5q175 0 271 -89.5t96 -237.5q0 -124 -77.5 -221t-174.5 -119v-3q51 -2 102.5 -16.5t100.5 -45t87 -72t61 -102t23 -130.5q0 -97 -40.5 -176t-105.5 -127.5t-140.5 -74t-152.5 -25.5q-100 0 -179 15v58q69 -18 184 -18
q69 0 134.5 23t118.5 65.5t85.5 109t32.5 146.5q0 151 -118 243.5t-318 92.5h-99v59h98q132 0 224.5 95t92.5 213q0 73 -24.5 128.5t-67.5 88.5t-96.5 49t-116.5 16q-150 0 -228.5 -76t-78.5 -213v-1077z" />
    <glyph glyph-name="agrave" unicode="&#xe0;" horiz-adv-x="1003" 
d="M778 178q-8 -26 -31 -56.5t-62 -63.5t-103 -54.5t-139 -21.5q-152 0 -244.5 82t-92.5 223q0 130 89.5 207t257.5 77h329v159q0 133 -78 199t-212 66q-127 0 -195 -54.5t-88 -158.5h-56q16 122 102 194t241 72q158 0 250 -79t92 -224v-745h-56v178h-4zM444 35
q140 0 239 87t99 225v171h-329q-143 0 -214.5 -62t-71.5 -168q0 -115 76.5 -184t200.5 -69zM535 1206h-55l-256 301h66z" />
    <glyph glyph-name="aacute" unicode="&#xe1;" horiz-adv-x="1003" 
d="M778 178q-8 -26 -31 -56.5t-62 -63.5t-103 -54.5t-139 -21.5q-152 0 -244.5 82t-92.5 223q0 130 89.5 207t257.5 77h329v159q0 133 -78 199t-212 66q-127 0 -195 -54.5t-88 -158.5h-56q16 122 102 194t241 72q158 0 250 -79t92 -224v-745h-56v178h-4zM444 35
q140 0 239 87t99 225v171h-329q-143 0 -214.5 -62t-71.5 -168q0 -115 76.5 -184t200.5 -69zM524 1206h-55l246 301h65z" />
    <glyph glyph-name="acircumflex" unicode="&#xe2;" horiz-adv-x="1003" 
d="M778 178q-8 -26 -31 -56.5t-62 -63.5t-103 -54.5t-139 -21.5q-152 0 -244.5 82t-92.5 223q0 130 89.5 207t257.5 77h329v159q0 133 -78 199t-212 66q-127 0 -195 -54.5t-88 -158.5h-56q16 122 102 194t241 72q158 0 250 -79t92 -224v-745h-56v178h-4zM444 35
q140 0 239 87t99 225v171h-329q-143 0 -214.5 -62t-71.5 -168q0 -115 76.5 -184t200.5 -69zM237 1206l240 335h50l240 -335h-55l-208 292h-4l-208 -292h-55z" />
    <glyph glyph-name="atilde" unicode="&#xe3;" horiz-adv-x="1003" 
d="M778 178q-8 -26 -31 -56.5t-62 -63.5t-103 -54.5t-139 -21.5q-152 0 -244.5 82t-92.5 223q0 130 89.5 207t257.5 77h329v159q0 133 -78 199t-212 66q-127 0 -195 -54.5t-88 -158.5h-56q16 122 102 194t241 72q158 0 250 -79t92 -224v-745h-56v178h-4zM444 35
q140 0 239 87t99 225v171h-329q-143 0 -214.5 -62t-71.5 -168q0 -115 76.5 -184t200.5 -69zM638 1201q-34 0 -63.5 12.5t-48.5 31t-39.5 40t-36.5 40t-38.5 31t-47.5 12.5q-46 0 -78 -38.5t-32 -112.5h-48q0 95 44 145.5t114 50.5q39 0 71 -17t53.5 -41.5t42 -49.5t47.5 -42
t60 -17q52 0 81 41.5t29 116.5h48q0 -92 -41.5 -147.5t-116.5 -55.5z" />
    <glyph glyph-name="adieresis" unicode="&#xe4;" horiz-adv-x="1003" 
d="M778 178q-8 -26 -31 -56.5t-62 -63.5t-103 -54.5t-139 -21.5q-152 0 -244.5 82t-92.5 223q0 130 89.5 207t257.5 77h329v159q0 133 -78 199t-212 66q-127 0 -195 -54.5t-88 -158.5h-56q16 122 102 194t241 72q158 0 250 -79t92 -224v-745h-56v178h-4zM444 35
q140 0 239 87t99 225v171h-329q-143 0 -214.5 -62t-71.5 -168q0 -115 76.5 -184t200.5 -69zM360 1246q-23 0 -39.5 16.5t-16.5 39.5t16.5 39.5t39.5 16.5t39.5 -16.5t16.5 -39.5t-16.5 -39.5t-39.5 -16.5zM646 1246q-23 0 -39.5 16.5t-16.5 39.5t16.5 39.5t39.5 16.5
t39.5 -16.5t16.5 -39.5t-16.5 -39.5t-39.5 -16.5z" />
    <glyph glyph-name="aring" unicode="&#xe5;" horiz-adv-x="1003" 
d="M778 178q-8 -26 -31 -56.5t-62 -63.5t-103 -54.5t-139 -21.5q-152 0 -244.5 82t-92.5 223q0 130 89.5 207t257.5 77h329v159q0 133 -78 199t-212 66q-127 0 -195 -54.5t-88 -158.5h-56q16 122 102 194t241 72q158 0 250 -79t92 -224v-745h-56v178h-4zM444 35
q140 0 239 87t99 225v171h-329q-143 0 -214.5 -62t-71.5 -168q0 -115 76.5 -184t200.5 -69zM502 1205q-71 0 -120 49t-49 120q0 70 49 118t120 48q70 0 120 -48.5t50 -117.5q0 -70 -50.5 -119.5t-119.5 -49.5zM380 1372q0 -49 36.5 -85.5t85.5 -36.5q51 0 87 36t36 86
q0 51 -36 87t-87 36q-49 0 -85.5 -36t-36.5 -87z" />
    <glyph glyph-name="ae" unicode="&#xe6;" horiz-adv-x="1698" 
d="M1188 -18q-148 0 -245 74t-125 206h-4q-24 -121 -122 -200.5t-249 -79.5q-152 0 -244.5 82t-92.5 223q0 130 89.5 206.5t257.5 75.5h329v141q0 135 -79.5 210t-210.5 75q-127 0 -195 -54.5t-88 -158.5h-56q16 122 102 194t241 72q128 0 215 -60.5t115 -167.5h4
q42 112 135 170t214 58q181 0 286.5 -125t105.5 -363v-42h-733v-61q0 -203 94 -312.5t257 -109.5q74 0 134 20.5t96 54t57 70.5t25 75h56q-4 -45 -28 -90.5t-66.5 -87.5t-114 -68.5t-160.5 -26.5zM838 569h677v4q0 200 -90.5 311t-245.5 111q-156 0 -248.5 -111.5
t-92.5 -310.5v-4zM444 35q140 0 239 87t99 225v171h-329q-143 0 -214.5 -62t-71.5 -168q0 -115 76.5 -184t200.5 -69z" />
    <glyph glyph-name="ccedilla" unicode="&#xe7;" horiz-adv-x="1031" 
d="M493 -457q-70 0 -116 16v50q46 -16 122 -16q65 0 113 28.5t48 83.5q0 109 -153 109h-50v39l58 129q-180 5 -285 121.5t-105 332.5v166q0 212 111.5 329t288.5 117q89 0 162 -28t118.5 -74.5t71.5 -101t29 -111.5h-54q-15 108 -100.5 185t-226.5 77q-154 0 -249 -106.5
t-95 -300.5v-142q0 -200 94 -305.5t259 -105.5q76 0 136 21.5t96.5 58t57.5 77.5t29 87h53q-5 -50 -26 -97.5t-59.5 -91t-104 -72.5t-148.5 -35l-53 -122q84 0 144 -37t60 -115q0 -81 -68 -123.5t-158 -42.5z" />
    <glyph glyph-name="egrave" unicode="&#xe8;" horiz-adv-x="1040" 
d="M531 -18q-191 0 -298.5 123t-107.5 348v107q0 238 107 363t288 125t288 -125t107 -363v-42h-734v-61q0 -203 94 -312.5t257 -109.5q74 0 134 21t96.5 54t57 70.5t24.5 74.5h56q-4 -45 -27.5 -90.5t-66 -87.5t-114.5 -68.5t-161 -26.5zM181 569h678v4q0 200 -92 311
t-247 111t-247 -111t-92 -311v-4zM552 1206h-55l-256 301h66z" />
    <glyph glyph-name="eacute" unicode="&#xe9;" horiz-adv-x="1040" 
d="M531 -18q-191 0 -298.5 123t-107.5 348v107q0 238 107 363t288 125t288 -125t107 -363v-42h-734v-61q0 -203 94 -312.5t257 -109.5q74 0 134 21t96.5 54t57 70.5t24.5 74.5h56q-4 -45 -27.5 -90.5t-66 -87.5t-114.5 -68.5t-161 -26.5zM181 569h678v4q0 200 -92 311
t-247 111t-247 -111t-92 -311v-4zM541 1206h-55l246 301h65z" />
    <glyph glyph-name="ecircumflex" unicode="&#xea;" horiz-adv-x="1040" 
d="M531 -18q-191 0 -298.5 123t-107.5 348v107q0 238 107 363t288 125t288 -125t107 -363v-42h-734v-61q0 -203 94 -312.5t257 -109.5q74 0 134 21t96.5 54t57 70.5t24.5 74.5h56q-4 -45 -27.5 -90.5t-66 -87.5t-114.5 -68.5t-161 -26.5zM181 569h678v4q0 200 -92 311
t-247 111t-247 -111t-92 -311v-4zM254 1206l240 335h50l240 -335h-55l-208 292h-4l-208 -292h-55z" />
    <glyph glyph-name="edieresis" unicode="&#xeb;" horiz-adv-x="1040" 
d="M531 -18q-191 0 -298.5 123t-107.5 348v107q0 238 107 363t288 125t288 -125t107 -363v-42h-734v-61q0 -203 94 -312.5t257 -109.5q74 0 134 21t96.5 54t57 70.5t24.5 74.5h56q-4 -45 -27.5 -90.5t-66 -87.5t-114.5 -68.5t-161 -26.5zM181 569h678v4q0 200 -92 311
t-247 111t-247 -111t-92 -311v-4zM377 1246q-23 0 -39.5 16.5t-16.5 39.5t16.5 39.5t39.5 16.5t39.5 -16.5t16.5 -39.5t-16.5 -39.5t-39.5 -16.5zM663 1246q-23 0 -39.5 16.5t-16.5 39.5t16.5 39.5t39.5 16.5t39.5 -16.5t16.5 -39.5t-16.5 -39.5t-39.5 -16.5z" />
    <glyph glyph-name="igrave" unicode="&#xec;" horiz-adv-x="416" 
d="M180 0v1030h56v-1030h-56zM242 1206h-55l-256 301h66z" />
    <glyph glyph-name="iacute" unicode="&#xed;" horiz-adv-x="416" 
d="M180 0v1030h56v-1030h-56zM231 1206h-55l246 301h65z" />
    <glyph glyph-name="icircumflex" unicode="&#xee;" horiz-adv-x="416" 
d="M180 0v1030h56v-1030h-56zM-56 1206l240 335h50l240 -335h-55l-208 292h-4l-208 -292h-55z" />
    <glyph glyph-name="idieresis" unicode="&#xef;" horiz-adv-x="416" 
d="M180 0v1030h56v-1030h-56zM67 1246q-23 0 -39.5 16.5t-16.5 39.5t16.5 39.5t39.5 16.5t39.5 -16.5t16.5 -39.5t-16.5 -39.5t-39.5 -16.5zM353 1246q-23 0 -39.5 16.5t-16.5 39.5t16.5 39.5t39.5 16.5t39.5 -16.5t16.5 -39.5t-16.5 -39.5t-39.5 -16.5z" />
    <glyph glyph-name="eth" unicode="&#xf0;" horiz-adv-x="1080" 
d="M539 -18q-87 0 -162 29t-131.5 84t-88.5 141t-32 195v113q0 217 116 335.5t298 118.5q127 0 220.5 -60t135.5 -148h4l-5 49q-28 275 -167 433l-285 -103l-12 45l264 96q-42 46 -131.5 106.5t-163.5 88.5h107q139 -68 242 -176l237 86l11 -44l-216 -78q175 -224 175 -619
v-243q0 -109 -32.5 -195.5t-89.5 -141.5t-132 -83.5t-162 -28.5zM539 945q-158 0 -258 -106.5t-100 -303.5v-95q0 -196 99.5 -300.5t259.5 -104.5q158 0 258 104t100 301v176q0 136 -105 232.5t-254 96.5z" />
    <glyph glyph-name="ntilde" unicode="&#xf1;" horiz-adv-x="1095" 
d="M175 0v1030h56v-210h4q27 93 115 160.5t227 67.5q157 0 255 -97.5t98 -271.5v-679h-56v673q0 140 -79.5 231t-219.5 91q-109 0 -189 -54t-117.5 -136t-37.5 -178v-627h-56zM684 1201q-34 0 -63.5 12.5t-48.5 31t-39.5 40t-36.5 40t-38.5 31t-47.5 12.5q-46 0 -78 -38.5
t-32 -112.5h-48q0 95 44 145.5t114 50.5q39 0 71 -17t53.5 -41.5t42 -49.5t47.5 -42t60 -17q52 0 81 41.5t29 116.5h48q0 -92 -41.5 -147.5t-116.5 -55.5z" />
    <glyph glyph-name="ograve" unicode="&#xf2;" horiz-adv-x="1080" 
d="M539 1048q178 0 297 -120.5t119 -333.5v-163q0 -109 -32.5 -195.5t-89.5 -141.5t-132 -83.5t-162 -28.5t-162 29t-131.5 84t-88.5 141t-32 195v163q0 217 116 335.5t298 118.5zM539 995q-158 0 -258 -106.5t-100 -303.5v-145q0 -196 99.5 -300.5t259.5 -104.5
q158 0 258 104t100 301v145q0 195 -101 302.5t-258 107.5zM572 1206h-55l-256 301h66z" />
    <glyph glyph-name="oacute" unicode="&#xf3;" horiz-adv-x="1080" 
d="M539 1048q178 0 297 -120.5t119 -333.5v-163q0 -109 -32.5 -195.5t-89.5 -141.5t-132 -83.5t-162 -28.5t-162 29t-131.5 84t-88.5 141t-32 195v163q0 217 116 335.5t298 118.5zM539 995q-158 0 -258 -106.5t-100 -303.5v-145q0 -196 99.5 -300.5t259.5 -104.5
q158 0 258 104t100 301v145q0 195 -101 302.5t-258 107.5zM561 1206h-55l246 301h65z" />
    <glyph glyph-name="ocircumflex" unicode="&#xf4;" horiz-adv-x="1080" 
d="M539 1048q178 0 297 -120.5t119 -333.5v-163q0 -109 -32.5 -195.5t-89.5 -141.5t-132 -83.5t-162 -28.5t-162 29t-131.5 84t-88.5 141t-32 195v163q0 217 116 335.5t298 118.5zM539 995q-158 0 -258 -106.5t-100 -303.5v-145q0 -196 99.5 -300.5t259.5 -104.5
q158 0 258 104t100 301v145q0 195 -101 302.5t-258 107.5zM274 1206l240 335h50l240 -335h-55l-208 292h-4l-208 -292h-55z" />
    <glyph glyph-name="otilde" unicode="&#xf5;" horiz-adv-x="1080" 
d="M539 1048q178 0 297 -120.5t119 -333.5v-163q0 -109 -32.5 -195.5t-89.5 -141.5t-132 -83.5t-162 -28.5t-162 29t-131.5 84t-88.5 141t-32 195v163q0 217 116 335.5t298 118.5zM539 995q-158 0 -258 -106.5t-100 -303.5v-145q0 -196 99.5 -300.5t259.5 -104.5
q158 0 258 104t100 301v145q0 195 -101 302.5t-258 107.5zM675 1201q-34 0 -63.5 12.5t-48.5 31t-39.5 40t-36.5 40t-38.5 31t-47.5 12.5q-46 0 -78 -38.5t-32 -112.5h-48q0 95 44 145.5t114 50.5q39 0 71 -17t53.5 -41.5t42 -49.5t47.5 -42t60 -17q52 0 81 41.5t29 116.5
h48q0 -92 -41.5 -147.5t-116.5 -55.5z" />
    <glyph glyph-name="odieresis" unicode="&#xf6;" horiz-adv-x="1080" 
d="M539 1048q178 0 297 -120.5t119 -333.5v-163q0 -109 -32.5 -195.5t-89.5 -141.5t-132 -83.5t-162 -28.5t-162 29t-131.5 84t-88.5 141t-32 195v163q0 217 116 335.5t298 118.5zM539 995q-158 0 -258 -106.5t-100 -303.5v-145q0 -196 99.5 -300.5t259.5 -104.5
q158 0 258 104t100 301v145q0 195 -101 302.5t-258 107.5zM397 1246q-23 0 -39.5 16.5t-16.5 39.5t16.5 39.5t39.5 16.5t39.5 -16.5t16.5 -39.5t-16.5 -39.5t-39.5 -16.5zM683 1246q-23 0 -39.5 16.5t-16.5 39.5t16.5 39.5t39.5 16.5t39.5 -16.5t16.5 -39.5t-16.5 -39.5
t-39.5 -16.5z" />
    <glyph glyph-name="divide" unicode="&#xf7;" horiz-adv-x="1040" 
d="M958 512h-876v57h876v-57zM453 183q0 28 19.5 48t47.5 20t48 -20t20 -48t-20 -47.5t-48 -19.5t-47.5 19.5t-19.5 47.5zM453 896q0 28 19.5 48t47.5 20t48 -20t20 -48t-20 -47.5t-48 -19.5t-47.5 19.5t-19.5 47.5z" />
    <glyph glyph-name="oslash" unicode="&#xf8;" horiz-adv-x="1080" 
d="M262 162q97 -127 278 -127q158 0 258 104t100 301v145q0 132 -49 228zM181 440q0 -141 55 -238l588 652q-99 141 -285 141q-158 0 -258 -106.5t-100 -303.5v-145zM539 -18q-202 0 -316 138l-108 -120l-34 30l115 127q-71 112 -71 274v163q0 217 116 335.5t298 118.5
q99 0 183 -39t141 -113l134 146l34 -30l-142 -154q66 -110 66 -264v-163q0 -109 -32.5 -195.5t-89.5 -141.5t-132 -83.5t-162 -28.5z" />
    <glyph glyph-name="ugrave" unicode="&#xf9;" horiz-adv-x="1095" 
d="M920 1030v-1030h-56v211h-4q-14 -41 -40.5 -79t-67.5 -73t-103 -56t-136 -21q-153 0 -250.5 89.5t-97.5 259.5v699h56v-693q0 -136 79.5 -219t214.5 -83q83 0 151 33t110.5 88.5t65 123t22.5 140.5v610h56zM581 1206h-55l-256 301h66z" />
    <glyph glyph-name="uacute" unicode="&#xfa;" horiz-adv-x="1095" 
d="M920 1030v-1030h-56v211h-4q-14 -41 -40.5 -79t-67.5 -73t-103 -56t-136 -21q-153 0 -250.5 89.5t-97.5 259.5v699h56v-693q0 -136 79.5 -219t214.5 -83q83 0 151 33t110.5 88.5t65 123t22.5 140.5v610h56zM570 1206h-55l246 301h65z" />
    <glyph glyph-name="ucircumflex" unicode="&#xfb;" horiz-adv-x="1095" 
d="M920 1030v-1030h-56v211h-4q-14 -41 -40.5 -79t-67.5 -73t-103 -56t-136 -21q-153 0 -250.5 89.5t-97.5 259.5v699h56v-693q0 -136 79.5 -219t214.5 -83q83 0 151 33t110.5 88.5t65 123t22.5 140.5v610h56zM283 1206l240 335h50l240 -335h-55l-208 292h-4l-208 -292h-55z
" />
    <glyph glyph-name="udieresis" unicode="&#xfc;" horiz-adv-x="1095" 
d="M920 1030v-1030h-56v211h-4q-14 -41 -40.5 -79t-67.5 -73t-103 -56t-136 -21q-153 0 -250.5 89.5t-97.5 259.5v699h56v-693q0 -136 79.5 -219t214.5 -83q83 0 151 33t110.5 88.5t65 123t22.5 140.5v610h56zM406 1246q-23 0 -39.5 16.5t-16.5 39.5t16.5 39.5t39.5 16.5
t39.5 -16.5t16.5 -39.5t-16.5 -39.5t-39.5 -16.5zM692 1246q-23 0 -39.5 16.5t-16.5 39.5t16.5 39.5t39.5 16.5t39.5 -16.5t16.5 -39.5t-16.5 -39.5t-39.5 -16.5z" />
    <glyph glyph-name="yacute" unicode="&#xfd;" horiz-adv-x="912" 
d="M867 1030l-371 -1028l-49 -129q-41 -108 -96.5 -154t-154.5 -46q-50 0 -93 10v53q48 -10 92 -10q76 0 122 40t74 115l40 107l-386 1042h62l351 -972h4l345 972h60zM476 1206h-55l246 301h65z" />
    <glyph glyph-name="thorn" unicode="&#xfe;" horiz-adv-x="1090" 
d="M569 -18q-67 0 -124.5 19t-93.5 46.5t-63.5 61.5t-40 59t-17.5 45h-4v-538h-56v1760h56v-621h4q9 28 25.5 57.5t45.5 62t65.5 57.5t89 41t112.5 16q62 0 120 -16.5t109 -52t88.5 -86.5t59.5 -123.5t22 -159.5v-192q0 -198 -112 -317t-286 -119zM568 35q147 0 244.5 104.5
t97.5 287.5v172q0 99 -29 177t-77.5 124.5t-108.5 70.5t-127 24q-153 0 -247.5 -113t-94.5 -280v-177q0 -75 22.5 -144.5t64.5 -124.5t108.5 -88t146.5 -33z" />
    <glyph glyph-name="ydieresis" unicode="&#xff;" horiz-adv-x="912" 
d="M867 1030l-371 -1028l-49 -129q-41 -108 -96.5 -154t-154.5 -46q-50 0 -93 10v53q48 -10 92 -10q76 0 122 40t74 115l40 107l-386 1042h62l351 -972h4l345 972h60zM312 1246q-23 0 -39.5 16.5t-16.5 39.5t16.5 39.5t39.5 16.5t39.5 -16.5t16.5 -39.5t-16.5 -39.5
t-39.5 -16.5zM598 1246q-23 0 -39.5 16.5t-16.5 39.5t16.5 39.5t39.5 16.5t39.5 -16.5t16.5 -39.5t-16.5 -39.5t-39.5 -16.5z" />
    <glyph glyph-name="Amacron" unicode="&#x100;" horiz-adv-x="1177" 
d="M130 0h-60l487 1358h63l487 -1358h-61l-166 470h-584zM591 1289h-5l-273 -769h549zM857 1545h-538v44h538v-44z" />
    <glyph glyph-name="amacron" unicode="&#x101;" horiz-adv-x="1003" 
d="M778 178q-8 -26 -31 -56.5t-62 -63.5t-103 -54.5t-139 -21.5q-152 0 -244.5 82t-92.5 223q0 130 89.5 207t257.5 77h329v159q0 133 -78 199t-212 66q-127 0 -195 -54.5t-88 -158.5h-56q16 122 102 194t241 72q158 0 250 -79t92 -224v-745h-56v178h-4zM444 35
q140 0 239 87t99 225v171h-329q-143 0 -214.5 -62t-71.5 -168q0 -115 76.5 -184t200.5 -69zM781 1279h-558v44h558v-44z" />
    <glyph glyph-name="Abreve" unicode="&#x102;" horiz-adv-x="1177" 
d="M130 0h-60l487 1358h63l487 -1358h-61l-166 470h-584zM591 1289h-5l-273 -769h549zM326 1734h52q0 -82 56 -127.5t155 -45.5q98 0 150 45t52 128h52q0 -94 -65.5 -157.5t-188.5 -63.5q-124 0 -193.5 62.5t-69.5 158.5z" />
    <glyph glyph-name="abreve" unicode="&#x103;" horiz-adv-x="1003" 
d="M778 178q-8 -26 -31 -56.5t-62 -63.5t-103 -54.5t-139 -21.5q-152 0 -244.5 82t-92.5 223q0 130 89.5 207t257.5 77h329v159q0 133 -78 199t-212 66q-127 0 -195 -54.5t-88 -158.5h-56q16 122 102 194t241 72q158 0 250 -79t92 -224v-745h-56v178h-4zM444 35
q140 0 239 87t99 225v171h-329q-143 0 -214.5 -62t-71.5 -168q0 -115 76.5 -184t200.5 -69zM239 1437h52q0 -83 57 -134.5t154 -51.5t154 51.5t57 134.5h52q0 -95 -70.5 -164.5t-192.5 -69.5q-123 0 -193 68.5t-70 165.5z" />
    <glyph glyph-name="Aogonek" unicode="&#x104;" horiz-adv-x="1177" 
d="M130 0h-60l487 1358h63l487 -1358q-71 -37 -120.5 -92.5t-49.5 -117.5q0 -51 29.5 -81t76.5 -30q49 0 86 15v-43q-34 -21 -101 -21q-64 0 -105.5 40.5t-41.5 115.5q0 67 48 127t112 103l-161 454h-584zM591 1289h-5l-273 -769h549z" />
    <glyph glyph-name="aogonek" unicode="&#x105;" horiz-adv-x="1003" 
d="M800 -351q-71 0 -117.5 40t-46.5 115q0 70 38.5 121.5t107.5 103.5v149h-4q-8 -26 -31 -56.5t-62 -63.5t-103 -54.5t-139 -21.5q-152 0 -244.5 82t-92.5 223q0 130 89.5 207t257.5 77h329v159q0 133 -78 199t-212 66q-127 0 -195 -54.5t-88 -158.5h-56q16 122 102 194
t241 72q158 0 250 -79t92 -224v-736q-68 -43 -107 -90t-39 -108q0 -53 29.5 -82t83.5 -29q47 0 79 13v-48q-38 -16 -84 -16zM444 35q140 0 239 87t99 225v171h-329q-143 0 -214.5 -62t-71.5 -168q0 -115 76.5 -184t200.5 -69z" />
    <glyph glyph-name="Cacute" unicode="&#x106;" horiz-adv-x="1245" 
d="M199 814v-270q0 -83 15.5 -158t50.5 -142.5t86.5 -116.5t128 -78t171.5 -29q184 0 299 102.5t115 251.5h55v-4q0 -166 -129.5 -284t-339.5 -118q-108 0 -194.5 31t-144.5 85t-97 129.5t-56 160t-17 181.5v247q0 95 18 180.5t57.5 160.5t97 129.5t142 86t188.5 31.5
q110 0 201 -37t146.5 -96.5t85.5 -129t30 -139.5v-4h-55q0 60 -27 121t-76.5 113.5t-129.5 86t-175 33.5q-113 0 -201 -43.5t-140 -118t-78.5 -166.5t-26.5 -196zM662 1512h-55l246 301h65z" />
    <glyph glyph-name="cacute" unicode="&#x107;" horiz-adv-x="1031" 
d="M125 436v166q0 212 111.5 329t288.5 117q89 0 162 -28t118.5 -74.5t71.5 -101t29 -111.5h-54q-15 108 -100.5 185t-226.5 77q-154 0 -249 -106.5t-95 -300.5v-142q0 -200 94 -305.5t259 -105.5q76 0 136 21.5t96.5 58t57.5 77.5t29 87h53q-5 -53 -28.5 -103t-66 -95
t-115.5 -72t-167 -27q-186 0 -295 116.5t-109 337.5zM546 1206h-55l246 301h65z" />
    <glyph glyph-name="Ccircumflex" unicode="&#x108;" horiz-adv-x="1245" 
d="M199 814v-270q0 -83 15.5 -158t50.5 -142.5t86.5 -116.5t128 -78t171.5 -29q184 0 299 102.5t115 251.5h55v-4q0 -166 -129.5 -284t-339.5 -118q-108 0 -194.5 31t-144.5 85t-97 129.5t-56 160t-17 181.5v247q0 95 18 180.5t57.5 160.5t97 129.5t142 86t188.5 31.5
q110 0 201 -37t146.5 -96.5t85.5 -129t30 -139.5v-4h-55q0 60 -27 121t-76.5 113.5t-129.5 86t-175 33.5q-113 0 -201 -43.5t-140 -118t-78.5 -166.5t-26.5 -196zM356 1512l275 205h28l275 -205h-79l-208 156h-4l-208 -156h-79z" />
    <glyph glyph-name="ccircumflex" unicode="&#x109;" horiz-adv-x="1031" 
d="M125 436v166q0 212 111.5 329t288.5 117q89 0 162 -28t118.5 -74.5t71.5 -101t29 -111.5h-54q-15 108 -100.5 185t-226.5 77q-154 0 -249 -106.5t-95 -300.5v-142q0 -200 94 -305.5t259 -105.5q76 0 136 21.5t96.5 58t57.5 77.5t29 87h53q-5 -53 -28.5 -103t-66 -95
t-115.5 -72t-167 -27q-186 0 -295 116.5t-109 337.5zM259 1206l240 335h50l240 -335h-55l-208 292h-4l-208 -292h-55z" />
    <glyph glyph-name="Cdotaccent" unicode="&#x10a;" horiz-adv-x="1245" 
d="M199 814v-270q0 -83 15.5 -158t50.5 -142.5t86.5 -116.5t128 -78t171.5 -29q184 0 299 102.5t115 251.5h55v-4q0 -166 -129.5 -284t-339.5 -118q-108 0 -194.5 31t-144.5 85t-97 129.5t-56 160t-17 181.5v247q0 95 18 180.5t57.5 160.5t97 129.5t142 86t188.5 31.5
q110 0 201 -37t146.5 -96.5t85.5 -129t30 -139.5v-4h-55q0 60 -27 121t-76.5 113.5t-129.5 86t-175 33.5q-113 0 -201 -43.5t-140 -118t-78.5 -166.5t-26.5 -196zM581 1654q0 27 18.5 45t45.5 18t45.5 -18t18.5 -45q0 -26 -18.5 -44t-45.5 -18t-45.5 18t-18.5 44z" />
    <glyph glyph-name="cdotaccent" unicode="&#x10b;" horiz-adv-x="1031" 
d="M125 436v166q0 212 111.5 329t288.5 117q89 0 162 -28t118.5 -74.5t71.5 -101t29 -111.5h-54q-15 108 -100.5 185t-226.5 77q-154 0 -249 -106.5t-95 -300.5v-142q0 -200 94 -305.5t259 -105.5q76 0 136 21.5t96.5 58t57.5 77.5t29 87h53q-5 -53 -28.5 -103t-66 -95
t-115.5 -72t-167 -27q-186 0 -295 116.5t-109 337.5zM456 1339q0 28 19.5 48t47.5 20t48 -20t20 -48t-20 -47.5t-48 -19.5t-47.5 19.5t-19.5 47.5z" />
    <glyph glyph-name="Ccaron" unicode="&#x10c;" horiz-adv-x="1245" 
d="M199 814v-270q0 -83 15.5 -158t50.5 -142.5t86.5 -116.5t128 -78t171.5 -29q184 0 299 102.5t115 251.5h55v-4q0 -166 -129.5 -284t-339.5 -118q-108 0 -194.5 31t-144.5 85t-97 129.5t-56 160t-17 181.5v247q0 95 18 180.5t57.5 160.5t97 129.5t142 86t188.5 31.5
q110 0 201 -37t146.5 -96.5t85.5 -129t30 -139.5v-4h-55q0 60 -27 121t-76.5 113.5t-129.5 86t-175 33.5q-113 0 -201 -43.5t-140 -118t-78.5 -166.5t-26.5 -196zM356 1713h79l208 -156h4l208 156h79l-275 -205h-28z" />
    <glyph glyph-name="ccaron" unicode="&#x10d;" horiz-adv-x="1031" 
d="M125 436v166q0 212 111.5 329t288.5 117q89 0 162 -28t118.5 -74.5t71.5 -101t29 -111.5h-54q-15 108 -100.5 185t-226.5 77q-154 0 -249 -106.5t-95 -300.5v-142q0 -200 94 -305.5t259 -105.5q76 0 136 21.5t96.5 58t57.5 77.5t29 87h53q-5 -53 -28.5 -103t-66 -95
t-115.5 -72t-167 -27q-186 0 -295 116.5t-109 337.5zM259 1541h55l208 -292h4l208 292h55l-240 -335h-50z" />
    <glyph glyph-name="Dcaron" unicode="&#x10e;" horiz-adv-x="1297" 
d="M198 1358h345q159 0 277.5 -48t191 -138t108 -213t35.5 -279q0 -158 -34.5 -280.5t-106 -213t-190.5 -138.5t-281 -48h-345v1358zM255 1305v-1252h290q144 0 250.5 44t172.5 127.5t98 197t32 258.5q0 143 -32.5 256.5t-98.5 196.5t-173 127.5t-249 44.5h-290zM303 1713
h79l208 -156h4l208 156h79l-275 -205h-28z" />
    <glyph glyph-name="dcaron" unicode="&#x10f;" horiz-adv-x="1195" 
d="M1135 1436h60l-20 -488h-40v488zM516 1048q80 0 145 -24t104.5 -62t62.5 -74t34 -71h4v618h56v-1435h-56v216h-4q-5 -21 -17.5 -46.5t-40.5 -60t-65 -62t-96.5 -46.5t-128.5 -19q-170 0 -279.5 117.5t-109.5 312.5v204q0 106 32.5 190.5t88 136t124.5 78.5t146 27z
M516 995q-65 0 -123.5 -23.5t-106.5 -70t-76 -124t-28 -176.5v-177q0 -181 95.5 -285t238.5 -104q66 0 123 21.5t98.5 58.5t70.5 86t43.5 105.5t14.5 115.5v181q0 168 -96.5 280t-253.5 112z" />
    <glyph glyph-name="Dcroat" unicode="&#x110;" horiz-adv-x="1350" 
d="M596 0h-345v670h-159v53h159v635h345q159 0 277.5 -48t191 -138t108 -213t35.5 -279q0 -158 -34.5 -280.5t-106 -213t-190.5 -138.5t-281 -48zM308 53h290q144 0 250.5 44t172.5 127.5t98 197t32 258.5q0 143 -32.5 256.5t-98.5 196.5t-173 127.5t-249 44.5h-290v-582
h374v-53h-374v-617z" />
    <glyph glyph-name="dcroat" unicode="&#x111;" horiz-adv-x="1097" 
d="M516 995q-65 0 -123.5 -23.5t-106.5 -70t-76 -124t-28 -176.5v-177q0 -181 95.5 -285t238.5 -104q66 0 123 21.5t98.5 58.5t70.5 86t43.5 105.5t14.5 115.5v181q0 168 -96.5 280t-253.5 112zM862 216q-5 -21 -17.5 -46.5t-40.5 -60t-65 -62t-96.5 -46.5t-128.5 -19
q-170 0 -279.5 117.5t-109.5 312.5v204q0 106 32.5 190.5t88 136t124.5 78.5t146 27q80 0 145 -24t104.5 -62t62.5 -74t34 -71h4v433h-243v49h243v136h56v-136h127v-49h-127v-1250h-56v216h-4z" />
    <glyph glyph-name="Emacron" unicode="&#x112;" horiz-adv-x="1093" 
d="M963 53v-53h-765v1358h765v-53h-708v-582h674v-53h-674v-617h708zM847 1545h-538v44h538v-44z" />
    <glyph glyph-name="emacron" unicode="&#x113;" horiz-adv-x="1040" 
d="M531 -18q-191 0 -298.5 123t-107.5 348v107q0 238 107 363t288 125t288 -125t107 -363v-42h-734v-61q0 -203 94 -312.5t257 -109.5q74 0 134 21t96.5 54t57 70.5t24.5 74.5h56q-4 -45 -27.5 -90.5t-66 -87.5t-114.5 -68.5t-161 -26.5zM181 569h678v4q0 200 -92 311
t-247 111t-247 -111t-92 -311v-4zM798 1279h-558v44h558v-44z" />
    <glyph glyph-name="Ebreve" unicode="&#x114;" horiz-adv-x="1093" 
d="M963 53v-53h-765v1358h765v-53h-708v-582h674v-53h-674v-617h708zM315 1734h52q0 -82 56 -127.5t155 -45.5q98 0 150 45t52 128h52q0 -94 -65.5 -157.5t-188.5 -63.5q-124 0 -193.5 62.5t-69.5 158.5z" />
    <glyph glyph-name="ebreve" unicode="&#x115;" horiz-adv-x="1040" 
d="M531 -18q-191 0 -298.5 123t-107.5 348v107q0 238 107 363t288 125t288 -125t107 -363v-42h-734v-61q0 -203 94 -312.5t257 -109.5q74 0 134 21t96.5 54t57 70.5t24.5 74.5h56q-4 -45 -27.5 -90.5t-66 -87.5t-114.5 -68.5t-161 -26.5zM181 569h678v4q0 200 -92 311
t-247 111t-247 -111t-92 -311v-4zM256 1437h52q0 -83 57 -134.5t154 -51.5t154 51.5t57 134.5h52q0 -95 -70.5 -164.5t-192.5 -69.5q-123 0 -193 68.5t-70 165.5z" />
    <glyph glyph-name="Edotaccent" unicode="&#x116;" horiz-adv-x="1093" 
d="M963 53v-53h-765v1358h765v-53h-708v-582h674v-53h-674v-617h708zM514 1654q0 27 18.5 45t45.5 18t45.5 -18t18.5 -45q0 -26 -18.5 -44t-45.5 -18t-45.5 18t-18.5 44z" />
    <glyph glyph-name="edotaccent" unicode="&#x117;" horiz-adv-x="1040" 
d="M531 -18q-191 0 -298.5 123t-107.5 348v107q0 238 107 363t288 125t288 -125t107 -363v-42h-734v-61q0 -203 94 -312.5t257 -109.5q74 0 134 21t96.5 54t57 70.5t24.5 74.5h56q-4 -45 -27.5 -90.5t-66 -87.5t-114.5 -68.5t-161 -26.5zM181 569h678v4q0 200 -92 311
t-247 111t-247 -111t-92 -311v-4zM451 1339q0 28 19.5 48t47.5 20t48 -20t20 -48t-20 -47.5t-48 -19.5t-47.5 19.5t-19.5 47.5z" />
    <glyph glyph-name="Eogonek" unicode="&#x118;" horiz-adv-x="1093" 
d="M963 -352q-34 -18 -93 -18q-64 0 -108.5 40.5t-44.5 115.5q0 130 129 214h-648v1358h765v-53h-708v-582h674v-53h-674v-617h708v-53q-190 -64 -190 -210q0 -51 29.5 -81t76.5 -30t84 15v-46z" />
    <glyph glyph-name="eogonek" unicode="&#x119;" horiz-adv-x="1040" 
d="M775 -351q-74 0 -124.5 43.5t-50.5 122.5q0 60 26.5 105.5t82.5 104.5l-5 4q-60 -47 -173 -47q-191 0 -298.5 123t-107.5 348v107q0 238 107 363t288 125t288 -125t107 -363v-42h-734v-61q0 -203 94 -312.5t257 -109.5q74 0 134 21t96.5 54t57 70.5t24.5 74.5h56
q-7 -90 -80 -164q-5 -5 -25 -25.5t-25 -26.5t-22 -24.5t-22.5 -26t-18.5 -25t-18 -27t-13 -26t-11 -29.5t-6 -29.5t-3 -32.5q0 -55 37.5 -88t96.5 -33q45 0 88 16v-44q-38 -21 -103 -21zM181 569h678v4q0 200 -92 311t-247 111t-247 -111t-92 -311v-4z" />
    <glyph glyph-name="Ecaron" unicode="&#x11a;" horiz-adv-x="1093" 
d="M963 53v-53h-765v1358h765v-53h-708v-582h674v-53h-674v-617h708zM289 1713h79l208 -156h4l208 156h79l-275 -205h-28z" />
    <glyph glyph-name="ecaron" unicode="&#x11b;" horiz-adv-x="1040" 
d="M531 -18q-191 0 -298.5 123t-107.5 348v107q0 238 107 363t288 125t288 -125t107 -363v-42h-734v-61q0 -203 94 -312.5t257 -109.5q74 0 134 21t96.5 54t57 70.5t24.5 74.5h56q-4 -45 -27.5 -90.5t-66 -87.5t-114.5 -68.5t-161 -26.5zM181 569h678v4q0 200 -92 311
t-247 111t-247 -111t-92 -311v-4zM254 1541h55l208 -292h4l208 292h55l-240 -335h-50z" />
    <glyph glyph-name="Gcircumflex" unicode="&#x11c;" horiz-adv-x="1261" 
d="M1104 1015h-53q-4 39 -20 81t-48.5 86t-78 78t-113.5 56t-148 22q-213 0 -328.5 -143.5t-115.5 -386.5v-241q0 -119 27 -217t81 -172.5t142.5 -116t205.5 -41.5q183 0 297 97.5t114 270.5v202h-421v52h474v-254q0 -200 -130 -310t-337 -110q-106 0 -191.5 30.5
t-144.5 84.5t-98.5 129.5t-57.5 164t-18 190.5v241q0 266 130 424t370 158q110 0 199.5 -34.5t144 -90t84.5 -120t34 -130.5zM342 1512l275 205h28l275 -205h-79l-208 156h-4l-208 -156h-79z" />
    <glyph glyph-name="gcircumflex" unicode="&#x11d;" horiz-adv-x="1097" 
d="M529 -298q157 0 247 78.5t90 204.5v287h-4q-5 -21 -17.5 -46.5t-40.5 -60t-65 -62t-95.5 -46.5t-127.5 -19q-171 0 -281 117.5t-110 312.5v148q0 106 32.5 190.5t88.5 136t125.5 78.5t146.5 27q79 0 143.5 -24t104 -62t62.5 -74t34 -71h4v213h56v-1043
q0 -151 -105.5 -244.5t-288.5 -93.5q-91 0 -164 25t-116 65t-65.5 86t-24.5 93h57q6 -82 88 -149t226 -67zM518 995q-66 0 -124.5 -23.5t-106.5 -70t-76.5 -124t-28.5 -176.5v-121q0 -181 96 -285t240 -104q108 0 189 56t120 142t39 187v129q0 167 -96 278.5t-252 111.5z
M282 1206l240 335h50l240 -335h-55l-208 292h-4l-208 -292h-55z" />
    <glyph glyph-name="Gbreve" unicode="&#x11e;" horiz-adv-x="1261" 
d="M1104 1015h-53q-4 39 -20 81t-48.5 86t-78 78t-113.5 56t-148 22q-213 0 -328.5 -143.5t-115.5 -386.5v-241q0 -119 27 -217t81 -172.5t142.5 -116t205.5 -41.5q183 0 297 97.5t114 270.5v202h-421v52h474v-254q0 -200 -130 -310t-337 -110q-106 0 -191.5 30.5
t-144.5 84.5t-98.5 129.5t-57.5 164t-18 190.5v241q0 266 130 424t370 158q110 0 199.5 -34.5t144 -90t84.5 -120t34 -130.5zM368 1734h52q0 -82 56 -127.5t155 -45.5q98 0 150 45t52 128h52q0 -94 -65.5 -157.5t-188.5 -63.5q-124 0 -193.5 62.5t-69.5 158.5z" />
    <glyph glyph-name="gbreve" unicode="&#x11f;" horiz-adv-x="1097" 
d="M529 -298q157 0 247 78.5t90 204.5v287h-4q-5 -21 -17.5 -46.5t-40.5 -60t-65 -62t-95.5 -46.5t-127.5 -19q-171 0 -281 117.5t-110 312.5v148q0 106 32.5 190.5t88.5 136t125.5 78.5t146.5 27q79 0 143.5 -24t104 -62t62.5 -74t34 -71h4v213h56v-1043
q0 -151 -105.5 -244.5t-288.5 -93.5q-91 0 -164 25t-116 65t-65.5 86t-24.5 93h57q6 -82 88 -149t226 -67zM518 995q-66 0 -124.5 -23.5t-106.5 -70t-76.5 -124t-28.5 -176.5v-121q0 -181 96 -285t240 -104q108 0 189 56t120 142t39 187v129q0 167 -96 278.5t-252 111.5z
M284 1437h52q0 -83 57 -134.5t154 -51.5t154 51.5t57 134.5h52q0 -95 -70.5 -164.5t-192.5 -69.5q-123 0 -193 68.5t-70 165.5z" />
    <glyph glyph-name="Gdotaccent" unicode="&#x120;" horiz-adv-x="1261" 
d="M1104 1015h-53q-4 39 -20 81t-48.5 86t-78 78t-113.5 56t-148 22q-213 0 -328.5 -143.5t-115.5 -386.5v-241q0 -119 27 -217t81 -172.5t142.5 -116t205.5 -41.5q183 0 297 97.5t114 270.5v202h-421v52h474v-254q0 -200 -130 -310t-337 -110q-106 0 -191.5 30.5
t-144.5 84.5t-98.5 129.5t-57.5 164t-18 190.5v241q0 266 130 424t370 158q110 0 199.5 -34.5t144 -90t84.5 -120t34 -130.5zM567 1654q0 27 18.5 45t45.5 18t45.5 -18t18.5 -45q0 -26 -18.5 -44t-45.5 -18t-45.5 18t-18.5 44z" />
    <glyph glyph-name="gdotaccent" unicode="&#x121;" horiz-adv-x="1097" 
d="M529 -298q157 0 247 78.5t90 204.5v287h-4q-5 -21 -17.5 -46.5t-40.5 -60t-65 -62t-95.5 -46.5t-127.5 -19q-171 0 -281 117.5t-110 312.5v148q0 106 32.5 190.5t88.5 136t125.5 78.5t146.5 27q79 0 143.5 -24t104 -62t62.5 -74t34 -71h4v213h56v-1043
q0 -151 -105.5 -244.5t-288.5 -93.5q-91 0 -164 25t-116 65t-65.5 86t-24.5 93h57q6 -82 88 -149t226 -67zM518 995q-66 0 -124.5 -23.5t-106.5 -70t-76.5 -124t-28.5 -176.5v-121q0 -181 96 -285t240 -104q108 0 189 56t120 142t39 187v129q0 167 -96 278.5t-252 111.5z
M479 1339q0 28 19.5 48t47.5 20t48 -20t20 -48t-20 -47.5t-48 -19.5t-47.5 19.5t-19.5 47.5z" />
    <glyph glyph-name="Gcommaaccent" unicode="&#x122;" horiz-adv-x="1261" 
d="M1104 1015h-53q-4 39 -20 81t-48.5 86t-78 78t-113.5 56t-148 22q-213 0 -328.5 -143.5t-115.5 -386.5v-241q0 -119 27 -217t81 -172.5t142.5 -116t205.5 -41.5q183 0 297 97.5t114 270.5v202h-421v52h474v-254q0 -200 -130 -310t-337 -110q-106 0 -191.5 30.5
t-144.5 84.5t-98.5 129.5t-57.5 164t-18 190.5v241q0 266 130 424t370 158q110 0 199.5 -34.5t144 -90t84.5 -120t34 -130.5zM556 -479h-38l85 335h67z" />
    <glyph glyph-name="gcommaaccent" unicode="&#x123;" horiz-adv-x="1097" 
d="M627 1563h38l-85 -335h-67zM529 -298q157 0 247 78.5t90 204.5v287h-4q-5 -21 -17.5 -46.5t-40.5 -60t-65 -62t-95.5 -46.5t-127.5 -19q-171 0 -281 117.5t-110 312.5v148q0 106 32.5 190.5t88.5 136t125.5 78.5t146.5 27q79 0 143.5 -24t104 -62t62.5 -74t34 -71h4v213
h56v-1043q0 -151 -105.5 -244.5t-288.5 -93.5q-91 0 -164 25t-116 65t-65.5 86t-24.5 93h57q6 -82 88 -149t226 -67zM518 995q-66 0 -124.5 -23.5t-106.5 -70t-76.5 -124t-28.5 -176.5v-121q0 -181 96 -285t240 -104q108 0 189 56t120 142t39 187v129q0 167 -96 278.5
t-252 111.5z" />
    <glyph glyph-name="Hcircumflex" unicode="&#x124;" horiz-adv-x="1326" 
d="M1128 0h-57v689h-816v-689h-57v1358h57v-617h816v617h57v-1358zM371 1512l275 205h28l275 -205h-79l-208 156h-4l-208 -156h-79z" />
    <glyph glyph-name="hcircumflex" unicode="&#x125;" horiz-adv-x="1099" 
d="M175 0v1435h56v-615h4q27 93 116 160.5t228 67.5q157 0 256 -98t99 -271v-679h-56v673q0 140 -80.5 231t-220.5 91q-109 0 -189.5 -54t-118.5 -136t-38 -178v-627h-56zM-86 1589l275 205h28l275 -205h-79l-208 156h-4l-208 -156h-79z" />
    <glyph glyph-name="Hbar" unicode="&#x126;" horiz-adv-x="1334" 
d="M255 741h816v286h-816v-286zM255 689v-689h-57v1027h-141v49h141v282h57v-282h816v282h57v-282h149v-49h-149v-1027h-57v689h-816z" />
    <glyph glyph-name="hbar" unicode="&#x127;" horiz-adv-x="1099" 
d="M231 627v-627h-56v1252h-131v49h131v134h56v-134h229v-49h-229v-432h4q27 93 116 160.5t228 67.5q157 0 256 -98t99 -271v-679h-56v673q0 140 -80.5 231t-220.5 91q-109 0 -189.5 -54t-118.5 -136t-38 -178z" />
    <glyph glyph-name="Itilde" unicode="&#x128;" horiz-adv-x="493" 
d="M275 0h-57v1358h57v-1358zM376 1517q-46 0 -84 17t-59.5 38t-52 38t-64.5 17q-44 0 -72 -28.5t-28 -86.5h-48q0 78 41 118t107 40q36 0 66 -11.5t51 -27.5t41 -32t46 -27.5t57 -11.5q51 0 75.5 26.5t24.5 88.5h48q0 -77 -38 -117.5t-111 -40.5z" />
    <glyph glyph-name="itilde" unicode="&#x129;" horiz-adv-x="416" 
d="M180 0v1030h56v-1030h-56zM345 1201q-34 0 -63.5 12.5t-48.5 31t-39.5 40t-36.5 40t-38.5 31t-47.5 12.5q-46 0 -78 -38.5t-32 -112.5h-48q0 95 44 145.5t114 50.5q39 0 71 -17t53.5 -41.5t42 -49.5t47.5 -42t60 -17q52 0 81 41.5t29 116.5h48q0 -92 -41.5 -147.5
t-116.5 -55.5z" />
    <glyph glyph-name="Imacron" unicode="&#x12a;" horiz-adv-x="494" 
d="M276 0h-57v1358h57v-1358zM516 1545h-538v44h538v-44z" />
    <glyph glyph-name="imacron" unicode="&#x12b;" horiz-adv-x="416" 
d="M180 0v1030h56v-1030h-56zM488 1279h-558v44h558v-44z" />
    <glyph glyph-name="Ibreve" unicode="&#x12c;" horiz-adv-x="493" 
d="M275 0h-57v1358h57v-1358zM-16 1734h52q0 -82 56 -127.5t155 -45.5q98 0 150 45t52 128h52q0 -94 -65.5 -157.5t-188.5 -63.5q-124 0 -193.5 62.5t-69.5 158.5z" />
    <glyph glyph-name="ibreve" unicode="&#x12d;" horiz-adv-x="416" 
d="M180 0v1030h56v-1030h-56zM-54 1437h52q0 -83 57 -134.5t154 -51.5t154 51.5t57 134.5h52q0 -95 -70.5 -164.5t-192.5 -69.5q-123 0 -193 68.5t-70 165.5z" />
    <glyph glyph-name="Iogonek" unicode="&#x12e;" horiz-adv-x="493" 
d="M321 -349q-34 -21 -101 -21q-64 0 -105.5 40.5t-41.5 115.5q0 124 145 234v1338h57v-1358q-146 -92 -146 -210q0 -51 29.5 -81t76.5 -30q49 0 86 15v-43z" />
    <glyph glyph-name="iogonek" unicode="&#x12f;" horiz-adv-x="416" 
d="M282 -330q-34 -21 -101 -21q-64 0 -105.5 40.5t-41.5 115.5q0 124 146 234v991h56v-1011q-146 -92 -146 -210q0 -51 29.5 -81t76.5 -30q49 0 86 15v-43zM148 1309q0 26 17.5 43.5t42.5 17.5q26 0 43.5 -18t17.5 -43t-17.5 -42.5t-43.5 -17.5t-43 17.5t-17 42.5z" />
    <glyph glyph-name="Idotaccent" unicode="&#x130;" horiz-adv-x="493" 
d="M275 0h-57v1358h57v-1358zM183 1654q0 27 18.5 45t45.5 18t45.5 -18t18.5 -45q0 -26 -18.5 -44t-45.5 -18t-45.5 18t-18.5 44z" />
    <glyph glyph-name="dotlessi" unicode="&#x131;" horiz-adv-x="416" 
d="M180 0v1030h56v-1030h-56z" />
    <glyph glyph-name="Jcircumflex" unicode="&#x134;" horiz-adv-x="922" 
d="M70 293h57q0 -41 13.5 -82.5t43 -82.5t87 -67t135.5 -26q128 0 206.5 80t78.5 236v1007h57v-1008q0 -182 -93 -274.5t-251 -92.5q-75 0 -134.5 21t-96 53.5t-60.5 75t-33.5 82t-9.5 78.5zM431 1512l275 205h28l275 -205h-79l-208 156h-4l-208 -156h-79z" />
    <glyph glyph-name="jcircumflex" unicode="&#x135;" horiz-adv-x="416" 
d="M236 1030v-1110q0 -132 -50 -189.5t-154 -57.5q-42 0 -68 7v53q33 -7 65 -7q80 0 115.5 42.5t35.5 147.5v1114h56zM-56 1206l240 335h50l240 -335h-55l-208 292h-4l-208 -292h-55z" />
    <glyph glyph-name="Kcommaaccent" unicode="&#x136;" horiz-adv-x="1121" 
d="M1037 1358l-573 -612l607 -746h-74l-574 709l-168 -177v-532h-57v1358h57v-749h1l706 749h75zM470 -479h-38l85 335h67z" />
    <glyph glyph-name="kcommaaccent" unicode="&#x137;" horiz-adv-x="994" 
d="M231 433v-433h-56v1435h56v-929h4l578 524h80l-462 -418l485 -612h-73l-455 574zM423 -479h-38l85 335h67z" />
    <glyph glyph-name="Lacute" unicode="&#x139;" horiz-adv-x="1022" 
d="M952 52v-52h-754v1358h57v-1306h697zM243 1512h-55l246 301h65z" />
    <glyph glyph-name="lacute" unicode="&#x13a;" horiz-adv-x="436" 
d="M190 0v1435h56v-1435h-56zM235 1589h-55l246 301h65z" />
    <glyph glyph-name="Lcommaaccent" unicode="&#x13b;" horiz-adv-x="1022" 
d="M952 52v-52h-754v1358h57v-1306h697zM456 -479h-38l85 335h67z" />
    <glyph glyph-name="lcommaaccent" unicode="&#x13c;" horiz-adv-x="436" 
d="M190 0v1435h56v-1435h-56zM143 -479h-38l85 335h67z" />
    <glyph glyph-name="Lcaron" unicode="&#x13d;" horiz-adv-x="1022" 
d="M632 1436h60l-20 -488h-40v488zM952 52v-52h-754v1358h57v-1306h697z" />
    <glyph glyph-name="lcaron" unicode="&#x13e;" horiz-adv-x="539" 
d="M479 1436h60l-20 -488h-40v488zM190 0v1435h56v-1435h-56z" />
    <glyph glyph-name="Lslash" unicode="&#x141;" horiz-adv-x="1022" 
d="M952 0h-754v598l-155 -91v56l155 91v704h57v-670l465 274v-58l-465 -273v-579h697v-52z" />
    <glyph glyph-name="lslash" unicode="&#x142;" horiz-adv-x="466" 
d="M261 0h-56v682l-195 -154v63l195 154v690h56v-646l204 161v-62l-204 -161v-727z" />
    <glyph glyph-name="Nacute" unicode="&#x143;" horiz-adv-x="1326" 
d="M255 0h-57v1358h60l809 -1256h4v1256h57v-1358h-60l-809 1256h-4v-1256zM680 1512h-55l246 301h65z" />
    <glyph glyph-name="nacute" unicode="&#x144;" horiz-adv-x="1095" 
d="M175 0v1030h56v-210h4q27 93 115 160.5t227 67.5q157 0 255 -97.5t98 -271.5v-679h-56v673q0 140 -79.5 231t-219.5 91q-109 0 -189 -54t-117.5 -136t-37.5 -178v-627h-56zM570 1206h-55l246 301h65z" />
    <glyph glyph-name="Ncommaaccent" unicode="&#x145;" horiz-adv-x="1326" 
d="M255 0h-57v1358h60l809 -1256h4v1256h57v-1358h-60l-809 1256h-4v-1256zM588 -479h-38l85 335h67z" />
    <glyph glyph-name="ncommaaccent" unicode="&#x146;" horiz-adv-x="1095" 
d="M175 0v1030h56v-210h4q27 93 115 160.5t227 67.5q157 0 255 -97.5t98 -271.5v-679h-56v673q0 140 -79.5 231t-219.5 91q-109 0 -189 -54t-117.5 -136t-37.5 -178v-627h-56zM473 -479h-38l85 335h67z" />
    <glyph glyph-name="Ncaron" unicode="&#x147;" horiz-adv-x="1326" 
d="M255 0h-57v1358h60l809 -1256h4v1256h57v-1358h-60l-809 1256h-4v-1256zM374 1713h79l208 -156h4l208 156h79l-275 -205h-28z" />
    <glyph glyph-name="ncaron" unicode="&#x148;" horiz-adv-x="1095" 
d="M175 0v1030h56v-210h4q27 93 115 160.5t227 67.5q157 0 255 -97.5t98 -271.5v-679h-56v673q0 140 -79.5 231t-219.5 91q-109 0 -189 -54t-117.5 -136t-37.5 -178v-627h-56zM283 1541h55l208 -292h4l208 292h55l-240 -335h-50z" />
    <glyph glyph-name="Omacron" unicode="&#x14c;" horiz-adv-x="1310" 
d="M198 815v-272q0 -234 122 -378.5t335 -144.5t335 144.5t122 378.5v272q0 233 -122.5 378t-334.5 145t-334.5 -145t-122.5 -378zM142 551v256q0 267 135 425t378 158t378 -159t135 -426v-254q0 -267 -135 -425t-378 -158t-378 158t-135 425zM924 1545h-538v44h538v-44z
" />
    <glyph glyph-name="omacron" unicode="&#x14d;" horiz-adv-x="1080" 
d="M539 1048q178 0 297 -120.5t119 -333.5v-163q0 -109 -32.5 -195.5t-89.5 -141.5t-132 -83.5t-162 -28.5t-162 29t-131.5 84t-88.5 141t-32 195v163q0 217 116 335.5t298 118.5zM539 995q-158 0 -258 -106.5t-100 -303.5v-145q0 -196 99.5 -300.5t259.5 -104.5
q158 0 258 104t100 301v145q0 195 -101 302.5t-258 107.5zM818 1279h-558v44h558v-44z" />
    <glyph glyph-name="Obreve" unicode="&#x14e;" horiz-adv-x="1310" 
d="M198 815v-272q0 -234 122 -378.5t335 -144.5t335 144.5t122 378.5v272q0 233 -122.5 378t-334.5 145t-334.5 -145t-122.5 -378zM142 551v256q0 267 135 425t378 158t378 -159t135 -426v-254q0 -267 -135 -425t-378 -158t-378 158t-135 425zM392 1734h52q0 -82 56 -127.5
t155 -45.5q98 0 150 45t52 128h52q0 -94 -65.5 -157.5t-188.5 -63.5q-124 0 -193.5 62.5t-69.5 158.5z" />
    <glyph glyph-name="obreve" unicode="&#x14f;" horiz-adv-x="1080" 
d="M539 1048q178 0 297 -120.5t119 -333.5v-163q0 -109 -32.5 -195.5t-89.5 -141.5t-132 -83.5t-162 -28.5t-162 29t-131.5 84t-88.5 141t-32 195v163q0 217 116 335.5t298 118.5zM539 995q-158 0 -258 -106.5t-100 -303.5v-145q0 -196 99.5 -300.5t259.5 -104.5
q158 0 258 104t100 301v145q0 195 -101 302.5t-258 107.5zM276 1437h52q0 -83 57 -134.5t154 -51.5t154 51.5t57 134.5h52q0 -95 -70.5 -164.5t-192.5 -69.5q-123 0 -193 68.5t-70 165.5z" />
    <glyph glyph-name="Ohungarumlaut" unicode="&#x150;" horiz-adv-x="1310" 
d="M198 815v-272q0 -234 122 -378.5t335 -144.5t335 144.5t122 378.5v272q0 233 -122.5 378t-334.5 145t-334.5 -145t-122.5 -378zM142 551v256q0 267 135 425t378 158t378 -159t135 -426v-254q0 -267 -135 -425t-378 -158t-378 158t-135 425zM455 1512l315 250h81
l-326 -250h-70zM715 1512l315 250h81l-326 -250h-70z" />
    <glyph glyph-name="ohungarumlaut" unicode="&#x151;" horiz-adv-x="1080" 
d="M539 1048q178 0 297 -120.5t119 -333.5v-163q0 -109 -32.5 -195.5t-89.5 -141.5t-132 -83.5t-162 -28.5t-162 29t-131.5 84t-88.5 141t-32 195v163q0 217 116 335.5t298 118.5zM539 995q-158 0 -258 -106.5t-100 -303.5v-145q0 -196 99.5 -300.5t259.5 -104.5
q158 0 258 104t100 301v145q0 195 -101 302.5t-258 107.5zM456 1208h-55l246 301h65zM659 1208h-55l246 301h65z" />
    <glyph glyph-name="OE" unicode="&#x152;" horiz-adv-x="1982" 
d="M198 815v-272q0 -235 118 -379t330 -144q135 0 238 65.5t155.5 172.5t52.5 237v377q0 92 -30 175t-85 148.5t-141 104t-190 38.5q-211 0 -329.5 -144.5t-118.5 -378.5zM646 -32q-242 0 -373 157.5t-131 425.5v256q0 268 131 425.5t373 157.5q160 0 277 -74.5t166 -195.5
h4v238h765v-53h-708v-582h674v-53h-674v-617h708v-53h-765v247h-4q-125 -279 -443 -279z" />
    <glyph glyph-name="oe" unicode="&#x153;" horiz-adv-x="1814" 
d="M1305 -18q-140 0 -236.5 67.5t-139.5 194.5h-3q-45 -127 -148.5 -194.5t-238.5 -67.5q-87 0 -162 29t-131.5 84t-88.5 141t-32 195v163q0 217 116 335.5t298 118.5q134 0 237.5 -70t149.5 -199h3q43 133 137.5 201t227.5 68q181 0 288 -125t107 -363v-42h-734v-61
q0 -203 94 -312.5t257 -109.5q74 0 134 21t96.5 54t57 70.5t24.5 74.5h56q-4 -45 -27.5 -90.5t-66 -87.5t-114.5 -68.5t-161 -26.5zM955 569h678v4q0 200 -92 311t-247 111t-247 -111t-92 -311v-4zM539 995q-158 0 -258 -106.5t-100 -303.5v-145q0 -196 99.5 -300.5
t259.5 -104.5q158 0 258 104t100 301v145q0 195 -101 302.5t-258 107.5z" />
    <glyph glyph-name="Racute" unicode="&#x154;" horiz-adv-x="1181" 
d="M632 1358q185 0 295 -102t110 -273q0 -150 -81.5 -242.5t-218.5 -121.5l322 -619h-66l-318 608h-420v-608h-57v1358h434zM255 659h368q162 0 259 87.5t97 236.5q0 150 -96 237t-260 87h-368v-648zM608 1512h-55l246 301h65z" />
    <glyph glyph-name="racute" unicode="&#x155;" horiz-adv-x="665" 
d="M175 0v1030h56v-213h4q60 229 299 229q37 0 81 -8v-54q-40 9 -88 9q-140 0 -218 -108t-78 -297v-588h-56zM357 1206h-55l246 301h65z" />
    <glyph glyph-name="Rcommaaccent" unicode="&#x156;" horiz-adv-x="1181" 
d="M632 1358q185 0 295 -102t110 -273q0 -150 -81.5 -242.5t-218.5 -121.5l322 -619h-66l-318 608h-420v-608h-57v1358h434zM255 659h368q162 0 259 87.5t97 236.5q0 150 -96 237t-260 87h-368v-648zM516 -479h-38l85 335h67z" />
    <glyph glyph-name="rcommaaccent" unicode="&#x157;" horiz-adv-x="665" 
d="M175 0v1030h56v-213h4q60 229 299 229q37 0 81 -8v-54q-40 9 -88 9q-140 0 -218 -108t-78 -297v-588h-56zM128 -479h-38l85 335h67z" />
    <glyph glyph-name="Rcaron" unicode="&#x158;" horiz-adv-x="1181" 
d="M632 1358q185 0 295 -102t110 -273q0 -150 -81.5 -242.5t-218.5 -121.5l322 -619h-66l-318 608h-420v-608h-57v1358h434zM255 659h368q162 0 259 87.5t97 236.5q0 150 -96 237t-260 87h-368v-648zM302 1713h79l208 -156h4l208 156h79l-275 -205h-28z" />
    <glyph glyph-name="rcaron" unicode="&#x159;" horiz-adv-x="665" 
d="M175 0v1030h56v-213h4q60 229 299 229q37 0 81 -8v-54q-40 9 -88 9q-140 0 -218 -108t-78 -297v-588h-56zM70 1541h55l208 -292h4l208 292h55l-240 -335h-50z" />
    <glyph glyph-name="Sacute" unicode="&#x15a;" horiz-adv-x="1158" 
d="M120 338h59q1 -39 13 -79.5t42 -84t74 -77t115.5 -55t159.5 -21.5q176 0 286 88.5t110 224.5q0 68 -21.5 118t-69 86t-106.5 61t-149 49l-157 42q-153 41 -231.5 122.5t-78.5 219.5q0 161 114.5 259.5t311.5 98.5q101 0 182 -27.5t131.5 -74.5t77 -105t26.5 -123h-59
q-1 38 -13 75.5t-40 74t-68 64.5t-101.5 45.5t-135.5 17.5q-171 0 -268.5 -84t-97.5 -222q0 -121 69.5 -186.5t216.5 -105.5l150 -41q98 -27 162.5 -54.5t115.5 -69t74.5 -99.5t23.5 -138q0 -168 -127 -268.5t-333 -100.5q-98 0 -178.5 24.5t-131 63t-85 89t-49 98.5
t-14.5 95zM587 1512h-55l246 301h65z" />
    <glyph glyph-name="sacute" unicode="&#x15b;" horiz-adv-x="950" 
d="M137 773q0 128 93 201.5t247 73.5q74 0 133.5 -18t97 -46.5t63 -65t35.5 -70.5t10 -66h-56q0 24 -8.5 51t-29.5 56.5t-52 52.5t-81.5 38t-112.5 15q-122 0 -201 -56t-79 -164q0 -39 12.5 -69t32.5 -51.5t58.5 -40.5t78 -32.5t102.5 -31.5q150 -43 192 -60
q123 -52 153 -144q11 -36 11 -79q0 -140 -107 -212.5t-267 -72.5q-98 0 -172.5 27.5t-114.5 71.5t-59 89.5t-19 90.5h56q0 -26 9 -55t32 -60t57 -55t89 -40t122 -16q86 0 155 23.5t114.5 78t45.5 132.5q0 29 -7.5 53t-17.5 41.5t-34 34t-42.5 27t-59 25t-67.5 22.5t-83 24
q-57 16 -93.5 28.5t-78.5 30.5t-67 37.5t-47.5 45.5t-32.5 59.5t-10 75.5zM497 1206h-55l246 301h65z" />
    <glyph glyph-name="Scircumflex" unicode="&#x15c;" horiz-adv-x="1158" 
d="M120 338h59q1 -39 13 -79.5t42 -84t74 -77t115.5 -55t159.5 -21.5q176 0 286 88.5t110 224.5q0 68 -21.5 118t-69 86t-106.5 61t-149 49l-157 42q-153 41 -231.5 122.5t-78.5 219.5q0 161 114.5 259.5t311.5 98.5q101 0 182 -27.5t131.5 -74.5t77 -105t26.5 -123h-59
q-1 38 -13 75.5t-40 74t-68 64.5t-101.5 45.5t-135.5 17.5q-171 0 -268.5 -84t-97.5 -222q0 -121 69.5 -186.5t216.5 -105.5l150 -41q98 -27 162.5 -54.5t115.5 -69t74.5 -99.5t23.5 -138q0 -168 -127 -268.5t-333 -100.5q-98 0 -178.5 24.5t-131 63t-85 89t-49 98.5
t-14.5 95zM281 1512l275 205h28l275 -205h-79l-208 156h-4l-208 -156h-79z" />
    <glyph glyph-name="scircumflex" unicode="&#x15d;" horiz-adv-x="950" 
d="M137 773q0 128 93 201.5t247 73.5q74 0 133.5 -18t97 -46.5t63 -65t35.5 -70.5t10 -66h-56q0 24 -8.5 51t-29.5 56.5t-52 52.5t-81.5 38t-112.5 15q-122 0 -201 -56t-79 -164q0 -39 12.5 -69t32.5 -51.5t58.5 -40.5t78 -32.5t102.5 -31.5q150 -43 192 -60
q123 -52 153 -144q11 -36 11 -79q0 -140 -107 -212.5t-267 -72.5q-98 0 -172.5 27.5t-114.5 71.5t-59 89.5t-19 90.5h56q0 -26 9 -55t32 -60t57 -55t89 -40t122 -16q86 0 155 23.5t114.5 78t45.5 132.5q0 29 -7.5 53t-17.5 41.5t-34 34t-42.5 27t-59 25t-67.5 22.5t-83 24
q-57 16 -93.5 28.5t-78.5 30.5t-67 37.5t-47.5 45.5t-32.5 59.5t-10 75.5zM210 1206l240 335h50l240 -335h-55l-208 292h-4l-208 -292h-55z" />
    <glyph glyph-name="Scedilla" unicode="&#x15e;" horiz-adv-x="1158" 
d="M555 -457q-70 0 -116 16v50q46 -16 122 -16q65 0 113 28.5t48 83.5q0 109 -153 109h-50v39l52 115q-120 1 -211.5 38t-141.5 94.5t-74 118t-24 119.5h59q1 -39 13 -79.5t42 -84t74 -77t115.5 -55t159.5 -21.5q176 0 286 88.5t110 224.5q0 68 -21.5 118t-69 86t-106.5 61
t-149 49l-157 42q-153 41 -231.5 122.5t-78.5 219.5q0 161 114.5 259.5t311.5 98.5q101 0 182 -27.5t131.5 -74.5t77 -105t26.5 -123h-59q-1 38 -13 75.5t-40 74t-68 64.5t-101.5 45.5t-135.5 17.5q-171 0 -268.5 -84t-97.5 -222q0 -121 69.5 -186.5t216.5 -105.5l150 -41
q98 -27 162.5 -54.5t115.5 -69t74.5 -99.5t23.5 -138q0 -158 -113 -257t-301 -111l-47 -108q84 0 144 -37t60 -115q0 -81 -68 -123.5t-158 -42.5z" />
    <glyph glyph-name="scedilla" unicode="&#x15f;" horiz-adv-x="950" 
d="M434 -457q-70 0 -116 16v50q46 -16 122 -16q65 0 113 28.5t48 83.5q0 109 -153 109h-50v39l58 129q-78 1 -141 19.5t-102.5 48t-66.5 67t-38 73.5t-11 71h56q0 -26 9 -55t32 -60t57 -55t89 -40t122 -16q86 0 155 23.5t114.5 78t45.5 132.5q0 29 -7.5 53t-17.5 41.5
t-34 34t-42.5 27t-59 25t-67.5 22.5t-83 24q-57 16 -93.5 28.5t-78.5 30.5t-67 37.5t-47.5 45.5t-32.5 59.5t-10 75.5q0 128 93 201.5t247 73.5q74 0 133.5 -18t97 -46.5t63 -65t35.5 -70.5t10 -66h-56q0 24 -8.5 51t-29.5 56.5t-52 52.5t-81.5 38t-112.5 15
q-122 0 -201 -56t-79 -164q0 -39 12.5 -69t32.5 -51.5t58.5 -40.5t78 -32.5t102.5 -31.5q150 -43 192 -60q123 -52 153 -144q11 -36 11 -79q0 -129 -92 -201t-235 -82l-53 -123q84 0 144 -37t60 -115q0 -81 -68 -123.5t-158 -42.5z" />
    <glyph glyph-name="Scaron" unicode="&#x160;" horiz-adv-x="1158" 
d="M120 338h59q1 -39 13 -79.5t42 -84t74 -77t115.5 -55t159.5 -21.5q176 0 286 88.5t110 224.5q0 68 -21.5 118t-69 86t-106.5 61t-149 49l-157 42q-153 41 -231.5 122.5t-78.5 219.5q0 161 114.5 259.5t311.5 98.5q101 0 182 -27.5t131.5 -74.5t77 -105t26.5 -123h-59
q-1 38 -13 75.5t-40 74t-68 64.5t-101.5 45.5t-135.5 17.5q-171 0 -268.5 -84t-97.5 -222q0 -121 69.5 -186.5t216.5 -105.5l150 -41q98 -27 162.5 -54.5t115.5 -69t74.5 -99.5t23.5 -138q0 -168 -127 -268.5t-333 -100.5q-98 0 -178.5 24.5t-131 63t-85 89t-49 98.5
t-14.5 95zM281 1713h79l208 -156h4l208 156h79l-275 -205h-28z" />
    <glyph glyph-name="scaron" unicode="&#x161;" horiz-adv-x="950" 
d="M137 773q0 128 93 201.5t247 73.5q74 0 133.5 -18t97 -46.5t63 -65t35.5 -70.5t10 -66h-56q0 24 -8.5 51t-29.5 56.5t-52 52.5t-81.5 38t-112.5 15q-122 0 -201 -56t-79 -164q0 -39 12.5 -69t32.5 -51.5t58.5 -40.5t78 -32.5t102.5 -31.5q150 -43 192 -60
q123 -52 153 -144q11 -36 11 -79q0 -140 -107 -212.5t-267 -72.5q-98 0 -172.5 27.5t-114.5 71.5t-59 89.5t-19 90.5h56q0 -26 9 -55t32 -60t57 -55t89 -40t122 -16q86 0 155 23.5t114.5 78t45.5 132.5q0 29 -7.5 53t-17.5 41.5t-34 34t-42.5 27t-59 25t-67.5 22.5t-83 24
q-57 16 -93.5 28.5t-78.5 30.5t-67 37.5t-47.5 45.5t-32.5 59.5t-10 75.5zM210 1541h55l208 -292h4l208 292h55l-240 -335h-50z" />
    <glyph glyph-name="Tcedilla" unicode="&#x162;" horiz-adv-x="1077" 
d="M486 -457q-70 0 -116 16v50q46 -16 122 -16q65 0 113 28.5t48 83.5q0 109 -153 109h-50v39l66 147h-5v1305h-451v53h957v-53h-449v-1305l-60 -139q84 0 144 -37t60 -115q0 -81 -68 -123.5t-158 -42.5z" />
    <glyph glyph-name="tcedilla" unicode="&#x163;" horiz-adv-x="617" 
d="M355 -445q-70 0 -116 16v50q46 -16 122 -16q65 0 113 28.5t48 83.5q0 109 -153 109h-50v39l58 130q-87 12 -123 63t-36 161v761h-173v50h173v248h56v-248h273v-50h-273v-780q0 -92 42 -126.5t143 -34.5q56 0 103 9v-48q-46 -10 -110 -10h-24l-51 -117q84 0 144 -37
t60 -115q0 -81 -68 -123.5t-158 -42.5z" />
    <glyph glyph-name="Tcaron" unicode="&#x164;" horiz-adv-x="1077" 
d="M568 0h-57v1305h-451v53h957v-53h-449v-1305zM246 1713h79l208 -156h4l208 156h79l-275 -205h-28z" />
    <glyph glyph-name="tcaron" unicode="&#x165;" horiz-adv-x="617" 
d="M479 1678h60l-20 -488h-40v488zM218 1030v248h56v-248h273v-50h-273v-780q0 -92 42 -126.5t143 -34.5q56 0 103 9v-48q-46 -10 -110 -10q-131 0 -182.5 50t-51.5 179v761h-173v50h173z" />
    <glyph glyph-name="Tbar" unicode="&#x166;" horiz-adv-x="1077" 
d="M844 703h-276v-703h-57v703h-279v49h279v553h-451v53h957v-53h-449v-553h276v-49z" />
    <glyph glyph-name="tbar" unicode="&#x167;" horiz-adv-x="617" 
d="M562 0q-46 -10 -110 -10q-131 0 -182.5 50t-51.5 179v363h-154v49h154v349h-173v50h173v248h56v-248h273v-50h-273v-349h206v-49h-206v-382q0 -92 42 -126.5t143 -34.5q56 0 103 9v-48z" />
    <glyph glyph-name="Utilde" unicode="&#x168;" horiz-adv-x="1327" 
d="M242 1358v-891q0 -205 109.5 -324.5t311.5 -119.5q204 0 312.5 118.5t108.5 325.5v891h58v-891q0 -230 -126 -364.5t-353 -134.5t-352.5 134.5t-125.5 364.5v891h57zM782 1517q-46 0 -84 17t-59.5 38t-52 38t-64.5 17q-44 0 -72 -28.5t-28 -86.5h-48q0 78 41 118t107 40
q36 0 66 -11.5t51 -27.5t41 -32t46 -27.5t57 -11.5q51 0 75.5 26.5t24.5 88.5h48q0 -77 -38 -117.5t-111 -40.5z" />
    <glyph glyph-name="utilde" unicode="&#x169;" horiz-adv-x="1095" 
d="M920 1030v-1030h-56v211h-4q-14 -41 -40.5 -79t-67.5 -73t-103 -56t-136 -21q-153 0 -250.5 89.5t-97.5 259.5v699h56v-693q0 -136 79.5 -219t214.5 -83q83 0 151 33t110.5 88.5t65 123t22.5 140.5v610h56zM684 1201q-34 0 -63.5 12.5t-48.5 31t-39.5 40t-36.5 40
t-38.5 31t-47.5 12.5q-46 0 -78 -38.5t-32 -112.5h-48q0 95 44 145.5t114 50.5q39 0 71 -17t53.5 -41.5t42 -49.5t47.5 -42t60 -17q52 0 81 41.5t29 116.5h48q0 -92 -41.5 -147.5t-116.5 -55.5z" />
    <glyph glyph-name="Umacron" unicode="&#x16a;" horiz-adv-x="1327" 
d="M242 1358v-891q0 -205 109.5 -324.5t311.5 -119.5q204 0 312.5 118.5t108.5 325.5v891h58v-891q0 -230 -126 -364.5t-353 -134.5t-352.5 134.5t-125.5 364.5v891h57zM932 1545h-538v44h538v-44z" />
    <glyph glyph-name="umacron" unicode="&#x16b;" horiz-adv-x="1095" 
d="M920 1030v-1030h-56v211h-4q-14 -41 -40.5 -79t-67.5 -73t-103 -56t-136 -21q-153 0 -250.5 89.5t-97.5 259.5v699h56v-693q0 -136 79.5 -219t214.5 -83q83 0 151 33t110.5 88.5t65 123t22.5 140.5v610h56zM827 1279h-558v44h558v-44z" />
    <glyph glyph-name="Ubreve" unicode="&#x16c;" horiz-adv-x="1327" 
d="M242 1358v-891q0 -205 109.5 -324.5t311.5 -119.5q204 0 312.5 118.5t108.5 325.5v891h58v-891q0 -230 -126 -364.5t-353 -134.5t-352.5 134.5t-125.5 364.5v891h57zM401 1734h52q0 -82 56 -127.5t155 -45.5q98 0 150 45t52 128h52q0 -94 -65.5 -157.5t-188.5 -63.5
q-124 0 -193.5 62.5t-69.5 158.5z" />
    <glyph glyph-name="ubreve" unicode="&#x16d;" horiz-adv-x="1095" 
d="M920 1030v-1030h-56v211h-4q-14 -41 -40.5 -79t-67.5 -73t-103 -56t-136 -21q-153 0 -250.5 89.5t-97.5 259.5v699h56v-693q0 -136 79.5 -219t214.5 -83q83 0 151 33t110.5 88.5t65 123t22.5 140.5v610h56zM285 1437h52q0 -83 57 -134.5t154 -51.5t154 51.5t57 134.5h52
q0 -95 -70.5 -164.5t-192.5 -69.5q-123 0 -193 68.5t-70 165.5z" />
    <glyph glyph-name="Uring" unicode="&#x16e;" horiz-adv-x="1327" 
d="M242 1358v-891q0 -205 109.5 -324.5t311.5 -119.5q204 0 312.5 118.5t108.5 325.5v891h58v-891q0 -230 -126 -364.5t-353 -134.5t-352.5 134.5t-125.5 364.5v891h57zM664 1513q-71 0 -120 49t-49 120q0 70 49 118t120 48q70 0 120 -48.5t50 -117.5q0 -70 -50.5 -119.5
t-119.5 -49.5zM542 1680q0 -49 36.5 -85.5t85.5 -36.5q51 0 87 36t36 86q0 51 -36 87t-87 36q-49 0 -85.5 -36t-36.5 -87z" />
    <glyph glyph-name="uring" unicode="&#x16f;" horiz-adv-x="1095" 
d="M920 1030v-1030h-56v211h-4q-14 -41 -40.5 -79t-67.5 -73t-103 -56t-136 -21q-153 0 -250.5 89.5t-97.5 259.5v699h56v-693q0 -136 79.5 -219t214.5 -83q83 0 151 33t110.5 88.5t65 123t22.5 140.5v610h56zM548 1205q-71 0 -120 49t-49 120q0 70 49 118t120 48
q70 0 120 -48.5t50 -117.5q0 -70 -50.5 -119.5t-119.5 -49.5zM426 1372q0 -49 36.5 -85.5t85.5 -36.5q51 0 87 36t36 86q0 51 -36 87t-87 36q-49 0 -85.5 -36t-36.5 -87z" />
    <glyph glyph-name="Uhungarumlaut" unicode="&#x170;" horiz-adv-x="1327" 
d="M242 1358v-891q0 -205 109.5 -324.5t311.5 -119.5q204 0 312.5 118.5t108.5 325.5v891h58v-891q0 -230 -126 -364.5t-353 -134.5t-352.5 134.5t-125.5 364.5v891h57zM464 1512l315 250h81l-326 -250h-70zM724 1512l315 250h81l-326 -250h-70z" />
    <glyph glyph-name="uhungarumlaut" unicode="&#x171;" horiz-adv-x="1095" 
d="M920 1030v-1030h-56v211h-4q-14 -41 -40.5 -79t-67.5 -73t-103 -56t-136 -21q-153 0 -250.5 89.5t-97.5 259.5v699h56v-693q0 -136 79.5 -219t214.5 -83q83 0 151 33t110.5 88.5t65 123t22.5 140.5v610h56zM465 1208h-55l246 301h65zM668 1208h-55l246 301h65z" />
    <glyph glyph-name="Uogonek" unicode="&#x172;" horiz-adv-x="1327" 
d="M918 -370q-74 0 -124.5 43.5t-50.5 122.5q0 111 107 206l-1 2q-104 -36 -186 -36q-227 0 -352.5 134.5t-125.5 364.5v891h57v-891q0 -205 109.5 -324.5t311.5 -119.5q204 0 312.5 118.5t108.5 325.5v891h58v-891q0 -253 -180 -417q-81 -73 -122 -130t-41 -120
q0 -55 37.5 -88t96.5 -33q48 0 88 15v-43q-38 -21 -103 -21z" />
    <glyph glyph-name="uogonek" unicode="&#x173;" horiz-adv-x="1095" 
d="M966 -335q-38 -16 -84 -16q-71 0 -117.5 40t-46.5 115q0 70 38.5 121.5t107.5 103.5v182h-4q-14 -41 -40.5 -79t-67.5 -73t-103 -56t-136 -21q-153 0 -250.5 89.5t-97.5 259.5v699h56v-693q0 -136 79.5 -219t214.5 -83q83 0 151 33t110.5 88.5t65 123t22.5 140.5v610h56
v-1021q-68 -43 -107 -90t-39 -108q0 -53 29.5 -82t83.5 -29q47 0 79 13v-48z" />
    <glyph glyph-name="Wcircumflex" unicode="&#x174;" horiz-adv-x="1733" 
d="M495 0h-69l-356 1358h61l329 -1281h4l372 1281h61l372 -1281h4l329 1281h61l-356 -1358h-69l-369 1269h-5zM574 1512l275 205h28l275 -205h-79l-208 156h-4l-208 -156h-79z" />
    <glyph glyph-name="wcircumflex" unicode="&#x175;" horiz-adv-x="1386" 
d="M1346 1030l-285 -1030h-59l-307 951h-4l-307 -951h-59l-285 1030h62l251 -945h5l305 945h60l305 -945h5l251 945h62zM428 1206l240 335h50l240 -335h-55l-208 292h-4l-208 -292h-55z" />
    <glyph glyph-name="Ycircumflex" unicode="&#x176;" horiz-adv-x="1104" 
d="M581 0h-56v610l-475 748h68l432 -686h6l433 686h65l-473 -746v-612zM238 1512l275 205h28l275 -205h-79l-208 156h-4l-208 -156h-79z" />
    <glyph glyph-name="ycircumflex" unicode="&#x177;" horiz-adv-x="912" 
d="M867 1030l-371 -1028l-49 -129q-41 -108 -96.5 -154t-154.5 -46q-50 0 -93 10v53q48 -10 92 -10q76 0 122 40t74 115l40 107l-386 1042h62l351 -972h4l345 972h60zM189 1206l240 335h50l240 -335h-55l-208 292h-4l-208 -292h-55z" />
    <glyph glyph-name="Ydieresis" unicode="&#x178;" horiz-adv-x="1104" 
d="M581 0h-56v610l-475 748h68l432 -686h6l433 686h65l-473 -746v-612zM408 1515q-23 0 -39.5 16.5t-16.5 39.5t16.5 39.5t39.5 16.5t39.5 -16.5t16.5 -39.5t-16.5 -39.5t-39.5 -16.5zM694 1515q-23 0 -39.5 16.5t-16.5 39.5t16.5 39.5t39.5 16.5t39.5 -16.5t16.5 -39.5
t-16.5 -39.5t-39.5 -16.5z" />
    <glyph glyph-name="Zacute" unicode="&#x179;" horiz-adv-x="1155" 
d="M100 0v49l885 1254v4h-858v51h928v-49l-886 -1254v-5h886v-50h-955zM595 1512h-55l246 301h65z" />
    <glyph glyph-name="zacute" unicode="&#x17a;" horiz-adv-x="890" 
d="M95 0v46l640 930v4h-640v50h710v-50l-639 -926v-4h639v-50h-710zM467 1206h-55l246 301h65z" />
    <glyph glyph-name="Zdotaccent" unicode="&#x17b;" horiz-adv-x="1155" 
d="M100 0v49l885 1254v4h-858v51h928v-49l-886 -1254v-5h886v-50h-955zM514 1654q0 27 18.5 45t45.5 18t45.5 -18t18.5 -45q0 -26 -18.5 -44t-45.5 -18t-45.5 18t-18.5 44z" />
    <glyph glyph-name="zdotaccent" unicode="&#x17c;" horiz-adv-x="890" 
d="M95 0v46l640 930v4h-640v50h710v-50l-639 -926v-4h639v-50h-710zM377 1339q0 28 19.5 48t47.5 20t48 -20t20 -48t-20 -47.5t-48 -19.5t-47.5 19.5t-19.5 47.5z" />
    <glyph glyph-name="Zcaron" unicode="&#x17d;" horiz-adv-x="1155" 
d="M100 0v49l885 1254v4h-858v51h928v-49l-886 -1254v-5h886v-50h-955zM289 1713h79l208 -156h4l208 156h79l-275 -205h-28z" />
    <glyph glyph-name="zcaron" unicode="&#x17e;" horiz-adv-x="890" 
d="M95 0v46l640 930v4h-640v50h710v-50l-639 -926v-4h639v-50h-710zM180 1541h55l208 -292h4l208 292h55l-240 -335h-50z" />
    <glyph glyph-name="florin" unicode="&#x192;" horiz-adv-x="1080" 
d="M205 -186l188 1043h-268l9 53h268l39 202q23 126 97 201t190 75q111 0 174.5 -60t72.5 -137h-57q-6 60 -59.5 102t-130.5 42q-189 0 -232 -240l-36 -185h346l-11 -53h-344l-188 -1043h-58z" />
    <glyph glyph-name="Ohorn" unicode="&#x1a0;" horiz-adv-x="1310" 
d="M1168 551q0 -267 -135 -425t-378 -158t-378 158t-135 425v256q0 267 135 425t378 158q78 0 207.5 -33t197.5 -33q74 0 114.5 38t40.5 108v106h54v-104q0 -66 -23.5 -111.5t-62.5 -64.5t-90.5 -23.5t-107.5 11.5l-3 -5q186 -167 186 -474v-254zM198 815v-272
q0 -234 122 -378.5t335 -144.5t335 144.5t122 378.5v272q0 233 -122.5 378t-334.5 145t-334.5 -145t-122.5 -378z" />
    <glyph glyph-name="ohorn" unicode="&#x1a1;" horiz-adv-x="1080" 
d="M539 -18q-87 0 -162 29t-131.5 84t-88.5 141t-32 195v163q0 217 116 335.5t298 118.5q48 0 105.5 -9.5t98.5 -9.5q63 0 111 41.5t48 108.5v106h54v-104q0 -96 -50 -145t-131 -57l-1 -4q181 -119 181 -381v-163q0 -109 -32.5 -195.5t-89.5 -141.5t-132 -83.5t-162 -28.5z
M539 995q-158 0 -258 -106.5t-100 -303.5v-145q0 -196 99.5 -300.5t259.5 -104.5q158 0 258 104t100 301v145q0 195 -101 302.5t-258 107.5z" />
    <glyph glyph-name="Uhorn" unicode="&#x1af;" horiz-adv-x="1344" 
d="M663 -32q-227 0 -352.5 134.5t-125.5 364.5v891h57v-891q0 -205 109.5 -324.5t311.5 -119.5q204 0 312.5 118.5t108.5 325.5v891h56q75 0 120 39.5t45 109.5v106h54v-104q0 -98 -59 -152.5t-140 -54.5h-18v-835q0 -230 -126 -364.5t-353 -134.5z" />
    <glyph glyph-name="uhorn" unicode="&#x1b0;" horiz-adv-x="1153" 
d="M860 211q-14 -41 -40.5 -79t-67.5 -73t-103 -56t-136 -21q-153 0 -250.5 89.5t-97.5 259.5v699h56v-693q0 -136 79.5 -219t214.5 -83q83 0 151 33t110.5 88.5t65 123t22.5 140.5v610h66q75 0 120 39.5t45 109.5v106h54v-104q0 -106 -61 -155t-156 -49h-12v-977h-56v211
h-4z" />
    <glyph glyph-name="Acaron" unicode="&#x1cd;" horiz-adv-x="1177" 
d="M130 0h-60l487 1358h63l487 -1358h-61l-166 470h-584zM591 1289h-5l-273 -769h549zM296 1713h79l208 -156h4l208 156h79l-275 -205h-28z" />
    <glyph glyph-name="acaron" unicode="&#x1ce;" horiz-adv-x="1003" 
d="M778 178q-8 -26 -31 -56.5t-62 -63.5t-103 -54.5t-139 -21.5q-152 0 -244.5 82t-92.5 223q0 130 89.5 207t257.5 77h329v159q0 133 -78 199t-212 66q-127 0 -195 -54.5t-88 -158.5h-56q16 122 102 194t241 72q158 0 250 -79t92 -224v-745h-56v178h-4zM444 35
q140 0 239 87t99 225v171h-329q-143 0 -214.5 -62t-71.5 -168q0 -115 76.5 -184t200.5 -69zM237 1541h55l208 -292h4l208 292h55l-240 -335h-50z" />
    <glyph glyph-name="Icaron" unicode="&#x1cf;" horiz-adv-x="505" 
d="M281 0h-57v1358h57v-1358zM-40 1713h79l208 -156h4l208 156h79l-275 -205h-28z" />
    <glyph glyph-name="icaron" unicode="&#x1d0;" horiz-adv-x="416" 
d="M180 0v1030h56v-1030h-56zM-56 1541h55l208 -292h4l208 292h55l-240 -335h-50z" />
    <glyph glyph-name="Ocaron" unicode="&#x1d1;" horiz-adv-x="1310" 
d="M198 815v-272q0 -234 122 -378.5t335 -144.5t335 144.5t122 378.5v272q0 233 -122.5 378t-334.5 145t-334.5 -145t-122.5 -378zM142 551v256q0 267 135 425t378 158t378 -159t135 -426v-254q0 -267 -135 -425t-378 -158t-378 158t-135 425zM363 1713h79l208 -156h4
l208 156h79l-275 -205h-28z" />
    <glyph glyph-name="ocaron" unicode="&#x1d2;" horiz-adv-x="1080" 
d="M539 1048q178 0 297 -120.5t119 -333.5v-163q0 -109 -32.5 -195.5t-89.5 -141.5t-132 -83.5t-162 -28.5t-162 29t-131.5 84t-88.5 141t-32 195v163q0 217 116 335.5t298 118.5zM539 995q-158 0 -258 -106.5t-100 -303.5v-145q0 -196 99.5 -300.5t259.5 -104.5
q158 0 258 104t100 301v145q0 195 -101 302.5t-258 107.5zM274 1541h55l208 -292h4l208 292h55l-240 -335h-50z" />
    <glyph glyph-name="Ucaron" unicode="&#x1d3;" horiz-adv-x="1327" 
d="M242 1358v-891q0 -205 109.5 -324.5t311.5 -119.5q204 0 312.5 118.5t108.5 325.5v891h58v-891q0 -230 -126 -364.5t-353 -134.5t-352.5 134.5t-125.5 364.5v891h57zM371 1713h79l208 -156h4l208 156h79l-275 -205h-28z" />
    <glyph glyph-name="ucaron" unicode="&#x1d4;" horiz-adv-x="1095" 
d="M920 1030v-1030h-56v211h-4q-14 -41 -40.5 -79t-67.5 -73t-103 -56t-136 -21q-153 0 -250.5 89.5t-97.5 259.5v699h56v-693q0 -136 79.5 -219t214.5 -83q83 0 151 33t110.5 88.5t65 123t22.5 140.5v610h56zM283 1541h55l208 -292h4l208 292h55l-240 -335h-50z" />
    <glyph glyph-name="Udieresismacron" unicode="&#x1d5;" horiz-adv-x="1327" 
d="M242 1358v-891q0 -205 109.5 -324.5t311.5 -119.5q204 0 312.5 118.5t108.5 325.5v891h58v-891q0 -230 -126 -364.5t-353 -134.5t-352.5 134.5t-125.5 364.5v891h57zM521 1515q-23 0 -39.5 16.5t-16.5 39.5t16.5 39.5t39.5 16.5t39.5 -16.5t16.5 -39.5t-16.5 -39.5
t-39.5 -16.5zM807 1515q-23 0 -39.5 16.5t-16.5 39.5t16.5 39.5t39.5 16.5t39.5 -16.5t16.5 -39.5t-16.5 -39.5t-39.5 -16.5zM933 1813h-538v44h538v-44z" />
    <glyph glyph-name="udieresismacron" unicode="&#x1d6;" horiz-adv-x="1095" 
d="M920 1030v-1030h-56v211h-4q-14 -41 -40.5 -79t-67.5 -73t-103 -56t-136 -21q-153 0 -250.5 89.5t-97.5 259.5v699h56v-693q0 -136 79.5 -219t214.5 -83q83 0 151 33t110.5 88.5t65 123t22.5 140.5v610h56zM406 1246q-23 0 -39.5 16.5t-16.5 39.5t16.5 39.5t39.5 16.5
t39.5 -16.5t16.5 -39.5t-16.5 -39.5t-39.5 -16.5zM692 1246q-23 0 -39.5 16.5t-16.5 39.5t16.5 39.5t39.5 16.5t39.5 -16.5t16.5 -39.5t-16.5 -39.5t-39.5 -16.5zM827 1554h-558v44h558v-44z" />
    <glyph glyph-name="Udieresisacute" unicode="&#x1d7;" horiz-adv-x="1327" 
d="M242 1358v-891q0 -205 109.5 -324.5t311.5 -119.5q204 0 312.5 118.5t108.5 325.5v891h58v-891q0 -230 -126 -364.5t-353 -134.5t-352.5 134.5t-125.5 364.5v891h57zM626 1700l315 240h81l-326 -240h-70zM521 1515q-23 0 -39.5 16.5t-16.5 39.5t16.5 39.5t39.5 16.5
t39.5 -16.5t16.5 -39.5t-16.5 -39.5t-39.5 -16.5zM807 1515q-23 0 -39.5 16.5t-16.5 39.5t16.5 39.5t39.5 16.5t39.5 -16.5t16.5 -39.5t-16.5 -39.5t-39.5 -16.5z" />
    <glyph glyph-name="udieresisacute" unicode="&#x1d8;" horiz-adv-x="1095" 
d="M920 1030v-1030h-56v211h-4q-14 -41 -40.5 -79t-67.5 -73t-103 -56t-136 -21q-153 0 -250.5 89.5t-97.5 259.5v699h56v-693q0 -136 79.5 -219t214.5 -83q83 0 151 33t110.5 88.5t65 123t22.5 140.5v610h56zM406 1246q-23 0 -39.5 16.5t-16.5 39.5t16.5 39.5t39.5 16.5
t39.5 -16.5t16.5 -39.5t-16.5 -39.5t-39.5 -16.5zM692 1246q-23 0 -39.5 16.5t-16.5 39.5t16.5 39.5t39.5 16.5t39.5 -16.5t16.5 -39.5t-16.5 -39.5t-39.5 -16.5zM570 1481h-55l246 301h65z" />
    <glyph glyph-name="Udieresiscaron" unicode="&#x1d9;" horiz-adv-x="1327" 
d="M242 1358v-891q0 -205 109.5 -324.5t311.5 -119.5q204 0 312.5 118.5t108.5 325.5v891h58v-891q0 -230 -126 -364.5t-353 -134.5t-352.5 134.5t-125.5 364.5v891h57zM469 1566q0 24 18 42t42 18q25 0 43.5 -18t18.5 -42q0 -26 -18.5 -44t-43.5 -18q-24 0 -42 18.5
t-18 43.5zM744 1566q0 24 18 42t42 18q25 0 43.5 -18t18.5 -42q0 -26 -18 -44t-44 -18q-24 0 -42 18.5t-18 43.5zM375 1941h79l208 -156h4l208 156h79l-275 -205h-28z" />
    <glyph glyph-name="udieresiscaron" unicode="&#x1da;" horiz-adv-x="1095" 
d="M920 1030v-1030h-56v211h-4q-14 -41 -40.5 -79t-67.5 -73t-103 -56t-136 -21q-153 0 -250.5 89.5t-97.5 259.5v699h56v-693q0 -136 79.5 -219t214.5 -83q83 0 151 33t110.5 88.5t65 123t22.5 140.5v610h56zM406 1246q-23 0 -39.5 16.5t-16.5 39.5t16.5 39.5t39.5 16.5
t39.5 -16.5t16.5 -39.5t-16.5 -39.5t-39.5 -16.5zM692 1246q-23 0 -39.5 16.5t-16.5 39.5t16.5 39.5t39.5 16.5t39.5 -16.5t16.5 -39.5t-16.5 -39.5t-39.5 -16.5zM283 1816h55l208 -292h4l208 292h55l-240 -335h-50z" />
    <glyph glyph-name="Udieresisgrave" unicode="&#x1db;" horiz-adv-x="1327" 
d="M242 1358v-891q0 -205 109.5 -324.5t311.5 -119.5q204 0 312.5 118.5t108.5 325.5v891h58v-891q0 -230 -126 -364.5t-353 -134.5t-352.5 134.5t-125.5 364.5v891h57zM702 1700h-70l-326 240h81zM521 1515q-23 0 -39.5 16.5t-16.5 39.5t16.5 39.5t39.5 16.5t39.5 -16.5
t16.5 -39.5t-16.5 -39.5t-39.5 -16.5zM807 1515q-23 0 -39.5 16.5t-16.5 39.5t16.5 39.5t39.5 16.5t39.5 -16.5t16.5 -39.5t-16.5 -39.5t-39.5 -16.5z" />
    <glyph glyph-name="udieresisgrave" unicode="&#x1dc;" horiz-adv-x="1095" 
d="M920 1030v-1030h-56v211h-4q-14 -41 -40.5 -79t-67.5 -73t-103 -56t-136 -21q-153 0 -250.5 89.5t-97.5 259.5v699h56v-693q0 -136 79.5 -219t214.5 -83q83 0 151 33t110.5 88.5t65 123t22.5 140.5v610h56zM406 1246q-23 0 -39.5 16.5t-16.5 39.5t16.5 39.5t39.5 16.5
t39.5 -16.5t16.5 -39.5t-16.5 -39.5t-39.5 -16.5zM692 1246q-23 0 -39.5 16.5t-16.5 39.5t16.5 39.5t39.5 16.5t39.5 -16.5t16.5 -39.5t-16.5 -39.5t-39.5 -16.5zM581 1481h-55l-256 301h66z" />
    <glyph glyph-name="Adieresismacron" unicode="&#x1de;" horiz-adv-x="1177" 
d="M130 0h-60l487 1358h63l487 -1358h-61l-166 470h-584zM591 1289h-5l-273 -769h549zM446 1515q-23 0 -39.5 16.5t-16.5 39.5t16.5 39.5t39.5 16.5t39.5 -16.5t16.5 -39.5t-16.5 -39.5t-39.5 -16.5zM732 1515q-23 0 -39.5 16.5t-16.5 39.5t16.5 39.5t39.5 16.5t39.5 -16.5
t16.5 -39.5t-16.5 -39.5t-39.5 -16.5zM858 1813h-538v44h538v-44z" />
    <glyph glyph-name="adieresismacron" unicode="&#x1df;" horiz-adv-x="1003" 
d="M778 178q-8 -26 -31 -56.5t-62 -63.5t-103 -54.5t-139 -21.5q-152 0 -244.5 82t-92.5 223q0 130 89.5 207t257.5 77h329v159q0 133 -78 199t-212 66q-127 0 -195 -54.5t-88 -158.5h-56q16 122 102 194t241 72q158 0 250 -79t92 -224v-745h-56v178h-4zM444 35
q140 0 239 87t99 225v171h-329q-143 0 -214.5 -62t-71.5 -168q0 -115 76.5 -184t200.5 -69zM360 1246q-23 0 -39.5 16.5t-16.5 39.5t16.5 39.5t39.5 16.5t39.5 -16.5t16.5 -39.5t-16.5 -39.5t-39.5 -16.5zM646 1246q-23 0 -39.5 16.5t-16.5 39.5t16.5 39.5t39.5 16.5
t39.5 -16.5t16.5 -39.5t-16.5 -39.5t-39.5 -16.5zM781 1554h-558v44h558v-44z" />
    <glyph glyph-name="Adotmacron" unicode="&#x1e0;" horiz-adv-x="1177" 
d="M130 0h-60l487 1358h63l487 -1358h-61l-166 470h-584zM591 1289h-5l-273 -769h549zM525 1614q0 27 18.5 45t45.5 18t45.5 -18t18.5 -45q0 -26 -18.5 -44t-45.5 -18t-45.5 18t-18.5 44zM858 1813h-538v44h538v-44z" />
    <glyph glyph-name="adotmacron" unicode="&#x1e1;" horiz-adv-x="1003" 
d="M778 178q-8 -26 -31 -56.5t-62 -63.5t-103 -54.5t-139 -21.5q-152 0 -244.5 82t-92.5 223q0 130 89.5 207t257.5 77h329v159q0 133 -78 199t-212 66q-127 0 -195 -54.5t-88 -158.5h-56q16 122 102 194t241 72q158 0 250 -79t92 -224v-745h-56v178h-4zM444 35
q140 0 239 87t99 225v171h-329q-143 0 -214.5 -62t-71.5 -168q0 -115 76.5 -184t200.5 -69zM434 1339q0 28 19.5 48t47.5 20t48 -20t20 -48t-20 -47.5t-48 -19.5t-47.5 19.5t-19.5 47.5zM781 1554h-558v44h558v-44z" />
    <glyph glyph-name="AEmacron" unicode="&#x1e2;" horiz-adv-x="1816" 
d="M881 1305l-463 -755h529v755h-66zM947 500h-559l-307 -500h-60l827 1358h864v-53h-708v-582h674v-53h-674v-617h708v-53h-765v500zM1595 1545h-538v44h538v-44z" />
    <glyph glyph-name="aemacron" unicode="&#x1e3;" horiz-adv-x="1698" 
d="M1188 -18q-148 0 -245 74t-125 206h-4q-24 -121 -122 -200.5t-249 -79.5q-152 0 -244.5 82t-92.5 223q0 130 89.5 206.5t257.5 75.5h329v141q0 135 -79.5 210t-210.5 75q-127 0 -195 -54.5t-88 -158.5h-56q16 122 102 194t241 72q128 0 215 -60.5t115 -167.5h4
q42 112 135 170t214 58q181 0 286.5 -125t105.5 -363v-42h-733v-61q0 -203 94 -312.5t257 -109.5q74 0 134 20.5t96 54t57 70.5t25 75h56q-4 -45 -28 -90.5t-66.5 -87.5t-114 -68.5t-160.5 -26.5zM838 569h677v4q0 200 -90.5 311t-245.5 111q-156 0 -248.5 -111.5
t-92.5 -310.5v-4zM444 35q140 0 239 87t99 225v171h-329q-143 0 -214.5 -62t-71.5 -168q0 -115 76.5 -184t200.5 -69zM1128 1279h-558v44h558v-44z" />
    <glyph glyph-name="Gcaron" unicode="&#x1e6;" horiz-adv-x="1261" 
d="M1104 1015h-53q-4 39 -20 81t-48.5 86t-78 78t-113.5 56t-148 22q-213 0 -328.5 -143.5t-115.5 -386.5v-241q0 -119 27 -217t81 -172.5t142.5 -116t205.5 -41.5q183 0 297 97.5t114 270.5v202h-421v52h474v-254q0 -200 -130 -310t-337 -110q-106 0 -191.5 30.5
t-144.5 84.5t-98.5 129.5t-57.5 164t-18 190.5v241q0 266 130 424t370 158q110 0 199.5 -34.5t144 -90t84.5 -120t34 -130.5zM342 1713h79l208 -156h4l208 156h79l-275 -205h-28z" />
    <glyph glyph-name="gcaron" unicode="&#x1e7;" horiz-adv-x="1097" 
d="M529 -298q157 0 247 78.5t90 204.5v287h-4q-5 -21 -17.5 -46.5t-40.5 -60t-65 -62t-95.5 -46.5t-127.5 -19q-171 0 -281 117.5t-110 312.5v148q0 106 32.5 190.5t88.5 136t125.5 78.5t146.5 27q79 0 143.5 -24t104 -62t62.5 -74t34 -71h4v213h56v-1043
q0 -151 -105.5 -244.5t-288.5 -93.5q-91 0 -164 25t-116 65t-65.5 86t-24.5 93h57q6 -82 88 -149t226 -67zM518 995q-66 0 -124.5 -23.5t-106.5 -70t-76.5 -124t-28.5 -176.5v-121q0 -181 96 -285t240 -104q108 0 189 56t120 142t39 187v129q0 167 -96 278.5t-252 111.5z
M282 1541h55l208 -292h4l208 292h55l-240 -335h-50z" />
    <glyph glyph-name="Kcaron" unicode="&#x1e8;" horiz-adv-x="1121" 
d="M1037 1358l-573 -612l607 -746h-74l-574 709l-168 -177v-532h-57v1358h57v-749h1l706 749h75zM256 1713h79l208 -156h4l208 156h79l-275 -205h-28z" />
    <glyph glyph-name="kcaron" unicode="&#x1e9;" horiz-adv-x="994" 
d="M231 433v-433h-56v1435h56v-929h4l578 524h80l-462 -418l485 -612h-73l-455 574zM-86 1790h79l208 -156h4l208 156h79l-275 -205h-28z" />
    <glyph glyph-name="Oogonek" unicode="&#x1ea;" horiz-adv-x="1310" 
d="M198 815v-272q0 -234 122 -378.5t335 -144.5t335 144.5t122 378.5v272q0 233 -122.5 378t-334.5 145t-334.5 -145t-122.5 -378zM655 -32q-243 0 -378 158t-135 425v256q0 267 135 425t378 158t378 -159t135 -426v-254q0 -320 -219 -504q-161 -135 -161 -247
q0 -55 37.5 -88t96.5 -33q48 0 88 15v-43q-38 -21 -103 -21q-74 0 -124.5 43.5t-50.5 122.5q0 108 108 209q-87 -37 -185 -37z" />
    <glyph glyph-name="oogonek" unicode="&#x1eb;" horiz-adv-x="1080" 
d="M539 995q-158 0 -258 -106.5t-100 -303.5v-145q0 -196 99.5 -300.5t259.5 -104.5q158 0 258 104t100 301v145q0 195 -101 302.5t-258 107.5zM705 30q-57 -48 -166 -48q-87 0 -162 29t-131.5 84t-88.5 141t-32 195v163q0 217 116 335.5t298 118.5q178 0 297 -120.5
t119 -333.5v-163q0 -231 -153 -369q-71 -64 -108.5 -119t-37.5 -123q0 -55 37.5 -88t96.5 -33q48 0 88 15v-44q-36 -20 -103 -20q-74 0 -124.5 43.5t-50.5 122.5q0 57 27.5 106t80.5 104z" />
    <glyph glyph-name="Oogonekmacron" unicode="&#x1ec;" horiz-adv-x="1310" 
d="M198 815v-272q0 -234 122 -378.5t335 -144.5t335 144.5t122 378.5v272q0 233 -122.5 378t-334.5 145t-334.5 -145t-122.5 -378zM655 -32q-243 0 -378 158t-135 425v256q0 267 135 425t378 158t378 -159t135 -426v-254q0 -320 -219 -504q-161 -135 -161 -247
q0 -55 37.5 -88t96.5 -33q48 0 88 15v-43q-38 -21 -103 -21q-74 0 -124.5 43.5t-50.5 122.5q0 108 108 209q-87 -37 -185 -37zM924 1545h-538v44h538v-44z" />
    <glyph glyph-name="oogonekmacron" unicode="&#x1ed;" horiz-adv-x="1080" 
d="M539 995q-158 0 -258 -106.5t-100 -303.5v-145q0 -196 99.5 -300.5t259.5 -104.5q158 0 258 104t100 301v145q0 195 -101 302.5t-258 107.5zM705 30q-57 -48 -166 -48q-87 0 -162 29t-131.5 84t-88.5 141t-32 195v163q0 217 116 335.5t298 118.5q178 0 297 -120.5
t119 -333.5v-163q0 -231 -153 -369q-71 -64 -108.5 -119t-37.5 -123q0 -55 37.5 -88t96.5 -33q48 0 88 15v-44q-36 -20 -103 -20q-74 0 -124.5 43.5t-50.5 122.5q0 57 27.5 106t80.5 104zM819 1279h-558v44h558v-44z" />
    <glyph glyph-name="Gacute" unicode="&#x1f4;" horiz-adv-x="1261" 
d="M1104 1015h-53q-4 39 -20 81t-48.5 86t-78 78t-113.5 56t-148 22q-213 0 -328.5 -143.5t-115.5 -386.5v-241q0 -119 27 -217t81 -172.5t142.5 -116t205.5 -41.5q183 0 297 97.5t114 270.5v202h-421v52h474v-254q0 -200 -130 -310t-337 -110q-106 0 -191.5 30.5
t-144.5 84.5t-98.5 129.5t-57.5 164t-18 190.5v241q0 266 130 424t370 158q110 0 199.5 -34.5t144 -90t84.5 -120t34 -130.5zM648 1512h-55l246 301h65z" />
    <glyph glyph-name="gacute" unicode="&#x1f5;" horiz-adv-x="1097" 
d="M529 -298q157 0 247 78.5t90 204.5v287h-4q-5 -21 -17.5 -46.5t-40.5 -60t-65 -62t-95.5 -46.5t-127.5 -19q-171 0 -281 117.5t-110 312.5v148q0 106 32.5 190.5t88.5 136t125.5 78.5t146.5 27q79 0 143.5 -24t104 -62t62.5 -74t34 -71h4v213h56v-1043
q0 -151 -105.5 -244.5t-288.5 -93.5q-91 0 -164 25t-116 65t-65.5 86t-24.5 93h57q6 -82 88 -149t226 -67zM518 995q-66 0 -124.5 -23.5t-106.5 -70t-76.5 -124t-28.5 -176.5v-121q0 -181 96 -285t240 -104q108 0 189 56t120 142t39 187v129q0 167 -96 278.5t-252 111.5z
M569 1206h-55l246 301h65z" />
    <glyph glyph-name="Ngrave" unicode="&#x1f8;" horiz-adv-x="1326" 
d="M255 0h-57v1358h60l809 -1256h4v1256h57v-1358h-60l-809 1256h-4v-1256zM701 1512h-55l-256 301h66z" />
    <glyph glyph-name="ngrave" unicode="&#x1f9;" horiz-adv-x="1095" 
d="M175 0v1030h56v-210h4q27 93 115 160.5t227 67.5q157 0 255 -97.5t98 -271.5v-679h-56v673q0 140 -79.5 231t-219.5 91q-109 0 -189 -54t-117.5 -136t-37.5 -178v-627h-56zM581 1206h-55l-256 301h66z" />
    <glyph glyph-name="Aringacute" unicode="&#x1fa;" horiz-adv-x="1177" 
d="M130 0h-60l487 1358h63l487 -1358h-61l-166 470h-584zM591 1289h-5l-273 -769h549zM564 1804l145 141h67l-157 -141h-55zM589 1428q-68 0 -115.5 47.5t-47.5 115.5q0 67 47.5 113.5t115.5 46.5q67 0 115.5 -47t48.5 -113q0 -67 -49 -115t-115 -48zM472 1589q0 -47 35 -82
t82 -35q49 0 83.5 35t34.5 82q0 49 -34.5 83.5t-83.5 34.5q-47 0 -82 -35t-35 -83z" />
    <glyph glyph-name="aringacute" unicode="&#x1fb;" horiz-adv-x="1003" 
d="M778 178q-8 -26 -31 -56.5t-62 -63.5t-103 -54.5t-139 -21.5q-152 0 -244.5 82t-92.5 223q0 130 89.5 207t257.5 77h329v159q0 133 -78 199t-212 66q-127 0 -195 -54.5t-88 -158.5h-56q16 122 102 194t241 72q158 0 250 -79t92 -224v-745h-56v178h-4zM444 35
q140 0 239 87t99 225v171h-329q-143 0 -214.5 -62t-71.5 -168q0 -115 76.5 -184t200.5 -69zM530 1636h-46l157 190h65zM502 1205q-71 0 -120 49t-49 120q0 70 49 118t120 48q70 0 120 -48.5t50 -117.5q0 -70 -50.5 -119.5t-119.5 -49.5zM380 1372q0 -49 36.5 -85.5
t85.5 -36.5q51 0 87 36t36 86q0 51 -36 87t-87 36q-49 0 -85.5 -36t-36.5 -87z" />
    <glyph glyph-name="AEacute" unicode="&#x1fc;" horiz-adv-x="1816" 
d="M881 1305l-463 -755h529v755h-66zM947 500h-559l-307 -500h-60l827 1358h864v-53h-708v-582h674v-53h-674v-617h708v-53h-765v500zM1343 1512h-55l246 301h65z" />
    <glyph glyph-name="aeacute" unicode="&#x1fd;" horiz-adv-x="1698" 
d="M1188 -18q-148 0 -245 74t-125 206h-4q-24 -121 -122 -200.5t-249 -79.5q-152 0 -244.5 82t-92.5 223q0 130 89.5 206.5t257.5 75.5h329v141q0 135 -79.5 210t-210.5 75q-127 0 -195 -54.5t-88 -158.5h-56q16 122 102 194t241 72q128 0 215 -60.5t115 -167.5h4
q42 112 135 170t214 58q181 0 286.5 -125t105.5 -363v-42h-733v-61q0 -203 94 -312.5t257 -109.5q74 0 134 20.5t96 54t57 70.5t25 75h56q-4 -45 -28 -90.5t-66.5 -87.5t-114 -68.5t-160.5 -26.5zM838 569h677v4q0 200 -90.5 311t-245.5 111q-156 0 -248.5 -111.5
t-92.5 -310.5v-4zM444 35q140 0 239 87t99 225v171h-329q-143 0 -214.5 -62t-71.5 -168q0 -115 76.5 -184t200.5 -69zM871 1206h-55l246 301h65z" />
    <glyph glyph-name="Oslashacute" unicode="&#x1fe;" horiz-adv-x="1310" 
d="M655 -32q-279 0 -415 207l-116 -135l-35 29l127 147q-74 139 -74 336v254q0 267 134.5 425.5t378.5 158.5q269 0 406 -194l125 144l37 -25l-137 -159q82 -143 82 -350v-254q0 -267 -134.5 -425.5t-378.5 -158.5zM198 543q0 -159 58 -280l766 887q-60 90 -153 139t-214 49
q-212 0 -334.5 -145t-122.5 -378v-272zM655 20q214 0 335.5 144.5t121.5 378.5v272q0 169 -66 295l-767 -890q59 -95 154.5 -147.5t221.5 -52.5zM672 1512h-55l246 301h65z" />
    <glyph glyph-name="oslashacute" unicode="&#x1ff;" horiz-adv-x="1080" 
d="M262 162q97 -127 278 -127q158 0 258 104t100 301v145q0 132 -49 228zM181 440q0 -141 55 -238l588 652q-99 141 -285 141q-158 0 -258 -106.5t-100 -303.5v-145zM539 -18q-202 0 -316 138l-108 -120l-34 30l115 127q-71 112 -71 274v163q0 217 116 335.5t298 118.5
q99 0 183 -39t141 -113l134 146l34 -30l-142 -154q66 -110 66 -264v-163q0 -109 -32.5 -195.5t-89.5 -141.5t-132 -83.5t-162 -28.5zM562 1206h-55l246 301h65z" />
    <glyph glyph-name="Adblgrave" unicode="&#x200;" horiz-adv-x="1177" 
d="M130 0h-60l487 1358h63l487 -1358h-61l-166 470h-584zM591 1289h-5l-273 -769h549zM515 1512h-60l-336 250h81zM775 1512h-60l-336 250h81z" />
    <glyph glyph-name="adblgrave" unicode="&#x201;" horiz-adv-x="1003" 
d="M778 178q-8 -26 -31 -56.5t-62 -63.5t-103 -54.5t-139 -21.5q-152 0 -244.5 82t-92.5 223q0 130 89.5 207t257.5 77h329v159q0 133 -78 199t-212 66q-127 0 -195 -54.5t-88 -158.5h-56q16 122 102 194t241 72q158 0 250 -79t92 -224v-745h-56v178h-4zM444 35
q140 0 239 87t99 225v171h-329q-143 0 -214.5 -62t-71.5 -168q0 -115 76.5 -184t200.5 -69zM380 1206l-256 301h65l246 -301h-55zM583 1206l-256 301h65l246 -301h-55z" />
    <glyph glyph-name="Ainvertedbreve" unicode="&#x202;" horiz-adv-x="1177" 
d="M130 0h-60l487 1358h63l487 -1358h-61l-166 470h-584zM591 1289h-5l-273 -769h549zM589 1711q-97 0 -154 -51.5t-57 -134.5h-52q0 97 70 165.5t193 68.5q122 0 188 -69t66 -165h-52q0 84 -53 135t-149 51z" />
    <glyph glyph-name="ainvertedbreve" unicode="&#x203;" horiz-adv-x="1003" 
d="M778 178q-8 -26 -31 -56.5t-62 -63.5t-103 -54.5t-139 -21.5q-152 0 -244.5 82t-92.5 223q0 130 89.5 207t257.5 77h329v159q0 133 -78 199t-212 66q-127 0 -195 -54.5t-88 -158.5h-56q16 122 102 194t241 72q158 0 250 -79t92 -224v-745h-56v178h-4zM444 35
q140 0 239 87t99 225v171h-329q-143 0 -214.5 -62t-71.5 -168q0 -115 76.5 -184t200.5 -69zM239 1206q0 97 70 165.5t193 68.5q122 0 188 -69t66 -165h-52q0 84 -53 135t-149 51q-97 0 -154 -51.5t-57 -134.5h-52z" />
    <glyph glyph-name="Edblgrave" unicode="&#x204;" horiz-adv-x="1093" 
d="M963 53v-53h-765v1358h765v-53h-708v-582h674v-53h-674v-617h708zM504 1512h-60l-336 250h81zM764 1512h-60l-336 250h81z" />
    <glyph glyph-name="edblgrave" unicode="&#x205;" horiz-adv-x="1040" 
d="M531 -18q-191 0 -298.5 123t-107.5 348v107q0 238 107 363t288 125t288 -125t107 -363v-42h-734v-61q0 -203 94 -312.5t257 -109.5q74 0 134 21t96.5 54t57 70.5t24.5 74.5h56q-4 -45 -27.5 -90.5t-66 -87.5t-114.5 -68.5t-161 -26.5zM181 569h678v4q0 200 -92 311
t-247 111t-247 -111t-92 -311v-4zM397 1206l-256 301h65l246 -301h-55zM600 1206l-256 301h65l246 -301h-55z" />
    <glyph glyph-name="Einvertedbreve" unicode="&#x206;" horiz-adv-x="1093" 
d="M963 53v-53h-765v1358h765v-53h-708v-582h674v-53h-674v-617h708zM578 1711q-97 0 -154 -51.5t-57 -134.5h-52q0 97 70 165.5t193 68.5q122 0 188 -69t66 -165h-52q0 84 -53 135t-149 51z" />
    <glyph glyph-name="einvertedbreve" unicode="&#x207;" horiz-adv-x="1040" 
d="M531 -18q-191 0 -298.5 123t-107.5 348v107q0 238 107 363t288 125t288 -125t107 -363v-42h-734v-61q0 -203 94 -312.5t257 -109.5q74 0 134 21t96.5 54t57 70.5t24.5 74.5h56q-4 -45 -27.5 -90.5t-66 -87.5t-114.5 -68.5t-161 -26.5zM181 569h678v4q0 200 -92 311
t-247 111t-247 -111t-92 -311v-4zM256 1206q0 97 70 165.5t193 68.5q122 0 188 -69t66 -165h-52q0 84 -53 135t-149 51q-97 0 -154 -51.5t-57 -134.5h-52z" />
    <glyph glyph-name="Idblgrave" unicode="&#x208;" horiz-adv-x="493" 
d="M275 0h-57v1358h57v-1358zM173 1512h-60l-336 250h81zM433 1512h-60l-336 250h81z" />
    <glyph glyph-name="idblgrave" unicode="&#x209;" horiz-adv-x="416" 
d="M180 0v1030h56v-1030h-56zM87 1206l-256 301h65l246 -301h-55zM290 1206l-256 301h65l246 -301h-55z" />
    <glyph glyph-name="Iinvertedbreve" unicode="&#x20a;" horiz-adv-x="493" 
d="M275 0h-57v1358h57v-1358zM247 1711q-97 0 -154 -51.5t-57 -134.5h-52q0 97 70 165.5t193 68.5q122 0 188 -69t66 -165h-52q0 84 -53 135t-149 51z" />
    <glyph glyph-name="iinvertedbreve" unicode="&#x20b;" horiz-adv-x="416" 
d="M180 0v1030h56v-1030h-56zM-54 1206q0 97 70 165.5t193 68.5q122 0 188 -69t66 -165h-52q0 84 -53 135t-149 51q-97 0 -154 -51.5t-57 -134.5h-52z" />
    <glyph glyph-name="Odblgrave" unicode="&#x20c;" horiz-adv-x="1310" 
d="M198 815v-272q0 -234 122 -378.5t335 -144.5t335 144.5t122 378.5v272q0 233 -122.5 378t-334.5 145t-334.5 -145t-122.5 -378zM142 551v256q0 267 135 425t378 158t378 -159t135 -426v-254q0 -267 -135 -425t-378 -158t-378 158t-135 425zM581 1512h-60l-336 250h81z
M841 1512h-60l-336 250h81z" />
    <glyph glyph-name="odblgrave" unicode="&#x20d;" horiz-adv-x="1080" 
d="M539 1048q178 0 297 -120.5t119 -333.5v-163q0 -109 -32.5 -195.5t-89.5 -141.5t-132 -83.5t-162 -28.5t-162 29t-131.5 84t-88.5 141t-32 195v163q0 217 116 335.5t298 118.5zM539 995q-158 0 -258 -106.5t-100 -303.5v-145q0 -196 99.5 -300.5t259.5 -104.5
q158 0 258 104t100 301v145q0 195 -101 302.5t-258 107.5zM417 1206l-256 301h65l246 -301h-55zM620 1206l-256 301h65l246 -301h-55z" />
    <glyph glyph-name="Oinvertedbreve" unicode="&#x20e;" horiz-adv-x="1310" 
d="M198 815v-272q0 -234 122 -378.5t335 -144.5t335 144.5t122 378.5v272q0 233 -122.5 378t-334.5 145t-334.5 -145t-122.5 -378zM142 551v256q0 267 135 425t378 158t378 -159t135 -426v-254q0 -267 -135 -425t-378 -158t-378 158t-135 425zM655 1711q-97 0 -154 -51.5
t-57 -134.5h-52q0 97 70 165.5t193 68.5q122 0 188 -69t66 -165h-52q0 84 -53 135t-149 51z" />
    <glyph glyph-name="oinvertedbreve" unicode="&#x20f;" horiz-adv-x="1080" 
d="M539 1048q178 0 297 -120.5t119 -333.5v-163q0 -109 -32.5 -195.5t-89.5 -141.5t-132 -83.5t-162 -28.5t-162 29t-131.5 84t-88.5 141t-32 195v163q0 217 116 335.5t298 118.5zM539 995q-158 0 -258 -106.5t-100 -303.5v-145q0 -196 99.5 -300.5t259.5 -104.5
q158 0 258 104t100 301v145q0 195 -101 302.5t-258 107.5zM276 1206q0 97 70 165.5t193 68.5q122 0 188 -69t66 -165h-52q0 84 -53 135t-149 51q-97 0 -154 -51.5t-57 -134.5h-52z" />
    <glyph glyph-name="Rdblgrave" unicode="&#x210;" horiz-adv-x="1181" 
d="M632 1358q185 0 295 -102t110 -273q0 -150 -81.5 -242.5t-218.5 -121.5l322 -619h-66l-318 608h-420v-608h-57v1358h434zM255 659h368q162 0 259 87.5t97 236.5q0 150 -96 237t-260 87h-368v-648zM517 1512h-60l-336 250h81zM777 1512h-60l-336 250h81z" />
    <glyph glyph-name="rdblgrave" unicode="&#x211;" horiz-adv-x="665" 
d="M175 0v1030h56v-213h4q60 229 299 229q37 0 81 -8v-54q-40 9 -88 9q-140 0 -218 -108t-78 -297v-588h-56zM213 1206l-256 301h65l246 -301h-55zM416 1206l-256 301h65l246 -301h-55z" />
    <glyph glyph-name="Rinvertedbreve" unicode="&#x212;" horiz-adv-x="1181" 
d="M632 1358q185 0 295 -102t110 -273q0 -150 -81.5 -242.5t-218.5 -121.5l322 -619h-66l-318 608h-420v-608h-57v1358h434zM255 659h368q162 0 259 87.5t97 236.5q0 150 -96 237t-260 87h-368v-648zM591 1711q-97 0 -154 -51.5t-57 -134.5h-52q0 97 70 165.5t193 68.5
q122 0 188 -69t66 -165h-52q0 84 -53 135t-149 51z" />
    <glyph glyph-name="rinvertedbreve" unicode="&#x213;" horiz-adv-x="665" 
d="M175 0v1030h56v-213h4q60 229 299 229q37 0 81 -8v-54q-40 9 -88 9q-140 0 -218 -108t-78 -297v-588h-56zM72 1206q0 97 70 165.5t193 68.5q122 0 188 -69t66 -165h-52q0 84 -53 135t-149 51q-97 0 -154 -51.5t-57 -134.5h-52z" />
    <glyph glyph-name="Udblgrave" unicode="&#x214;" horiz-adv-x="1327" 
d="M242 1358v-891q0 -205 109.5 -324.5t311.5 -119.5q204 0 312.5 118.5t108.5 325.5v891h58v-891q0 -230 -126 -364.5t-353 -134.5t-352.5 134.5t-125.5 364.5v891h57zM590 1512h-60l-336 250h81zM850 1512h-60l-336 250h81z" />
    <glyph glyph-name="udblgrave" unicode="&#x215;" horiz-adv-x="1095" 
d="M920 1030v-1030h-56v211h-4q-14 -41 -40.5 -79t-67.5 -73t-103 -56t-136 -21q-153 0 -250.5 89.5t-97.5 259.5v699h56v-693q0 -136 79.5 -219t214.5 -83q83 0 151 33t110.5 88.5t65 123t22.5 140.5v610h56zM426 1206l-256 301h65l246 -301h-55zM629 1206l-256 301h65
l246 -301h-55z" />
    <glyph glyph-name="Uinvertedbreve" unicode="&#x216;" horiz-adv-x="1327" 
d="M242 1358v-891q0 -205 109.5 -324.5t311.5 -119.5q204 0 312.5 118.5t108.5 325.5v891h58v-891q0 -230 -126 -364.5t-353 -134.5t-352.5 134.5t-125.5 364.5v891h57zM664 1711q-97 0 -154 -51.5t-57 -134.5h-52q0 97 70 165.5t193 68.5q122 0 188 -69t66 -165h-52
q0 84 -53 135t-149 51z" />
    <glyph glyph-name="uinvertedbreve" unicode="&#x217;" horiz-adv-x="1095" 
d="M920 1030v-1030h-56v211h-4q-14 -41 -40.5 -79t-67.5 -73t-103 -56t-136 -21q-153 0 -250.5 89.5t-97.5 259.5v699h56v-693q0 -136 79.5 -219t214.5 -83q83 0 151 33t110.5 88.5t65 123t22.5 140.5v610h56zM285 1206q0 97 70 165.5t193 68.5q122 0 188 -69t66 -165h-52
q0 84 -53 135t-149 51q-97 0 -154 -51.5t-57 -134.5h-52z" />
    <glyph glyph-name="Scommaaccent" unicode="&#x218;" horiz-adv-x="1158" 
d="M120 338h59q1 -39 13 -79.5t42 -84t74 -77t115.5 -55t159.5 -21.5q176 0 286 88.5t110 224.5q0 68 -21.5 118t-69 86t-106.5 61t-149 49l-157 42q-153 41 -231.5 122.5t-78.5 219.5q0 161 114.5 259.5t311.5 98.5q101 0 182 -27.5t131.5 -74.5t77 -105t26.5 -123h-59
q-1 38 -13 75.5t-40 74t-68 64.5t-101.5 45.5t-135.5 17.5q-171 0 -268.5 -84t-97.5 -222q0 -121 69.5 -186.5t216.5 -105.5l150 -41q98 -27 162.5 -54.5t115.5 -69t74.5 -99.5t23.5 -138q0 -168 -127 -268.5t-333 -100.5q-98 0 -178.5 24.5t-131 63t-85 89t-49 98.5
t-14.5 95zM495 -479h-38l85 335h67z" />
    <glyph glyph-name="scommaaccent" unicode="&#x219;" horiz-adv-x="950" 
d="M137 773q0 128 93 201.5t247 73.5q74 0 133.5 -18t97 -46.5t63 -65t35.5 -70.5t10 -66h-56q0 24 -8.5 51t-29.5 56.5t-52 52.5t-81.5 38t-112.5 15q-122 0 -201 -56t-79 -164q0 -39 12.5 -69t32.5 -51.5t58.5 -40.5t78 -32.5t102.5 -31.5q150 -43 192 -60
q123 -52 153 -144q11 -36 11 -79q0 -140 -107 -212.5t-267 -72.5q-98 0 -172.5 27.5t-114.5 71.5t-59 89.5t-19 90.5h56q0 -26 9 -55t32 -60t57 -55t89 -40t122 -16q86 0 155 23.5t114.5 78t45.5 132.5q0 29 -7.5 53t-17.5 41.5t-34 34t-42.5 27t-59 25t-67.5 22.5t-83 24
q-57 16 -93.5 28.5t-78.5 30.5t-67 37.5t-47.5 45.5t-32.5 59.5t-10 75.5zM400 -479h-38l85 335h67z" />
    <glyph glyph-name="Tcommaaccent" unicode="&#x21a;" horiz-adv-x="1077" 
d="M568 0h-57v1305h-451v53h957v-53h-449v-1305zM464 -479h-38l85 335h67z" />
    <glyph glyph-name="tcommaaccent" unicode="&#x21b;" horiz-adv-x="617" 
d="M218 1030v248h56v-248h273v-50h-273v-780q0 -92 42 -126.5t143 -34.5q56 0 103 9v-48q-46 -10 -110 -10q-131 0 -182.5 50t-51.5 179v761h-173v50h173zM317 -479h-38l85 335h67z" />
    <glyph glyph-name="Hcaron" unicode="&#x21e;" horiz-adv-x="1326" 
d="M1128 0h-57v689h-816v-689h-57v1358h57v-617h816v617h57v-1358zM371 1713h79l208 -156h4l208 156h79l-275 -205h-28z" />
    <glyph glyph-name="hcaron" unicode="&#x21f;" horiz-adv-x="1099" 
d="M175 0v1435h56v-615h4q27 93 116 160.5t228 67.5q157 0 256 -98t99 -271v-679h-56v673q0 140 -80.5 231t-220.5 91q-109 0 -189.5 -54t-118.5 -136t-38 -178v-627h-56zM-86 1790h79l208 -156h4l208 156h79l-275 -205h-28z" />
    <glyph glyph-name="Adotaccent" unicode="&#x226;" horiz-adv-x="1177" 
d="M130 0h-60l487 1358h63l487 -1358h-61l-166 470h-584zM591 1289h-5l-273 -769h549zM525 1654q0 27 18.5 45t45.5 18t45.5 -18t18.5 -45q0 -26 -18.5 -44t-45.5 -18t-45.5 18t-18.5 44z" />
    <glyph glyph-name="adotaccent" unicode="&#x227;" horiz-adv-x="1003" 
d="M778 178q-8 -26 -31 -56.5t-62 -63.5t-103 -54.5t-139 -21.5q-152 0 -244.5 82t-92.5 223q0 130 89.5 207t257.5 77h329v159q0 133 -78 199t-212 66q-127 0 -195 -54.5t-88 -158.5h-56q16 122 102 194t241 72q158 0 250 -79t92 -224v-745h-56v178h-4zM444 35
q140 0 239 87t99 225v171h-329q-143 0 -214.5 -62t-71.5 -168q0 -115 76.5 -184t200.5 -69zM434 1339q0 28 19.5 48t47.5 20t48 -20t20 -48t-20 -47.5t-48 -19.5t-47.5 19.5t-19.5 47.5z" />
    <glyph glyph-name="Ecedilla" unicode="&#x228;" horiz-adv-x="1093" 
d="M530 -457q-70 0 -116 16v50q46 -16 122 -16q65 0 113 28.5t48 83.5q0 109 -153 109h-50v39l66 147h-362v1358h765v-53h-708v-582h674v-53h-674v-617h708v-53h-351l-60 -139q84 0 144 -37t60 -115q0 -81 -68 -123.5t-158 -42.5z" />
    <glyph glyph-name="ecedilla" unicode="&#x229;" horiz-adv-x="1040" 
d="M181 569h678v4q0 200 -92 311t-247 111t-247 -111t-92 -311v-4zM498 -457q-70 0 -116 16v50q46 -16 122 -16q65 0 113 28.5t48 83.5q0 109 -153 109h-50v39l57 129q-185 4 -289.5 126.5t-104.5 344.5v107q0 238 107 363t288 125t288 -125t107 -363v-42h-734v-61
q0 -203 94 -312.5t257 -109.5q74 0 134 21t96.5 54t57 70.5t24.5 74.5h56q-3 -42 -24 -85t-59 -83t-102 -68.5t-142 -34.5l-53 -123q84 0 144 -37t60 -115q0 -81 -68 -123.5t-158 -42.5z" />
    <glyph glyph-name="Odieresismacron" unicode="&#x22a;" horiz-adv-x="1310" 
d="M198 815v-272q0 -234 122 -378.5t335 -144.5t335 144.5t122 378.5v272q0 233 -122.5 378t-334.5 145t-334.5 -145t-122.5 -378zM142 551v256q0 267 135 425t378 158t378 -159t135 -426v-254q0 -267 -135 -425t-378 -158t-378 158t-135 425zM512 1515q-23 0 -39.5 16.5
t-16.5 39.5t16.5 39.5t39.5 16.5t39.5 -16.5t16.5 -39.5t-16.5 -39.5t-39.5 -16.5zM798 1515q-23 0 -39.5 16.5t-16.5 39.5t16.5 39.5t39.5 16.5t39.5 -16.5t16.5 -39.5t-16.5 -39.5t-39.5 -16.5zM924 1813h-538v44h538v-44z" />
    <glyph glyph-name="odieresismacron" unicode="&#x22b;" horiz-adv-x="1080" 
d="M539 1048q178 0 297 -120.5t119 -333.5v-163q0 -109 -32.5 -195.5t-89.5 -141.5t-132 -83.5t-162 -28.5t-162 29t-131.5 84t-88.5 141t-32 195v163q0 217 116 335.5t298 118.5zM539 995q-158 0 -258 -106.5t-100 -303.5v-145q0 -196 99.5 -300.5t259.5 -104.5
q158 0 258 104t100 301v145q0 195 -101 302.5t-258 107.5zM397 1246q-23 0 -39.5 16.5t-16.5 39.5t16.5 39.5t39.5 16.5t39.5 -16.5t16.5 -39.5t-16.5 -39.5t-39.5 -16.5zM683 1246q-23 0 -39.5 16.5t-16.5 39.5t16.5 39.5t39.5 16.5t39.5 -16.5t16.5 -39.5t-16.5 -39.5
t-39.5 -16.5zM818 1554h-558v44h558v-44z" />
    <glyph glyph-name="Otildemacron" unicode="&#x22c;" horiz-adv-x="1310" 
d="M198 815v-272q0 -234 122 -378.5t335 -144.5t335 144.5t122 378.5v272q0 233 -122.5 378t-334.5 145t-334.5 -145t-122.5 -378zM142 551v256q0 267 135 425t378 158t378 -159t135 -426v-254q0 -267 -135 -425t-378 -158t-378 158t-135 425zM773 1517q-46 0 -84 17
t-59.5 38t-52 38t-64.5 17q-44 0 -72 -28.5t-28 -86.5h-48q0 78 41 118t107 40q36 0 66 -11.5t51 -27.5t41 -32t46 -27.5t57 -11.5q51 0 75.5 26.5t24.5 88.5h48q0 -77 -38 -117.5t-111 -40.5zM924 1813h-538v44h538v-44z" />
    <glyph glyph-name="otildemacron" unicode="&#x22d;" horiz-adv-x="1080" 
d="M539 1048q178 0 297 -120.5t119 -333.5v-163q0 -109 -32.5 -195.5t-89.5 -141.5t-132 -83.5t-162 -28.5t-162 29t-131.5 84t-88.5 141t-32 195v163q0 217 116 335.5t298 118.5zM539 995q-158 0 -258 -106.5t-100 -303.5v-145q0 -196 99.5 -300.5t259.5 -104.5
q158 0 258 104t100 301v145q0 195 -101 302.5t-258 107.5zM675 1201q-34 0 -63.5 12.5t-48.5 31t-39.5 40t-36.5 40t-38.5 31t-47.5 12.5q-46 0 -78 -38.5t-32 -112.5h-48q0 95 44 145.5t114 50.5q39 0 71 -17t53.5 -41.5t42 -49.5t47.5 -42t60 -17q52 0 81 41.5t29 116.5
h48q0 -92 -41.5 -147.5t-116.5 -55.5zM818 1554h-558v44h558v-44z" />
    <glyph glyph-name="Odotaccent" unicode="&#x22e;" horiz-adv-x="1310" 
d="M198 815v-272q0 -234 122 -378.5t335 -144.5t335 144.5t122 378.5v272q0 233 -122.5 378t-334.5 145t-334.5 -145t-122.5 -378zM142 551v256q0 267 135 425t378 158t378 -159t135 -426v-254q0 -267 -135 -425t-378 -158t-378 158t-135 425zM591 1654q0 27 18.5 45
t45.5 18t45.5 -18t18.5 -45q0 -26 -18.5 -44t-45.5 -18t-45.5 18t-18.5 44z" />
    <glyph glyph-name="odotaccent" unicode="&#x22f;" horiz-adv-x="1080" 
d="M539 1048q178 0 297 -120.5t119 -333.5v-163q0 -109 -32.5 -195.5t-89.5 -141.5t-132 -83.5t-162 -28.5t-162 29t-131.5 84t-88.5 141t-32 195v163q0 217 116 335.5t298 118.5zM539 995q-158 0 -258 -106.5t-100 -303.5v-145q0 -196 99.5 -300.5t259.5 -104.5
q158 0 258 104t100 301v145q0 195 -101 302.5t-258 107.5zM471 1339q0 28 19.5 48t47.5 20t48 -20t20 -48t-20 -47.5t-48 -19.5t-47.5 19.5t-19.5 47.5z" />
    <glyph glyph-name="Odotaccentmacron" unicode="&#x230;" horiz-adv-x="1310" 
d="M198 815v-272q0 -234 122 -378.5t335 -144.5t335 144.5t122 378.5v272q0 233 -122.5 378t-334.5 145t-334.5 -145t-122.5 -378zM142 551v256q0 267 135 425t378 158t378 -159t135 -426v-254q0 -267 -135 -425t-378 -158t-378 158t-135 425zM591 1614q0 27 18.5 45
t45.5 18t45.5 -18t18.5 -45q0 -26 -18.5 -44t-45.5 -18t-45.5 18t-18.5 44zM924 1813h-538v44h538v-44z" />
    <glyph glyph-name="odotaccentmacron" unicode="&#x231;" horiz-adv-x="1080" 
d="M539 1048q178 0 297 -120.5t119 -333.5v-163q0 -109 -32.5 -195.5t-89.5 -141.5t-132 -83.5t-162 -28.5t-162 29t-131.5 84t-88.5 141t-32 195v163q0 217 116 335.5t298 118.5zM539 995q-158 0 -258 -106.5t-100 -303.5v-145q0 -196 99.5 -300.5t259.5 -104.5
q158 0 258 104t100 301v145q0 195 -101 302.5t-258 107.5zM471 1339q0 28 19.5 48t47.5 20t48 -20t20 -48t-20 -47.5t-48 -19.5t-47.5 19.5t-19.5 47.5zM818 1554h-558v44h558v-44z" />
    <glyph glyph-name="Ymacron" unicode="&#x232;" horiz-adv-x="1104" 
d="M581 0h-56v610l-475 748h68l432 -686h6l433 686h65l-473 -746v-612zM821 1545h-538v44h538v-44z" />
    <glyph glyph-name="ymacron" unicode="&#x233;" horiz-adv-x="912" 
d="M867 1030l-371 -1028l-49 -129q-41 -108 -96.5 -154t-154.5 -46q-50 0 -93 10v53q48 -10 92 -10q76 0 122 40t74 115l40 107l-386 1042h62l351 -972h4l345 972h60zM733 1279h-558v44h558v-44z" />
    <glyph glyph-name="quoteright" unicode="&#x2019;" horiz-adv-x="370" 
d="M184 964h-49l37 394h63z" />
    <glyph glyph-name="quoteright" unicode="&#x2bc;" horiz-adv-x="370" 
d="M184 964h-49l37 394h63z" />
    <glyph glyph-name="circumflex" unicode="&#x2c6;" horiz-adv-x="760" 
d="M115 1206l240 335h50l240 -335h-55l-208 292h-4l-208 -292h-55z" />
    <glyph glyph-name="caron" unicode="&#x2c7;" horiz-adv-x="760" 
d="M115 1541h55l208 -292h4l208 292h55l-240 -335h-50z" />
    <glyph glyph-name="breve" unicode="&#x2d8;" horiz-adv-x="760" 
d="M117 1437h52q0 -83 57 -134.5t154 -51.5t154 51.5t57 134.5h52q0 -95 -70.5 -164.5t-192.5 -69.5q-123 0 -193 68.5t-70 165.5z" />
    <glyph glyph-name="dotaccent" unicode="&#x2d9;" horiz-adv-x="760" 
d="M313 1339q0 28 19.5 48t47.5 20t48 -20t20 -48t-20 -47.5t-48 -19.5t-47.5 19.5t-19.5 47.5z" />
    <glyph glyph-name="ring" unicode="&#x2da;" horiz-adv-x="760" 
d="M382 1205q-71 0 -120 49t-49 120q0 70 49 118t120 48q70 0 120 -48.5t50 -117.5q0 -70 -50.5 -119.5t-119.5 -49.5zM260 1372q0 -49 36.5 -85.5t85.5 -36.5q51 0 87 36t36 86q0 51 -36 87t-87 36q-49 0 -85.5 -36t-36.5 -87z" />
    <glyph glyph-name="ogonek" unicode="&#x2db;" horiz-adv-x="760" 
d="M489 -287v-48q-38 -16 -84 -16q-71 0 -117.5 40t-46.5 115q0 70 38.5 121.5t107.5 103.5l56 -20q-68 -43 -107 -90t-39 -108q0 -53 29.5 -82t83.5 -29q47 0 79 13z" />
    <glyph glyph-name="tilde" unicode="&#x2dc;" horiz-adv-x="760" 
d="M509 1201q-34 0 -63.5 12.5t-48.5 31t-39.5 40t-36.5 40t-38.5 31t-47.5 12.5q-46 0 -78 -38.5t-32 -112.5h-48q0 95 44 145.5t114 50.5q39 0 71 -17t53.5 -41.5t42 -49.5t47.5 -42t60 -17q52 0 81 41.5t29 116.5h48q0 -92 -41.5 -147.5t-116.5 -55.5z" />
    <glyph glyph-name="hungarumlaut" unicode="&#x2dd;" horiz-adv-x="760" 
d="M184 1206h-55l246 301h65zM387 1206h-55l246 301h65z" />
    <glyph glyph-name="gravecmb" unicode="&#x300;" horiz-adv-x="0" 
d="M33 1206h-55l-256 301h66z" />
    <glyph glyph-name="acutecmb" unicode="&#x301;" horiz-adv-x="0" 
d="M22 1206h-55l246 301h65z" />
    <glyph glyph-name="circumflexcmb" unicode="&#x302;" horiz-adv-x="0" 
d="M-265 1206l240 335h50l240 -335h-55l-208 292h-4l-208 -292h-55z" />
    <glyph glyph-name="tildecmb" unicode="&#x303;" horiz-adv-x="0" 
d="M136 1201q-34 0 -63.5 12.5t-48.5 31t-39.5 40t-36.5 40t-38.5 31t-47.5 12.5q-46 0 -78 -38.5t-32 -112.5h-48q0 95 44 145.5t114 50.5q39 0 71 -17t53.5 -41.5t42 -49.5t47.5 -42t60 -17q52 0 81 41.5t29 116.5h48q0 -92 -41.5 -147.5t-116.5 -55.5z" />
    <glyph glyph-name="macroncmb" unicode="&#x304;" horiz-adv-x="0" 
d="M279 1279h-558v44h558v-44z" />
    <glyph glyph-name="brevecmb" unicode="&#x306;" horiz-adv-x="0" 
d="M-263 1437h52q0 -83 57 -134.5t154 -51.5t154 51.5t57 134.5h52q0 -95 -70.5 -164.5t-192.5 -69.5q-123 0 -193 68.5t-70 165.5z" />
    <glyph glyph-name="dotaccentcmb" unicode="&#x307;" horiz-adv-x="0" 
d="M-68 1339q0 28 19.5 48t47.5 20t48 -20t20 -48t-20 -47.5t-48 -19.5t-47.5 19.5t-19.5 47.5z" />
    <glyph glyph-name="dieresiscmb" unicode="&#x308;" horiz-adv-x="0" 
d="M-142 1246q-23 0 -39.5 16.5t-16.5 39.5t16.5 39.5t39.5 16.5t39.5 -16.5t16.5 -39.5t-16.5 -39.5t-39.5 -16.5zM144 1246q-23 0 -39.5 16.5t-16.5 39.5t16.5 39.5t39.5 16.5t39.5 -16.5t16.5 -39.5t-16.5 -39.5t-39.5 -16.5z" />
    <glyph glyph-name="hookabovecmb" unicode="&#x309;" horiz-adv-x="0" 
d="M-113 1408v42q11 10 37.5 19t53.5 9q61 0 101 -34.5t40 -89.5q0 -69 -84 -123l-27 33q62 43 62 90q0 35 -26 58t-72 23q-43 0 -85 -27z" />
    <glyph glyph-name="ringcmb" unicode="&#x30a;" horiz-adv-x="0" 
d="M0 1205q-71 0 -120 49t-49 120q0 70 49 118t120 48q70 0 120 -48.5t50 -117.5q0 -70 -50.5 -119.5t-119.5 -49.5zM-122 1372q0 -49 36.5 -85.5t85.5 -36.5q51 0 87 36t36 86q0 51 -36 87t-87 36q-49 0 -85.5 -36t-36.5 -87z" />
    <glyph glyph-name="hungarumlautcmb" unicode="&#x30b;" horiz-adv-x="0" 
d="M-83 1208h-55l246 301h65zM120 1208h-55l246 301h65z" />
    <glyph glyph-name="caroncmb" unicode="&#x30c;" horiz-adv-x="0" 
d="M-265 1541h55l208 -292h4l208 292h55l-240 -335h-50z" />
    <glyph glyph-name="dblgravecmb" unicode="&#x30f;" horiz-adv-x="0" 
d="M-122 1206l-256 301h65l246 -301h-55zM81 1206l-256 301h65l246 -301h-55z" />
    <glyph glyph-name="invertedbrevecmb" unicode="&#x311;" horiz-adv-x="0" 
d="M-263 1206q0 97 70 165.5t193 68.5q122 0 188 -69t66 -165h-52q0 84 -53 135t-149 51q-97 0 -154 -51.5t-57 -134.5h-52z" />
    <glyph glyph-name="horncmb" unicode="&#x31b;" horiz-adv-x="0" 
d="M0 977v53h26q75 0 120 39.5t45 109.5v106h54v-104q0 -106 -61 -155t-156 -49h-28z" />
    <glyph glyph-name="dotbelowcmb" unicode="&#x323;" horiz-adv-x="0" 
d="M-61 -292q0 27 18 45t43 18q27 0 45.5 -18t18.5 -45q0 -26 -18.5 -43.5t-45.5 -17.5q-25 0 -43 17.5t-18 43.5z" />
    <glyph glyph-name="dieresisbelowcmb" unicode="&#x324;" horiz-adv-x="0" 
d="M-142 -352q-23 0 -39.5 16.5t-16.5 39.5t16.5 39.5t39.5 16.5t39.5 -16.5t16.5 -39.5t-16.5 -39.5t-39.5 -16.5zM144 -352q-23 0 -39.5 16.5t-16.5 39.5t16.5 39.5t39.5 16.5t39.5 -16.5t16.5 -39.5t-16.5 -39.5t-39.5 -16.5z" />
    <glyph glyph-name="ringbelowcmb" unicode="&#x325;" horiz-adv-x="0" 
d="M0 -499q-71 0 -120 49t-49 120q0 70 49 118t120 48q70 0 120 -48.5t50 -117.5q0 -70 -50.5 -119.5t-119.5 -49.5zM-122 -332q0 -49 36.5 -85.5t85.5 -36.5q51 0 87 36t36 86q0 51 -36 87t-87 36q-49 0 -85.5 -36t-36.5 -87z" />
    <glyph glyph-name="commabelowcmb" unicode="&#x326;" horiz-adv-x="0" 
d="M-75 -479h-38l85 335h67z" />
    <glyph glyph-name="cedillacmb" unicode="&#x327;" horiz-adv-x="0" 
d="M-89 -186v39l66 147h52l-60 -139q84 0 144 -37t60 -115q0 -81 -68 -123.5t-158 -42.5q-70 0 -116 16v50q46 -16 122 -16q65 0 113 28.5t48 83.5q0 109 -153 109h-50z" />
    <glyph glyph-name="ogonekcmb" unicode="&#x328;" horiz-adv-x="0" 
d="M106 -287v-48q-38 -16 -84 -16q-71 0 -117.5 40t-46.5 115q0 70 38.5 121.5t107.5 103.5l56 -20q-68 -43 -107 -90t-39 -108q0 -53 29.5 -82t83.5 -29q47 0 79 13z" />
    <glyph glyph-name="circumflexbelowcmb" unicode="&#x32d;" horiz-adv-x="0" 
d="M-265 -415l240 275h50l240 -275h-55l-208 241h-4l-208 -241h-55z" />
    <glyph glyph-name="brevebelowcmb" unicode="&#x32e;" horiz-adv-x="0" 
d="M202 -164h52q0 -96 -66 -165t-188 -69q-123 0 -193 68.5t-70 165.5h52q0 -83 57 -134.5t154 -51.5q96 0 149 51t53 135z" />
    <glyph glyph-name="tildebelowcmb" unicode="&#x330;" horiz-adv-x="0" 
d="M134 -385q-34 0 -63.5 12.5t-48.5 31t-39.5 40t-36.5 40t-38.5 31t-47.5 12.5q-46 0 -78 -38.5t-32 -112.5h-48q0 95 44 145.5t114 50.5q39 0 71 -17t53.5 -41.5t42 -49.5t47.5 -42t60 -17q52 0 81 41.5t29 116.5h48q0 -92 -41.5 -147.5t-116.5 -55.5z" />
    <glyph glyph-name="macronbelowcmb" unicode="&#x331;" horiz-adv-x="0" 
d="M279 -294h-558v44h558v-44z" />
    <glyph glyph-name="greekquestionmark" unicode="&#x37e;" horiz-adv-x="398" 
d="M139 -271h-51l69 359h69zM107 817q0 28 19.5 48t47.5 20t48 -20t20 -48t-20 -47.5t-48 -19.5t-47.5 19.5t-19.5 47.5z" />
    <glyph glyph-name="tonosgreek" unicode="&#x384;" horiz-adv-x="599" 
d="M249 1206l80 301h70l-98 -301h-52z" />
    <glyph glyph-name="dieresistonosgreek" unicode="&#x385;" horiz-adv-x="850" 
d="M236 1246q-23 0 -39.5 16.5t-16.5 39.5t16.5 39.5t39.5 16.5t39.5 -16.5t16.5 -39.5t-16.5 -39.5t-39.5 -16.5zM612 1246q-23 0 -39.5 16.5t-16.5 39.5t16.5 39.5t39.5 16.5t39.5 -16.5t16.5 -39.5t-16.5 -39.5t-39.5 -16.5zM380 1227l40 301h70l-58 -301h-52z" />
    <glyph glyph-name="Alphatonosgreek" unicode="&#x386;" horiz-adv-x="1177" 
d="M130 0h-60l487 1358h63l487 -1358h-61l-166 470h-584zM591 1289h-5l-273 -769h549zM195 1057l80 301h70l-98 -301h-52z" />
    <glyph glyph-name="anoteleia" unicode="&#x387;" horiz-adv-x="415" 
d="M140 962q0 28 19.5 48t47.5 20t48 -20t20 -48t-20 -47.5t-48 -19.5t-47.5 19.5t-19.5 47.5z" />
    <glyph glyph-name="Epsilontonosgreek" unicode="&#x388;" horiz-adv-x="1216" 
d="M1086 53v-53h-765v1358h765v-53h-708v-582h674v-53h-674v-617h708zM53 1057l80 301h70l-98 -301h-52z" />
    <glyph glyph-name="Etatonosgreek" unicode="&#x389;" horiz-adv-x="1450" 
d="M1252 0h-57v689h-816v-689h-57v1358h57v-617h816v617h57v-1358zM53 1057l80 301h70l-98 -301h-52z" />
    <glyph glyph-name="Iotatonosgreek" unicode="&#x38a;" horiz-adv-x="616" 
d="M398 0h-57v1358h57v-1358zM53 1057l80 301h70l-98 -301h-52z" />
    <glyph glyph-name="Omicrontonosgreek" unicode="&#x38c;" horiz-adv-x="1400" 
d="M288 815v-272q0 -234 122 -378.5t335 -144.5t335 144.5t122 378.5v272q0 233 -122.5 378t-334.5 145t-334.5 -145t-122.5 -378zM232 551v256q0 267 135 425t378 158t378 -159t135 -426v-254q0 -267 -135 -425t-378 -158t-378 158t-135 425zM53 1057l80 301h70l-98 -301
h-52z" />
    <glyph glyph-name="Upsilontonosgreek" unicode="&#x38e;" horiz-adv-x="1388" 
d="M865 0h-56v610l-475 748h68l432 -686h6l433 686h65l-473 -746v-612zM53 1057l80 301h70l-98 -301h-52z" />
    <glyph glyph-name="Omegatonosgreek" unicode="&#x38f;" horiz-adv-x="1404" 
d="M845 0v82q156 46 250 192t94 338v208q0 148 -54 265t-158.5 185t-244.5 68t-245 -68t-158.5 -185t-53.5 -265v-208q0 -192 94 -338t250 -192v-82h-417v50h364v5q-147 45 -247 195t-100 370v192q0 265 137 421.5t376 156.5t375.5 -156.5t136.5 -421.5v-192
q0 -218 -98 -367.5t-250 -197.5v-5h366v-50h-417zM53 1057l80 301h70l-98 -301h-52z" />
    <glyph glyph-name="iotadieresistonosgreek" unicode="&#x390;" horiz-adv-x="539" 
d="M165 1030h56v-830q0 -92 42 -126.5t143 -34.5q56 0 103 9v-48q-46 -10 -110 -10q-131 0 -182.5 50t-51.5 179v811zM24 1246q-23 0 -39.5 16.5t-16.5 39.5t16.5 39.5t39.5 16.5t39.5 -16.5t16.5 -39.5t-16.5 -39.5t-39.5 -16.5zM400 1246q-23 0 -39.5 16.5t-16.5 39.5
t16.5 39.5t39.5 16.5t39.5 -16.5t16.5 -39.5t-16.5 -39.5t-39.5 -16.5zM168 1227l40 301h70l-58 -301h-52z" />
    <glyph glyph-name="Alphagreek" unicode="&#x391;" horiz-adv-x="1177" 
d="M130 0h-60l487 1358h63l487 -1358h-61l-166 470h-584zM591 1289h-5l-273 -769h549z" />
    <glyph glyph-name="Betagreek" unicode="&#x392;" horiz-adv-x="1205" 
d="M198 0v1358h420q189 0 295.5 -87.5t106.5 -243.5q0 -75 -25.5 -137t-64.5 -98.5t-77 -57.5t-73 -27v-4q60 -6 114 -27.5t100.5 -61t73.5 -104t27 -146.5q0 -167 -113.5 -265.5t-325.5 -98.5h-458zM255 1305v-581h378q87 0 159.5 31t120.5 99.5t48 165.5q0 137 -92.5 211
t-259.5 74h-354zM255 671v-618h398q182 0 282.5 83t100.5 227q0 152 -107.5 230t-271.5 78h-402z" />
    <glyph glyph-name="Gammagreek" unicode="&#x393;" horiz-adv-x="1023" 
d="M255 0h-57v1358h735v-53h-678v-1305z" />
    <glyph glyph-name="Deltagreek" unicode="&#x394;" horiz-adv-x="1224" 
d="M90 0v41l492 1317h63l489 -1312v-46h-1044zM611 1289l-458 -1238h920l-457 1238h-5z" />
    <glyph glyph-name="Epsilongreek" unicode="&#x395;" horiz-adv-x="1093" 
d="M963 53v-53h-765v1358h765v-53h-708v-582h674v-53h-674v-617h708z" />
    <glyph glyph-name="Zetagreek" unicode="&#x396;" horiz-adv-x="1155" 
d="M100 0v49l885 1254v4h-858v51h928v-49l-886 -1254v-5h886v-50h-955z" />
    <glyph glyph-name="Etagreek" unicode="&#x397;" horiz-adv-x="1326" 
d="M1128 0h-57v689h-816v-689h-57v1358h57v-617h816v617h57v-1358z" />
    <glyph glyph-name="Thetagreek" unicode="&#x398;" horiz-adv-x="1310" 
d="M931 665h-553v52h553v-52zM198 815v-272q0 -234 122 -378.5t335 -144.5t335 144.5t122 378.5v272q0 233 -122.5 378t-334.5 145t-334.5 -145t-122.5 -378zM142 551v256q0 267 135 425t378 158t378 -159t135 -426v-254q0 -267 -135 -425t-378 -158t-378 158t-135 425z" />
    <glyph glyph-name="Iotagreek" unicode="&#x399;" horiz-adv-x="493" 
d="M275 0h-57v1358h57v-1358z" />
    <glyph glyph-name="Kappagreek" unicode="&#x39a;" horiz-adv-x="1121" 
d="M1037 1358l-573 -612l607 -746h-74l-574 709l-168 -177v-532h-57v1358h57v-749h1l706 749h75z" />
    <glyph glyph-name="Lambdagreek" unicode="&#x39b;" horiz-adv-x="1137" 
d="M566 1286l-436 -1286h-60l467 1358h63l467 -1358h-61l-435 1286h-5z" />
    <glyph glyph-name="Mugreek" unicode="&#x39c;" horiz-adv-x="1574" 
d="M251 0h-53v1358h58l529 -1185h4l530 1185h57v-1358h-53v1232h-4l-504 -1127h-56l-504 1127h-4v-1232z" />
    <glyph glyph-name="Nugreek" unicode="&#x39d;" horiz-adv-x="1326" 
d="M255 0h-57v1358h60l809 -1256h4v1256h57v-1358h-60l-809 1256h-4v-1256z" />
    <glyph glyph-name="Xigreek" unicode="&#x39e;" horiz-adv-x="1127" 
d="M130 1303v55h867v-55h-867zM204 669v55h719v-55h-719zM130 0v55h867v-55h-867z" />
    <glyph glyph-name="Omicrongreek" unicode="&#x39f;" horiz-adv-x="1310" 
d="M198 815v-272q0 -234 122 -378.5t335 -144.5t335 144.5t122 378.5v272q0 233 -122.5 378t-334.5 145t-334.5 -145t-122.5 -378zM142 551v256q0 267 135 425t378 158t378 -159t135 -426v-254q0 -267 -135 -425t-378 -158t-378 158t-135 425z" />
    <glyph glyph-name="Pigreek" unicode="&#x3a0;" horiz-adv-x="1306" 
d="M1108 0h-57v1306h-796v-1306h-57v1358h910v-1358z" />
    <glyph glyph-name="Rhogreek" unicode="&#x3a1;" horiz-adv-x="1141" 
d="M198 1358h422q203 0 312 -105t109 -290q0 -184 -109 -288t-312 -104h-365v-571h-57v1358zM255 1305v-682h363q173 0 269 90t96 250q0 162 -95.5 252t-269.5 90h-363z" />
    <glyph glyph-name="Sigmagreek" unicode="&#x3a3;" horiz-adv-x="1126" 
d="M100 49l451 640l-425 620v49h900v-51h-828v-4l416 -608v-10l-445 -630v-5h856v-50h-925v49z" />
    <glyph glyph-name="Taugreek" unicode="&#x3a4;" horiz-adv-x="1077" 
d="M568 0h-57v1305h-451v53h957v-53h-449v-1305z" />
    <glyph glyph-name="Upsilongreek" unicode="&#x3a5;" horiz-adv-x="1104" 
d="M581 0h-56v610l-475 748h68l432 -686h6l433 686h65l-473 -746v-612z" />
    <glyph glyph-name="Phigreek" unicode="&#x3a6;" horiz-adv-x="1521" 
d="M787 -49h-53v118q-287 0 -439.5 157.5t-152.5 425.5v58q0 263 152.5 420t439.5 160v116h53v-116q287 -4 439.5 -159t152.5 -421v-58q0 -270 -153 -426.5t-439 -156.5v-118zM734 121v1117q-258 -1 -397 -141.5t-139 -398.5v-34q0 -262 139 -401.5t397 -141.5zM787 121
q258 2 397 141.5t139 400.5v35q0 258 -139 398.5t-397 141.5v-1117z" />
    <glyph glyph-name="Chigreek" unicode="&#x3a7;" horiz-adv-x="1154" 
d="M1084 1358l-473 -681l470 -677h-68l-435 631h-4l-435 -631h-67l470 677l-472 681h68l437 -633h4l438 633h67z" />
    <glyph glyph-name="Psigreek" unicode="&#x3a8;" horiz-adv-x="1426" 
d="M684 0v337q-254 0 -381.5 124t-127.5 381v516h57v-516q0 -238 109.5 -346t342.5 -108v970h57v-970q234 0 344 108t110 346v516h56v-516q0 -257 -127.5 -381t-382.5 -124v-337h-57z" />
    <glyph glyph-name="Omegagreek" unicode="&#x3a9;" horiz-adv-x="1344" 
d="M785 0v82q156 46 250 192t94 338v208q0 148 -54 265t-158.5 185t-244.5 68t-245 -68t-158.5 -185t-53.5 -265v-208q0 -192 94 -338t250 -192v-82h-417v50h364v5q-147 45 -247 195t-100 370v192q0 265 137 421.5t376 156.5t375.5 -156.5t136.5 -421.5v-192
q0 -218 -98 -367.5t-250 -197.5v-5h366v-50h-417z" />
    <glyph glyph-name="Iotadieresisgreek" unicode="&#x3aa;" horiz-adv-x="493" 
d="M275 0h-57v1358h57v-1358zM102 1515q-23 0 -39.5 16.5t-16.5 39.5t16.5 39.5t39.5 16.5t39.5 -16.5t16.5 -39.5t-16.5 -39.5t-39.5 -16.5zM388 1515q-23 0 -39.5 16.5t-16.5 39.5t16.5 39.5t39.5 16.5t39.5 -16.5t16.5 -39.5t-16.5 -39.5t-39.5 -16.5z" />
    <glyph glyph-name="Upsilondieresisgreek" unicode="&#x3ab;" horiz-adv-x="1104" 
d="M581 0h-56v610l-475 748h68l432 -686h6l433 686h65l-473 -746v-612zM408 1515q-23 0 -39.5 16.5t-16.5 39.5t16.5 39.5t39.5 16.5t39.5 -16.5t16.5 -39.5t-16.5 -39.5t-39.5 -16.5zM694 1515q-23 0 -39.5 16.5t-16.5 39.5t16.5 39.5t39.5 16.5t39.5 -16.5t16.5 -39.5
t-16.5 -39.5t-39.5 -16.5z" />
    <glyph glyph-name="alphatonosgreek" unicode="&#x3ac;" horiz-adv-x="1141" 
d="M504 -18q-169 0 -274 117t-105 313v204q0 199 108.5 315.5t272.5 116.5q129 0 217 -65t119 -166h4v213h56v-818q0 -94 25.5 -131t86.5 -37q24 0 62 4v-52q-35 -5 -66 -5q-86 0 -125 50.5t-39 159.5v15h-4q-20 -94 -113 -164t-225 -70zM506 35q155 0 247.5 109.5
t92.5 275.5v185q0 169 -92 279.5t-248 110.5q-144 0 -234 -102.5t-90 -291.5v-177q0 -182 91 -285.5t233 -103.5zM487 1206l80 301h70l-98 -301h-52z" />
    <glyph glyph-name="epsilontonosgreek" unicode="&#x3ad;" horiz-adv-x="1015" 
d="M501 -18q-176 0 -276 76.5t-100 220.5q0 96 53.5 163t147.5 86v3q-80 17 -130.5 79.5t-50.5 153.5q0 136 96 210t259 74q175 0 278.5 -75t118.5 -216h-55q-16 117 -104 177.5t-238 60.5q-144 0 -221 -61.5t-77 -170.5q0 -205 286 -205h116v-52h-118q-147 0 -225.5 -59.5
t-78.5 -168.5q0 -114 84 -178.5t236 -64.5q149 0 239.5 63.5t117.5 180.5h54q-25 -139 -135.5 -218t-276.5 -79zM511 1206l80 301h70l-98 -301h-52z" />
    <glyph glyph-name="etatonosgreek" unicode="&#x3ae;" horiz-adv-x="1164" 
d="M254 0v799q0 108 -22 148t-85 40q-27 0 -57 -4v52q35 5 63 5q84 0 120.5 -48t36.5 -152v-20h4q30 101 120.5 164.5t216.5 63.5q154 0 251 -98t97 -271v-1005h-56v999q0 140 -78.5 231t-215.5 91q-147 0 -243 -104.5t-96 -263.5v-627h-56zM457 1206l80 301h70l-98 -301
h-52z" />
    <glyph glyph-name="iotatonosgreek" unicode="&#x3af;" horiz-adv-x="539" 
d="M165 1030h56v-830q0 -92 42 -126.5t143 -34.5q56 0 103 9v-48q-46 -10 -110 -10q-131 0 -182.5 50t-51.5 179v811zM171 1206l80 301h70l-98 -301h-52z" />
    <glyph glyph-name="upsilondieresistonosgreek" unicode="&#x3b0;" horiz-adv-x="1061" 
d="M516 -18q-351 0 -351 396v652h56v-634q0 -182 71 -271.5t225 -89.5q165 0 254 110.5t89 322.5v58q0 142 -29 277.5t-73 226.5h59q43 -93 71 -233.5t28 -274.5v-53q0 -241 -109 -364t-291 -123zM296 1246q-23 0 -39.5 16.5t-16.5 39.5t16.5 39.5t39.5 16.5t39.5 -16.5
t16.5 -39.5t-16.5 -39.5t-39.5 -16.5zM672 1246q-23 0 -39.5 16.5t-16.5 39.5t16.5 39.5t39.5 16.5t39.5 -16.5t16.5 -39.5t-16.5 -39.5t-39.5 -16.5zM440 1227l40 301h70l-58 -301h-52z" />
    <glyph glyph-name="alphagreek" unicode="&#x3b1;" horiz-adv-x="1141" 
d="M504 -18q-169 0 -274 117t-105 313v204q0 199 108.5 315.5t272.5 116.5q129 0 217 -65t119 -166h4v213h56v-818q0 -94 25.5 -131t86.5 -37q24 0 62 4v-52q-35 -5 -66 -5q-86 0 -125 50.5t-39 159.5v15h-4q-20 -94 -113 -164t-225 -70zM506 35q155 0 247.5 109.5
t92.5 275.5v185q0 169 -92 279.5t-248 110.5q-144 0 -234 -102.5t-90 -291.5v-177q0 -182 91 -285.5t233 -103.5z" />
    <glyph glyph-name="betagreek" unicode="&#x3b2;" horiz-adv-x="1116" 
d="M175 -326v1365q0 202 104 308t271 106q161 0 257 -94.5t96 -251.5q0 -118 -55.5 -202.5t-164.5 -122.5v-4q155 -34 231.5 -135.5t76.5 -254.5q0 -183 -111.5 -294.5t-282.5 -111.5q-134 0 -228 56.5t-134 164.5h-4v-529h-56zM595 35q153 0 246 101t93 250q0 176 -103 270
t-307 94h-98v52h98q161 0 242.5 80t81.5 224q0 135 -80.5 214.5t-219.5 79.5q-153 0 -235 -100t-82 -291v-591q0 -176 99.5 -279.5t264.5 -103.5z" />
    <glyph glyph-name="gammagreek" unicode="&#x3b3;" horiz-adv-x="984" 
d="M432 -326v332l-357 1024h62l329 -962h5q187 263 261.5 434.5t74.5 342.5q0 113 -21 185h58q20 -69 20 -185q0 -192 -82 -371.5t-294 -469.5v-330h-56z" />
    <glyph glyph-name="deltagreek" unicode="&#x3b4;" horiz-adv-x="1069" 
d="M531 -18q-182 0 -296.5 125.5t-114.5 330.5v49q0 203 103.5 331.5t282.5 136.5v3q-110 49 -160.5 112t-50.5 145q0 107 78 172.5t215 65.5q163 0 268 -74v-54q-49 35 -120.5 55t-147.5 20q-114 0 -175.5 -51t-61.5 -131q0 -78 55.5 -136t192.5 -110q186 -71 265.5 -183.5
t79.5 -308.5v-25q0 -219 -118 -346t-295 -127zM532 35q162 0 259 113t97 323q0 208 -98 323t-261 115q-160 0 -256.5 -112.5t-96.5 -330.5q0 -200 94.5 -315.5t261.5 -115.5z" />
    <glyph glyph-name="epsilongreek" unicode="&#x3b5;" horiz-adv-x="1015" 
d="M501 -18q-176 0 -276 76.5t-100 220.5q0 96 53.5 163t147.5 86v3q-80 17 -130.5 79.5t-50.5 153.5q0 136 96 210t259 74q175 0 278.5 -75t118.5 -216h-55q-16 117 -104 177.5t-238 60.5q-144 0 -221 -61.5t-77 -170.5q0 -205 286 -205h116v-52h-118q-147 0 -225.5 -59.5
t-78.5 -168.5q0 -114 84 -178.5t236 -64.5q149 0 239.5 63.5t117.5 180.5h54q-25 -139 -135.5 -218t-276.5 -79z" />
    <glyph glyph-name="zetagreek" unicode="&#x3b6;" horiz-adv-x="839" 
d="M661 -363q72 92 72 175q0 72 -45.5 120t-174.5 107q-224 104 -311 212t-87 286q0 241 153.5 461.5t414.5 380.5v4h-508v52h606v-54q-290 -172 -450 -389.5t-160 -449.5q0 -113 30 -185.5t104 -132t218 -129.5q158 -77 212 -133t54 -144q0 -55 -23.5 -111.5t-61.5 -98.5z
" />
    <glyph glyph-name="etagreek" unicode="&#x3b7;" horiz-adv-x="1164" 
d="M254 0v799q0 108 -22 148t-85 40q-27 0 -57 -4v52q35 5 63 5q84 0 120.5 -48t36.5 -152v-20h4q30 101 120.5 164.5t216.5 63.5q154 0 251 -98t97 -271v-1005h-56v999q0 140 -78.5 231t-215.5 91q-147 0 -243 -104.5t-96 -263.5v-627h-56z" />
    <glyph glyph-name="thetagreek" unicode="&#x3b8;" horiz-adv-x="1074" 
d="M537 -18q-207 0 -309.5 169t-102.5 533v74q0 357 103 526t309 169t309 -169t103 -526v-74q0 -364 -102.5 -533t-309.5 -169zM537 38q182 0 268.5 159.5t86.5 500.5h-710q0 -341 86.5 -500.5t268.5 -159.5zM182 750h710q0 330 -86.5 490t-268.5 160t-268.5 -160
t-86.5 -490z" />
    <glyph glyph-name="iotagreek" unicode="&#x3b9;" horiz-adv-x="539" 
d="M165 1030h56v-830q0 -92 42 -126.5t143 -34.5q56 0 103 9v-48q-46 -10 -110 -10q-131 0 -182.5 50t-51.5 179v811z" />
    <glyph glyph-name="kappagreek" unicode="&#x3ba;" horiz-adv-x="1053" 
d="M231 268v-268h-56v1030h56v-678h3l465 576q55 68 92 90t91 22q24 0 59 -5v-52q-29 4 -59 4q-39 0 -72.5 -23t-84.5 -86l-191 -237l439 -641h-68l-407 597z" />
    <glyph glyph-name="lambdagreek" unicode="&#x3bb;" horiz-adv-x="1001" 
d="M65 0l380 973l-82 239q-39 112 -79 150t-116 38q-30 0 -58 -4v52q30 5 59 5q93 0 147 -47.5t96 -170.5l381 -1110q15 -45 41 -63t72 -18q16 0 50 4v-52q-33 -5 -50 -5q-68 0 -104 24t-56 83l-274 795h-4l-340 -893h-63z" />
    <glyph glyph-name="mugreek" unicode="&#x3bc;" horiz-adv-x="1149" 
d="M175 -326v1356h56v-693q0 -137 77 -219.5t212 -82.5q155 0 249.5 107.5t94.5 277.5v610h56v-818q0 -93 25 -130.5t87 -37.5q24 0 62 4v-52q-35 -5 -64 -5q-85 0 -125.5 48.5t-40.5 161.5v15h-4q-30 -104 -120.5 -169t-221.5 -65q-198 0 -283 151h-4v-459h-56z" />
    <glyph glyph-name="nugreek" unicode="&#x3bd;" horiz-adv-x="984" 
d="M434 0l-359 1030h62l329 -962h5q187 263 261.5 434.5t74.5 342.5q0 113 -21 185h58q20 -69 20 -185q0 -191 -81.5 -370.5t-297.5 -474.5h-51z" />
    <glyph glyph-name="xigreek" unicode="&#x3be;" horiz-adv-x="859" 
d="M671 -363q72 92 72 175q0 73 -45.5 121t-174.5 106q-164 73 -250 134.5t-117 123.5t-31 152q0 126 82 216.5t231 107.5v4q-253 55 -253 298q0 129 79.5 206t217.5 98v4h-307v52h622v-52l-121 -10q-224 -18 -330 -89.5t-106 -209.5q0 -270 392 -270h94v-52h-102
q-224 0 -333.5 -79t-109.5 -215q0 -65 13.5 -108.5t54.5 -86t105.5 -79.5t178.5 -89q157 -72 211.5 -129.5t54.5 -147.5q0 -55 -23.5 -111.5t-61.5 -98.5z" />
    <glyph glyph-name="omicrongreek" unicode="&#x3bf;" horiz-adv-x="1050" 
d="M524 -18q-84 0 -157 28.5t-129.5 83t-89.5 141.5t-33 196v163q0 110 32.5 198t88.5 143t129.5 84t158.5 29q82 0 155.5 -29.5t131 -85t91 -143.5t33.5 -196v-163q0 -109 -33 -196.5t-90.5 -141.5t-130.5 -82.5t-157 -28.5zM525 35q152 0 252.5 104t100.5 301v145
q0 196 -101.5 303t-252.5 107q-152 0 -252.5 -106t-100.5 -304v-145q0 -196 100 -300.5t254 -104.5z" />
    <glyph glyph-name="pigreek" unicode="&#x3c0;" horiz-adv-x="1208" 
d="M278 0v978h-233v52h1108v-52h-238v-766q0 -91 24.5 -129.5t87.5 -38.5q24 0 62 4v-52q-35 -5 -66 -5q-88 0 -126 51.5t-38 155.5v780h-525v-978h-56z" />
    <glyph glyph-name="rhogreek" unicode="&#x3c1;" horiz-adv-x="1062" 
d="M556 35q139 0 231.5 105t92.5 289v177q0 182 -96 285.5t-233 103.5q-161 0 -248 -105.5t-87 -289.5v-173q0 -169 97.5 -280.5t242.5 -111.5zM160 -326v934q0 205 107.5 322.5t285.5 117.5q164 0 274 -117t110 -313v-204q0 -194 -107.5 -313t-273.5 -119q-123 0 -214 66.5
t-122 164.5h-4v-539h-56z" />
    <glyph glyph-name="sigmafinalgreek" unicode="&#x3c2;" horiz-adv-x="1031" 
d="M661 -363q72 92 72 175q0 72 -45.5 119.5t-174.5 107.5q-223 104 -305.5 211.5t-82.5 282.5v66q0 215 111 332t289 117q161 0 267 -91.5t114 -223.5h-54q-17 113 -103 187.5t-224 74.5q-155 0 -249.5 -107t-94.5 -303v-43q0 -167 69 -258t273 -189q158 -76 212 -132
t54 -145q0 -55 -23.5 -111.5t-61.5 -98.5z" />
    <glyph glyph-name="sigmagreek" unicode="&#x3c3;" horiz-adv-x="1137" 
d="M534 -18q-187 0 -298 123.5t-111 349.5v87q0 241 107.5 364.5t320.5 123.5h524v-52h-323v-4q102 -60 151.5 -167.5t49.5 -274.5v-82q0 -229 -114 -348.5t-307 -119.5zM534 35q174 0 269 109.5t95 323.5v58q0 219 -90 334.5t-264 115.5q-362 0 -362 -451v-54
q0 -211 92 -323.5t260 -112.5z" />
    <glyph glyph-name="taugreek" unicode="&#x3c4;" horiz-adv-x="928" 
d="M40 1030h838v-52h-415v-778q0 -92 42 -126.5t143 -34.5q56 0 103 9v-48q-46 -10 -110 -10q-131 0 -182.5 50t-51.5 179v759h-367v52z" />
    <glyph glyph-name="upsilongreek" unicode="&#x3c5;" horiz-adv-x="1061" 
d="M516 -18q-351 0 -351 396v652h56v-634q0 -182 71 -271.5t225 -89.5q165 0 254 110.5t89 322.5v58q0 142 -29 277.5t-73 226.5h59q43 -93 71 -233.5t28 -274.5v-53q0 -241 -109 -364t-291 -123z" />
    <glyph glyph-name="phigreek" unicode="&#x3c6;" horiz-adv-x="1272" 
d="M608 -326v308q-244 7 -368.5 133t-124.5 365v74q0 234 125 361t368 133v230h56v-230q247 -6 370 -135t123 -359v-74q0 -235 -122.5 -363t-370.5 -135v-308h-56zM608 35v960q-228 -7 -332 -121.5t-104 -333.5v-46q0 -225 104.5 -338.5t331.5 -120.5zM664 35
q226 7 331 120.5t105 338.5v46q0 220 -104 334t-332 121v-960z" />
    <glyph glyph-name="chigreek" unicode="&#x3c7;" horiz-adv-x="1033" 
d="M82 -326l374 695l-258 525q-29 59 -50.5 76t-65.5 17q-22 0 -48 -4l-4 52q38 5 54 5q60 0 92 -21.5t63 -85.5l249 -512h4l324 609h64l-356 -661l272 -553q26 -54 52.5 -76t68.5 -22q30 0 56 4v-52q-30 -5 -55 -5q-63 0 -98 25.5t-69 94.5l-259 530h-4l-343 -641h-63z" />
    <glyph glyph-name="psigreek" unicode="&#x3c8;" horiz-adv-x="1304" 
d="M619 -326v308q-240 0 -347 89.5t-107 313.5v645h56v-642q0 -199 93 -276t305 -77v1243h56v-1243q218 5 323 105.5t105 329.5v57q0 140 -28.5 274.5t-73.5 228.5h59q43 -93 71 -233.5t28 -271.5v-54q0 -251 -120.5 -367.5t-363.5 -121.5v-308h-56z" />
    <glyph glyph-name="omegagreek" unicode="&#x3c9;" horiz-adv-x="1458" 
d="M757 377q0 -176 62 -259t187 -83q251 0 251 398v48q0 175 -54 319.5t-137 229.5h63q78 -74 131 -228t53 -314v-55q0 -231 -81.5 -341t-225.5 -110q-228 0 -275 215h-4q-47 -215 -275 -215q-144 0 -225.5 110t-81.5 341v55q0 160 53 314t131 228h63q-83 -85 -137 -229.5
t-54 -319.5v-48q0 -398 251 -398q125 0 187 83t62 259v322h56v-322z" />
    <glyph glyph-name="iotadieresisgreek" unicode="&#x3ca;" horiz-adv-x="539" 
d="M165 1030h56v-830q0 -92 42 -126.5t143 -34.5q56 0 103 9v-48q-46 -10 -110 -10q-131 0 -182.5 50t-51.5 179v811zM57 1246q-23 0 -39.5 16.5t-16.5 39.5t16.5 39.5t39.5 16.5t39.5 -16.5t16.5 -39.5t-16.5 -39.5t-39.5 -16.5zM343 1246q-23 0 -39.5 16.5t-16.5 39.5
t16.5 39.5t39.5 16.5t39.5 -16.5t16.5 -39.5t-16.5 -39.5t-39.5 -16.5z" />
    <glyph glyph-name="upsilondieresisgreek" unicode="&#x3cb;" horiz-adv-x="1061" 
d="M516 -18q-351 0 -351 396v652h56v-634q0 -182 71 -271.5t225 -89.5q165 0 254 110.5t89 322.5v58q0 142 -29 277.5t-73 226.5h59q43 -93 71 -233.5t28 -274.5v-53q0 -241 -109 -364t-291 -123zM351 1246q-23 0 -39.5 16.5t-16.5 39.5t16.5 39.5t39.5 16.5t39.5 -16.5
t16.5 -39.5t-16.5 -39.5t-39.5 -16.5zM637 1246q-23 0 -39.5 16.5t-16.5 39.5t16.5 39.5t39.5 16.5t39.5 -16.5t16.5 -39.5t-16.5 -39.5t-39.5 -16.5z" />
    <glyph glyph-name="omicrontonosgreek" unicode="&#x3cc;" horiz-adv-x="1050" 
d="M524 -18q-84 0 -157 28.5t-129.5 83t-89.5 141.5t-33 196v163q0 110 32.5 198t88.5 143t129.5 84t158.5 29q82 0 155.5 -29.5t131 -85t91 -143.5t33.5 -196v-163q0 -109 -33 -196.5t-90.5 -141.5t-130.5 -82.5t-157 -28.5zM525 35q152 0 252.5 104t100.5 301v145
q0 196 -101.5 303t-252.5 107q-152 0 -252.5 -106t-100.5 -304v-145q0 -196 100 -300.5t254 -104.5zM503 1206l80 301h70l-98 -301h-52z" />
    <glyph glyph-name="upsilontonosgreek" unicode="&#x3cd;" horiz-adv-x="1061" 
d="M516 -18q-351 0 -351 396v652h56v-634q0 -182 71 -271.5t225 -89.5q165 0 254 110.5t89 322.5v58q0 142 -29 277.5t-73 226.5h59q43 -93 71 -233.5t28 -274.5v-53q0 -241 -109 -364t-291 -123zM462 1206l80 301h70l-98 -301h-52z" />
    <glyph glyph-name="omegatonosgreek" unicode="&#x3ce;" horiz-adv-x="1458" 
d="M757 377q0 -176 62 -259t187 -83q251 0 251 398v48q0 175 -54 319.5t-137 229.5h63q78 -74 131 -228t53 -314v-55q0 -231 -81.5 -341t-225.5 -110q-228 0 -275 215h-4q-47 -215 -275 -215q-144 0 -225.5 110t-81.5 341v55q0 160 53 314t131 228h63q-83 -85 -137 -229.5
t-54 -319.5v-48q0 -398 251 -398q125 0 187 83t62 259v322h56v-322zM712 1206l80 301h70l-98 -301h-52z" />
    <glyph glyph-name="Iocyrillic" unicode="&#x401;" horiz-adv-x="1113" 
d="M973 53v-53h-765v1358h765v-53h-708v-582h674v-53h-674v-617h708zM445 1515q-23 0 -39.5 16.5t-16.5 39.5t16.5 39.5t39.5 16.5t39.5 -16.5t16.5 -39.5t-16.5 -39.5t-39.5 -16.5zM731 1515q-23 0 -39.5 16.5t-16.5 39.5t16.5 39.5t39.5 16.5t39.5 -16.5t16.5 -39.5
t-16.5 -39.5t-39.5 -16.5z" />
    <glyph glyph-name="Djecyrillic" unicode="&#x402;" horiz-adv-x="1541" 
d="M602 695q56 52 160.5 86t209.5 34q198 0 308.5 -112t110.5 -314q0 -178 -103 -288.5t-270 -110.5q-68 0 -100 10v50q30 -8 98 -8q140 0 229 97t89 251q0 180 -93.5 276.5t-268.5 96.5q-107 0 -212.5 -37t-161.5 -93v-633h-57v1305h-471v53h999v-53h-471v-610h4z" />
    <glyph glyph-name="Gjecyrillic" unicode="&#x403;" horiz-adv-x="1028" 
d="M265 0h-57v1358h745v-53h-688v-1305zM600 1512h-55l246 301h65z" />
    <glyph glyph-name="Ecyrillic" unicode="&#x404;" horiz-adv-x="1265" 
d="M1075 374h55v-4q0 -166 -129.5 -284t-339.5 -118q-108 0 -194.5 31t-144.5 85t-97 129.5t-56 160t-17 181.5v247q0 95 18 180.5t57.5 160.5t97 129.5t142 86t188.5 31.5q110 0 201 -37t146.5 -96.5t85.5 -129t30 -139.5v-4h-55q0 60 -27 121t-76.5 113.5t-129.5 86
t-175 33.5q-113 0 -201 -43.5t-140 -118t-78.5 -166.5t-26.5 -196v-83h618v-52h-618v-135q0 -83 15.5 -158t50.5 -142.5t86.5 -116.5t128 -78t171.5 -29q184 0 299 102.5t115 251.5z" />
    <glyph glyph-name="Dzecyrillic" unicode="&#x405;" horiz-adv-x="1178" 
d="M130 338h59q1 -39 13 -79.5t42 -84t74 -77t115.5 -55t159.5 -21.5q176 0 286 88.5t110 224.5q0 68 -21.5 118t-69 86t-106.5 61t-149 49l-157 42q-153 41 -231.5 122.5t-78.5 219.5q0 161 114.5 259.5t311.5 98.5q101 0 182 -27.5t131.5 -74.5t77 -105t26.5 -123h-59
q-1 38 -13 75.5t-40 74t-68 64.5t-101.5 45.5t-135.5 17.5q-171 0 -268.5 -84t-97.5 -222q0 -121 69.5 -186.5t216.5 -105.5l150 -41q98 -27 162.5 -54.5t115.5 -69t74.5 -99.5t23.5 -138q0 -168 -127 -268.5t-333 -100.5q-98 0 -178.5 24.5t-131 63t-85 89t-49 98.5
t-14.5 95z" />
    <glyph glyph-name="Icyrillic" unicode="&#x406;" horiz-adv-x="473" 
d="M265 0h-57v1358h57v-1358z" />
    <glyph glyph-name="Yicyrillic" unicode="&#x407;" horiz-adv-x="514" 
d="M286 0h-57v1358h57v-1358zM113 1515q-23 0 -39.5 16.5t-16.5 39.5t16.5 39.5t39.5 16.5t39.5 -16.5t16.5 -39.5t-16.5 -39.5t-39.5 -16.5zM399 1515q-23 0 -39.5 16.5t-16.5 39.5t16.5 39.5t39.5 16.5t39.5 -16.5t16.5 -39.5t-16.5 -39.5t-39.5 -16.5z" />
    <glyph glyph-name="Jecyrillic" unicode="&#x408;" horiz-adv-x="942" 
d="M80 293h57q0 -41 13.5 -82.5t43 -82.5t87 -67t135.5 -26q128 0 206.5 80t78.5 236v1007h57v-1008q0 -182 -93 -274.5t-251 -92.5q-75 0 -134.5 21t-96 53.5t-60.5 75t-33.5 82t-9.5 78.5z" />
    <glyph glyph-name="Ljecyrillic" unicode="&#x409;" horiz-adv-x="1984" 
d="M376 897q-1 -104 -3 -179t-5.5 -156.5t-8.5 -138.5t-13 -116.5t-19 -99.5t-25.5 -78.5t-33.5 -61.5t-43 -41.5t-53.5 -26.5t-65.5 -8q-13 0 -26 2t-19 5l-6 2v57q21 -9 51 -9q34 0 61.5 11.5t48.5 38t37 61.5t27.5 91t19 116.5t12 147.5t7 175.5t3.5 208.5l5 460h761
v-571h365q203 0 312 -104t109 -288q0 -185 -109 -290t-312 -105h-422v1306h-650zM1451 735h-363v-682h363q174 0 269.5 90t95.5 252q0 160 -96 250t-269 90z" />
    <glyph glyph-name="Njecyrillic" unicode="&#x40a;" horiz-adv-x="2034" 
d="M1081 762v596h57v-596h365q203 0 312 -101t109 -279q0 -179 -109 -280.5t-312 -101.5h-422v710h-816v-710h-57v1358h57v-596h816zM1501 710h-363v-657h363q174 0 269.5 86.5t95.5 242.5q0 154 -96 241t-269 87z" />
    <glyph glyph-name="Tshecyrillic" unicode="&#x40b;" horiz-adv-x="1579" 
d="M602 695q55 52 159.5 86t210.5 34q193 0 301 -115t108 -321v-379h-57v380q0 186 -90.5 284.5t-261.5 98.5q-107 0 -212.5 -37t-161.5 -93v-633h-57v1305h-471v53h999v-53h-471v-610h4z" />
    <glyph glyph-name="Kjecyrillic" unicode="&#x40c;" horiz-adv-x="1173" 
d="M1029 0l-758 671h-6v-671h-57v1358h57v-635h6l692 635h83l-727 -659l794 -699h-84zM610 1512h-55l246 301h65z" />
    <glyph glyph-name="Ushortcyrillic" unicode="&#x40e;" horiz-adv-x="1084" 
d="M761 1734h52q0 -94 -65.5 -157t-188.5 -63q-124 0 -193.5 62t-69.5 158h52q0 -81 56 -126.5t155 -45.5q98 0 150 45t52 127zM963 1358h61l-429 -990q-23 -53 -39 -87.5t-39 -78t-42.5 -71t-46.5 -57t-54 -46t-61 -27t-72 -10.5q-19 0 -35 2t-22 5l-7 2v56q24 -9 64 -9
q88 0 150.5 73t132.5 225l-464 1013h65l428 -943h3z" />
    <glyph glyph-name="Dzhecyrillic" unicode="&#x40f;" horiz-adv-x="1336" 
d="M1071 1358h57v-1358h-435v-286h-50v286h-435v1358h57v-1306h806v1306z" />
    <glyph glyph-name="Acyrillic" unicode="&#x410;" horiz-adv-x="1197" 
d="M140 0h-60l487 1358h63l487 -1358h-61l-166 470h-584zM601 1289h-5l-273 -769h549z" />
    <glyph glyph-name="Becyrillic" unicode="&#x411;" horiz-adv-x="1171" 
d="M265 1305v-538h365q203 0 312 -101.5t109 -280.5q0 -180 -109 -282.5t-312 -102.5h-422v1358h745v-53h-688zM265 53h363q174 0 269.5 87t95.5 245q0 156 -96 243t-269 87h-363v-662z" />
    <glyph glyph-name="Vecyrillic" unicode="&#x412;" horiz-adv-x="1225" 
d="M208 0v1358h420q189 0 295.5 -87.5t106.5 -243.5q0 -75 -25.5 -137t-64.5 -98.5t-77 -57.5t-73 -27v-4q60 -6 114 -27.5t100.5 -61t73.5 -104t27 -146.5q0 -167 -113.5 -265.5t-325.5 -98.5h-458zM265 1305v-581h378q87 0 159.5 31t120.5 99.5t48 165.5q0 137 -92.5 211
t-259.5 74h-354zM265 671v-618h398q182 0 282.5 83t100.5 227q0 152 -107.5 230t-271.5 78h-402z" />
    <glyph glyph-name="Gecyrillic" unicode="&#x413;" horiz-adv-x="1028" 
d="M265 0h-57v1358h745v-53h-688v-1305z" />
    <glyph glyph-name="Decyrillic" unicode="&#x414;" horiz-adv-x="1378" 
d="M1051 52v1254h-663l-13 -419q-9 -307 -23 -467t-39 -242t-72 -122v-4h810zM100 -286h-50v338h98q39 17 64 46t44.5 82.5t31.5 149t19.5 226t13.5 332.5l13 470h774v-1306h180v-338h-50v286h-1138v-286z" />
    <glyph glyph-name="Iecyrillic" unicode="&#x415;" horiz-adv-x="1113" 
d="M973 53v-53h-765v1358h765v-53h-708v-582h674v-53h-674v-617h708z" />
    <glyph glyph-name="Zhecyrillic" unicode="&#x416;" horiz-adv-x="1791" 
d="M979 699l752 -699h-84l-718 671h-6v-671h-57v671h-6l-718 -671h-82l751 697l-687 661h84l652 -635h6v635h57v-635h6l652 635h83z" />
    <glyph glyph-name="Zecyrillic" unicode="&#x417;" horiz-adv-x="1119" 
d="M387 675v52h171q146 0 239 88.5t93 229.5q0 125 -91.5 209t-251.5 84q-83 0 -151 -24.5t-108.5 -64t-62 -84t-21.5 -88.5h-59q0 52 24.5 105.5t71 100.5t126.5 77t179 30q187 0 295 -98t108 -246q0 -75 -24.5 -139t-64.5 -105t-86.5 -66t-93.5 -31v-4q62 -5 117.5 -28
t101.5 -64t73 -107.5t27 -149.5q0 -170 -122 -277t-318 -107q-202 0 -320.5 96t-118.5 234h59q0 -117 105.5 -197.5t274.5 -80.5q172 0 276.5 93.5t104.5 236.5q0 158 -102 241.5t-281 83.5h-170z" />
    <glyph glyph-name="Iicyrillic" unicode="&#x418;" horiz-adv-x="1356" 
d="M1091 0v1255h-4l-822 -1255h-57v1358h57v-1253h4l822 1253h57v-1358h-57z" />
    <glyph glyph-name="Iishortcyrillic" unicode="&#x419;" horiz-adv-x="1356" 
d="M1091 0v1255h-4l-822 -1255h-57v1358h57v-1253h4l822 1253h57v-1358h-57zM419 1734h52q0 -81 56 -126.5t155 -45.5q98 0 150 45t52 127h52q0 -94 -65.5 -157t-188.5 -63q-124 0 -193.5 62t-69.5 158z" />
    <glyph glyph-name="Kacyrillic" unicode="&#x41a;" horiz-adv-x="1173" 
d="M1029 0l-758 671h-6v-671h-57v1358h57v-635h6l692 635h83l-727 -659l794 -699h-84z" />
    <glyph glyph-name="Elcyrillic" unicode="&#x41b;" horiz-adv-x="1296" 
d="M322 898l5 460h761v-1358h-57v1306h-650l-5 -409q-1 -104 -3 -179t-5.5 -156.5t-8.5 -138.5t-13 -116.5t-19 -99.5t-25.5 -78.5t-33.5 -61.5t-43 -41.5t-53.5 -26.5t-65.5 -8q-13 0 -26 2t-19 5l-6 2v57q21 -9 51 -9q34 0 61.5 11.5t48.5 38t37 61.5t27.5 91t19 116.5
t12 147.5t7 175.5t3.5 208.5z" />
    <glyph glyph-name="Emcyrillic" unicode="&#x41c;" horiz-adv-x="1594" 
d="M261 0h-53v1358h58l529 -1185h4l530 1185h57v-1358h-53v1232h-4l-504 -1127h-56l-504 1127h-4v-1232z" />
    <glyph glyph-name="Encyrillic" unicode="&#x41d;" horiz-adv-x="1346" 
d="M1138 0h-57v689h-816v-689h-57v1358h57v-617h816v617h57v-1358z" />
    <glyph glyph-name="Ocyrillic" unicode="&#x41e;" horiz-adv-x="1330" 
d="M208 815v-272q0 -234 122 -378.5t335 -144.5t335 144.5t122 378.5v272q0 233 -122.5 378t-334.5 145t-334.5 -145t-122.5 -378zM152 551v256q0 267 135 425t378 158t378 -159t135 -426v-254q0 -267 -135 -425t-378 -158t-378 158t-135 425z" />
    <glyph glyph-name="Pecyrillic" unicode="&#x41f;" horiz-adv-x="1336" 
d="M1128 0h-57v1306h-806v-1306h-57v1358h920v-1358z" />
    <glyph glyph-name="Ercyrillic" unicode="&#x420;" horiz-adv-x="1161" 
d="M208 1358h422q203 0 312 -105t109 -290q0 -184 -109 -288t-312 -104h-365v-571h-57v1358zM265 1305v-682h363q173 0 269 90t96 250q0 162 -95.5 252t-269.5 90h-363z" />
    <glyph glyph-name="Escyrillic" unicode="&#x421;" horiz-adv-x="1265" 
d="M209 814v-270q0 -83 15.5 -158t50.5 -142.5t86.5 -116.5t128 -78t171.5 -29q184 0 299 102.5t115 251.5h55v-4q0 -166 -129.5 -284t-339.5 -118q-108 0 -194.5 31t-144.5 85t-97 129.5t-56 160t-17 181.5v247q0 95 18 180.5t57.5 160.5t97 129.5t142 86t188.5 31.5
q110 0 201 -37t146.5 -96.5t85.5 -129t30 -139.5v-4h-55q0 60 -27 121t-76.5 113.5t-129.5 86t-175 33.5q-113 0 -201 -43.5t-140 -118t-78.5 -166.5t-26.5 -196z" />
    <glyph glyph-name="Tecyrillic" unicode="&#x422;" horiz-adv-x="1097" 
d="M578 0h-57v1305h-451v53h957v-53h-449v-1305z" />
    <glyph glyph-name="Ucyrillic" unicode="&#x423;" horiz-adv-x="1084" 
d="M963 1358h61l-429 -990q-23 -53 -39 -87.5t-39 -78t-42.5 -71t-46.5 -57t-54 -46t-61 -27t-72 -10.5q-19 0 -35 2t-22 5l-7 2v56q24 -9 64 -9q88 0 150.5 73t132.5 225l-464 1013h65l428 -943h3z" />
    <glyph glyph-name="Efcyrillic" unicode="&#x424;" horiz-adv-x="1487" 
d="M772 -10h-57v158q-278 2 -430.5 140t-152.5 388v16q0 250 152.5 388t430.5 140v148h57v-148q278 -2 430.5 -140t152.5 -388v-16q0 -250 -152.5 -388t-430.5 -140v-158zM188 668q0 -217 139.5 -341t387.5 -127v968q-247 -3 -387 -127.5t-140 -340.5v-32zM1299 700
q0 217 -139.5 341t-387.5 127v-968q247 3 387 127.5t140 340.5v32z" />
    <glyph glyph-name="Xacyrillic" unicode="&#x425;" horiz-adv-x="1174" 
d="M1094 1358l-473 -681l470 -677h-68l-435 631h-4l-435 -631h-67l470 677l-472 681h68l437 -633h4l438 633h67z" />
    <glyph glyph-name="Tsecyrillic" unicode="&#x426;" horiz-adv-x="1398" 
d="M1128 52h180v-338h-50v286h-130h-57h-863v1358h57v-1306h806v1306h57v-1306z" />
    <glyph glyph-name="Checyrillic" unicode="&#x427;" horiz-adv-x="1203" 
d="M995 0h-57v659h-4q-16 -14 -39.5 -28.5t-69.5 -37t-113.5 -36.5t-142.5 -14q-191 0 -300 113.5t-109 322.5v379h57v-380q0 -190 93.5 -286.5t258.5 -96.5q76 0 144 15.5t114.5 39.5t70 39.5t40.5 30.5v638h57v-1358z" />
    <glyph glyph-name="Shacyrillic" unicode="&#x428;" horiz-adv-x="1799" 
d="M208 0v1358h57v-1306h606v1306h57v-1306h606v1306h57v-1358h-1383z" />
    <glyph glyph-name="Shchacyrillic" unicode="&#x429;" horiz-adv-x="1861" 
d="M1771 -286h-50v286h-1513v1358h57v-1306h606v1306h57v-1306h606v1306h57v-1306h180v-338z" />
    <glyph glyph-name="Hardsigncyrillic" unicode="&#x42a;" horiz-adv-x="1338" 
d="M807 0h-422v1306h-343v52h400v-571h365q203 0 312 -104t109 -288q0 -185 -109 -290t-312 -105zM805 53q174 0 269.5 90t95.5 252q0 160 -96 250t-269 90h-363v-682h363z" />
    <glyph glyph-name="Yericyrillic" unicode="&#x42b;" horiz-adv-x="1553" 
d="M1051 395q0 -188 -110.5 -291.5t-310.5 -103.5h-422v1358h57v-571h365q200 0 310.5 -102.5t110.5 -289.5zM628 735h-363v-682h363q173 0 269 89.5t96 252.5q0 161 -96 250.5t-269 89.5zM1345 0h-57v1358h57v-1358z" />
    <glyph glyph-name="Softsigncyrillic" unicode="&#x42c;" horiz-adv-x="1161" 
d="M630 0h-422v1358h57v-571h365q203 0 312 -104t109 -288q0 -185 -109 -290t-312 -105zM628 53q174 0 269.5 90t95.5 252q0 160 -96 250t-269 90h-363v-682h363z" />
    <glyph glyph-name="Ereversedcyrillic" unicode="&#x42d;" horiz-adv-x="1252" 
d="M591 -32q-209 0 -337.5 118t-128.5 284v4h55q0 -149 114 -251.5t297 -102.5q95 0 171.5 29t128 78t86.5 116.5t50.5 142.5t15.5 158v135h-618v52h618v83q0 104 -26.5 196t-78.5 166.5t-140 118t-201 43.5q-95 0 -175 -33.5t-129.5 -86t-76.5 -113.5t-27 -121h-55v4
q0 70 30 139.5t85.5 129t146.5 96.5t201 37q104 0 188.5 -31.5t142 -86t97 -129.5t57.5 -160.5t18 -180.5v-247q0 -97 -17 -181.5t-56 -160t-97 -129.5t-144.5 -85t-194.5 -31z" />
    <glyph glyph-name="IUcyrillic" unicode="&#x42e;" horiz-adv-x="1710" 
d="M1502 543v272q0 233 -120 378t-327 145t-327 -145t-120 -378v-272q0 -234 119 -378.5t328 -144.5t328 144.5t119 378.5zM552 741v66q0 267 132 425t371 158t371 -159t132 -426v-254q0 -267 -132 -425t-371 -158t-371 158t-132 425v138h-287v-689h-57v1358h57v-617h287z
" />
    <glyph glyph-name="IAcyrillic" unicode="&#x42f;" horiz-adv-x="1230" 
d="M602 643h363v662h-363q-174 0 -269.5 -87t-95.5 -245q0 -156 96 -243t269 -87zM965 591h-365q-25 0 -36 1l-376 -592h-68l379 598q-156 24 -238 122t-82 253q0 180 109 282.5t312 102.5h422v-1358h-57v591z" />
    <glyph glyph-name="acyrillic" unicode="&#x430;" horiz-adv-x="1023" 
d="M788 178q-8 -26 -31 -56.5t-62 -63.5t-103 -54.5t-139 -21.5q-152 0 -244.5 82t-92.5 223q0 130 89.5 207t257.5 77h329v159q0 133 -78 199t-212 66q-127 0 -195 -54.5t-88 -158.5h-56q16 122 102 194t241 72q158 0 250 -79t92 -224v-745h-56v178h-4zM454 35
q140 0 239 87t99 225v171h-329q-143 0 -214.5 -62t-71.5 -168q0 -115 76.5 -184t200.5 -69z" />
    <glyph glyph-name="becyrillic" unicode="&#x431;" horiz-adv-x="1100" 
d="M549 985q-164 0 -260.5 -110.5t-96.5 -299.5v-135q0 -188 96 -296.5t262 -108.5t262 108.5t96 296.5v135q0 187 -97.5 298.5t-261.5 111.5zM549 1038q187 0 301.5 -125.5t114.5 -328.5v-153q0 -205 -113 -327t-303 -122q-189 0 -301.5 122t-112.5 327v153q0 229 23 376
t79.5 240t143.5 132t223 43l99 3q155 5 171 57h56q-15 -59 -68.5 -81.5t-155.5 -25.5l-103 -4q-106 -4 -176.5 -30t-121.5 -86.5t-78 -157.5t-40 -248h4q40 111 134.5 173.5t223.5 62.5z" />
    <glyph glyph-name="vecyrillic" unicode="&#x432;" horiz-adv-x="1043" 
d="M185 0v1030h342q149 0 233.5 -66.5t84.5 -184.5q0 -57 -20 -103.5t-50.5 -74.5t-60.5 -43.5t-57 -21.5v-3q46 -5 88 -22t78.5 -46.5t58 -78.5t21.5 -110q0 -127 -89.5 -201.5t-257.5 -74.5h-371zM241 980v-426h297q104 0 177.5 56.5t73.5 163.5q0 99 -70.5 152.5
t-198.5 53.5h-279zM241 504v-454h312q140 0 217 60t77 165q0 114 -82.5 171.5t-211.5 57.5h-312z" />
    <glyph glyph-name="gecyrillic" unicode="&#x433;" horiz-adv-x="873" 
d="M783 981h-542v-981h-56v1030h598v-49z" />
    <glyph glyph-name="decyrillic" unicode="&#x434;" horiz-adv-x="1205" 
d="M879 50v930h-527q-12 -337 -26 -539q-11 -158 -33 -249t-69 -138v-4h655zM95 -285h-50v335h93q36 14 61.5 51.5t40 95t21.5 113.5t12 131q18 282 28 589h634v-980h180v-335h-50v285h-970v-285z" />
    <glyph glyph-name="iecyrillic" unicode="&#x435;" horiz-adv-x="1060" 
d="M541 -18q-191 0 -298.5 123t-107.5 348v107q0 238 107 363t288 125t288 -125t107 -363v-42h-734v-61q0 -203 94 -312.5t257 -109.5q74 0 134 21t96.5 54t57 70.5t24.5 74.5h56q-4 -45 -27.5 -90.5t-66 -87.5t-114.5 -68.5t-161 -26.5zM191 569h678v4q0 200 -92 311
t-247 111t-247 -111t-92 -311v-4z" />
    <glyph glyph-name="zhecyrillic" unicode="&#x436;" horiz-adv-x="1468" 
d="M706 556v474h56v-474h4l507 474h78l-535 -499l564 -531h-79l-535 506h-4v-506h-56v506h-4l-535 -506h-79l566 530l-537 500h78l507 -474h4z" />
    <glyph glyph-name="zecyrillic" unicode="&#x437;" horiz-adv-x="1025" 
d="M510 35q145 0 226 64.5t81 175.5q0 116 -82 172.5t-228 56.5h-145v50h145q115 0 191.5 56.5t76.5 166.5q0 94 -74.5 156t-193.5 62q-71 0 -128.5 -22t-94 -60t-58 -83.5t-28.5 -96.5h-54q4 57 27.5 111.5t66.5 101t113 74.5t156 28q146 0 235 -78t89 -193
q0 -57 -19.5 -103t-50 -73.5t-60 -43t-56.5 -21.5v-3q43 -7 82 -24.5t72.5 -47t53.5 -77t20 -107.5q0 -134 -95.5 -214.5t-268.5 -80.5q-95 0 -169 27t-117 72t-66.5 95t-28.5 103h53q8 -46 29.5 -87t59 -77.5t99.5 -58t141 -21.5z" />
    <glyph glyph-name="iicyrillic" unicode="&#x438;" horiz-adv-x="1116" 
d="M875 0v934h-4l-630 -934h-56v1030h56v-934h4l630 934h56v-1030h-56z" />
    <glyph glyph-name="iishortcyrillic" unicode="&#x439;" horiz-adv-x="1116" 
d="M875 0v934h-4l-630 -934h-56v1030h56v-934h4l630 934h56v-1030h-56zM299 1437h52q0 -89 56 -138.5t155 -49.5q98 0 150 49t52 139h52q0 -100 -65.5 -167t-188.5 -67q-124 0 -193.5 66.5t-69.5 167.5z" />
    <glyph glyph-name="kacyrillic" unicode="&#x43a;" horiz-adv-x="1001" 
d="M295 534l618 -534h-83l-585 506h-4v-506h-56v1030h56v-474h4l557 474h76z" />
    <glyph glyph-name="elcyrillic" unicode="&#x43b;" horiz-adv-x="1090" 
d="M289 727l4 303h612v-1030h-56v980h-503l-4 -254q-5 -317 -21 -439q-33 -245 -144 -286q-25 -9 -53 -9q-14 0 -27.5 2.5t-20.5 5.5l-6 2v53q22 -10 53 -10q28 0 51 15t39.5 47t28.5 67t20 91.5t13 102.5t8 117t4 118.5t2 123.5z" />
    <glyph glyph-name="emcyrillic" unicode="&#x43c;" horiz-adv-x="1323" 
d="M241 904v-904h-56v1030h58l418 -874h4l415 874h58v-1030h-56v904h-3l-396 -824h-43l-396 824h-3z" />
    <glyph glyph-name="encyrillic" unicode="&#x43d;" horiz-adv-x="1106" 
d="M865 0v516h-624v-516h-56v1030h56v-464h624v464h56v-1030h-56z" />
    <glyph glyph-name="ocyrillic" unicode="&#x43e;" horiz-adv-x="1100" 
d="M549 1048q178 0 297 -120.5t119 -333.5v-163q0 -109 -32.5 -195.5t-89.5 -141.5t-132 -83.5t-162 -28.5t-162 29t-131.5 84t-88.5 141t-32 195v163q0 217 116 335.5t298 118.5zM549 995q-158 0 -258 -106.5t-100 -303.5v-145q0 -196 99.5 -300.5t259.5 -104.5
q158 0 258 104t100 301v145q0 195 -101 302.5t-258 107.5z" />
    <glyph glyph-name="pecyrillic" unicode="&#x43f;" horiz-adv-x="1096" 
d="M855 0v980h-614v-980h-56v1030h726v-1030h-56z" />
    <glyph glyph-name="ercyrillic" unicode="&#x440;" horiz-adv-x="1117" 
d="M591 -18q-80 0 -145 24t-104.5 62t-62.5 74t-34 71h-4v-539h-56v1356h56v-216h4q5 21 17.5 46.5t40.5 60t65 62t96.5 46.5t128.5 19q170 0 279.5 -117.5t109.5 -312.5v-204q0 -106 -32.5 -190.5t-88 -136t-124.5 -78.5t-146 -27zM591 35q65 0 123.5 23.5t106.5 70t76 124
t28 176.5v177q0 181 -95.5 285t-238.5 104q-66 0 -123 -21.5t-98.5 -58.5t-70.5 -86t-43.5 -105.5t-14.5 -115.5v-181q0 -168 96.5 -280t253.5 -112z" />
    <glyph glyph-name="escyrillic" unicode="&#x441;" horiz-adv-x="1051" 
d="M135 436v166q0 212 111.5 329t288.5 117q89 0 162 -28t118.5 -74.5t71.5 -101t29 -111.5h-54q-15 108 -100.5 185t-226.5 77q-154 0 -249 -106.5t-95 -300.5v-142q0 -200 94 -305.5t259 -105.5q76 0 136 21.5t96.5 58t57.5 77.5t29 87h53q-5 -53 -28.5 -103t-66 -95
t-115.5 -72t-167 -27q-186 0 -295 116.5t-109 337.5z" />
    <glyph glyph-name="tecyrillic" unicode="&#x442;" horiz-adv-x="920" 
d="M860 981h-372v-981h-56v981h-372v49h800v-49z" />
    <glyph glyph-name="ucyrillic" unicode="&#x443;" horiz-adv-x="932" 
d="M877 1030l-371 -1028l-49 -129q-41 -108 -96.5 -154t-154.5 -46q-50 0 -93 10v53q48 -10 92 -10q76 0 122 40t74 115l40 107l-386 1042h62l351 -972h4l345 972h60z" />
    <glyph glyph-name="efcyrillic" unicode="&#x444;" horiz-adv-x="1356" 
d="M706 -326h-56v308q-145 0 -260 50t-185 154.5t-70 249.5v132q0 116 39.5 208.5t109.5 151t163 89.5t203 31v286h56v-286q145 0 260 -51t185 -158t70 -256v-132q0 -224 -144.5 -346.5t-370.5 -122.5v-308zM1164 574q0 137 -61 233.5t-162.5 142t-234.5 45.5v-960
q97 0 180 27t145.5 79t97.5 133.5t35 185.5v114zM192 445q0 -198 127 -304t331 -106v960q-202 0 -330 -113t-128 -323v-114z" />
    <glyph glyph-name="hacyrillic" unicode="&#x445;" horiz-adv-x="937" 
d="M800 0l-330 472h-4l-332 -472h-64l365 520l-355 510h67l321 -460h4l323 460h64l-356 -508l364 -522h-67z" />
    <glyph glyph-name="tsecyrillic" unicode="&#x446;" horiz-adv-x="1181" 
d="M1091 -285h-50v285h-856v1030h56v-980h614v980h56v-980h180v-335z" />
    <glyph glyph-name="checyrillic" unicode="&#x447;" horiz-adv-x="1041" 
d="M856 0h-56v516h-8q-49 -60 -130 -93t-180 -33q-158 0 -245 96t-87 256v288h56v-288q0 -139 73.5 -220.5t202.5 -81.5q104 0 189 43t129 115v432h56v-1030z" />
    <glyph glyph-name="shacyrillic" unicode="&#x448;" horiz-adv-x="1486" 
d="M185 0v1030h56v-980h474v980h56v-980h474v980h56v-1030h-1116z" />
    <glyph glyph-name="shchacyrillic" unicode="&#x449;" horiz-adv-x="1571" 
d="M1481 -285h-50v285h-1246v1030h56v-980h474v980h56v-980h474v980h56v-980h180v-335z" />
    <glyph glyph-name="hardsigncyrillic" unicode="&#x44a;" horiz-adv-x="1134" 
d="M662 0h-322v980h-280v50h336v-387h266q164 0 260.5 -86.5t96.5 -234.5t-96.5 -235t-260.5 -87zM662 593h-266v-543h266q137 0 218.5 74t81.5 198t-81.5 197.5t-218.5 73.5z" />
    <glyph glyph-name="yericyrillic" unicode="&#x44b;" horiz-adv-x="1296" 
d="M1055 0v1030h56v-1030h-56zM507 593h-266v-543h266q137 0 218.5 74t81.5 198t-81.5 197.5t-218.5 73.5zM185 0v1030h56v-387h266q164 0 260.5 -86.5t96.5 -234.5t-96.5 -235t-260.5 -87h-322z" />
    <glyph glyph-name="softsigncyrillic" unicode="&#x44c;" horiz-adv-x="979" 
d="M507 593h-266v-543h266q137 0 218.5 74t81.5 198t-81.5 197.5t-218.5 73.5zM185 0v1030h56v-387h266q164 0 260.5 -86.5t96.5 -234.5t-96.5 -235t-260.5 -87h-322z" />
    <glyph glyph-name="ereversedcyrillic" unicode="&#x44d;" horiz-adv-x="1051" 
d="M512 -18q-94 0 -167 27t-115.5 72t-66 95t-28.5 103h53q8 -46 29 -87t57.5 -77.5t96.5 -58t136 -21.5q165 0 259 105.5t94 305.5v52h-521v50h521v40q0 194 -95 300.5t-249 106.5q-142 0 -227 -77t-100 -185h-54q3 57 29 111.5t71.5 101t118.5 74.5t162 28
q177 0 288.5 -117t111.5 -329v-166q0 -221 -109 -337.5t-295 -116.5z" />
    <glyph glyph-name="iucyrillic" unicode="&#x44e;" horiz-adv-x="1464" 
d="M919 -18q-178 0 -293.5 117.5t-115.5 331.5v85h-269v-516h-56v1030h56v-464h269v28q0 217 114.5 335.5t294.5 118.5q176 0 293 -120.5t117 -333.5v-163q0 -109 -32 -195.5t-88.5 -141.5t-130 -83.5t-159.5 -28.5zM919 995q-155 0 -253.5 -106.5t-98.5 -303.5v-145
q0 -196 98 -300.5t255 -104.5q155 0 253.5 104t98.5 301v145q0 195 -99.5 302.5t-253.5 107.5z" />
    <glyph glyph-name="iacyrillic" unicode="&#x44f;" horiz-adv-x="1019" 
d="M512 467h266v513h-266q-137 0 -218.5 -70t-81.5 -187t81.5 -186.5t218.5 -69.5zM778 0v417h-266h-18l-301 -417h-68l305 423q-128 20 -201.5 99t-73.5 201q0 141 96.5 224t260.5 83h322v-1030h-56z" />
    <glyph glyph-name="iocyrillic" unicode="&#x451;" horiz-adv-x="1060" 
d="M541 -18q-191 0 -298.5 123t-107.5 348v107q0 238 107 363t288 125t288 -125t107 -363v-42h-734v-61q0 -203 94 -312.5t257 -109.5q74 0 134 21t96.5 54t57 70.5t24.5 74.5h56q-4 -45 -27.5 -90.5t-66 -87.5t-114.5 -68.5t-161 -26.5zM191 569h678v4q0 200 -92 311
t-247 111t-247 -111t-92 -311v-4zM387 1246q-23 0 -39.5 16.5t-16.5 39.5t16.5 39.5t39.5 16.5t39.5 -16.5t16.5 -39.5t-16.5 -39.5t-39.5 -16.5zM673 1246q-23 0 -39.5 16.5t-16.5 39.5t16.5 39.5t39.5 16.5t39.5 -16.5t16.5 -39.5t-16.5 -39.5t-39.5 -16.5z" />
    <glyph glyph-name="djecyrillic" unicode="&#x452;" horiz-adv-x="1118" 
d="M887 -84v757q0 140 -80.5 231t-220.5 91q-109 0 -189.5 -54t-118.5 -136t-38 -178v-627h-56v1252h-130v49h130v134h56v-134h230v-49h-230v-432h4q27 93 116 160.5t228 67.5q157 0 256 -98t99 -271v-759q0 -132 -50 -189.5t-154 -57.5q-42 0 -68 7v53q33 -7 65 -7
q80 0 115.5 42.5t35.5 147.5z" />
    <glyph glyph-name="gjecyrillic" unicode="&#x453;" horiz-adv-x="873" 
d="M783 981h-542v-981h-56v1030h598v-49zM504 1206h-55l246 301h65z" />
    <glyph glyph-name="ecyrillic" unicode="&#x454;" horiz-adv-x="1051" 
d="M916 279q-5 -53 -28.5 -103t-66 -95t-115.5 -72t-167 -27q-186 0 -295 116.5t-109 337.5v166q0 212 111.5 329t288.5 117q89 0 162 -28t118.5 -74.5t71.5 -101t29 -111.5h-54q-15 108 -100.5 185t-226.5 77q-154 0 -249 -106.5t-95 -300.5v-40h531v-50h-531v-52
q0 -200 94 -305.5t259 -105.5q76 0 136 21.5t96.5 58t57.5 77.5t29 87h53z" />
    <glyph glyph-name="dzecyrillic" unicode="&#x455;" horiz-adv-x="970" 
d="M147 773q0 128 93 201.5t247 73.5q74 0 133.5 -18t97 -46.5t63 -65t35.5 -70.5t10 -66h-56q0 24 -8.5 51t-29.5 56.5t-52 52.5t-81.5 38t-112.5 15q-122 0 -201 -56t-79 -164q0 -39 12.5 -69t32.5 -51.5t58.5 -40.5t78 -32.5t102.5 -31.5q150 -43 192 -60
q123 -52 153 -144q11 -36 11 -79q0 -140 -107 -212.5t-267 -72.5q-98 0 -172.5 27.5t-114.5 71.5t-59 89.5t-19 90.5h56q0 -26 9 -55t32 -60t57 -55t89 -40t122 -16q86 0 155 23.5t114.5 78t45.5 132.5q0 29 -7.5 53t-17.5 41.5t-34 34t-42.5 27t-59 25t-67.5 22.5t-83 24
q-57 16 -93.5 28.5t-78.5 30.5t-67 37.5t-47.5 45.5t-32.5 59.5t-10 75.5z" />
    <glyph glyph-name="icyrillic" unicode="&#x456;" horiz-adv-x="437" 
d="M190 0v1030h56v-1030h-56zM158 1309q0 26 17.5 43.5t42.5 17.5q26 0 43.5 -18t17.5 -43t-17.5 -42.5t-43.5 -17.5t-43 17.5t-17 42.5z" />
    <glyph glyph-name="yicyrillic" unicode="&#x457;" horiz-adv-x="436" 
d="M190 0v1030h56v-1030h-56zM76 1246q-23 0 -39.5 16.5t-16.5 39.5t16.5 39.5t39.5 16.5t39.5 -16.5t16.5 -39.5t-16.5 -39.5t-39.5 -16.5zM362 1246q-23 0 -39.5 16.5t-16.5 39.5t16.5 39.5t39.5 16.5t39.5 -16.5t16.5 -39.5t-16.5 -39.5t-39.5 -16.5z" />
    <glyph glyph-name="jecyrillic" unicode="&#x458;" horiz-adv-x="436" 
d="M158 1309q0 26 17.5 43.5t42.5 17.5q26 0 43.5 -18t17.5 -43t-17.5 -42.5t-43.5 -17.5t-43 17.5t-17 42.5zM246 1030v-1110q0 -132 -50 -189.5t-154 -57.5q-42 0 -68 7v53q33 -7 65 -7q80 0 115.5 42.5t35.5 147.5v1114h56z" />
    <glyph glyph-name="ljecyrillic" unicode="&#x459;" horiz-adv-x="1637" 
d="M124 -8q-14 0 -27.5 2.5t-20.5 5.5l-6 2v53q22 -10 53 -10q28 0 51 15t39.5 47t28.5 67t20 91.5t13 102.5t8 117t4 118.5t2 123.5l4 303h606v-387h266q164 0 260.5 -86.5t96.5 -234.5t-96.5 -235t-260.5 -87h-322v980h-497l-4 -254q-5 -317 -21 -439q-33 -245 -144 -286
q-25 -9 -53 -9zM1165 593h-266v-543h266q137 0 218.5 74t81.5 198t-81.5 197.5t-218.5 73.5z" />
    <glyph glyph-name="njecyrillic" unicode="&#x45a;" horiz-adv-x="1639" 
d="M1177 532h-266v-482h266q135 0 212.5 62.5t77.5 179.5q0 116 -77.5 178t-212.5 62zM855 0v531h-614v-531h-56v1030h56v-449h614v449h56v-448h266q162 0 254.5 -75t92.5 -215t-92.5 -216t-254.5 -76h-322z" />
    <glyph glyph-name="tshecyrillic" unicode="&#x45b;" horiz-adv-x="1119" 
d="M241 627v-627h-56v1252h-131v49h131v134h56v-134h229v-49h-229v-432h4q27 93 116 160.5t228 67.5q157 0 256 -98t99 -271v-679h-56v673q0 140 -80.5 231t-220.5 91q-109 0 -189.5 -54t-118.5 -136t-38 -178z" />
    <glyph glyph-name="kjecyrillic" unicode="&#x45c;" horiz-adv-x="1033" 
d="M800 1507l-256 -301h-55l246 301h65zM295 534l618 -534h-83l-585 506h-4v-506h-56v1030h56v-474h4l557 474h76z" />
    <glyph glyph-name="ushortcyrillic" unicode="&#x45e;" horiz-adv-x="932" 
d="M877 1030l-371 -1028l-49 -129q-41 -108 -96.5 -154t-154.5 -46q-50 0 -93 10v53q48 -10 92 -10q76 0 122 40t74 115l40 107l-386 1042h62l351 -972h4l345 972h60zM208 1437h52q0 -89 56 -138.5t155 -49.5q98 0 150 49t52 139h52q0 -100 -65.5 -167t-188.5 -67
q-124 0 -193.5 66.5t-69.5 167.5z" />
    <glyph glyph-name="dzhecyrillic" unicode="&#x45f;" horiz-adv-x="1096" 
d="M855 1030h56v-1030h-338v-285h-50v285h-338v1030h56v-980h614v980z" />
    <glyph glyph-name="Geupturncyrillic" unicode="&#x490;" horiz-adv-x="1028" 
d="M903 1644h50v-286v-53h-688v-1305h-57v1358h695v286z" />
    <glyph glyph-name="geupturncyrillic" unicode="&#x491;" horiz-adv-x="873" 
d="M733 1030v285h50v-334h-542v-981h-56v1030h548z" />
    <glyph glyph-name="Aringbelow" unicode="&#x1e00;" horiz-adv-x="1177" 
d="M130 0h-60l487 1358h63l487 -1358h-61l-166 470h-584zM591 1289h-5l-273 -769h549zM589 -499q-71 0 -120 49t-49 120q0 70 49 118t120 48q70 0 120 -48.5t50 -117.5q0 -70 -50.5 -119.5t-119.5 -49.5zM467 -332q0 -49 36.5 -85.5t85.5 -36.5q51 0 87 36t36 86
q0 51 -36 87t-87 36q-49 0 -85.5 -36t-36.5 -87z" />
    <glyph glyph-name="aringbelow" unicode="&#x1e01;" horiz-adv-x="1003" 
d="M778 178q-8 -26 -31 -56.5t-62 -63.5t-103 -54.5t-139 -21.5q-152 0 -244.5 82t-92.5 223q0 130 89.5 207t257.5 77h329v159q0 133 -78 199t-212 66q-127 0 -195 -54.5t-88 -158.5h-56q16 122 102 194t241 72q158 0 250 -79t92 -224v-745h-56v178h-4zM444 35
q140 0 239 87t99 225v171h-329q-143 0 -214.5 -62t-71.5 -168q0 -115 76.5 -184t200.5 -69zM502 -499q-71 0 -120 49t-49 120q0 70 49 118t120 48q70 0 120 -48.5t50 -117.5q0 -70 -50.5 -119.5t-119.5 -49.5zM380 -332q0 -49 36.5 -85.5t85.5 -36.5q51 0 87 36t36 86
q0 51 -36 87t-87 36q-49 0 -85.5 -36t-36.5 -87z" />
    <glyph glyph-name="Bdotaccent" unicode="&#x1e02;" horiz-adv-x="1205" 
d="M198 0v1358h420q189 0 295.5 -87.5t106.5 -243.5q0 -75 -25.5 -137t-64.5 -98.5t-77 -57.5t-73 -27v-4q60 -6 114 -27.5t100.5 -61t73.5 -104t27 -146.5q0 -167 -113.5 -265.5t-325.5 -98.5h-458zM255 1305v-581h378q87 0 159.5 31t120.5 99.5t48 165.5q0 137 -92.5 211
t-259.5 74h-354zM255 671v-618h398q182 0 282.5 83t100.5 227q0 152 -107.5 230t-271.5 78h-402zM539 1654q0 27 18.5 45t45.5 18t45.5 -18t18.5 -45q0 -26 -18.5 -44t-45.5 -18t-45.5 18t-18.5 44z" />
    <glyph glyph-name="bdotaccent" unicode="&#x1e03;" horiz-adv-x="1097" 
d="M581 -18q-80 0 -145 24t-104.5 62t-62.5 74t-34 71h-4v-213h-56v1435h56v-621h4q5 21 17.5 46.5t40.5 60t65 62t96.5 46.5t128.5 19q170 0 279.5 -117.5t109.5 -312.5v-204q0 -106 -32.5 -190.5t-88 -136t-124.5 -78.5t-146 -27zM581 35q65 0 123.5 23.5t106.5 70t76 124
t28 176.5v177q0 181 -95.5 285t-238.5 104q-82 0 -150 -32.5t-111 -86.5t-66 -123t-23 -143v-185q0 -168 96.5 -279t253.5 -111zM139 1731q0 27 18.5 45t45.5 18t45.5 -18t18.5 -45q0 -26 -18.5 -44t-45.5 -18t-45.5 18t-18.5 44z" />
    <glyph glyph-name="Bdotbelow" unicode="&#x1e04;" horiz-adv-x="1205" 
d="M198 0v1358h420q189 0 295.5 -87.5t106.5 -243.5q0 -75 -25.5 -137t-64.5 -98.5t-77 -57.5t-73 -27v-4q60 -6 114 -27.5t100.5 -61t73.5 -104t27 -146.5q0 -167 -113.5 -265.5t-325.5 -98.5h-458zM255 1305v-581h378q87 0 159.5 31t120.5 99.5t48 165.5q0 137 -92.5 211
t-259.5 74h-354zM255 671v-618h398q182 0 282.5 83t100.5 227q0 152 -107.5 230t-271.5 78h-402zM542 -292q0 27 18 45t43 18q27 0 45.5 -18t18.5 -45q0 -26 -18.5 -43.5t-45.5 -17.5q-25 0 -43 17.5t-18 43.5z" />
    <glyph glyph-name="bdotbelow" unicode="&#x1e05;" horiz-adv-x="1097" 
d="M581 -18q-80 0 -145 24t-104.5 62t-62.5 74t-34 71h-4v-213h-56v1435h56v-621h4q5 21 17.5 46.5t40.5 60t65 62t96.5 46.5t128.5 19q170 0 279.5 -117.5t109.5 -312.5v-204q0 -106 -32.5 -190.5t-88 -136t-124.5 -78.5t-146 -27zM581 35q65 0 123.5 23.5t106.5 70t76 124
t28 176.5v177q0 181 -95.5 285t-238.5 104q-82 0 -150 -32.5t-111 -86.5t-66 -123t-23 -143v-185q0 -168 96.5 -279t253.5 -111zM487 -292q0 27 18 45t43 18q27 0 45.5 -18t18.5 -45q0 -26 -18.5 -43.5t-45.5 -17.5q-25 0 -43 17.5t-18 43.5z" />
    <glyph glyph-name="Blinebelow" unicode="&#x1e06;" horiz-adv-x="1205" 
d="M198 0v1358h420q189 0 295.5 -87.5t106.5 -243.5q0 -75 -25.5 -137t-64.5 -98.5t-77 -57.5t-73 -27v-4q60 -6 114 -27.5t100.5 -61t73.5 -104t27 -146.5q0 -167 -113.5 -265.5t-325.5 -98.5h-458zM255 1305v-581h378q87 0 159.5 31t120.5 99.5t48 165.5q0 137 -92.5 211
t-259.5 74h-354zM255 671v-618h398q182 0 282.5 83t100.5 227q0 152 -107.5 230t-271.5 78h-402zM882 -294h-558v44h558v-44z" />
    <glyph glyph-name="blinebelow" unicode="&#x1e07;" horiz-adv-x="1097" 
d="M581 -18q-80 0 -145 24t-104.5 62t-62.5 74t-34 71h-4v-213h-56v1435h56v-621h4q5 21 17.5 46.5t40.5 60t65 62t96.5 46.5t128.5 19q170 0 279.5 -117.5t109.5 -312.5v-204q0 -106 -32.5 -190.5t-88 -136t-124.5 -78.5t-146 -27zM581 35q65 0 123.5 23.5t106.5 70t76 124
t28 176.5v177q0 181 -95.5 285t-238.5 104q-82 0 -150 -32.5t-111 -86.5t-66 -123t-23 -143v-185q0 -168 96.5 -279t253.5 -111zM827 -294h-558v44h558v-44z" />
    <glyph glyph-name="Ccedillaacute" unicode="&#x1e08;" horiz-adv-x="1245" 
d="M619 -467q-70 0 -116 16v50q46 -16 122 -16q65 0 113 28.5t48 83.5q0 109 -153 109h-50v39l56 125q-105 2 -190 34t-141.5 86t-94.5 128.5t-54.5 158.5t-16.5 180v247q0 95 18 180.5t57.5 160.5t97 129.5t142 86t188.5 31.5q110 0 201 -37t146.5 -96.5t85.5 -129
t30 -139.5v-4h-55q0 60 -27 121t-76.5 113.5t-129.5 86t-175 33.5q-113 0 -201 -43.5t-140 -118t-78.5 -166.5t-26.5 -196v-270q0 -83 15.5 -158t50.5 -142.5t86.5 -116.5t128 -78t171.5 -29q184 0 299 102.5t115 251.5h55v-4q0 -102 -50.5 -189.5t-149.5 -145.5t-228 -66
l-51 -118q84 0 144 -37t60 -115q0 -81 -68 -123.5t-158 -42.5zM662 1512h-55l246 301h65z" />
    <glyph glyph-name="ccedillaacute" unicode="&#x1e09;" horiz-adv-x="1031" 
d="M493 -457q-70 0 -116 16v50q46 -16 122 -16q65 0 113 28.5t48 83.5q0 109 -153 109h-50v39l58 129q-180 5 -285 121.5t-105 332.5v166q0 212 111.5 329t288.5 117q89 0 162 -28t118.5 -74.5t71.5 -101t29 -111.5h-54q-15 108 -100.5 185t-226.5 77q-154 0 -249 -106.5
t-95 -300.5v-142q0 -200 94 -305.5t259 -105.5q76 0 136 21.5t96.5 58t57.5 77.5t29 87h53q-5 -50 -26 -97.5t-59.5 -91t-104 -72.5t-148.5 -35l-53 -122q84 0 144 -37t60 -115q0 -81 -68 -123.5t-158 -42.5zM546 1206h-55l246 301h65z" />
    <glyph glyph-name="Ddotaccent" unicode="&#x1e0a;" horiz-adv-x="1297" 
d="M198 1358h345q159 0 277.5 -48t191 -138t108 -213t35.5 -279q0 -158 -34.5 -280.5t-106 -213t-190.5 -138.5t-281 -48h-345v1358zM255 1305v-1252h290q144 0 250.5 44t172.5 127.5t98 197t32 258.5q0 143 -32.5 256.5t-98.5 196.5t-173 127.5t-249 44.5h-290zM528 1654
q0 27 18.5 45t45.5 18t45.5 -18t18.5 -45q0 -26 -18.5 -44t-45.5 -18t-45.5 18t-18.5 44z" />
    <glyph glyph-name="ddotaccent" unicode="&#x1e0b;" horiz-adv-x="1097" 
d="M516 1048q80 0 145 -24t104.5 -62t62.5 -74t34 -71h4v618h56v-1435h-56v216h-4q-5 -21 -17.5 -46.5t-40.5 -60t-65 -62t-96.5 -46.5t-128.5 -19q-170 0 -279.5 117.5t-109.5 312.5v204q0 106 32.5 190.5t88 136t124.5 78.5t146 27zM516 995q-65 0 -123.5 -23.5
t-106.5 -70t-76 -124t-28 -176.5v-177q0 -181 95.5 -285t238.5 -104q66 0 123 21.5t98.5 58.5t70.5 86t43.5 105.5t14.5 115.5v181q0 168 -96.5 280t-253.5 112zM831 1731q0 27 18.5 45t45.5 18t45.5 -18t18.5 -45q0 -26 -18.5 -44t-45.5 -18t-45.5 18t-18.5 44z" />
    <glyph glyph-name="Ddotbelow" unicode="&#x1e0c;" horiz-adv-x="1297" 
d="M198 1358h345q159 0 277.5 -48t191 -138t108 -213t35.5 -279q0 -158 -34.5 -280.5t-106 -213t-190.5 -138.5t-281 -48h-345v1358zM255 1305v-1252h290q144 0 250.5 44t172.5 127.5t98 197t32 258.5q0 143 -32.5 256.5t-98.5 196.5t-173 127.5t-249 44.5h-290zM531 -292
q0 27 18 45t43 18q27 0 45.5 -18t18.5 -45q0 -26 -18.5 -43.5t-45.5 -17.5q-25 0 -43 17.5t-18 43.5z" />
    <glyph glyph-name="ddotbelow" unicode="&#x1e0d;" horiz-adv-x="1097" 
d="M516 1048q80 0 145 -24t104.5 -62t62.5 -74t34 -71h4v618h56v-1435h-56v216h-4q-5 -21 -17.5 -46.5t-40.5 -60t-65 -62t-96.5 -46.5t-128.5 -19q-170 0 -279.5 117.5t-109.5 312.5v204q0 106 32.5 190.5t88 136t124.5 78.5t146 27zM516 995q-65 0 -123.5 -23.5
t-106.5 -70t-76 -124t-28 -176.5v-177q0 -181 95.5 -285t238.5 -104q66 0 123 21.5t98.5 58.5t70.5 86t43.5 105.5t14.5 115.5v181q0 168 -96.5 280t-253.5 112zM489 -292q0 27 18 45t43 18q27 0 45.5 -18t18.5 -45q0 -26 -18.5 -43.5t-45.5 -17.5q-25 0 -43 17.5t-18 43.5z
" />
    <glyph glyph-name="Dlinebelow" unicode="&#x1e0e;" horiz-adv-x="1297" 
d="M198 1358h345q159 0 277.5 -48t191 -138t108 -213t35.5 -279q0 -158 -34.5 -280.5t-106 -213t-190.5 -138.5t-281 -48h-345v1358zM255 1305v-1252h290q144 0 250.5 44t172.5 127.5t98 197t32 258.5q0 143 -32.5 256.5t-98.5 196.5t-173 127.5t-249 44.5h-290zM871 -294
h-558v44h558v-44z" />
    <glyph glyph-name="dlinebelow" unicode="&#x1e0f;" horiz-adv-x="1097" 
d="M516 1048q80 0 145 -24t104.5 -62t62.5 -74t34 -71h4v618h56v-1435h-56v216h-4q-5 -21 -17.5 -46.5t-40.5 -60t-65 -62t-96.5 -46.5t-128.5 -19q-170 0 -279.5 117.5t-109.5 312.5v204q0 106 32.5 190.5t88 136t124.5 78.5t146 27zM516 995q-65 0 -123.5 -23.5
t-106.5 -70t-76 -124t-28 -176.5v-177q0 -181 95.5 -285t238.5 -104q66 0 123 21.5t98.5 58.5t70.5 86t43.5 105.5t14.5 115.5v181q0 168 -96.5 280t-253.5 112zM829 -294h-558v44h558v-44z" />
    <glyph glyph-name="Dcommaaccent" unicode="&#x1e10;" horiz-adv-x="1297" 
d="M198 1358h345q159 0 277.5 -48t191 -138t108 -213t35.5 -279q0 -158 -34.5 -280.5t-106 -213t-190.5 -138.5t-281 -48h-345v1358zM255 1305v-1252h290q144 0 250.5 44t172.5 127.5t98 197t32 258.5q0 143 -32.5 256.5t-98.5 196.5t-173 127.5t-249 44.5h-290zM517 -479
h-38l85 335h67z" />
    <glyph glyph-name="dcommaaccent" unicode="&#x1e11;" horiz-adv-x="1097" 
d="M516 1048q80 0 145 -24t104.5 -62t62.5 -74t34 -71h4v618h56v-1435h-56v216h-4q-5 -21 -17.5 -46.5t-40.5 -60t-65 -62t-96.5 -46.5t-128.5 -19q-170 0 -279.5 117.5t-109.5 312.5v204q0 106 32.5 190.5t88 136t124.5 78.5t146 27zM516 995q-65 0 -123.5 -23.5
t-106.5 -70t-76 -124t-28 -176.5v-177q0 -181 95.5 -285t238.5 -104q66 0 123 21.5t98.5 58.5t70.5 86t43.5 105.5t14.5 115.5v181q0 168 -96.5 280t-253.5 112zM475 -479h-38l85 335h67z" />
    <glyph glyph-name="Dcircumflexbelow" unicode="&#x1e12;" horiz-adv-x="1297" 
d="M198 1358h345q159 0 277.5 -48t191 -138t108 -213t35.5 -279q0 -158 -34.5 -280.5t-106 -213t-190.5 -138.5t-281 -48h-345v1358zM255 1305v-1252h290q144 0 250.5 44t172.5 127.5t98 197t32 258.5q0 143 -32.5 256.5t-98.5 196.5t-173 127.5t-249 44.5h-290zM327 -415
l240 275h50l240 -275h-55l-208 241h-4l-208 -241h-55z" />
    <glyph glyph-name="dcircumflexbelow" unicode="&#x1e13;" horiz-adv-x="1097" 
d="M516 1048q80 0 145 -24t104.5 -62t62.5 -74t34 -71h4v618h56v-1435h-56v216h-4q-5 -21 -17.5 -46.5t-40.5 -60t-65 -62t-96.5 -46.5t-128.5 -19q-170 0 -279.5 117.5t-109.5 312.5v204q0 106 32.5 190.5t88 136t124.5 78.5t146 27zM516 995q-65 0 -123.5 -23.5
t-106.5 -70t-76 -124t-28 -176.5v-177q0 -181 95.5 -285t238.5 -104q66 0 123 21.5t98.5 58.5t70.5 86t43.5 105.5t14.5 115.5v181q0 168 -96.5 280t-253.5 112zM285 -415l240 275h50l240 -275h-55l-208 241h-4l-208 -241h-55z" />
    <glyph glyph-name="Emacrongrave" unicode="&#x1e14;" horiz-adv-x="1093" 
d="M963 53v-53h-765v1358h765v-53h-708v-582h674v-53h-674v-617h708zM636 1700h-70l-326 240h81zM847 1545h-538v44h538v-44z" />
    <glyph glyph-name="emacrongrave" unicode="&#x1e15;" horiz-adv-x="1040" 
d="M531 -18q-191 0 -298.5 123t-107.5 348v107q0 238 107 363t288 125t288 -125t107 -363v-42h-734v-61q0 -203 94 -312.5t257 -109.5q74 0 134 21t96.5 54t57 70.5t24.5 74.5h56q-4 -45 -27.5 -90.5t-66 -87.5t-114.5 -68.5t-161 -26.5zM181 569h678v4q0 200 -92 311
t-247 111t-247 -111t-92 -311v-4zM798 1279h-558v44h558v-44zM552 1481h-55l-256 301h66z" />
    <glyph glyph-name="Emacronacute" unicode="&#x1e16;" horiz-adv-x="1093" 
d="M963 53v-53h-765v1358h765v-53h-708v-582h674v-53h-674v-617h708zM520 1700l315 240h81l-326 -240h-70zM847 1545h-538v44h538v-44z" />
    <glyph glyph-name="emacronacute" unicode="&#x1e17;" horiz-adv-x="1040" 
d="M531 -18q-191 0 -298.5 123t-107.5 348v107q0 238 107 363t288 125t288 -125t107 -363v-42h-734v-61q0 -203 94 -312.5t257 -109.5q74 0 134 21t96.5 54t57 70.5t24.5 74.5h56q-4 -45 -27.5 -90.5t-66 -87.5t-114.5 -68.5t-161 -26.5zM181 569h678v4q0 200 -92 311
t-247 111t-247 -111t-92 -311v-4zM798 1279h-558v44h558v-44zM541 1481h-55l246 301h65z" />
    <glyph glyph-name="Ecircumflexbelow" unicode="&#x1e18;" horiz-adv-x="1093" 
d="M963 53v-53h-765v1358h765v-53h-708v-582h674v-53h-674v-617h708zM313 -415l240 275h50l240 -275h-55l-208 241h-4l-208 -241h-55z" />
    <glyph glyph-name="ecircumflexbelow" unicode="&#x1e19;" horiz-adv-x="1040" 
d="M531 -18q-191 0 -298.5 123t-107.5 348v107q0 238 107 363t288 125t288 -125t107 -363v-42h-734v-61q0 -203 94 -312.5t257 -109.5q74 0 134 21t96.5 54t57 70.5t24.5 74.5h56q-4 -45 -27.5 -90.5t-66 -87.5t-114.5 -68.5t-161 -26.5zM181 569h678v4q0 200 -92 311
t-247 111t-247 -111t-92 -311v-4zM266 -415l240 275h50l240 -275h-55l-208 241h-4l-208 -241h-55z" />
    </font>
</defs>
</svg>
