<?xml version="1.0" standalone="no"?>
<!DOCTYPE svg PUBLIC "-//W3C//DTD SVG 1.1//EN" "http://www.w3.org/Graphics/SVG/1.1/DTD/svg11.dtd" >
<svg xmlns="http://www.w3.org/2000/svg" xmlns:xlink="http://www.w3.org/1999/xlink" version="1.1">
<metadata>
Created by FontForge 20161003 at Mon Nov  6 13:47:13 2017
 By www-data
(c) 2015 Apple Inc. All rights reserved.
</metadata>
<defs>
<font id="SFCompactDisplayThin" horiz-adv-x="1800" >
  <font-face 
    font-family="SFCompactDisplayThin"
    font-weight="200"
    font-stretch="normal"
    units-per-em="2048"
    panose-1="2 11 3 4 3 2 2 6 2 4"
    ascent="1638"
    descent="-410"
    x-height="1035"
    cap-height="1360"
    bbox="-453 -497 2048 1950"
    underline-thickness="50"
    underline-position="-150"
    unicode-range="U+0020-1F189"
  />
<missing-glyph horiz-adv-x="2048" 
d="M100 -494v344h1848v-344h-1848zM100 -74v344h1848v-344h-1848zM100 346v344h1848v-344h-1848zM100 766v344h1848v-344h-1848zM100 1186v344h1848v-344h-1848zM100 1606v344h1848v-344h-1848z" />
    <glyph glyph-name=".notdef" horiz-adv-x="2048" 
d="M100 -494v344h1848v-344h-1848zM100 -74v344h1848v-344h-1848zM100 346v344h1848v-344h-1848zM100 766v344h1848v-344h-1848zM100 1186v344h1848v-344h-1848zM100 1606v344h1848v-344h-1848z" />
    <glyph glyph-name=".null" horiz-adv-x="0" 
 />
    <glyph glyph-name="nonmarkingreturn" horiz-adv-x="0" 
 />
    <glyph glyph-name="space" unicode=" " horiz-adv-x="422" 
 />
    <glyph glyph-name="exclam" unicode="!" horiz-adv-x="487" 
d="M199 1360h87l-8 -987h-70zM166 62q0 32 22.5 55t54.5 23t55 -23t23 -55t-23 -54.5t-55 -22.5t-54.5 22.5t-22.5 54.5z" />
    <glyph glyph-name="quotedbl" unicode="&#x22;" horiz-adv-x="608" 
d="M142 1360h90l-15 -411h-59zM377 1360h90l-16 -411h-59z" />
    <glyph glyph-name="numbersign" unicode="#" horiz-adv-x="1195" 
d="M1145 881h-248l-78 -392h234l-14 -70h-235l-87 -419h-71l86 419h-354l-86 -419h-72l86 419h-234l14 70h236l78 392h-222l13 70h224l84 413h73l-86 -413h354l85 413h72l-85 -413h247zM472 881l-78 -392h353l79 392h-354z" />
    <glyph glyph-name="dollar" unicode="$" horiz-adv-x="1092" 
d="M203 1035q0 -192 257 -267q44 -11 59 -17v548q-145 -7 -230.5 -76.5t-85.5 -187.5zM917 355q0 114 -73 180.5t-235 111.5q-1 1 -8.5 3t-8.5 2v-588q151 11 238 87t87 204zM592 -143h-73v133q-106 3 -191.5 36t-137 84t-79 111.5t-27.5 124.5h83q3 -111 95.5 -192.5
t256.5 -89.5v606l-89 24q-145 40 -227.5 125.5t-82.5 213.5q0 149 108 240.5t291 99.5v133h73v-134q176 -10 280.5 -100.5t106.5 -221.5h-81q-2 93 -81 166t-225 83v-567l49 -12q184 -47 271.5 -133.5t87.5 -226.5q0 -165 -112.5 -260.5t-295.5 -107.5v-135z" />
    <glyph glyph-name="percent" unicode="%" horiz-adv-x="1458" 
d="M157 1071v-31q0 -116 49.5 -184.5t123.5 -68.5q73 0 122 68t49 184v31q0 115 -49 183.5t-122 68.5q-74 0 -123.5 -68.5t-49.5 -182.5zM88 1037v36q0 141 70 227.5t172 86.5q101 0 170.5 -86t69.5 -228v-37q0 -142 -69.5 -228t-171.5 -86t-171.5 86.5t-69.5 228.5z
M957 339v-31q0 -116 49.5 -184.5t123.5 -68.5q73 0 122 68.5t49 184.5v31q0 114 -49 182.5t-122 68.5q-74 0 -123.5 -68.5t-49.5 -182.5zM888 305v37q0 140 70 226.5t172 86.5q101 0 170.5 -86t69.5 -228v-37q0 -141 -69.5 -227.5t-171.5 -86.5t-171.5 86.5t-69.5 228.5z
M253 0h-83l514 680l514 680h82l-514 -680z" />
    <glyph glyph-name="ampersand" unicode="&#x26;" horiz-adv-x="1268" 
d="M1135 0l-162 174q-91 -99 -214.5 -150t-246.5 -51q-117 0 -213.5 41.5t-157.5 127t-61 200.5q0 225 278 367q2 1 38 19.5t38 19.5q-105 107 -151.5 181.5t-46.5 158.5q0 128 94 206t228 78q140 0 227 -83.5t87 -204.5q0 -106 -76.5 -189.5t-238.5 -164.5l410 -439
q41 63 68.5 171.5t31.5 225.5q1 19 1 68h78q0 -52 -1 -72q-4 -132 -36.5 -252t-85.5 -196l223 -236h-111zM402 651q-238 -125 -238 -308q0 -128 99.5 -211.5t249.5 -83.5q111 0 222 47t185 133l-434 467q-12 -8 -84 -44zM506 781q154 75 218.5 145t64.5 155q0 94 -64 156
t-168 62q-102 0 -170 -60t-68 -155q0 -71 42 -134.5t145 -168.5z" />
    <glyph glyph-name="quotesingle" unicode="'" horiz-adv-x="361" 
d="M136 1360h89l-15 -411h-59z" />
    <glyph glyph-name="parenleft" unicode="(" horiz-adv-x="570" 
d="M409 1362h66q-27 -35 -54.5 -78t-62.5 -118.5t-61 -158.5t-44 -200t-18 -241t18 -242t42 -200t61.5 -166.5t61.5 -127t56 -93.5h-71q-31 40 -60.5 88.5t-65 127.5t-61.5 165.5t-44 204.5t-18 243t18 239t43 193t63 155.5t66 118.5t65 90z" />
    <glyph glyph-name="parenright" unicode=")" horiz-adv-x="569" 
d="M95 1362h65q37 -48 64.5 -90t66 -118.5t63.5 -155.5t43 -193t18 -239q0 -154 -25.5 -294.5t-67 -244t-79 -171t-77.5 -119.5h-70q32 52 55.5 93.5t61 126.5t61 167t42 200t18.5 242q0 153 -25.5 291.5t-67 237.5t-76 160t-70.5 107z" />
    <glyph glyph-name="asterisk" unicode="*" horiz-adv-x="941" 
d="M505 680h-69l7 296l-258 -152l-33 60l266 138l-266 152l33 60l258 -168l-7 311h69l-7 -310l257 167l34 -60l-267 -152l267 -138l-34 -60l-257 152z" />
    <glyph glyph-name="plus" unicode="+" horiz-adv-x="1048" 
d="M560 516v-467h-72v467h-422v72h422v450h72v-450h423v-72h-423z" />
    <glyph glyph-name="comma" unicode="," horiz-adv-x="350" 
d="M127 -292h-66l88 400h94z" />
    <glyph glyph-name="hyphen" unicode="&#x2011;" horiz-adv-x="762" 
d="M696 525h-630v73h630v-73z" />
    <glyph glyph-name="hyphen" unicode="-" horiz-adv-x="762" 
d="M696 525h-630v73h630v-73z" />
    <glyph glyph-name="period" unicode="." horiz-adv-x="429" 
d="M137 62q0 32 23 55t55 23t55 -23t23 -55t-23 -54.5t-55 -22.5t-55 22.5t-23 54.5z" />
    <glyph glyph-name="slash" unicode="/" horiz-adv-x="631" 
d="M105 -315h-75l494 1750h77z" />
    <glyph glyph-name="zero" unicode="0" horiz-adv-x="1097" 
d="M189 729v-98q0 -282 98 -435.5t262 -153.5q163 0 261 153.5t98 435.5v98q0 281 -98 434.5t-261 153.5q-164 0 -262 -153t-98 -435zM106 633v93q0 317 119.5 491t323.5 174t323 -174t119 -491v-93q0 -317 -119 -490.5t-323 -173.5t-323.5 173.5t-119.5 490.5z" />
    <glyph glyph-name="one" unicode="1" horiz-adv-x="759" 
d="M522 0h-81v1270h-4q-13 -8 -166.5 -107t-170.5 -111v85q21 15 173.5 114t170.5 109h78v-1360z" />
    <glyph glyph-name="two" unicode="2" horiz-adv-x="1085" 
d="M217 1017h-81v4q0 69 25.5 133.5t74 118t127.5 86t176 32.5q95 0 172 -29t126 -79t75.5 -115t26.5 -138q0 -49 -13.5 -98t-30 -84.5t-50.5 -82.5t-53 -70t-59 -70l-480 -548v-4h717v-73h-827v64l536 614q42 49 64.5 77t53 76t44 97.5t13.5 104.5q0 117 -84 201t-232 84
t-234 -88.5t-87 -208.5v-4z" />
    <glyph glyph-name="three" unicode="3" horiz-adv-x="1097" 
d="M385 665v74h121q157 0 247.5 85.5t89.5 212.5q0 122 -86 201.5t-233 79.5q-66 0 -120 -19t-89 -48.5t-59 -68t-34 -75.5t-11 -72h-82q0 45 13.5 92t44 95t75 85t113 60.5t151.5 23.5q184 0 292.5 -98t109.5 -248q1 -143 -86.5 -234.5t-197.5 -103.5v-2q63 -5 123.5 -29
t111.5 -65.5t82.5 -107t31.5 -144.5q1 -171 -127 -281t-323 -110q-104 0 -190 32t-139.5 85t-82.5 119t-30 136h81q4 -119 102 -208.5t263 -89.5q161 0 262 89t100 226q0 138 -109 223t-279 85h-136z" />
    <glyph glyph-name="four" unicode="4" horiz-adv-x="1106" 
d="M704 1360h120v-955h198v-74h-198v-331h-77v331h-662v73q29 51 301 470t318 486zM173 405h574v882h-4q-38 -56 -292 -446t-278 -433v-3z" />
    <glyph glyph-name="five" unicode="5" horiz-adv-x="1113" 
d="M125 328h83q3 -48 25 -96t62.5 -91.5t109.5 -71t155 -27.5q152 0 258.5 109.5t106.5 270.5q0 163 -102.5 271t-262.5 108q-121 0 -209.5 -58t-123.5 -127h-77l91 744h672v-73h-604l-75 -570h2q17 29 56.5 62.5t115.5 64.5t160 31q192 0 316.5 -128t124.5 -324
q0 -192 -129 -323t-325 -131q-87 0 -159.5 23t-121 60t-82.5 85t-50 96t-17 95z" />
    <glyph glyph-name="six" unicode="6" horiz-adv-x="1077" 
d="M975 1047h-80q-5 44 -28.5 90t-61 87t-96 67t-126.5 26q-187 0 -297 -174t-112 -529h1h1q31 104 138.5 181.5t261.5 77.5q80 0 157 -31.5t138 -87.5t98.5 -143t37.5 -190q0 -201 -126 -326.5t-318 -125.5q-207 0 -332 153q-134 166 -134 473q0 208 35.5 362.5t101.5 248
t154.5 139t199.5 45.5q80 0 151.5 -31t119.5 -80.5t78.5 -110t37.5 -121.5zM197 447q0 -174 107 -289.5t262 -115.5t257 104t102 267q0 87 -30 161t-79.5 122.5t-113 75.5t-131.5 27q-73 0 -139.5 -23.5t-119 -66.5t-84 -111t-31.5 -151z" />
    <glyph glyph-name="seven" unicode="7" horiz-adv-x="1048" 
d="M108 1360h817v-78l-586 -1282h-89l593 1282v4h-735v74z" />
    <glyph glyph-name="eight" unicode="8" horiz-adv-x="1117" 
d="M559 41q163 0 268.5 91.5t105.5 236.5q0 137 -104.5 226t-269.5 89q-166 0 -271 -89t-105 -226q0 -145 106 -236.5t270 -91.5zM559 752q138 0 230.5 79t92.5 201q0 128 -91 207t-232 79t-232.5 -79t-91.5 -207q0 -122 92.5 -201t231.5 -79zM557 -31q-199 0 -327.5 110
t-128.5 283q0 65 20 121.5t52 96t72.5 69.5t80 46.5t76.5 22.5v6q-31 7 -63.5 22t-66.5 42t-60 61.5t-42.5 83.5t-16.5 105q0 155 113 253.5t293 98.5q179 0 292 -98.5t113 -253.5q0 -56 -16.5 -105.5t-43 -84t-60 -61t-66 -41.5t-63.5 -22v-6q47 -8 97 -33t97 -67t77 -109
t30 -147q0 -173 -129.5 -283t-329.5 -110z" />
    <glyph glyph-name="nine" unicode="9" horiz-adv-x="1077" 
d="M110 320h80q5 -48 26 -94t58 -88t98.5 -68t138.5 -26q193 0 291 168.5t98 540.5h-3q-17 -52 -46.5 -96.5t-74.5 -84.5t-111.5 -63t-146.5 -23q-84 0 -161 30.5t-137 86t-95.5 143.5t-35.5 194q0 197 124.5 323.5t307.5 126.5q83 0 151.5 -22.5t126 -73t97 -127t61 -188.5
t21.5 -254q0 -390 -120.5 -572.5t-352.5 -182.5q-90 0 -165.5 31.5t-122.5 83t-74.5 112t-32.5 123.5zM878 911q0 179 -96.5 293t-257.5 114q-151 0 -252 -107.5t-101 -270.5q0 -173 103 -276.5t258 -103.5q141 0 243.5 102.5t102.5 248.5z" />
    <glyph glyph-name="colon" unicode=":" horiz-adv-x="418" 
d="M131 80q0 32 22.5 55t54.5 23t55 -23t23 -55q0 -31 -23 -54t-55 -23t-54.5 22.5t-22.5 54.5zM131 815q0 32 22.5 55t54.5 23t55 -23.5t23 -54.5q0 -32 -23 -55t-55 -23t-54.5 23t-22.5 55z" />
    <glyph glyph-name="semicolon" unicode=";" horiz-adv-x="428" 
d="M145 -259h-66l81 367h94zM117 815q0 32 23 55t54 23q32 0 55 -23t23 -55t-23 -55t-55 -23t-54.5 23t-22.5 55z" />
    <glyph glyph-name="less" unicode="&#x3c;" horiz-adv-x="1048" 
d="M119 467v79l780 538v-88l-703 -481v-10l703 -448v-88z" />
    <glyph glyph-name="equal" unicode="=" horiz-adv-x="1048" 
d="M933 332h-820v71h820v-71zM933 689h-820v71h820v-71z" />
    <glyph glyph-name="greater" unicode="&#x3e;" horiz-adv-x="1048" 
d="M930 546v-79l-781 -498v88l704 448v10l-704 481v88z" />
    <glyph glyph-name="question" unicode="?" horiz-adv-x="879" 
d="M62 1059q6 147 107 240t279 93q158 0 263.5 -85t105.5 -233q0 -104 -51.5 -179t-153.5 -152q-95 -72 -125.5 -128.5t-30.5 -132.5v-89h-82v100q0 90 41 157t146 146q91 70 131.5 131t40.5 144q0 119 -83.5 183.5t-207.5 64.5q-79 0 -140 -25.5t-93.5 -66.5t-49.5 -83
t-19 -85h-78zM341 62q0 32 22.5 55t54.5 23t55 -23t23 -55t-23 -54.5t-55 -22.5t-54.5 22.5t-22.5 54.5z" />
    <glyph glyph-name="at" unicode="@" horiz-adv-x="1638" 
d="M1242 171q-90 0 -149.5 43.5t-68.5 112.5h-5q-4 -14 -12 -31.5t-26.5 -40t-42 -41t-61 -31t-80.5 -12.5q-114 0 -185 80t-71 230v96q0 137 67 220t191 83q54 0 95.5 -16.5t64.5 -42.5t35 -47.5t16 -40.5h5v131h69v-472q0 -45 15 -78t40.5 -50t52.5 -24.5t57 -7.5
q94 0 159 89.5t65 275.5v38q0 121 -42.5 230t-120.5 193t-199 133t-268 49h-7q-192 0 -340 -84t-231.5 -245.5t-83.5 -378.5v-35q0 -160 51 -289t140 -211t207.5 -125.5t255.5 -43.5h9q174 0 298 44v-65q-108 -43 -298 -43h-9q-156 0 -288.5 48t-230.5 138t-153 229t-55 312
v48q0 174 53.5 317.5t149.5 242t230.5 152.5t294.5 54h7q131 0 244.5 -36t195.5 -99.5t141.5 -147.5t88.5 -181.5t29 -201.5v-53q0 -198 -86 -306.5t-214 -108.5zM615 489q0 -127 55 -189.5t141 -62.5q38 0 71.5 12.5t63 37.5t47 70.5t17.5 105.5v121q0 97 -52.5 164.5
t-146.5 67.5q-90 0 -143 -64.5t-53 -178.5v-84z" />
    <glyph glyph-name="A" unicode="A" horiz-adv-x="1180" 
d="M146 0h-86l487 1360h86l488 -1360h-87l-161 458h-567zM592 1259h-4l-258 -731h519z" />
    <glyph glyph-name="B" unicode="B" horiz-adv-x="1208" 
d="M190 0v1360h441q185 0 290 -88.5t105 -244.5q0 -70 -22.5 -128.5t-59 -95.5t-75 -59.5t-77.5 -31.5v-5q63 -7 117 -30t98 -63t69.5 -103.5t25.5 -142.5q0 -170 -116.5 -269t-331.5 -99h-464zM272 1284v-548h338q146 0 239 71t93 209q0 128 -85 198t-239 70h-346zM272 661
v-586h361q188 0 286.5 76.5t98.5 215.5q0 144 -100.5 219t-258.5 75h-387z" />
    <glyph glyph-name="C" unicode="C" horiz-adv-x="1245" 
d="M217 803v-249q0 -106 25.5 -196.5t76 -162t135.5 -112t195 -40.5q175 0 285 97t111 241h80v-3q0 -171 -132.5 -290t-343.5 -119q-132 0 -232 46t-161 127.5t-91 187.5t-30 233v231q0 126 31 233t92 189t160 128.5t227 46.5q109 0 200.5 -36.5t149.5 -96t89.5 -133
t31.5 -149.5v-3h-80q-1 62 -27.5 122t-74.5 110t-123.5 80.5t-165.5 30.5q-107 0 -190.5 -40.5t-134.5 -111.5t-77 -162.5t-26 -198.5z" />
    <glyph glyph-name="D" unicode="D" horiz-adv-x="1294" 
d="M190 1360h366q308 0 458 -177.5t150 -501.5q0 -161 -35 -284.5t-108 -213t-190 -136.5t-275 -47h-366v1360zM272 1284v-1209h284q267 0 396 158t129 448q0 288 -130 445.5t-395 157.5h-284z" />
    <glyph glyph-name="E" unicode="E" horiz-adv-x="1093" 
d="M966 75v-75h-776v1360h776v-76h-694v-550h660v-75h-660v-584h694z" />
    <glyph glyph-name="F" unicode="F" horiz-adv-x="1038" 
d="M272 0h-82v1360h765v-76h-683v-563h627v-76h-627v-645z" />
    <glyph glyph-name="G" unicode="G" horiz-adv-x="1263" 
d="M1115 1000h-78q-6 55 -32 108.5t-72 101t-121 77t-168 29.5q-204 0 -315.5 -137.5t-111.5 -373.5v-232q0 -243 110 -386.5t328 -143.5q176 0 285.5 94.5t109.5 259.5v186h-407v75h485v-261q0 -199 -133.5 -313.5t-342.5 -114.5q-131 0 -231 45t-162 126.5t-93 190.5
t-31 242v232q0 270 133 428t376 158q109 0 198.5 -33.5t146.5 -90t89 -125t37 -142.5z" />
    <glyph glyph-name="H" unicode="H" horiz-adv-x="1334" 
d="M1143 0h-82v676h-789v-676h-82v1360h82v-609h789v609h82v-1360z" />
    <glyph glyph-name="I" unicode="I" horiz-adv-x="493" 
d="M287 0h-81v1360h81v-1360z" />
    <glyph glyph-name="J" unicode="J" horiz-adv-x="929" 
d="M59 295h81q0 -41 14 -80.5t42.5 -76.5t82.5 -60t125 -23q125 0 198 77.5t73 230.5v997h82v-998q0 -188 -94.5 -285t-260.5 -97q-89 0 -158 29.5t-108 77t-58 100.5t-19 108z" />
    <glyph glyph-name="K" unicode="K" horiz-adv-x="1134" 
d="M1060 1360l-558 -604l590 -756h-106l-544 700l-170 -179v-521h-82v1360h82v-730h3l681 730h104z" />
    <glyph glyph-name="L" unicode="L" horiz-adv-x="1013" 
d="M955 75v-75h-765v1360h82v-1285h683z" />
    <glyph glyph-name="M" unicode="M" horiz-adv-x="1575" 
d="M267 0h-75v1360h81l512 -1160h4l514 1160h80v-1360h-75v1177h-4l-478 -1072h-77l-478 1072h-4v-1177z" />
    <glyph glyph-name="N" unicode="N" horiz-adv-x="1334" 
d="M271 0h-81v1360h85l784 -1216h4v1216h80v-1360h-84l-784 1216h-4v-1216z" />
    <glyph glyph-name="O" unicode="O" horiz-adv-x="1310" 
d="M216 806v-256q0 -232 118 -369.5t321 -137.5t320.5 137.5t117.5 369.5v256q0 231 -118.5 370.5t-319.5 139.5t-320 -139.5t-119 -370.5zM135 556v244q0 271 138 431t382 160t382 -160.5t138 -432.5v-242q0 -271 -138 -429t-383 -158t-382 158t-137 429z" />
    <glyph glyph-name="P" unicode="P" horiz-adv-x="1141" 
d="M190 1360h439q200 0 311.5 -107.5t111.5 -293.5t-111 -292.5t-312 -106.5h-357v-560h-82v1360zM272 1284v-650h327q178 0 273.5 82t95.5 243q0 154 -89.5 239.5t-252.5 85.5h-354z" />
    <glyph glyph-name="Q" unicode="Q" horiz-adv-x="1310" 
d="M135 568v233q0 272 137 431t382 159t382.5 -159t137.5 -431v-233q0 -163 -51 -288t-148 -200l182 -248h-93l-152 206q-111 -60 -258 -60q-245 0 -382 159t-137 431zM216 807v-245q0 -233 117.5 -371.5t320.5 -138.5q118 0 210 50l-184 250h98l150 -206q80 65 122.5 172
t42.5 244v245q0 232 -118.5 370.5t-320.5 138.5q-201 0 -319.5 -139t-118.5 -370z" />
    <glyph glyph-name="R" unicode="R" horiz-adv-x="1187" 
d="M637 1360q191 0 301 -106t110 -276q0 -152 -79.5 -244.5t-209.5 -123.5l312 -610h-95l-302 594h-402v-594h-82v1360h447zM272 668h351q159 0 250.5 82t91.5 225q0 145 -91.5 228t-248.5 83h-353v-618z" />
    <glyph glyph-name="S" unicode="S" horiz-adv-x="1155" 
d="M106 345h83q2 -51 24 -100.5t65.5 -96t121.5 -75.5t179 -29q169 0 273.5 83.5t104.5 214.5q0 120 -76 183.5t-241 107.5l-178 48q-311 83 -311 345q0 166 120 266t316 100q194 0 310.5 -97.5t118.5 -246.5h-84q-2 49 -22.5 95t-60 86t-108 64t-155.5 24q-162 0 -256 -79
t-94 -210q0 -110 64.5 -173t198.5 -99l172 -47q94 -26 158 -54t114.5 -69.5t74 -100.5t23.5 -138q0 -174 -131 -276t-340 -102q-99 0 -180 24.5t-132.5 63.5t-86.5 89.5t-50 100t-15 98.5z" />
    <glyph glyph-name="T" unicode="T" horiz-adv-x="1067" 
d="M575 0h-81v1285h-444v75h967v-75h-442v-1285z" />
    <glyph glyph-name="U" unicode="U" horiz-adv-x="1327" 
d="M258 1360v-891q0 -195 106.5 -309t298.5 -114q193 0 299 113.5t106 309.5v891h82v-896q0 -226 -129 -360.5t-358 -134.5t-357.5 134.5t-128.5 360.5v896h81z" />
    <glyph glyph-name="V" unicode="V" horiz-adv-x="1200" 
d="M641 0h-90l-494 1360h91l448 -1258h4l453 1258h90z" />
    <glyph glyph-name="W" unicode="W" horiz-adv-x="1715" 
d="M505 0h-87l-361 1360h89l315 -1233h4l349 1233h87l348 -1233h4l316 1233h89l-361 -1360h-87l-350 1226h-5z" />
    <glyph glyph-name="X" unicode="X" horiz-adv-x="1144" 
d="M1089 1360l-469 -683l464 -677h-98l-414 611h-6l-414 -611h-95l465 680l-465 680h98l417 -613h5l417 613h95z" />
    <glyph glyph-name="Y" unicode="Y" horiz-adv-x="1097" 
d="M590 0h-81v607l-470 753h96l412 -668h5l413 668h94l-469 -751v-609z" />
    <glyph glyph-name="Z" unicode="Z" horiz-adv-x="1152" 
d="M96 0v65l850 1217v4h-823v74h924v-65l-849 -1217v-5h853v-73h-955z" />
    <glyph glyph-name="bracketleft" unicode="[" horiz-adv-x="580" 
d="M154 1360h343v-63h-266v-1457h279v-63h-356v1583z" />
    <glyph glyph-name="backslash" unicode="\" horiz-adv-x="628" 
d="M599 -315h-74l-495 1750h75z" />
    <glyph glyph-name="bracketright" unicode="]" horiz-adv-x="580" 
d="M83 1360h343v-1583h-356v63h279v1457h-266v63z" />
    <glyph glyph-name="asciicircum" unicode="^" horiz-adv-x="749" 
d="M664 794h-75l-213 488h-4l-213 -488h-74l249 570h80z" />
    <glyph glyph-name="underscore" unicode="_" horiz-adv-x="851" 
d="M873 -193h-896v70h896v-70z" />
    <glyph glyph-name="grave" unicode="`" horiz-adv-x="805" 
d="M526 1201h-72l-248 294h91z" />
    <glyph glyph-name="a" unicode="a" horiz-adv-x="1014" 
d="M770 167q-11 -28 -35.5 -57.5t-63 -59.5t-99 -49t-130.5 -19q-152 0 -245 83.5t-93 224.5q0 132 90.5 210t260.5 78h317v147q0 127 -73 190.5t-202 63.5q-233 0 -270 -204h-78q14 127 103 202t250 75t256 -81.5t95 -230.5v-740h-79v167h-4zM452 55q134 0 227 81.5
t93 210.5v160h-315q-134 0 -201 -58t-67 -157q0 -109 73.5 -173t189.5 -64z" />
    <glyph glyph-name="b" unicode="b" horiz-adv-x="1113" 
d="M592 -18q-73 0 -134 21t-100.5 55.5t-64 69t-39.5 71.5h-4v-199h-79v1435h81v-598h4q11 30 33.5 62t62 69t103 60.5t139.5 23.5q175 0 286 -120t111 -324v-180q0 -107 -32 -193.5t-87.5 -141t-127 -83t-152.5 -28.5zM590 56q64 0 120.5 24t101.5 70t71 121.5t26 170.5
v154q0 179 -90 280.5t-229 101.5q-105 0 -183.5 -52t-117 -137t-38.5 -189v-160q0 -170 92.5 -277t246.5 -107z" />
    <glyph glyph-name="c" unicode="c" horiz-adv-x="1032" 
d="M123 446v151q0 213 112 334t295 121q89 0 162 -28t119.5 -74t73 -100.5t29.5 -111.5h-79q-16 99 -95.5 169.5t-206.5 70.5q-150 0 -240 -103.5t-90 -289.5v-132q0 -189 90 -292.5t247 -103.5q133 0 207 65t91 157h78q-8 -56 -33 -106.5t-69 -94.5t-116.5 -70t-164.5 -26
q-190 0 -300 122.5t-110 341.5z" />
    <glyph glyph-name="d" unicode="d" horiz-adv-x="1112" 
d="M521 1052q73 0 133.5 -21t100 -55t63.5 -68.5t38 -69.5h4v597h81v-1435h-79v202h-4q-9 -24 -23.5 -50t-43.5 -57.5t-64.5 -55.5t-90 -40.5t-116.5 -16.5q-178 0 -287.5 122t-109.5 324v178q0 209 114 327.5t284 118.5zM525 978q-64 0 -121 -23.5t-102 -69t-71.5 -121
t-26.5 -171.5v-155q0 -179 91 -280t230 -101q104 0 182 53t116 138t38 188v158q0 166 -92.5 275t-243.5 109z" />
    <glyph glyph-name="e" unicode="e" horiz-adv-x="1050" 
d="M535 -18q-193 0 -302.5 125.5t-109.5 350.5v110q0 231 108 357.5t294 126.5t294.5 -126.5t108.5 -360.5v-55h-725v-51q0 -191 89.5 -297.5t244.5 -106.5q129 0 205 62t90 144h81q-7 -50 -33 -97.5t-70.5 -89t-116 -67t-158.5 -25.5zM203 581h644v4q0 183 -87.5 288.5
t-234.5 105.5t-234.5 -105.5t-87.5 -288.5v-4z" />
    <glyph glyph-name="f" unicode="f" horiz-adv-x="619" 
d="M218 0v964h-164v71h164v136q0 138 66 198.5t198 60.5q34 0 80 -7v-70q-37 5 -75 5q-98 0 -143 -43t-45 -147v-133h257v-71h-257v-964h-81z" />
    <glyph glyph-name="g" unicode="g" horiz-adv-x="1112" 
d="M537 -288q150 0 236.5 76.5t86.5 202.5v257h-4q-7 -22 -21.5 -47.5t-42.5 -56.5t-64 -55.5t-90.5 -41t-116.5 -16.5q-175 0 -286.5 120t-111.5 323v134q0 108 32.5 194t88 140t127 82t152.5 28q72 0 133 -21.5t100.5 -55.5t64 -68t37.5 -69h4v197h79v-1042
q0 -161 -110.5 -257.5t-294.5 -96.5q-92 0 -166 24t-119 64.5t-69.5 88.5t-28.5 100h83q8 -80 87 -142t214 -62zM529 979q-139 0 -232 -99t-93 -286v-108q0 -178 91 -279.5t234 -101.5q103 0 179.5 53t114 137.5t37.5 187.5v114q0 166 -91 274t-240 108z" />
    <glyph glyph-name="h" unicode="h" horiz-adv-x="1110" 
d="M171 0v1435h81v-592h4q29 85 115.5 147t219.5 62q160 0 260.5 -99t100.5 -276v-677h-81v667q0 138 -78 224t-214 86q-79 0 -142.5 -29t-103 -78t-60.5 -110.5t-21 -128.5v-631h-81z" />
    <glyph glyph-name="i" unicode="i" horiz-adv-x="434" 
d="M177 0v1035h80v-1035h-80zM146 1307q0 30 20.5 51t50.5 21t51 -21t21 -51t-21 -50.5t-51 -20.5t-50.5 20.5t-20.5 50.5z" />
    <glyph glyph-name="j" unicode="j" horiz-adv-x="434" 
d="M146 1307q0 30 20.5 51t50.5 21t51 -21t21 -51t-21 -50.5t-51 -20.5t-50.5 20.5t-20.5 50.5zM257 1035v-1104q0 -143 -54.5 -206.5t-166.5 -63.5q-45 0 -75 8v71q35 -7 66 -7q80 0 115 44.5t35 151.5v1106h80z" />
    <glyph glyph-name="k" unicode="k" horiz-adv-x="984" 
d="M252 421v-421h-81v1435h81v-911h4l543 511h108l-451 -428l475 -607h-103l-433 554z" />
    <glyph glyph-name="l" unicode="l" horiz-adv-x="447" 
d="M183 0v1435h81v-1435h-81z" />
    <glyph glyph-name="m" unicode="m" horiz-adv-x="1667" 
d="M171 0v1035h80v-170h5q10 31 30.5 61.5t54 60t86 47.5t115.5 18q127 0 205.5 -60t102.5 -151h5q9 33 31 67t59 67.5t96 55t129 21.5q151 0 243 -90t92 -254v-708h-80v689q0 139 -72 213.5t-192 74.5q-133 0 -208 -88.5t-75 -212.5v-676h-80v682q0 141 -71 218t-194 77
q-132 0 -207 -89.5t-75 -226.5v-661h-80z" />
    <glyph glyph-name="n" unicode="n" horiz-adv-x="1107" 
d="M171 0v1035h80v-192h4q29 85 114.5 147t218.5 62q160 0 260 -99t100 -276v-677h-81v667q0 138 -77.5 224t-213.5 86q-104 0 -179.5 -50.5t-110.5 -127.5t-35 -168v-631h-80z" />
    <glyph glyph-name="o" unicode="o" horiz-adv-x="1090" 
d="M544 1052q186 0 304.5 -124.5t118.5 -338.5v-147q0 -215 -117.5 -337.5t-305.5 -122.5t-304.5 122.5t-116.5 337.5v147q0 217 116 340t305 123zM544 979q-153 0 -247 -104t-94 -294v-130q0 -189 94 -292t248 -103q152 0 246.5 102.5t94.5 292.5v130q0 188 -95 293
t-247 105z" />
    <glyph glyph-name="p" unicode="p" horiz-adv-x="1111" 
d="M590 -18q-58 0 -109.5 14.5t-86.5 36t-64 51.5t-46 56.5t-28 54.5h-4v-531h-81v1371h79v-200h4q9 24 24 49t44 56t64.5 55t90 40.5t116.5 16.5q173 0 284 -121t111 -324v-178q0 -108 -32.5 -194.5t-87.5 -140.5t-126.5 -83t-151.5 -29zM588 56q135 0 227 100t92 288v153
q0 178 -90 280t-230 102q-155 0 -245.5 -111t-90.5 -270v-156q0 -167 92.5 -276.5t244.5 -109.5z" />
    <glyph glyph-name="q" unicode="q" horiz-adv-x="1113" 
d="M123 605q0 107 32 193.5t86.5 141t125.5 83.5t152 29q74 0 135 -20.5t101 -55t64.5 -68.5t39.5 -70h4v197h79v-1371h-81v535h-4q-8 -22 -22.5 -47t-43 -56.5t-64.5 -56t-91.5 -41t-118.5 -16.5q-174 0 -284 122.5t-110 326.5v174zM525 978q-137 0 -229 -99.5t-92 -286.5
v-151q0 -179 90.5 -282t231.5 -103q104 0 182 53.5t116 139.5t38 189v157q0 166 -92.5 274.5t-244.5 108.5z" />
    <glyph glyph-name="r" unicode="r" horiz-adv-x="669" 
d="M171 0v1035h80v-192h4q63 208 290 208q31 0 76 -7v-77q-44 8 -86 8q-139 0 -211.5 -99t-72.5 -271v-605h-80z" />
    <glyph glyph-name="s" unicode="s" horiz-adv-x="959" 
d="M131 768q0 134 97.5 209t253.5 75q91 0 160.5 -26.5t108.5 -69t58 -88.5t19 -93h-79q0 25 -8 51t-28 54t-49.5 50t-77.5 36t-107 14q-116 0 -191 -52.5t-75 -154.5q0 -38 13.5 -67t34 -49.5t59 -38t75.5 -29.5t96 -27q157 -40 214 -67q125 -59 141 -176q3 -20 3 -42
q0 -97 -53 -165t-137.5 -99t-192.5 -31q-94 0 -168 26t-116 68t-63.5 90.5t-21.5 99.5h79q2 -35 18.5 -70t49.5 -67.5t91.5 -53t134.5 -20.5q130 0 213.5 56.5t83.5 162.5q0 28 -7.5 51t-17.5 40t-34 33t-41.5 25.5t-57 22.5t-64.5 20.5t-78 21.5q-68 18 -111.5 32.5
t-90.5 38t-73.5 50.5t-43.5 67.5t-17 91.5z" />
    <glyph glyph-name="t" unicode="t" horiz-adv-x="632" 
d="M218 1035v252h81v-252h257v-71h-257v-743q0 -93 40.5 -127t141.5 -34q47 0 89 7v-68q-47 -9 -104 -9q-142 0 -195 55t-53 192v727h-164v71h164z" />
    <glyph glyph-name="u" unicode="u" horiz-adv-x="1105" 
d="M935 1035v-1035h-81v192h-4q-31 -84 -116.5 -147t-220.5 -63q-157 0 -255.5 90.5t-98.5 262.5v700h81v-685q0 -137 77.5 -215t207.5 -78q77 0 140.5 29.5t104 79.5t62.5 114t22 134v621h81z" />
    <glyph glyph-name="v" unicode="v" horiz-adv-x="919" 
d="M416 0l-381 1035h87l334 -931h5l339 931h84l-383 -1035h-85z" />
    <glyph glyph-name="w" unicode="w" horiz-adv-x="1403" 
d="M1362 1035l-283 -1035h-84l-292 919h-4l-292 -919h-84l-282 1035h85l239 -919h5l290 919h82l290 -919h6l238 919h86z" />
    <glyph glyph-name="x" unicode="x" horiz-adv-x="931" 
d="M782 0l-317 455h-3l-318 -455h-92l365 521l-355 514h97l308 -447h3l308 447h93l-356 -512l364 -523h-97z" />
    <glyph glyph-name="y" unicode="y" horiz-adv-x="920" 
d="M885 1035l-373 -1036l-44 -116q-44 -116 -103.5 -170t-168.5 -54q-48 0 -95 9v73q40 -9 88 -9q80 0 126 40.5t73 118.5l34 96l-387 1048h90l337 -946h4l333 946h86z" />
    <glyph glyph-name="z" unicode="z" horiz-adv-x="908" 
d="M97 0v65l623 894v4h-623v72h724v-68l-623 -891v-4h625v-72h-726z" />
    <glyph glyph-name="braceleft" unicode="{" horiz-adv-x="676" 
d="M180 605v-19q82 -7 120 -59t38 -156v-377q0 -110 59 -161.5t178 -51.5h61v-71h-36q-176 0 -258 66.5t-82 237.5v319q0 111 -33.5 157.5t-131.5 46.5v115q98 0 131.5 47.5t33.5 158.5v270q0 87 21 145t66.5 90.5t105 45.5t147.5 13h36v-70h-61q-123 0 -180 -51t-57 -162
v-318q0 -104 -38 -156t-120 -60z" />
    <glyph glyph-name="bar" unicode="|" horiz-adv-x="420" 
d="M247 -308h-74v1743h74v-1743z" />
    <glyph glyph-name="braceright" unicode="}" horiz-adv-x="676" 
d="M496 586v19q-81 8 -119.5 60t-38.5 156v318q0 111 -57 162t-180 51h-61v70h36q88 0 147.5 -13t105 -45.5t66.5 -90.5t21 -145v-270q0 -111 34 -158.5t131 -47.5v-115q-98 0 -131.5 -47t-33.5 -157v-319q0 -171 -82 -237.5t-258 -66.5h-36v71h61q119 0 178 51.5t59 161.5
v377q0 103 38.5 155t119.5 60z" />
    <glyph glyph-name="asciitilde" unicode="~" horiz-adv-x="1124" 
d="M774 524q-57 0 -106.5 23.5t-86 57t-70 67.5t-72.5 57.5t-80 23.5q-70 0 -116.5 -58t-48.5 -153h-77q0 122 68 202.5t175 80.5q54 0 102 -23.5t83.5 -57.5t69.5 -67.5t74.5 -57t83.5 -23.5q74 0 115 61.5t45 149.5h77q0 -50 -13.5 -98t-41 -90.5t-74.5 -68.5t-107 -26z
" />
    <glyph glyph-name="nonbreakingspace" unicode="&#xa0;" horiz-adv-x="422" 
 />
    <glyph glyph-name="exclamdown" unicode="&#xa1;" horiz-adv-x="487" 
d="M287 -320h-87l8 987h70zM320 977q0 -32 -22.5 -55t-54.5 -23t-55 23t-23 55t23 54.5t55 22.5t54.5 -22.5t22.5 -54.5z" />
    <glyph glyph-name="cent" unicode="&#xa2;" horiz-adv-x="1092" 
d="M939 438q-4 -50 -26 -98t-62 -91.5t-106.5 -72t-150.5 -32.5v-235h-74v235q-174 12 -274 129t-100 322v171q0 199 102.5 315.5t271.5 128.5v244h74v-243q80 -5 146 -35.5t107 -75.5t64 -96.5t26 -104.5h-78q-14 96 -91.5 167.5t-209.5 71.5q-152 0 -242 -101.5
t-90 -283.5v-151q0 -185 90.5 -284.5t248.5 -99.5q71 0 126.5 19.5t89 52.5t53 69.5t28.5 78.5h77z" />
    <glyph glyph-name="sterling" unicode="&#xa3;" horiz-adv-x="1092" 
d="M982 74v-74h-884v77q27 0 45.5 1.5t43.5 7t42 16.5t35 30.5t29 47.5t18 69.5t7 94.5v324h-243v72h243v335q0 153 89.5 234.5t243.5 81.5q151 0 241.5 -82.5t96.5 -197.5h-80q-5 81 -72 143.5t-183 62.5q-126 0 -190 -65.5t-64 -184.5v-327h329v-72h-329v-331
q0 -210 -94 -253v-10h676z" />
    <glyph glyph-name="currency" unicode="&#xa4;" horiz-adv-x="1092" 
d="M943 207l-188 188q-92 -74 -208 -74q-118 0 -209 75l-189 -189l-51 51l189 188q-74 90 -74 211q0 119 73 208l-188 187l51 51l187 -187q90 76 211 76q119 0 210 -75l186 186l50 -51l-185 -186q73 -90 73 -209q0 -123 -75 -212l187 -187zM281 657q0 -111 77.5 -189
t188.5 -78q110 0 187.5 78t77.5 189q0 110 -77.5 188.5t-187.5 78.5q-111 0 -188.5 -78t-77.5 -189z" />
    <glyph glyph-name="yen" unicode="&#xa5;" horiz-adv-x="1092" 
d="M854 334h-269v-334h-81v334h-270v68h270v186h-270v68h240l-441 704h96l412 -668h6l413 668h94l-440 -704h240v-68h-269v-186h269v-68z" />
    <glyph glyph-name="brokenbar" unicode="&#xa6;" horiz-adv-x="420" 
d="M247 783h-74v654h74v-654zM247 -309h-74v685h74v-685z" />
    <glyph glyph-name="section" unicode="&#xa7;" horiz-adv-x="941" 
d="M769 58q0 97 -74.5 146.5t-244.5 89.5q-71 17 -116 31t-94.5 37.5t-77.5 51.5t-46.5 71.5t-18.5 98.5q0 53 19 98.5t50.5 76t62 50t62.5 31.5v5q-28 14 -47 26t-45 34.5t-41.5 47.5t-27 63t-11.5 83q0 130 98 211t248 81q154 0 248.5 -81t94.5 -216h-79q-1 102 -78 162
t-185 60q-125 0 -195 -62.5t-70 -151.5q0 -53 20.5 -93t64 -68t92 -46.5t123.5 -38.5q47 -12 76 -21t69 -23.5t64.5 -29t51.5 -36t42 -46.5t25 -58.5t10 -73.5q0 -88 -48.5 -155.5t-112.5 -105.5v-5q173 -72 173 -232q0 -138 -107 -230.5t-278 -92.5q-176 0 -277 83.5
t-101 223.5h76q5 -105 85 -169t220 -64q137 0 218.5 70.5t81.5 166.5zM606 330q57 27 103.5 87.5t46.5 144.5q0 145 -203 201l-181 51q-68 -13 -131 -75.5t-63 -146.5q0 -87 58 -134.5t185 -79.5z" />
    <glyph glyph-name="dieresis" unicode="&#xa8;" horiz-adv-x="805" 
d="M253 1235q-27 0 -45.5 19t-18.5 46t18.5 46t45.5 19t45.5 -19t18.5 -46t-18.5 -46t-45.5 -19zM552 1235q-27 0 -45.5 19t-18.5 46t18.5 46t45.5 19t45.5 -19t18.5 -46t-18.5 -46t-45.5 -19z" />
    <glyph glyph-name="copyright" unicode="&#xa9;" horiz-adv-x="1650" 
d="M531 637v99q0 154 81 235t224 81q122 0 192.5 -62t79.5 -140h-78q-11 53 -58 93t-136 40q-231 0 -231 -252v-96q0 -122 61 -184.5t170 -62.5q90 0 139 33.5t60 86.5h78q-11 -78 -84 -134.5t-193 -56.5q-144 0 -224.5 81t-80.5 239zM195 636q0 -178 79 -321t224.5 -225
t331.5 -82q187 0 333 82t225 225t79 321v109q0 124 -47 235.5t-129.5 194t-202.5 131t-258 48.5q-184 0 -330 -82.5t-225.5 -221.5t-79.5 -305v-109zM830 -59q-207 0 -369 91t-250 250t-88 358v105q0 140 53 264.5t145 215t224.5 143.5t284.5 53t285 -53.5t225 -144.5
t145 -215.5t53 -262.5v-105q0 -149 -51.5 -278t-143 -222t-224.5 -146t-289 -53z" />
    <glyph glyph-name="ordfeminine" unicode="&#xaa;" horiz-adv-x="610" 
d="M274 782q-81 0 -129.5 44t-48.5 119q0 74 49.5 115t140.5 41h154v65q0 58 -34.5 86.5t-96.5 28.5q-57 0 -87.5 -21.5t-37.5 -53.5h-66q5 62 56.5 98.5t137.5 36.5q89 0 142.5 -42.5t53.5 -129.5v-378h-66v81h-3q-19 -36 -60 -63t-105 -27zM290 841q62 0 106 38t44 96v71
h-151q-62 0 -93.5 -26.5t-31.5 -71.5q0 -51 36 -79t90 -28z" />
    <glyph glyph-name="guillemotleft" unicode="&#xab;" horiz-adv-x="1175" 
d="M552 565l367 399h94l-361 -398v-6l361 -400h-103l-358 397v8zM146 565l366 399h95l-361 -398v-6l361 -400h-104l-357 397v8z" />
    <glyph glyph-name="logicalnot" unicode="&#xac;" horiz-adv-x="1048" 
d="M929 156h-77v357h-744v72h821v-429z" />
    <glyph glyph-name="registered" unicode="&#xae;" horiz-adv-x="1132" 
d="M569 454q-203 0 -331.5 127t-128.5 323v48q0 185 130.5 310t329.5 125q198 0 328.5 -125.5t130.5 -309.5v-48q0 -196 -128 -323t-331 -127zM568 511q177 0 289 109.5t112 279.5v56q0 159 -113 267.5t-288 108.5q-173 0 -286 -109t-113 -267v-56q0 -170 111 -279.5
t288 -109.5zM462 1130v-200h119q52 0 83.5 26t31.5 74q0 47 -30 73.5t-82 26.5h-122zM462 679h-57v501h190q71 0 115 -41t44 -108q0 -55 -28.5 -91.5t-74.5 -49.5q9 -15 25.5 -44.5t44 -78.5t49.5 -88h-65l-112 201h-131v-201z" />
    <glyph glyph-name="macron" unicode="&#xaf;" horiz-adv-x="805" 
d="M679 1270h-553v61h553v-61z" />
    <glyph glyph-name="degree" unicode="&#xb0;" horiz-adv-x="471" 
d="M236 997q-77 0 -131.5 54.5t-54.5 131.5t54.5 131.5t131.5 54.5q76 0 130.5 -54.5t54.5 -131.5t-54 -131.5t-131 -54.5zM236 1059q52 0 88.5 36.5t36.5 87.5q0 53 -36.5 89t-88.5 36q-50 0 -87 -36.5t-37 -88.5q0 -50 37 -87t87 -37z" />
    <glyph glyph-name="plusminus" unicode="&#xb1;" horiz-adv-x="1048" 
d="M559 690v-324h-71v324h-411v75h411v305h71v-305h411v-75h-411zM971 151h-893v75h893v-75z" />
    <glyph glyph-name="twosuperior" unicode="&#xb2;" horiz-adv-x="647" 
d="M173 1198h-68v4q0 76 53 130.5t152 54.5q93 0 149 -51t56 -127q0 -50 -26 -94t-82 -103l-208 -217v-3h328v-60h-421v46l258 277q80 84 80 151q0 52 -37 86t-99 34q-65 0 -100 -36t-35 -88v-4z" />
    <glyph glyph-name="threesuperior" unicode="&#xb3;" horiz-adv-x="623" 
d="M225 1035v58h65q63 0 101.5 34.5t38.5 86.5q0 50 -37 82t-98 32q-60 0 -96.5 -30t-38.5 -69h-65q2 62 55.5 110t145.5 48q91 0 147 -47t56 -117q0 -60 -40 -102.5t-91 -51.5v-2q62 -8 108 -48t46 -110q0 -82 -63.5 -134.5t-163.5 -52.5q-96 0 -153.5 47t-59.5 115h64
q3 -44 45 -74t106 -30q71 0 114 36t43 92q0 57 -44 92t-114 35h-71z" />
    <glyph glyph-name="acute" unicode="&#xb4;" horiz-adv-x="805" 
d="M338 1201h-72l230 294h90z" />
    <glyph glyph-name="mu" unicode="&#xb5;" horiz-adv-x="1166" 
d="M171 -336v1371h81v-686q0 -132 73.5 -212t202.5 -80q148 0 238 100t90 255v623h81v-814q0 -89 23.5 -123t82.5 -34q34 0 58 4v-72q-37 -5 -68 -5q-87 0 -130 46.5t-44 150.5l-1 17h-4q-33 -100 -119 -161.5t-209 -61.5q-89 0 -160 37t-110 109h-4v-464h-81z" />
    <glyph glyph-name="paragraph" unicode="&#xb6;" horiz-adv-x="1160" 
d="M695 -210h-82v747h-20q-49 0 -103.5 12t-114.5 42.5t-107 75.5t-78 118.5t-31 163.5q0 98 31 174.5t77.5 121t108 73t114 38t104.5 9.5h101v-1575zM868 -210v1575h81v-1575h-81z" />
    <glyph glyph-name="periodcentered" unicode="&#xb7;" horiz-adv-x="462" 
d="M153 544q0 32 23 55t55 23t55 -23t23 -55t-23 -54.5t-55 -22.5t-55 22.5t-23 54.5z" />
    <glyph glyph-name="cedilla" unicode="&#xb8;" horiz-adv-x="805" 
d="M307 -198v48l65 152h67l-58 -141q88 0 147 -38t59 -116q0 -83 -66 -126.5t-158 -44.5q-71 -1 -125 15v63q45 -15 121 -15q61 0 106 26t45 78q0 99 -153 99h-50z" />
    <glyph glyph-name="onesuperior" unicode="&#xb9;" horiz-adv-x="523" 
d="M353 732h-69v554h-3l-163 -110v68l166 116h69v-628z" />
    <glyph glyph-name="ordmasculine" unicode="&#xba;" horiz-adv-x="596" 
d="M298 1282q-72 0 -117 -50t-45 -136v-69q0 -86 43.5 -135t118.5 -49q74 0 117.5 48.5t43.5 135.5v69q0 85 -44.5 135.5t-116.5 50.5zM298 1341q100 0 165 -63.5t65 -174.5v-82q0 -113 -64.5 -176t-165.5 -63q-102 0 -166 63t-64 176v82q0 110 64.5 174t165.5 64z" />
    <glyph glyph-name="guillemotright" unicode="&#xbb;" horiz-adv-x="1175" 
d="M1027 565v-8l-358 -397h-103l361 400v6l-361 398h94zM621 565v-8l-358 -397h-104l361 400v6l-361 398h95z" />
    <glyph glyph-name="onequarter" unicode="&#xbc;" horiz-adv-x="1458" 
d="M897 201h261v392h-3q-41 -58 -133.5 -197.5t-124.5 -191.5v-3zM1123 652h100v-451h93v-58h-93v-143h-65v143h-334v57q18 32 62 99t83 125t90.5 134.5t63.5 93.5zM323 732h-69v554h-3l-163 -110v68l166 116h69v-628zM227 0h-83l514 680l514 680h82l-514 -680z" />
    <glyph glyph-name="onehalf" unicode="&#xbd;" horiz-adv-x="1458" 
d="M985 469h-69v4q0 75 53.5 130t153.5 55q93 0 149.5 -51t56.5 -127q0 -50 -26.5 -94.5t-82.5 -103.5l-209 -218v-3h330v-61h-423v47l259 278q18 19 30 33.5t24.5 34.5t19 41t6.5 43q0 34 -16 61t-47.5 43t-72.5 16q-65 0 -100.5 -36.5t-35.5 -87.5v-4zM295 732h-69v554h-3
l-163 -110v68l166 116h69v-628zM199 0h-83l514 680l514 680h82l-514 -680z" />
    <glyph glyph-name="threequarters" unicode="&#xbe;" horiz-adv-x="1458" 
d="M980 201h262v392h-4q-186 -269 -258 -388v-4zM1206 652h101v-451h92v-58h-92v-143h-65v143h-334v57q23 40 81.5 129t129.5 194t87 129zM199 1030v58h65q64 0 102.5 34.5t38.5 86.5q0 51 -37.5 83t-98.5 32q-60 0 -96.5 -30t-38.5 -70h-66q2 63 56 111t146 48
q91 0 147.5 -47.5t56.5 -117.5q0 -60 -40 -102.5t-92 -51.5v-2q29 -4 55.5 -15t49 -29.5t36.5 -48t14 -66.5q0 -82 -63.5 -134.5t-164.5 -52.5q-96 0 -154 47t-60 115h65q2 -29 21 -52.5t53 -37.5t77 -14q71 0 114.5 36t43.5 92q0 57 -44.5 92.5t-114.5 35.5h-71zM284 0h-83
l514 680l514 680h82l-514 -680z" />
    <glyph glyph-name="questiondown" unicode="&#xbf;" horiz-adv-x="879" 
d="M817 -20q-6 -147 -107 -240t-278 -93q-103 0 -185.5 36t-133 109.5t-50.5 172.5q0 104 51 179t153 152q95 73 126 129.5t31 131.5v89h81v-99q0 -90 -41 -157t-145 -147q-92 -70 -132 -130.5t-40 -144.5q0 -119 83.5 -183.5t207.5 -64.5q79 0 139.5 25.5t93.5 66.5
t49.5 83t19.5 85h77zM538 977q0 -32 -22.5 -55t-54.5 -23t-55 23t-23 55t23 54.5t55 22.5t54.5 -22.5t22.5 -54.5z" />
    <glyph glyph-name="Agrave" unicode="&#xc0;" horiz-adv-x="1180" 
d="M146 0h-86l487 1360h86l488 -1360h-87l-161 458h-567zM592 1259h-4l-258 -731h519zM636 1512h-72l-247 294h90z" />
    <glyph glyph-name="Aacute" unicode="&#xc1;" horiz-adv-x="1180" 
d="M146 0h-86l487 1360h86l488 -1360h-87l-161 458h-567zM592 1259h-4l-258 -731h519zM616 1512h-72l230 294h89z" />
    <glyph glyph-name="Acircumflex" unicode="&#xc2;" horiz-adv-x="1180" 
d="M146 0h-86l487 1360h86l488 -1360h-87l-161 458h-567zM592 1259h-4l-258 -731h519zM307 1512l258 228h44l258 -228h-92l-186 164h-4l-186 -164h-92z" />
    <glyph glyph-name="Atilde" unicode="&#xc3;" horiz-adv-x="1180" 
d="M146 0h-86l487 1360h86l488 -1360h-87l-161 458h-567zM592 1259h-4l-258 -731h519zM705 1509q-45 0 -82 17.5t-57.5 38t-49.5 38t-60 17.5q-40 0 -64.5 -29.5t-24.5 -81.5h-61q0 78 40.5 122t109.5 44q43 0 79 -17.5t56.5 -38t50.5 -38t63 -17.5q89 0 91 111h61
q0 -76 -39 -121t-113 -45z" />
    <glyph glyph-name="Adieresis" unicode="&#xc4;" horiz-adv-x="1180" 
d="M146 0h-86l487 1360h86l488 -1360h-87l-161 458h-567zM592 1259h-4l-258 -731h519zM444 1511q-26 0 -44.5 18.5t-18.5 44.5q0 28 18.5 46t44.5 18t44.5 -18t18.5 -46q0 -26 -18.5 -44.5t-44.5 -18.5zM734 1511q-26 0 -44.5 18.5t-18.5 44.5q0 28 18.5 46t44.5 18
t44.5 -18t18.5 -46q0 -26 -18.5 -44.5t-44.5 -18.5z" />
    <glyph glyph-name="Aring" unicode="&#xc5;" horiz-adv-x="1180" 
d="M146 0h-86l487 1360h86l488 -1360h-87l-161 458h-567zM592 1259h-4l-258 -731h519zM590 1509q-73 0 -123.5 50t-50.5 123q0 71 50.5 120t123.5 49q71 0 122.5 -49t51.5 -120q0 -72 -51.5 -122.5t-122.5 -50.5zM472 1680q0 -48 35 -83t83 -35t82.5 35t34.5 83
q0 49 -34 83.5t-83 34.5q-48 0 -83 -34.5t-35 -83.5z" />
    <glyph glyph-name="AE" unicode="&#xc6;" horiz-adv-x="1823" 
d="M874 1284l-434 -728h502v728h-68zM942 486h-543l-290 -486h-89l809 1360h886v-76h-691v-550h657v-75h-657v-584h691v-75h-773v486z" />
    <glyph glyph-name="Ccedilla" unicode="&#xc7;" horiz-adv-x="1245" 
d="M618 -472q-73 0 -119 16v63q46 -16 120 -16q63 0 107 27t44 77q0 100 -152 100h-51v48l55 127q-125 4 -220.5 52t-152.5 129.5t-85.5 184.5t-28.5 227v231q0 126 31 233t92 189t160 128.5t227 46.5q109 0 200.5 -36.5t149.5 -96t89.5 -133t31.5 -149.5v-3h-80
q-1 62 -27.5 122t-74.5 110t-123.5 80.5t-165.5 30.5q-107 0 -190.5 -40.5t-134.5 -111.5t-77 -162.5t-26 -198.5v-249q0 -106 25.5 -196.5t76 -162t135.5 -112t195 -40.5q175 0 285 97t111 241h80v-3q0 -162 -120 -279t-316 -129l-48 -117q89 0 147.5 -38t58.5 -116
q0 -83 -66.5 -127t-162.5 -44z" />
    <glyph glyph-name="Egrave" unicode="&#xc8;" horiz-adv-x="1093" 
d="M622 1512h-72l-247 294h90zM966 75v-75h-776v1360h776v-76h-694v-550h660v-75h-660v-584h694z" />
    <glyph glyph-name="Eacute" unicode="&#xc9;" horiz-adv-x="1093" 
d="M602 1512h-72l230 294h89zM966 75v-75h-776v1360h776v-76h-694v-550h660v-75h-660v-584h694z" />
    <glyph glyph-name="Ecircumflex" unicode="&#xca;" horiz-adv-x="1093" 
d="M296 1512l258 228h44l258 -228h-92l-186 164h-4l-186 -164h-92zM966 75v-75h-776v1360h776v-76h-694v-550h660v-75h-660v-584h694z" />
    <glyph glyph-name="Edieresis" unicode="&#xcb;" horiz-adv-x="1093" 
d="M431 1511q-26 0 -44.5 18.5t-18.5 44.5q0 28 18 46t45 18t45 -18t18 -46q0 -26 -18.5 -44.5t-44.5 -18.5zM721 1511q-26 0 -44.5 18.5t-18.5 44.5q0 28 18 46t45 18t45 -18t18 -46q0 -26 -18.5 -44.5t-44.5 -18.5zM966 75v-75h-776v1360h776v-76h-694v-550h660v-75h-660
v-584h694z" />
    <glyph glyph-name="Igrave" unicode="&#xcc;" horiz-adv-x="493" 
d="M287 0h-81v1360h81v-1360zM292 1512h-72l-247 294h90z" />
    <glyph glyph-name="Iacute" unicode="&#xcd;" horiz-adv-x="493" 
d="M287 0h-81v1360h81v-1360zM272 1512h-72l230 294h89z" />
    <glyph glyph-name="Icircumflex" unicode="&#xce;" horiz-adv-x="502" 
d="M292 0h-81v1360h81v-1360zM-32 1512l258 228h44l258 -228h-92l-186 164h-4l-186 -164h-92z" />
    <glyph glyph-name="Idieresis" unicode="&#xcf;" horiz-adv-x="494" 
d="M288 0h-81v1360h81v-1360zM101 1511q-26 0 -44.5 18.5t-18.5 44.5q0 28 18 46t45 18t45 -18t18 -46q0 -26 -18.5 -44.5t-44.5 -18.5zM391 1511q-26 0 -44.5 18.5t-18.5 44.5q0 28 18 46t45 18t45 -18t18 -46q0 -26 -18.5 -44.5t-44.5 -18.5z" />
    <glyph glyph-name="Eth" unicode="&#xd0;" horiz-adv-x="1353" 
d="M596 0h-365v660h-141v74h141v626h365q308 0 458 -177.5t150 -501.5q0 -327 -148 -504t-460 -177zM312 75h284q267 0 396 158t129 448q0 288 -130 445.5t-395 157.5h-284v-550h379v-74h-379v-585z" />
    <glyph glyph-name="Ntilde" unicode="&#xd1;" horiz-adv-x="1334" 
d="M782 1509q-45 0 -82 17.5t-57.5 38t-49.5 38t-60 17.5q-40 0 -64.5 -29.5t-24.5 -81.5h-61q0 78 40.5 122t109.5 44q43 0 79 -17.5t56.5 -38t50.5 -38t63 -17.5q90 0 91 111h61q0 -76 -39 -121t-113 -45zM271 0h-81v1360h85l784 -1216h4v1216h80v-1360h-84l-784 1216h-4
v-1216z" />
    <glyph glyph-name="Ograve" unicode="&#xd2;" horiz-adv-x="1310" 
d="M700 1512h-72l-247 294h90zM216 806v-256q0 -232 118 -369.5t321 -137.5t320.5 137.5t117.5 369.5v256q0 231 -118.5 370.5t-319.5 139.5t-320 -139.5t-119 -370.5zM135 556v244q0 271 138 431t382 160t382 -160.5t138 -432.5v-242q0 -271 -138 -429t-383 -158t-382 158
t-137 429z" />
    <glyph glyph-name="Oacute" unicode="&#xd3;" horiz-adv-x="1310" 
d="M680 1512h-72l230 294h89zM216 806v-256q0 -232 118 -369.5t321 -137.5t320.5 137.5t117.5 369.5v256q0 231 -118.5 370.5t-319.5 139.5t-320 -139.5t-119 -370.5zM135 556v244q0 271 138 431t382 160t382 -160.5t138 -432.5v-242q0 -271 -138 -429t-383 -158t-382 158
t-137 429z" />
    <glyph glyph-name="Ocircumflex" unicode="&#xd4;" horiz-adv-x="1310" 
d="M372 1512l258 228h44l258 -228h-92l-186 164h-4l-186 -164h-92zM216 806v-256q0 -232 118 -369.5t321 -137.5t320.5 137.5t117.5 369.5v256q0 231 -118.5 370.5t-319.5 139.5t-320 -139.5t-119 -370.5zM135 556v244q0 271 138 431t382 160t382 -160.5t138 -432.5v-242
q0 -271 -138 -429t-383 -158t-382 158t-137 429z" />
    <glyph glyph-name="Otilde" unicode="&#xd5;" horiz-adv-x="1310" 
d="M216 806v-256q0 -232 118 -369.5t321 -137.5t320.5 137.5t117.5 369.5v256q0 231 -118.5 370.5t-319.5 139.5t-320 -139.5t-119 -370.5zM135 556v244q0 271 138 431t382 160t382 -160.5t138 -432.5v-242q0 -271 -138 -429t-383 -158t-382 158t-137 429zM769 1509
q-45 0 -82 17.5t-57.5 38t-49.5 38t-60 17.5q-40 0 -64.5 -29.5t-24.5 -81.5h-61q0 78 40.5 122t109.5 44q43 0 79 -17.5t56.5 -38t50.5 -38t63 -17.5q89 0 91 111h61q0 -76 -39 -121t-113 -45z" />
    <glyph glyph-name="Odieresis" unicode="&#xd6;" horiz-adv-x="1310" 
d="M509 1511q-26 0 -44.5 18.5t-18.5 44.5q0 28 18 46t45 18t45 -18t18 -46q0 -26 -18.5 -44.5t-44.5 -18.5zM799 1511q-26 0 -44.5 18.5t-18.5 44.5q0 28 18 46t45 18t45 -18t18 -46q0 -26 -18.5 -44.5t-44.5 -18.5zM216 806v-256q0 -232 118 -369.5t321 -137.5
t320.5 137.5t117.5 369.5v256q0 231 -118.5 370.5t-319.5 139.5t-320 -139.5t-119 -370.5zM135 556v244q0 271 138 431t382 160t382 -160.5t138 -432.5v-242q0 -271 -138 -429t-383 -158t-382 158t-137 429z" />
    <glyph glyph-name="multiply" unicode="&#xd7;" horiz-adv-x="1048" 
d="M849 154l-324 325l-326 -325l-51 50l326 325l-326 327l51 50l326 -326l325 326l50 -50l-325 -327l325 -325z" />
    <glyph glyph-name="Oslash" unicode="&#xd8;" horiz-adv-x="1309" 
d="M654 -31q-270 0 -407 192l-112 -133l-50 41l126 147q-76 141 -76 341v242q0 272 137.5 432t382.5 160q258 0 398 -181l118 139l52 -36l-133 -157q84 -147 84 -357v-242q0 -271 -137.5 -429.5t-382.5 -158.5zM216 550q0 -150 52 -265l731 860q-120 171 -345 171
q-201 0 -319.5 -139t-118.5 -371v-256zM654 43q203 0 321 137.5t118 369.5v256q0 161 -60 281l-732 -862q120 -182 353 -182z" />
    <glyph glyph-name="Ugrave" unicode="&#xd9;" horiz-adv-x="1327" 
d="M710 1512h-72l-247 294h90zM258 1360v-891q0 -195 106.5 -309t298.5 -114q193 0 299 113.5t106 309.5v891h82v-896q0 -226 -129 -360.5t-358 -134.5t-357.5 134.5t-128.5 360.5v896h81z" />
    <glyph glyph-name="Uacute" unicode="&#xda;" horiz-adv-x="1327" 
d="M690 1512h-72l230 294h89zM258 1360v-891q0 -195 106.5 -309t298.5 -114q193 0 299 113.5t106 309.5v891h82v-896q0 -226 -129 -360.5t-358 -134.5t-357.5 134.5t-128.5 360.5v896h81z" />
    <glyph glyph-name="Ucircumflex" unicode="&#xdb;" horiz-adv-x="1327" 
d="M380 1512l258 228h44l258 -228h-92l-186 164h-4l-186 -164h-92zM258 1360v-891q0 -195 106.5 -309t298.5 -114q193 0 299 113.5t106 309.5v891h82v-896q0 -226 -129 -360.5t-358 -134.5t-357.5 134.5t-128.5 360.5v896h81z" />
    <glyph glyph-name="Udieresis" unicode="&#xdc;" horiz-adv-x="1327" 
d="M517 1511q-26 0 -44.5 18.5t-18.5 44.5q0 28 18 46t45 18t45 -18t18 -46q0 -26 -18.5 -44.5t-44.5 -18.5zM807 1511q-26 0 -44.5 18.5t-18.5 44.5q0 28 18 46t45 18t45 -18t18 -46q0 -26 -18.5 -44.5t-44.5 -18.5zM258 1360v-891q0 -195 106.5 -309t298.5 -114
q193 0 299 113.5t106 309.5v891h82v-896q0 -226 -129 -360.5t-358 -134.5t-357.5 134.5t-128.5 360.5v896h81z" />
    <glyph glyph-name="Yacute" unicode="&#xdd;" horiz-adv-x="1097" 
d="M590 0h-81v607l-470 753h96l412 -668h5l413 668h94l-469 -751v-609zM556 1512h-72l230 294h89z" />
    <glyph glyph-name="Thorn" unicode="&#xde;" horiz-adv-x="1131" 
d="M190 1360h82v-265h337q194 0 308.5 -94t114.5 -273t-114.5 -273t-308.5 -94h-337v-361h-82v1360zM272 1020v-585h323q171 0 262 69t91 224q0 292 -342 292h-334z" />
    <glyph glyph-name="germandbls" unicode="&#xdf;" horiz-adv-x="1149" 
d="M265 0h-81v1069q0 167 96.5 261.5t278.5 94.5q177 0 277.5 -91.5t100.5 -241.5q0 -129 -80.5 -223.5t-175.5 -113.5v-5q67 -2 132.5 -25.5t121.5 -67t90.5 -114.5t34.5 -158q0 -97 -40.5 -176t-106 -127.5t-143.5 -74t-158 -25.5q-92 0 -170 16v76q67 -18 174 -18
q66 0 128.5 21t114.5 60t83.5 102.5t31.5 141.5q0 145 -113 233t-304 88h-93v84h85q123 0 213 90t90 206q0 132 -82 200t-210 68q-146 0 -220.5 -75t-74.5 -210v-1065z" />
    <glyph glyph-name="agrave" unicode="&#xe0;" horiz-adv-x="1014" 
d="M770 167q-11 -28 -35.5 -57.5t-63 -59.5t-99 -49t-130.5 -19q-152 0 -245 83.5t-93 224.5q0 132 90.5 210t260.5 78h317v147q0 127 -73 190.5t-202 63.5q-233 0 -270 -204h-78q14 127 103 202t250 75t256 -81.5t95 -230.5v-740h-79v167h-4zM452 55q134 0 227 81.5
t93 210.5v160h-315q-134 0 -201 -58t-67 -157q0 -109 73.5 -173t189.5 -64zM550 1201h-72l-248 294h91z" />
    <glyph glyph-name="aacute" unicode="&#xe1;" horiz-adv-x="1014" 
d="M770 167q-11 -28 -35.5 -57.5t-63 -59.5t-99 -49t-130.5 -19q-152 0 -245 83.5t-93 224.5q0 132 90.5 210t260.5 78h317v147q0 127 -73 190.5t-202 63.5q-233 0 -270 -204h-78q14 127 103 202t250 75t256 -81.5t95 -230.5v-740h-79v167h-4zM452 55q134 0 227 81.5
t93 210.5v160h-315q-134 0 -201 -58t-67 -157q0 -109 73.5 -173t189.5 -64zM536 1201h-72l230 294h90z" />
    <glyph glyph-name="acircumflex" unicode="&#xe2;" horiz-adv-x="1014" 
d="M770 167q-11 -28 -35.5 -57.5t-63 -59.5t-99 -49t-130.5 -19q-152 0 -245 83.5t-93 224.5q0 132 90.5 210t260.5 78h317v147q0 127 -73 190.5t-202 63.5q-233 0 -270 -204h-78q14 127 103 202t250 75t256 -81.5t95 -230.5v-740h-79v167h-4zM452 55q134 0 227 81.5
t93 210.5v160h-315q-134 0 -201 -58t-67 -157q0 -109 73.5 -173t189.5 -64zM245 1201l233 327h59l233 -327h-75l-186 266h-3l-187 -266h-74z" />
    <glyph glyph-name="atilde" unicode="&#xe3;" horiz-adv-x="1014" 
d="M770 167q-11 -28 -35.5 -57.5t-63 -59.5t-99 -49t-130.5 -19q-152 0 -245 83.5t-93 224.5q0 132 90.5 210t260.5 78h317v147q0 127 -73 190.5t-202 63.5q-233 0 -270 -204h-78q14 127 103 202t250 75t256 -81.5t95 -230.5v-740h-79v167h-4zM452 55q134 0 227 81.5
t93 210.5v160h-315q-134 0 -201 -58t-67 -157q0 -109 73.5 -173t189.5 -64zM635 1198q-39 0 -71.5 16.5t-55 39.5t-43 46t-44.5 39.5t-51 16.5q-43 0 -71 -38.5t-29 -103.5h-63q0 93 44.5 147.5t118.5 54.5q39 0 70.5 -16.5t53 -39.5t41.5 -46t45.5 -39.5t54.5 -16.5
q48 0 74 40.5t27 106.5h64q0 -90 -43.5 -148.5t-121.5 -58.5z" />
    <glyph glyph-name="adieresis" unicode="&#xe4;" horiz-adv-x="1014" 
d="M770 167q-11 -28 -35.5 -57.5t-63 -59.5t-99 -49t-130.5 -19q-152 0 -245 83.5t-93 224.5q0 132 90.5 210t260.5 78h317v147q0 127 -73 190.5t-202 63.5q-233 0 -270 -204h-78q14 127 103 202t250 75t256 -81.5t95 -230.5v-740h-79v167h-4zM452 55q134 0 227 81.5
t93 210.5v160h-315q-134 0 -201 -58t-67 -157q0 -109 73.5 -173t189.5 -64zM361 1235q-27 0 -45.5 19t-18.5 46t18.5 46t45.5 19t45.5 -19t18.5 -46t-18.5 -46t-45.5 -19zM660 1235q-27 0 -45.5 19t-18.5 46t18.5 46t45.5 19t45.5 -19t18.5 -46t-18.5 -46t-45.5 -19z" />
    <glyph glyph-name="aring" unicode="&#xe5;" horiz-adv-x="1014" 
d="M770 167q-11 -28 -35.5 -57.5t-63 -59.5t-99 -49t-130.5 -19q-152 0 -245 83.5t-93 224.5q0 132 90.5 210t260.5 78h317v147q0 127 -73 190.5t-202 63.5q-233 0 -270 -204h-78q14 127 103 202t250 75t256 -81.5t95 -230.5v-740h-79v167h-4zM452 55q134 0 227 81.5
t93 210.5v160h-315q-134 0 -201 -58t-67 -157q0 -109 73.5 -173t189.5 -64zM507 1199q-73 0 -123.5 50t-50.5 123q0 71 50.5 120t123.5 49q71 0 122.5 -49t51.5 -120q0 -72 -51.5 -122.5t-122.5 -50.5zM389 1370q0 -48 35 -83t83 -35t82.5 35t34.5 83q0 49 -34 83.5
t-83 34.5q-48 0 -83 -34.5t-35 -83.5z" />
    <glyph glyph-name="ae" unicode="&#xe6;" horiz-adv-x="1701" 
d="M1187 -18q-145 0 -240.5 69.5t-128.5 191.5h-4q-30 -114 -125.5 -187.5t-244.5 -73.5q-153 0 -246.5 83.5t-93.5 224.5q0 134 90.5 213t260.5 78h317v129q0 128 -74 198.5t-201 70.5q-233 0 -270 -204h-78q14 127 103 202t250 75q123 0 209.5 -55t119.5 -153h3
q44 101 134.5 154.5t208.5 53.5q188 0 294.5 -127t106.5 -362v-53h-724v-53q0 -188 88.5 -294.5t245.5 -106.5q69 0 125 19t90 50t53.5 65.5t24.5 70.5h83q-6 -47 -30.5 -93.5t-67.5 -89.5t-116 -69.5t-163 -26.5zM854 581h643v4q0 184 -86 289t-234 105t-235.5 -105
t-87.5 -289v-4zM452 55q134 0 227 81.5t93 210.5v163h-313q-135 0 -202.5 -58.5t-67.5 -159.5q0 -109 73.5 -173t189.5 -64z" />
    <glyph glyph-name="ccedilla" unicode="&#xe7;" horiz-adv-x="1032" 
d="M505 -459q-76 -1 -124 16v62q43 -15 120 -15q61 0 106 26t45 78q0 99 -150 99h-50v48l57 128q-179 8 -282.5 129.5t-103.5 333.5v151q0 213 112 334t295 121q89 0 162 -28t119.5 -74t73 -100.5t29.5 -111.5h-79q-16 99 -95.5 169.5t-206.5 70.5q-150 0 -240 -103.5
t-90 -289.5v-132q0 -189 90 -292.5t247 -103.5q133 0 207 65t91 157h78q-7 -53 -29.5 -100.5t-61.5 -90t-103 -70.5t-145 -34l-52 -118q88 0 146 -38t58 -116q0 -83 -66 -126.5t-158 -44.5z" />
    <glyph glyph-name="egrave" unicode="&#xe8;" horiz-adv-x="1050" 
d="M568 1201h-72l-248 294h91zM535 -18q-193 0 -302.5 125.5t-109.5 350.5v110q0 231 108 357.5t294 126.5t294.5 -126.5t108.5 -360.5v-55h-725v-51q0 -191 89.5 -297.5t244.5 -106.5q129 0 205 62t90 144h81q-7 -50 -33 -97.5t-70.5 -89t-116 -67t-158.5 -25.5zM203 581
h644v4q0 183 -87.5 288.5t-234.5 105.5t-234.5 -105.5t-87.5 -288.5v-4z" />
    <glyph glyph-name="eacute" unicode="&#xe9;" horiz-adv-x="1050" 
d="M554 1201h-72l230 294h90zM535 -18q-193 0 -302.5 125.5t-109.5 350.5v110q0 231 108 357.5t294 126.5t294.5 -126.5t108.5 -360.5v-55h-725v-51q0 -191 89.5 -297.5t244.5 -106.5q129 0 205 62t90 144h81q-7 -50 -33 -97.5t-70.5 -89t-116 -67t-158.5 -25.5zM203 581
h644v4q0 183 -87.5 288.5t-234.5 105.5t-234.5 -105.5t-87.5 -288.5v-4z" />
    <glyph glyph-name="ecircumflex" unicode="&#xea;" horiz-adv-x="1050" 
d="M263 1201l233 327h59l233 -327h-75l-186 266h-3l-187 -266h-74zM535 -18q-193 0 -302.5 125.5t-109.5 350.5v110q0 231 108 357.5t294 126.5t294.5 -126.5t108.5 -360.5v-55h-725v-51q0 -191 89.5 -297.5t244.5 -106.5q129 0 205 62t90 144h81q-7 -50 -33 -97.5
t-70.5 -89t-116 -67t-158.5 -25.5zM203 581h644v4q0 183 -87.5 288.5t-234.5 105.5t-234.5 -105.5t-87.5 -288.5v-4z" />
    <glyph glyph-name="edieresis" unicode="&#xeb;" horiz-adv-x="1050" 
d="M535 -18q-193 0 -302.5 125.5t-109.5 350.5v110q0 231 108 357.5t294 126.5t294.5 -126.5t108.5 -360.5v-55h-725v-51q0 -191 89.5 -297.5t244.5 -106.5q129 0 205 62t90 144h81q-7 -50 -33 -97.5t-70.5 -89t-116 -67t-158.5 -25.5zM203 581h644v4q0 183 -87.5 288.5
t-234.5 105.5t-234.5 -105.5t-87.5 -288.5v-4zM379 1235q-27 0 -45.5 19t-18.5 46t18.5 46t45.5 19t45.5 -19t18.5 -46t-18.5 -46t-45.5 -19zM678 1235q-27 0 -45.5 19t-18.5 46t18.5 46t45.5 19t45.5 -19t18.5 -46t-18.5 -46t-45.5 -19z" />
    <glyph glyph-name="igrave" unicode="&#xec;" horiz-adv-x="434" 
d="M261 1201h-72l-248 294h91zM177 0v1035h80v-1035h-80z" />
    <glyph glyph-name="iacute" unicode="&#xed;" horiz-adv-x="434" 
d="M247 1201h-72l230 294h90zM177 0v1035h80v-1035h-80z" />
    <glyph glyph-name="icircumflex" unicode="&#xee;" horiz-adv-x="434" 
d="M-44 1201l233 327h59l233 -327h-75l-186 266h-3l-187 -266h-74zM177 0v1035h80v-1035h-80z" />
    <glyph glyph-name="idieresis" unicode="&#xef;" horiz-adv-x="434" 
d="M177 0v1035h80v-1035h-80zM72 1235q-27 0 -45.5 19t-18.5 46t18.5 46t45.5 19t45.5 -19t18.5 -46t-18.5 -46t-45.5 -19zM371 1235q-27 0 -45.5 19t-18.5 46t18.5 46t45.5 19t45.5 -19t18.5 -46t-18.5 -46t-45.5 -19z" />
    <glyph glyph-name="eth" unicode="&#xf0;" horiz-adv-x="1085" 
d="M545 -18q-189 0 -305.5 122.5t-116.5 337.5v95q0 216 116 339.5t301 123.5q119 0 206.5 -53.5t130.5 -136.5h5q0 1 -4 25.5t-5 27.5q-33 245 -160 393l-276 -99l-19 57l254 90q-45 49 -123.5 107.5t-154.5 95.5h130q128 -70 224 -176l247 89l17 -55l-224 -81
q179 -243 179 -639v-204q0 -215 -116.5 -337t-305.5 -122zM544 926q-153 0 -247 -104t-94 -294v-77q0 -189 94 -292t248 -103q152 0 246.5 102.5t94.5 292.5v139q0 143 -97.5 239.5t-244.5 96.5z" />
    <glyph glyph-name="ntilde" unicode="&#xf1;" horiz-adv-x="1107" 
d="M683 1198q-39 0 -71.5 16.5t-55 39.5t-43 46t-44.5 39.5t-51 16.5q-43 0 -71 -38.5t-29 -103.5h-63q0 93 44.5 147.5t118.5 54.5q39 0 70.5 -16.5t53 -39.5t41.5 -46t45.5 -39.5t54.5 -16.5q48 0 74 40.5t27 106.5h64q0 -90 -43.5 -148.5t-121.5 -58.5zM171 0v1035h80
v-192h4q29 85 114.5 147t218.5 62q160 0 260 -99t100 -276v-677h-81v667q0 138 -77.5 224t-213.5 86q-104 0 -179.5 -50.5t-110.5 -127.5t-35 -168v-631h-80z" />
    <glyph glyph-name="ograve" unicode="&#xf2;" horiz-adv-x="1090" 
d="M588 1201h-72l-248 294h91zM544 1052q186 0 304.5 -124.5t118.5 -338.5v-147q0 -215 -117.5 -337.5t-305.5 -122.5t-304.5 122.5t-116.5 337.5v147q0 217 116 340t305 123zM544 979q-153 0 -247 -104t-94 -294v-130q0 -189 94 -292t248 -103q152 0 246.5 102.5
t94.5 292.5v130q0 188 -95 293t-247 105z" />
    <glyph glyph-name="oacute" unicode="&#xf3;" horiz-adv-x="1090" 
d="M574 1201h-72l230 294h90zM544 1052q186 0 304.5 -124.5t118.5 -338.5v-147q0 -215 -117.5 -337.5t-305.5 -122.5t-304.5 122.5t-116.5 337.5v147q0 217 116 340t305 123zM544 979q-153 0 -247 -104t-94 -294v-130q0 -189 94 -292t248 -103q152 0 246.5 102.5t94.5 292.5
v130q0 188 -95 293t-247 105z" />
    <glyph glyph-name="ocircumflex" unicode="&#xf4;" horiz-adv-x="1090" 
d="M283 1201l233 327h59l233 -327h-75l-186 266h-3l-187 -266h-74zM544 1052q186 0 304.5 -124.5t118.5 -338.5v-147q0 -215 -117.5 -337.5t-305.5 -122.5t-304.5 122.5t-116.5 337.5v147q0 217 116 340t305 123zM544 979q-153 0 -247 -104t-94 -294v-130q0 -189 94 -292
t248 -103q152 0 246.5 102.5t94.5 292.5v130q0 188 -95 293t-247 105z" />
    <glyph glyph-name="otilde" unicode="&#xf5;" horiz-adv-x="1090" 
d="M673 1198q-39 0 -71.5 16.5t-55 39.5t-43 46t-44.5 39.5t-51 16.5q-43 0 -71 -38.5t-29 -103.5h-63q0 93 44.5 147.5t118.5 54.5q39 0 70.5 -16.5t53 -39.5t41.5 -46t45.5 -39.5t54.5 -16.5q48 0 74 40.5t27 106.5h64q0 -90 -43.5 -148.5t-121.5 -58.5zM544 1052
q186 0 304.5 -124.5t118.5 -338.5v-147q0 -215 -117.5 -337.5t-305.5 -122.5t-304.5 122.5t-116.5 337.5v147q0 217 116 340t305 123zM544 979q-153 0 -247 -104t-94 -294v-130q0 -189 94 -292t248 -103q152 0 246.5 102.5t94.5 292.5v130q0 188 -95 293t-247 105z" />
    <glyph glyph-name="odieresis" unicode="&#xf6;" horiz-adv-x="1090" 
d="M399 1235q-27 0 -45.5 19t-18.5 46t18.5 46t45.5 19t45.5 -19t18.5 -46t-18.5 -46t-45.5 -19zM698 1235q-27 0 -45.5 19t-18.5 46t18.5 46t45.5 19t45.5 -19t18.5 -46t-18.5 -46t-45.5 -19zM544 1052q186 0 304.5 -124.5t118.5 -338.5v-147q0 -215 -117.5 -337.5
t-305.5 -122.5t-304.5 122.5t-116.5 337.5v147q0 217 116 340t305 123zM544 979q-153 0 -247 -104t-94 -294v-130q0 -189 94 -292t248 -103q152 0 246.5 102.5t94.5 292.5v130q0 188 -95 293t-247 105z" />
    <glyph glyph-name="divide" unicode="&#xf7;" horiz-adv-x="1048" 
d="M971 504h-894v75h894v-75zM447 182q0 33 22.5 55.5t54.5 22.5t55 -22.5t23 -55.5q0 -32 -23 -54.5t-55 -22.5t-54.5 22.5t-22.5 54.5zM447 901q0 33 22.5 55.5t54.5 22.5t55 -22.5t23 -55.5q0 -32 -23 -54.5t-55 -22.5t-54.5 22.5t-22.5 54.5z" />
    <glyph glyph-name="oslash" unicode="&#xf8;" horiz-adv-x="1090" 
d="M291 168q91 -112 254 -112q152 0 246.5 102.5t94.5 292.5v130q0 132 -48 225zM203 451q0 -135 51 -229l547 637q-91 120 -257 120q-153 0 -247 -104t-94 -294v-130zM544 -18q-191 0 -303 124l-107 -126l-49 39l115 136q-77 114 -77 287v147q0 217 116 340t305 123
q193 0 307 -132l124 143l48 -39l-132 -151q76 -116 76 -284v-147q0 -215 -117.5 -337.5t-305.5 -122.5z" />
    <glyph glyph-name="ugrave" unicode="&#xf9;" horiz-adv-x="1105" 
d="M595 1201h-72l-248 294h91zM935 1035v-1035h-81v192h-4q-31 -84 -116.5 -147t-220.5 -63q-157 0 -255.5 90.5t-98.5 262.5v700h81v-685q0 -137 77.5 -215t207.5 -78q77 0 140.5 29.5t104 79.5t62.5 114t22 134v621h81z" />
    <glyph glyph-name="uacute" unicode="&#xfa;" horiz-adv-x="1105" 
d="M581 1201h-72l230 294h90zM935 1035v-1035h-81v192h-4q-31 -84 -116.5 -147t-220.5 -63q-157 0 -255.5 90.5t-98.5 262.5v700h81v-685q0 -137 77.5 -215t207.5 -78q77 0 140.5 29.5t104 79.5t62.5 114t22 134v621h81z" />
    <glyph glyph-name="ucircumflex" unicode="&#xfb;" horiz-adv-x="1105" 
d="M290 1201l233 327h59l233 -327h-75l-186 266h-3l-187 -266h-74zM935 1035v-1035h-81v192h-4q-31 -84 -116.5 -147t-220.5 -63q-157 0 -255.5 90.5t-98.5 262.5v700h81v-685q0 -137 77.5 -215t207.5 -78q77 0 140.5 29.5t104 79.5t62.5 114t22 134v621h81z" />
    <glyph glyph-name="udieresis" unicode="&#xfc;" horiz-adv-x="1105" 
d="M935 1035v-1035h-81v192h-4q-31 -84 -116.5 -147t-220.5 -63q-157 0 -255.5 90.5t-98.5 262.5v700h81v-685q0 -137 77.5 -215t207.5 -78q77 0 140.5 29.5t104 79.5t62.5 114t22 134v621h81zM406 1235q-27 0 -45.5 19t-18.5 46t18.5 46t45.5 19t45.5 -19t18.5 -46
t-18.5 -46t-45.5 -19zM705 1235q-27 0 -45.5 19t-18.5 46t18.5 46t45.5 19t45.5 -19t18.5 -46t-18.5 -46t-45.5 -19z" />
    <glyph glyph-name="yacute" unicode="&#xfd;" horiz-adv-x="920" 
d="M885 1035l-373 -1036l-44 -116q-44 -116 -103.5 -170t-168.5 -54q-48 0 -95 9v73q40 -9 88 -9q80 0 126 40.5t73 118.5l34 96l-387 1048h90l337 -946h4l333 946h86zM489 1201h-72l230 294h90z" />
    <glyph glyph-name="thorn" unicode="&#xfe;" horiz-adv-x="1105" 
d="M581 -18q-74 0 -135.5 23.5t-100 60.5t-60 68.5t-33.5 60.5h-4v-530h-80v1770h80v-599h4q14 37 40 72.5t65 69t98 54t127 20.5q169 0 285.5 -118.5t116.5 -332.5v-169q0 -205 -113 -327.5t-290 -122.5zM578 56q142 0 233.5 102.5t91.5 283.5v149q0 188 -93.5 288
t-232.5 100q-148 0 -239 -109.5t-91 -275.5v-153q0 -160 89 -272.5t242 -112.5z" />
    <glyph glyph-name="ydieresis" unicode="&#xff;" horiz-adv-x="920" 
d="M885 1035l-373 -1036l-44 -116q-44 -116 -103.5 -170t-168.5 -54q-48 0 -95 9v73q40 -9 88 -9q80 0 126 40.5t73 118.5l34 96l-387 1048h90l337 -946h4l333 946h86zM314 1235q-27 0 -45.5 19t-18.5 46t18.5 46t45.5 19t45.5 -19t18.5 -46t-18.5 -46t-45.5 -19zM613 1235
q-27 0 -45.5 19t-18.5 46t18.5 46t45.5 19t45.5 -19t18.5 -46t-18.5 -46t-45.5 -19z" />
    <glyph glyph-name="Amacron" unicode="&#x100;" horiz-adv-x="1180" 
d="M146 0h-86l487 1360h86l488 -1360h-87l-161 458h-567zM592 1259h-4l-258 -731h519zM858 1540h-536v59h536v-59z" />
    <glyph glyph-name="amacron" unicode="&#x101;" horiz-adv-x="1014" 
d="M770 167q-11 -28 -35.5 -57.5t-63 -59.5t-99 -49t-130.5 -19q-152 0 -245 83.5t-93 224.5q0 132 90.5 210t260.5 78h317v147q0 127 -73 190.5t-202 63.5q-233 0 -270 -204h-78q14 127 103 202t250 75t256 -81.5t95 -230.5v-740h-79v167h-4zM452 55q134 0 227 81.5
t93 210.5v160h-315q-134 0 -201 -58t-67 -157q0 -109 73.5 -173t189.5 -64zM784 1270h-553v61h553v-61z" />
    <glyph glyph-name="Abreve" unicode="&#x102;" horiz-adv-x="1180" 
d="M146 0h-86l487 1360h86l488 -1360h-87l-161 458h-567zM592 1259h-4l-258 -731h519zM322 1741h67q0 -78 53 -124t148 -46q94 0 144 45.5t50 124.5h67q0 -96 -67 -164t-194 -68q-128 0 -198 67.5t-70 164.5z" />
    <glyph glyph-name="abreve" unicode="&#x103;" horiz-adv-x="1014" 
d="M770 167q-11 -28 -35.5 -57.5t-63 -59.5t-99 -49t-130.5 -19q-152 0 -245 83.5t-93 224.5q0 132 90.5 210t260.5 78h317v147q0 127 -73 190.5t-202 63.5q-233 0 -270 -204h-78q14 127 103 202t250 75t256 -81.5t95 -230.5v-740h-79v167h-4zM452 55q134 0 227 81.5
t93 210.5v160h-315q-134 0 -201 -58t-67 -157q0 -109 73.5 -173t189.5 -64zM239 1441h67q0 -80 53.5 -130t147.5 -50t147.5 50t53.5 130h67q0 -96 -70.5 -169t-197.5 -73t-197.5 72t-70.5 170z" />
    <glyph glyph-name="Aogonek" unicode="&#x104;" horiz-adv-x="1180" 
d="M146 0h-86l487 1360h86l487 -1357q-75 -32 -125.5 -86t-50.5 -116q0 -50 30 -79.5t79 -29.5q45 0 84 14v-59q-36 -21 -106 -21q-72 0 -119 44.5t-47 122.5q0 68 47.5 128.5t113.5 101.5l-153 435h-567zM592 1259h-4l-258 -731h519z" />
    <glyph glyph-name="aogonek" unicode="&#x105;" horiz-adv-x="1014" 
d="M799 -359q-75 0 -125.5 42t-50.5 121q0 73 40 125.5t111 102.5v135h-4q-11 -28 -35.5 -57.5t-63 -59.5t-99 -49t-130.5 -19q-152 0 -245 83.5t-93 224.5q0 132 90.5 210t260.5 78h317v147q0 127 -73 190.5t-202 63.5q-233 0 -270 -204h-78q14 127 103 202t250 75
t256 -81.5t95 -230.5v-733q-154 -84 -154 -191q0 -51 30 -78.5t83 -27.5q46 0 80 12v-64q-37 -17 -93 -17zM452 55q134 0 227 81.5t93 210.5v160h-315q-134 0 -201 -58t-67 -157q0 -109 73.5 -173t189.5 -64z" />
    <glyph glyph-name="Cacute" unicode="&#x106;" horiz-adv-x="1245" 
d="M670 1512h-72l230 294h89zM217 803v-249q0 -106 25.5 -196.5t76 -162t135.5 -112t195 -40.5q175 0 285 97t111 241h80v-3q0 -171 -132.5 -290t-343.5 -119q-132 0 -232 46t-161 127.5t-91 187.5t-30 233v231q0 126 31 233t92 189t160 128.5t227 46.5q109 0 200.5 -36.5
t149.5 -96t89.5 -133t31.5 -149.5v-3h-80q-1 62 -27.5 122t-74.5 110t-123.5 80.5t-165.5 30.5q-107 0 -190.5 -40.5t-134.5 -111.5t-77 -162.5t-26 -198.5z" />
    <glyph glyph-name="cacute" unicode="&#x107;" horiz-adv-x="1032" 
d="M123 446v151q0 213 112 334t295 121q89 0 162 -28t119.5 -74t73 -100.5t29.5 -111.5h-79q-16 99 -95.5 169.5t-206.5 70.5q-150 0 -240 -103.5t-90 -289.5v-132q0 -189 90 -292.5t247 -103.5q133 0 207 65t91 157h78q-8 -56 -33 -106.5t-69 -94.5t-116.5 -70t-164.5 -26
q-190 0 -300 122.5t-110 341.5zM560 1201h-72l230 294h90z" />
    <glyph glyph-name="Ccircumflex" unicode="&#x108;" horiz-adv-x="1245" 
d="M217 803v-249q0 -106 25.5 -196.5t76 -162t135.5 -112t195 -40.5q175 0 285 97t111 241h80v-3q0 -171 -132.5 -290t-343.5 -119q-132 0 -232 46t-161 127.5t-91 187.5t-30 233v231q0 126 31 233t92 189t160 128.5t227 46.5q109 0 200.5 -36.5t149.5 -96t89.5 -133
t31.5 -149.5v-3h-80q-1 62 -27.5 122t-74.5 110t-123.5 80.5t-165.5 30.5q-107 0 -190.5 -40.5t-134.5 -111.5t-77 -162.5t-26 -198.5zM364 1512l258 228h44l258 -228h-92l-186 164h-4l-186 -164h-92z" />
    <glyph glyph-name="ccircumflex" unicode="&#x109;" horiz-adv-x="1032" 
d="M269 1201l233 327h59l233 -327h-75l-186 266h-3l-187 -266h-74zM123 446v151q0 213 112 334t295 121q89 0 162 -28t119.5 -74t73 -100.5t29.5 -111.5h-79q-16 99 -95.5 169.5t-206.5 70.5q-150 0 -240 -103.5t-90 -289.5v-132q0 -189 90 -292.5t247 -103.5q133 0 207 65
t91 157h78q-8 -56 -33 -106.5t-69 -94.5t-116.5 -70t-164.5 -26q-190 0 -300 122.5t-110 341.5z" />
    <glyph glyph-name="Cdotaccent" unicode="&#x10a;" horiz-adv-x="1245" 
d="M571 1650q0 31 21 51.5t52 20.5t52 -20.5t21 -51.5q0 -30 -21 -51t-52 -21t-52 21t-21 51zM217 803v-249q0 -106 25.5 -196.5t76 -162t135.5 -112t195 -40.5q175 0 285 97t111 241h80v-3q0 -171 -132.5 -290t-343.5 -119q-132 0 -232 46t-161 127.5t-91 187.5t-30 233
v231q0 126 31 233t92 189t160 128.5t227 46.5q109 0 200.5 -36.5t149.5 -96t89.5 -133t31.5 -149.5v-3h-80q-1 62 -27.5 122t-74.5 110t-123.5 80.5t-165.5 30.5q-107 0 -190.5 -40.5t-134.5 -111.5t-77 -162.5t-26 -198.5z" />
    <glyph glyph-name="cdotaccent" unicode="&#x10b;" horiz-adv-x="1032" 
d="M123 446v151q0 213 112 334t295 121q89 0 162 -28t119.5 -74t73 -100.5t29.5 -111.5h-79q-16 99 -95.5 169.5t-206.5 70.5q-150 0 -240 -103.5t-90 -289.5v-132q0 -189 90 -292.5t247 -103.5q133 0 207 65t91 157h78q-8 -56 -33 -106.5t-69 -94.5t-116.5 -70t-164.5 -26
q-190 0 -300 122.5t-110 341.5zM455 1327q0 32 22 54.5t53 22.5q32 0 54.5 -22.5t22.5 -54.5q0 -31 -22.5 -53t-54.5 -22q-31 0 -53 22t-22 53z" />
    <glyph glyph-name="Ccaron" unicode="&#x10c;" horiz-adv-x="1245" 
d="M217 803v-249q0 -106 25.5 -196.5t76 -162t135.5 -112t195 -40.5q175 0 285 97t111 241h80v-3q0 -171 -132.5 -290t-343.5 -119q-132 0 -232 46t-161 127.5t-91 187.5t-30 233v231q0 126 31 233t92 189t160 128.5t227 46.5q109 0 200.5 -36.5t149.5 -96t89.5 -133
t31.5 -149.5v-3h-80q-1 62 -27.5 122t-74.5 110t-123.5 80.5t-165.5 30.5q-107 0 -190.5 -40.5t-134.5 -111.5t-77 -162.5t-26 -198.5zM364 1737h92l186 -163h4l186 163h92l-258 -228h-44z" />
    <glyph glyph-name="ccaron" unicode="&#x10d;" horiz-adv-x="1032" 
d="M269 1528h74l186 -266h4l186 266h74l-232 -327h-60zM123 446v151q0 213 112 334t295 121q89 0 162 -28t119.5 -74t73 -100.5t29.5 -111.5h-79q-16 99 -95.5 169.5t-206.5 70.5q-150 0 -240 -103.5t-90 -289.5v-132q0 -189 90 -292.5t247 -103.5q133 0 207 65t91 157h78
q-8 -56 -33 -106.5t-69 -94.5t-116.5 -70t-164.5 -26q-190 0 -300 122.5t-110 341.5z" />
    <glyph glyph-name="Dcaron" unicode="&#x10e;" horiz-adv-x="1294" 
d="M312 1737h92l186 -163h4l186 163h92l-258 -228h-44zM190 1360h366q308 0 458 -177.5t150 -501.5q0 -161 -35 -284.5t-108 -213t-190 -136.5t-275 -47h-366v1360zM272 1284v-1209h284q267 0 396 158t129 448q0 288 -130 445.5t-395 157.5h-284z" />
    <glyph glyph-name="dcaron" unicode="&#x10f;" horiz-adv-x="1230" 
d="M1147 1436h81l-26 -488h-55v488zM521 1052q73 0 133.5 -21t100 -55t63.5 -68.5t38 -69.5h4v597h81v-1435h-79v202h-4q-9 -24 -23.5 -50t-43.5 -57.5t-64.5 -55.5t-90 -40.5t-116.5 -16.5q-178 0 -287.5 122t-109.5 324v178q0 209 114 327.5t284 118.5zM525 978
q-64 0 -121 -23.5t-102 -69t-71.5 -121t-26.5 -171.5v-155q0 -179 91 -280t230 -101q104 0 182 53t116 138t38 188v158q0 166 -92.5 275t-243.5 109z" />
    <glyph glyph-name="Dcroat" unicode="&#x110;" horiz-adv-x="1353" 
d="M596 0h-365v660h-141v74h141v626h365q308 0 458 -177.5t150 -501.5q0 -327 -148 -504t-460 -177zM312 75h284q267 0 396 158t129 448q0 288 -130 445.5t-395 157.5h-284v-550h379v-74h-379v-585z" />
    <glyph glyph-name="dcroat" unicode="&#x111;" horiz-adv-x="1113" 
d="M525 978q-64 0 -121 -23.5t-102 -69t-71.5 -121t-26.5 -171.5v-155q0 -179 91 -280t230 -101q104 0 181.5 53t115.5 138t38 188v158q0 167 -92 275.5t-243 108.5zM859 202q-9 -24 -24 -50t-43.5 -57.5t-64.5 -55.5t-90.5 -40.5t-116.5 -16.5q-178 0 -287.5 122
t-109.5 324v178q0 209 114 327.5t284 118.5q73 0 133.5 -21t99.5 -55t63 -68t38 -70h4v394h-251v67h251v136h83v-136h124v-67h-124v-1232h-79v202h-4z" />
    <glyph glyph-name="Emacron" unicode="&#x112;" horiz-adv-x="1093" 
d="M966 75v-75h-776v1360h776v-76h-694v-550h660v-75h-660v-584h694zM844 1540h-536v59h536v-59z" />
    <glyph glyph-name="emacron" unicode="&#x113;" horiz-adv-x="1050" 
d="M535 -18q-193 0 -302.5 125.5t-109.5 350.5v110q0 231 108 357.5t294 126.5t294.5 -126.5t108.5 -360.5v-55h-725v-51q0 -191 89.5 -297.5t244.5 -106.5q129 0 205 62t90 144h81q-7 -50 -33 -97.5t-70.5 -89t-116 -67t-158.5 -25.5zM203 581h644v4q0 183 -87.5 288.5
t-234.5 105.5t-234.5 -105.5t-87.5 -288.5v-4zM802 1270h-553v61h553v-61z" />
    <glyph glyph-name="Ebreve" unicode="&#x114;" horiz-adv-x="1093" 
d="M966 75v-75h-776v1360h776v-76h-694v-550h660v-75h-660v-584h694zM308 1741h67q0 -78 53 -124t148 -46q94 0 144 45.5t50 124.5h67q0 -96 -67 -164t-194 -68q-128 0 -198 67.5t-70 164.5z" />
    <glyph glyph-name="ebreve" unicode="&#x115;" horiz-adv-x="1050" 
d="M535 -18q-193 0 -302.5 125.5t-109.5 350.5v110q0 231 108 357.5t294 126.5t294.5 -126.5t108.5 -360.5v-55h-725v-51q0 -191 89.5 -297.5t244.5 -106.5q129 0 205 62t90 144h81q-7 -50 -33 -97.5t-70.5 -89t-116 -67t-158.5 -25.5zM203 581h644v4q0 183 -87.5 288.5
t-234.5 105.5t-234.5 -105.5t-87.5 -288.5v-4zM257 1441h67q0 -80 53.5 -130t147.5 -50t147.5 50t53.5 130h67q0 -96 -70.5 -169t-197.5 -73t-197.5 72t-70.5 170z" />
    <glyph glyph-name="Edotaccent" unicode="&#x116;" horiz-adv-x="1093" 
d="M503 1650q0 31 21 51.5t52 20.5t52 -20.5t21 -51.5q0 -30 -21 -51t-52 -21t-52 21t-21 51zM966 75v-75h-776v1360h776v-76h-694v-550h660v-75h-660v-584h694z" />
    <glyph glyph-name="edotaccent" unicode="&#x117;" horiz-adv-x="1050" 
d="M449 1327q0 32 22 54.5t53 22.5q32 0 54.5 -22.5t22.5 -54.5q0 -31 -22.5 -53t-54.5 -22q-31 0 -53 22t-22 53zM535 -18q-193 0 -302.5 125.5t-109.5 350.5v110q0 231 108 357.5t294 126.5t294.5 -126.5t108.5 -360.5v-55h-725v-51q0 -191 89.5 -297.5t244.5 -106.5
q129 0 205 62t90 144h81q-7 -50 -33 -97.5t-70.5 -89t-116 -67t-158.5 -25.5zM203 581h644v4q0 183 -87.5 288.5t-234.5 105.5t-234.5 -105.5t-87.5 -288.5v-4z" />
    <glyph glyph-name="Eogonek" unicode="&#x118;" horiz-adv-x="1093" 
d="M966 -356q-38 -18 -97 -18q-72 0 -121 42.5t-49 122.5q0 127 128 209h-637v1360h776v-76h-694v-550h660v-75h-660v-584h694v-71q-91 -30 -141 -82t-50 -121q0 -51 30 -80t79 -29q45 0 82 14v-62z" />
    <glyph glyph-name="eogonek" unicode="&#x119;" horiz-adv-x="1050" 
d="M769 -359q-78 0 -131.5 45t-53.5 127q0 43 16.5 82t35 62.5t53.5 59.5l-5 5q-55 -40 -153 -40q-188 0 -298 126t-110 350v110q0 231 108 357.5t294 126.5t294.5 -126.5t108.5 -360.5v-55h-725v-51q0 -191 89.5 -297.5t244.5 -106.5q129 0 205 62t90 144h81
q-14 -101 -104 -183q-51 -51 -77 -81t-49 -76.5t-23 -94.5q0 -54 36.5 -86t93.5 -32q41 0 84 15v-62q-36 -20 -105 -20zM203 581h644v4q0 183 -87.5 288.5t-234.5 105.5t-234.5 -105.5t-87.5 -288.5v-4z" />
    <glyph glyph-name="Ecaron" unicode="&#x11a;" horiz-adv-x="1093" 
d="M296 1737h92l186 -163h4l186 163h92l-258 -228h-44zM966 75v-75h-776v1360h776v-76h-694v-550h660v-75h-660v-584h694z" />
    <glyph glyph-name="ecaron" unicode="&#x11b;" horiz-adv-x="1050" 
d="M263 1528h74l186 -266h4l186 266h74l-232 -327h-60zM535 -18q-193 0 -302.5 125.5t-109.5 350.5v110q0 231 108 357.5t294 126.5t294.5 -126.5t108.5 -360.5v-55h-725v-51q0 -191 89.5 -297.5t244.5 -106.5q129 0 205 62t90 144h81q-7 -50 -33 -97.5t-70.5 -89t-116 -67
t-158.5 -25.5zM203 581h644v4q0 183 -87.5 288.5t-234.5 105.5t-234.5 -105.5t-87.5 -288.5v-4z" />
    <glyph glyph-name="Gcircumflex" unicode="&#x11c;" horiz-adv-x="1263" 
d="M356 1512l258 228h44l258 -228h-92l-186 164h-4l-186 -164h-92zM1115 1000h-78q-6 55 -32 108.5t-72 101t-121 77t-168 29.5q-204 0 -315.5 -137.5t-111.5 -373.5v-232q0 -243 110 -386.5t328 -143.5q176 0 285.5 94.5t109.5 259.5v186h-407v75h485v-261
q0 -199 -133.5 -313.5t-342.5 -114.5q-131 0 -231 45t-162 126.5t-93 190.5t-31 242v232q0 270 133 428t376 158q109 0 198.5 -33.5t146.5 -90t89 -125t37 -142.5z" />
    <glyph glyph-name="gcircumflex" unicode="&#x11d;" horiz-adv-x="1112" 
d="M293 1201l233 327h59l233 -327h-75l-186 266h-3l-187 -266h-74zM537 -288q150 0 236.5 76.5t86.5 202.5v257h-4q-7 -22 -21.5 -47.5t-42.5 -56.5t-64 -55.5t-90.5 -41t-116.5 -16.5q-175 0 -286.5 120t-111.5 323v134q0 108 32.5 194t88 140t127 82t152.5 28
q72 0 133 -21.5t100.5 -55.5t64 -68t37.5 -69h4v197h79v-1042q0 -161 -110.5 -257.5t-294.5 -96.5q-92 0 -166 24t-119 64.5t-69.5 88.5t-28.5 100h83q8 -80 87 -142t214 -62zM529 979q-139 0 -232 -99t-93 -286v-108q0 -178 91 -279.5t234 -101.5q103 0 179.5 53t114 137.5
t37.5 187.5v114q0 166 -91 274t-240 108z" />
    <glyph glyph-name="Gbreve" unicode="&#x11e;" horiz-adv-x="1263" 
d="M1115 1000h-78q-6 55 -32 108.5t-72 101t-121 77t-168 29.5q-204 0 -315.5 -137.5t-111.5 -373.5v-232q0 -243 110 -386.5t328 -143.5q176 0 285.5 94.5t109.5 259.5v186h-407v75h485v-261q0 -199 -133.5 -313.5t-342.5 -114.5q-131 0 -231 45t-162 126.5t-93 190.5
t-31 242v232q0 270 133 428t376 158q109 0 198.5 -33.5t146.5 -90t89 -125t37 -142.5zM368 1741h67q0 -78 53 -124t148 -46q94 0 144 45.5t50 124.5h67q0 -96 -67 -164t-194 -68q-128 0 -198 67.5t-70 164.5z" />
    <glyph glyph-name="gbreve" unicode="&#x11f;" horiz-adv-x="1112" 
d="M287 1441h67q0 -80 53.5 -130t147.5 -50t147.5 50t53.5 130h67q0 -96 -70.5 -169t-197.5 -73t-197.5 72t-70.5 170zM537 -288q150 0 236.5 76.5t86.5 202.5v257h-4q-7 -22 -21.5 -47.5t-42.5 -56.5t-64 -55.5t-90.5 -41t-116.5 -16.5q-175 0 -286.5 120t-111.5 323v134
q0 108 32.5 194t88 140t127 82t152.5 28q72 0 133 -21.5t100.5 -55.5t64 -68t37.5 -69h4v197h79v-1042q0 -161 -110.5 -257.5t-294.5 -96.5q-92 0 -166 24t-119 64.5t-69.5 88.5t-28.5 100h83q8 -80 87 -142t214 -62zM529 979q-139 0 -232 -99t-93 -286v-108
q0 -178 91 -279.5t234 -101.5q103 0 179.5 53t114 137.5t37.5 187.5v114q0 166 -91 274t-240 108z" />
    <glyph glyph-name="Gdotaccent" unicode="&#x120;" horiz-adv-x="1263" 
d="M563 1650q0 31 21 51.5t52 20.5t52 -20.5t21 -51.5q0 -30 -21 -51t-52 -21t-52 21t-21 51zM1115 1000h-78q-6 55 -32 108.5t-72 101t-121 77t-168 29.5q-204 0 -315.5 -137.5t-111.5 -373.5v-232q0 -243 110 -386.5t328 -143.5q176 0 285.5 94.5t109.5 259.5v186h-407v75
h485v-261q0 -199 -133.5 -313.5t-342.5 -114.5q-131 0 -231 45t-162 126.5t-93 190.5t-31 242v232q0 270 133 428t376 158q109 0 198.5 -33.5t146.5 -90t89 -125t37 -142.5z" />
    <glyph glyph-name="gdotaccent" unicode="&#x121;" horiz-adv-x="1112" 
d="M479 1327q0 32 22 54.5t53 22.5q32 0 54.5 -22.5t22.5 -54.5q0 -31 -22.5 -53t-54.5 -22q-31 0 -53 22t-22 53zM537 -288q150 0 236.5 76.5t86.5 202.5v257h-4q-7 -22 -21.5 -47.5t-42.5 -56.5t-64 -55.5t-90.5 -41t-116.5 -16.5q-175 0 -286.5 120t-111.5 323v134
q0 108 32.5 194t88 140t127 82t152.5 28q72 0 133 -21.5t100.5 -55.5t64 -68t37.5 -69h4v197h79v-1042q0 -161 -110.5 -257.5t-294.5 -96.5q-92 0 -166 24t-119 64.5t-69.5 88.5t-28.5 100h83q8 -80 87 -142t214 -62zM529 979q-139 0 -232 -99t-93 -286v-108
q0 -178 91 -279.5t234 -101.5q103 0 179.5 53t114 137.5t37.5 187.5v114q0 166 -91 274t-240 108z" />
    <glyph glyph-name="Gcommaaccent" unicode="&#x122;" horiz-adv-x="1263" 
d="M574 -481h-60l85 335h89zM1115 1000h-78q-6 55 -32 108.5t-72 101t-121 77t-168 29.5q-204 0 -315.5 -137.5t-111.5 -373.5v-232q0 -243 110 -386.5t328 -143.5q176 0 285.5 94.5t109.5 259.5v186h-407v75h485v-261q0 -199 -133.5 -313.5t-342.5 -114.5q-131 0 -231 45
t-162 126.5t-93 190.5t-31 242v232q0 270 133 428t376 158q109 0 198.5 -33.5t146.5 -90t89 -125t37 -142.5z" />
    <glyph glyph-name="gcommaaccent" unicode="&#x123;" horiz-adv-x="1111" 
d="M606 1569h60l-85 -335h-89zM537 -288q150 0 236.5 76.5t86.5 202.5v257h-4q-7 -22 -21.5 -47.5t-42.5 -56.5t-64 -55.5t-90.5 -41t-116.5 -16.5q-175 0 -286.5 120t-111.5 323v134q0 108 32.5 194t88 140t127 82t152.5 28q72 0 133 -21.5t100.5 -55.5t64 -68t37.5 -69h4
v197h79v-1042q0 -161 -110.5 -257.5t-294.5 -96.5q-92 0 -166 24t-119 64.5t-69.5 88.5t-28.5 100h83q8 -80 87 -142t214 -62zM529 979q-139 0 -232 -99t-93 -286v-108q0 -178 91 -279.5t234 -101.5q103 0 179.5 53t114 137.5t37.5 187.5v114q0 166 -91 274t-240 108z" />
    <glyph glyph-name="Hcircumflex" unicode="&#x124;" horiz-adv-x="1334" 
d="M1143 0h-82v676h-789v-676h-82v1360h82v-609h789v609h82v-1360zM384 1512l258 228h44l258 -228h-92l-186 164h-4l-186 -164h-92z" />
    <glyph glyph-name="hcircumflex" unicode="&#x125;" horiz-adv-x="1110" 
d="M171 0v1435h81v-592h4q29 85 115.5 147t219.5 62q160 0 260.5 -99t100.5 -276v-677h-81v667q0 138 -78 224t-214 86q-79 0 -142.5 -29t-103 -78t-60.5 -110.5t-21 -128.5v-631h-81zM-69 1588l258 228h44l258 -228h-92l-186 164h-4l-186 -164h-92z" />
    <glyph glyph-name="Hbar" unicode="&#x126;" horiz-adv-x="1340" 
d="M272 743h789v278h-789v-278zM272 669v-669h-82v1021h-134v68h134v271h82v-271h789v271h82v-271h141v-68h-141v-1021h-82v669h-789z" />
    <glyph glyph-name="hbar" unicode="&#x127;" horiz-adv-x="1110" 
d="M252 631v-631h-81v1233h-129v68h129v147h81v-147h241v-68h-241v-390h4q29 85 115.5 147t219.5 62q160 0 260.5 -99t100.5 -276v-677h-81v667q0 138 -78 224t-214 86q-79 0 -142.5 -29t-103 -78t-60.5 -110.5t-21 -128.5z" />
    <glyph glyph-name="Itilde" unicode="&#x128;" horiz-adv-x="493" 
d="M287 0h-81v1360h81v-1360zM370 1509q-45 0 -82 17.5t-57.5 38t-49.5 38t-60 17.5q-40 0 -64.5 -29.5t-24.5 -81.5h-61q0 78 40.5 122t109.5 44q43 0 79 -17.5t56.5 -38t50.5 -38t63 -17.5q90 0 91 111h61q0 -76 -39 -121t-113 -45z" />
    <glyph glyph-name="itilde" unicode="&#x129;" horiz-adv-x="434" 
d="M177 0v1035h80v-1035h-80zM346 1198q-39 0 -71.5 16.5t-55 39.5t-43 46t-44.5 39.5t-51 16.5q-43 0 -71 -38.5t-29 -103.5h-63q0 93 44.5 147.5t118.5 54.5q39 0 70.5 -16.5t53 -39.5t41.5 -46t45.5 -39.5t54.5 -16.5q48 0 74 40.5t27 106.5h64q0 -90 -43.5 -148.5
t-121.5 -58.5z" />
    <glyph glyph-name="Imacron" unicode="&#x12a;" horiz-adv-x="494" 
d="M287 0h-81v1360h81v-1360zM515 1540h-536v59h536v-59z" />
    <glyph glyph-name="imacron" unicode="&#x12b;" horiz-adv-x="434" 
d="M177 0v1035h80v-1035h-80zM495 1270h-553v61h553v-61z" />
    <glyph glyph-name="Ibreve" unicode="&#x12c;" horiz-adv-x="493" 
d="M287 0h-81v1360h81v-1360zM-22 1741h67q0 -78 53 -124t148 -46q94 0 144 45.5t50 124.5h67q0 -96 -67 -164t-194 -68q-128 0 -198 67.5t-70 164.5z" />
    <glyph glyph-name="ibreve" unicode="&#x12d;" horiz-adv-x="434" 
d="M177 0v1035h80v-1035h-80zM-50 1441h67q0 -80 53.5 -130t147.5 -50t147.5 50t53.5 130h67q0 -96 -70.5 -169t-197.5 -73t-197.5 72t-70.5 170z" />
    <glyph glyph-name="Iogonek" unicode="&#x12e;" horiz-adv-x="493" 
d="M328 -353q-36 -21 -104 -21q-73 0 -119 42.5t-46 122.5q0 130 147 233v1336h81v-1360q-152 -84 -152 -199q0 -51 30.5 -80t78.5 -29q46 0 84 14v-59z" />
    <glyph glyph-name="iogonek" unicode="&#x12f;" horiz-adv-x="434" 
d="M298 -339q-34 -20 -104 -20q-73 0 -119 42t-46 123q0 129 148 232v997h80v-1021q-152 -82 -152 -199q0 -51 30.5 -79.5t78.5 -28.5t84 13v-59zM146 1307q0 30 20.5 51t50.5 21t51 -21t21 -51t-21 -50.5t-51 -20.5t-50.5 20.5t-20.5 50.5z" />
    <glyph glyph-name="Idotaccent" unicode="&#x130;" horiz-adv-x="493" 
d="M287 0h-81v1360h81v-1360zM173 1650q0 31 21 51.5t52 20.5t52 -20.5t21 -51.5q0 -30 -21 -51t-52 -21t-52 21t-21 51z" />
    <glyph glyph-name="dotlessi" unicode="&#x131;" horiz-adv-x="434" 
d="M177 0v1035h80v-1035h-80z" />
    <glyph glyph-name="Jcircumflex" unicode="&#x134;" horiz-adv-x="929" 
d="M59 295h81q0 -41 14 -80.5t42.5 -76.5t82.5 -60t125 -23q125 0 198 77.5t73 230.5v997h82v-998q0 -188 -94.5 -285t-260.5 -97q-89 0 -158 29.5t-108 77t-58 100.5t-19 108zM436 1512l258 228h44l258 -228h-92l-186 164h-4l-186 -164h-92z" />
    <glyph glyph-name="jcircumflex" unicode="&#x135;" horiz-adv-x="434" 
d="M257 1035v-1104q0 -143 -54.5 -206.5t-166.5 -63.5q-45 0 -75 8v71q35 -7 66 -7q80 0 115 44.5t35 151.5v1106h80zM-46 1201l233 327h59l233 -327h-75l-186 266h-3l-187 -266h-74z" />
    <glyph glyph-name="Kcommaaccent" unicode="&#x136;" horiz-adv-x="1134" 
d="M1060 1360l-558 -604l590 -756h-106l-544 700l-170 -179v-521h-82v1360h82v-730h3l681 730h104zM493 -481h-60l85 335h89z" />
    <glyph glyph-name="kcommaaccent" unicode="&#x137;" horiz-adv-x="984" 
d="M252 421v-421h-81v1435h81v-911h4l543 511h108l-451 -428l475 -607h-103l-433 554zM443 -481h-60l85 335h89z" />
    <glyph glyph-name="Lacute" unicode="&#x139;" horiz-adv-x="1013" 
d="M257 1512h-72l230 294h89zM955 75v-75h-765v1360h82v-1285h683z" />
    <glyph glyph-name="lacute" unicode="&#x13a;" horiz-adv-x="447" 
d="M250 1588h-72l230 294h89zM183 0v1435h81v-1435h-81z" />
    <glyph glyph-name="Lcommaaccent" unicode="&#x13b;" horiz-adv-x="1013" 
d="M461 -481h-60l85 335h89zM955 75v-75h-765v1360h82v-1285h683z" />
    <glyph glyph-name="lcommaaccent" unicode="&#x13c;" horiz-adv-x="447" 
d="M162 -481h-60l85 335h89zM183 0v1435h81v-1435h-81z" />
    <glyph glyph-name="Lcaron" unicode="&#x13d;" horiz-adv-x="1013" 
d="M615 1436h84l-28 -488h-56v488zM955 75v-75h-765v1360h82v-1285h683z" />
    <glyph glyph-name="lcaron" unicode="&#x13e;" horiz-adv-x="568" 
d="M485 1436h81l-26 -488h-55v488zM183 0v1435h81v-1435h-81z" />
    <glyph glyph-name="Lslash" unicode="&#x141;" horiz-adv-x="1013" 
d="M955 0h-765v585l-149 -88v81l149 88v694h82v-646l446 263v-84l-446 -261v-557h683v-75z" />
    <glyph glyph-name="lslash" unicode="&#x142;" horiz-adv-x="497" 
d="M289 0h-81v669l-186 -144v87l186 143v680h81v-620l192 149v-86l-192 -149v-729z" />
    <glyph glyph-name="Nacute" unicode="&#x143;" horiz-adv-x="1334" 
d="M693 1512h-72l230 294h89zM271 0h-81v1360h85l784 -1216h4v1216h80v-1360h-84l-784 1216h-4v-1216z" />
    <glyph glyph-name="nacute" unicode="&#x144;" horiz-adv-x="1107" 
d="M584 1201h-72l230 294h90zM171 0v1035h80v-192h4q29 85 114.5 147t218.5 62q160 0 260 -99t100 -276v-677h-81v667q0 138 -77.5 224t-213.5 86q-104 0 -179.5 -50.5t-110.5 -127.5t-35 -168v-631h-80z" />
    <glyph glyph-name="Ncommaaccent" unicode="&#x145;" horiz-adv-x="1334" 
d="M605 -481h-60l85 335h89zM271 0h-81v1360h85l784 -1216h4v1216h80v-1360h-84l-784 1216h-4v-1216z" />
    <glyph glyph-name="ncommaaccent" unicode="&#x146;" horiz-adv-x="1107" 
d="M493 -481h-60l85 335h89zM171 0v1035h80v-192h4q29 85 114.5 147t218.5 62q160 0 260 -99t100 -276v-677h-81v667q0 138 -77.5 224t-213.5 86q-104 0 -179.5 -50.5t-110.5 -127.5t-35 -168v-631h-80z" />
    <glyph glyph-name="Ncaron" unicode="&#x147;" horiz-adv-x="1334" 
d="M387 1737h92l186 -163h4l186 163h92l-258 -228h-44zM271 0h-81v1360h85l784 -1216h4v1216h80v-1360h-84l-784 1216h-4v-1216z" />
    <glyph glyph-name="ncaron" unicode="&#x148;" horiz-adv-x="1107" 
d="M293 1528h74l186 -266h4l186 266h74l-232 -327h-60zM171 0v1035h80v-192h4q29 85 114.5 147t218.5 62q160 0 260 -99t100 -276v-677h-81v667q0 138 -77.5 224t-213.5 86q-104 0 -179.5 -50.5t-110.5 -127.5t-35 -168v-631h-80z" />
    <glyph glyph-name="Omacron" unicode="&#x14c;" horiz-adv-x="1310" 
d="M216 806v-256q0 -232 118 -369.5t321 -137.5t320.5 137.5t117.5 369.5v256q0 231 -118.5 370.5t-319.5 139.5t-320 -139.5t-119 -370.5zM135 556v244q0 271 138 431t382 160t382 -160.5t138 -432.5v-242q0 -271 -138 -429t-383 -158t-382 158t-137 429zM923 1540h-536v59
h536v-59z" />
    <glyph glyph-name="omacron" unicode="&#x14d;" horiz-adv-x="1090" 
d="M822 1270h-553v61h553v-61zM544 1052q186 0 304.5 -124.5t118.5 -338.5v-147q0 -215 -117.5 -337.5t-305.5 -122.5t-304.5 122.5t-116.5 337.5v147q0 217 116 340t305 123zM544 979q-153 0 -247 -104t-94 -294v-130q0 -189 94 -292t248 -103q152 0 246.5 102.5
t94.5 292.5v130q0 188 -95 293t-247 105z" />
    <glyph glyph-name="Obreve" unicode="&#x14e;" horiz-adv-x="1310" 
d="M216 806v-256q0 -232 118 -369.5t321 -137.5t320.5 137.5t117.5 369.5v256q0 231 -118.5 370.5t-319.5 139.5t-320 -139.5t-119 -370.5zM135 556v244q0 271 138 431t382 160t382 -160.5t138 -432.5v-242q0 -271 -138 -429t-383 -158t-382 158t-137 429zM386 1741h67
q0 -78 53 -124t148 -46q94 0 144 45.5t50 124.5h67q0 -96 -67 -164t-194 -68q-128 0 -198 67.5t-70 164.5z" />
    <glyph glyph-name="obreve" unicode="&#x14f;" horiz-adv-x="1090" 
d="M277 1441h67q0 -80 53.5 -130t147.5 -50t147.5 50t53.5 130h67q0 -96 -70.5 -169t-197.5 -73t-197.5 72t-70.5 170zM544 1052q186 0 304.5 -124.5t118.5 -338.5v-147q0 -215 -117.5 -337.5t-305.5 -122.5t-304.5 122.5t-116.5 337.5v147q0 217 116 340t305 123zM544 979
q-153 0 -247 -104t-94 -294v-130q0 -189 94 -292t248 -103q152 0 246.5 102.5t94.5 292.5v130q0 188 -95 293t-247 105z" />
    <glyph glyph-name="Ohungarumlaut" unicode="&#x150;" horiz-adv-x="1310" 
d="M449 1512l282 255h102l-301 -255h-83zM713 1512l282 255h102l-301 -255h-83zM216 806v-256q0 -232 118 -369.5t321 -137.5t320.5 137.5t117.5 369.5v256q0 231 -118.5 370.5t-319.5 139.5t-320 -139.5t-119 -370.5zM135 556v244q0 271 138 431t382 160t382 -160.5
t138 -432.5v-242q0 -271 -138 -429t-383 -158t-382 158t-137 429z" />
    <glyph glyph-name="ohungarumlaut" unicode="&#x151;" horiz-adv-x="1090" 
d="M457 1203h-68l231 294h85zM675 1203h-68l231 294h84zM544 1052q186 0 304.5 -124.5t118.5 -338.5v-147q0 -215 -117.5 -337.5t-305.5 -122.5t-304.5 122.5t-116.5 337.5v147q0 217 116 340t305 123zM544 979q-153 0 -247 -104t-94 -294v-130q0 -189 94 -292t248 -103
q152 0 246.5 102.5t94.5 292.5v130q0 188 -95 293t-247 105z" />
    <glyph glyph-name="OE" unicode="&#x152;" horiz-adv-x="1975" 
d="M216 806v-256q0 -232 115 -369.5t316 -137.5q195 0 313.5 131t118.5 337v343q0 200 -117 331t-315 131q-200 0 -315.5 -139t-115.5 -371zM647 -31q-244 0 -378 157.5t-134 429.5v244q0 272 135 431.5t378 159.5q149 0 261.5 -66.5t163.5 -178.5h6v214h774v-76h-692v-550
h657v-75h-657v-584h692v-75h-774v222h-6q-59 -121 -167.5 -187t-258.5 -66z" />
    <glyph glyph-name="oe" unicode="&#x153;" horiz-adv-x="1809" 
d="M1298 -18q-135 0 -231 63t-140 180h-5q-48 -117 -149.5 -180t-232.5 -63q-183 0 -301.5 118.5t-118.5 333.5v163q0 215 118 335t305 120q128 0 229.5 -63.5t149.5 -184.5h5q43 120 137.5 184t224.5 64q184 0 292.5 -127t108.5 -360v-55h-725v-51q0 -192 89.5 -298
t244.5 -106q129 0 205 62t90 144h81q-7 -50 -33 -97.5t-70 -89t-115.5 -67t-158.5 -25.5zM965 581h644v4q0 183 -87.5 288.5t-234.5 105.5t-234.5 -105.5t-87.5 -288.5v-4zM542 979q-151 0 -246 -103t-95 -290v-141q0 -186 94 -287.5t248 -101.5q152 0 246 101t94 288v141
q0 185 -95.5 289t-245.5 104z" />
    <glyph glyph-name="Racute" unicode="&#x154;" horiz-adv-x="1187" 
d="M610 1512h-72l230 294h89zM637 1360q191 0 301 -106t110 -276q0 -152 -79.5 -244.5t-209.5 -123.5l312 -610h-95l-302 594h-402v-594h-82v1360h447zM272 668h351q159 0 250.5 82t91.5 225q0 145 -91.5 228t-248.5 83h-353v-618z" />
    <glyph glyph-name="racute" unicode="&#x155;" horiz-adv-x="669" 
d="M379 1201h-72l230 294h90zM171 0v1035h80v-192h4q63 208 290 208q31 0 76 -7v-77q-44 8 -86 8q-139 0 -211.5 -99t-72.5 -271v-605h-80z" />
    <glyph glyph-name="Rcommaaccent" unicode="&#x156;" horiz-adv-x="1187" 
d="M637 1360q191 0 301 -106t110 -276q0 -152 -79.5 -244.5t-209.5 -123.5l312 -610h-95l-302 594h-402v-594h-82v1360h447zM272 668h351q159 0 250.5 82t91.5 225q0 145 -91.5 228t-248.5 83h-353v-618zM522 -481h-60l85 335h89z" />
    <glyph glyph-name="rcommaaccent" unicode="&#x157;" horiz-adv-x="669" 
d="M171 0v1035h80v-192h4q63 208 290 208q31 0 76 -7v-77q-44 8 -86 8q-139 0 -211.5 -99t-72.5 -271v-605h-80zM149 -481h-60l85 335h89z" />
    <glyph glyph-name="Rcaron" unicode="&#x158;" horiz-adv-x="1187" 
d="M637 1360q191 0 301 -106t110 -276q0 -152 -79.5 -244.5t-209.5 -123.5l312 -610h-95l-302 594h-402v-594h-82v1360h447zM272 668h351q159 0 250.5 82t91.5 225q0 145 -91.5 228t-248.5 83h-353v-618zM304 1737h92l186 -163h4l186 163h92l-258 -228h-44z" />
    <glyph glyph-name="rcaron" unicode="&#x159;" horiz-adv-x="669" 
d="M88 1528h74l186 -266h4l186 266h74l-232 -327h-60zM171 0v1035h80v-192h4q63 208 290 208q31 0 76 -7v-77q-44 8 -86 8q-139 0 -211.5 -99t-72.5 -271v-605h-80z" />
    <glyph glyph-name="Sacute" unicode="&#x15a;" horiz-adv-x="1155" 
d="M596 1512h-72l230 294h89zM106 345h83q2 -51 24 -100.5t65.5 -96t121.5 -75.5t179 -29q169 0 273.5 83.5t104.5 214.5q0 120 -76 183.5t-241 107.5l-178 48q-311 83 -311 345q0 166 120 266t316 100q194 0 310.5 -97.5t118.5 -246.5h-84q-2 49 -22.5 95t-60 86t-108 64
t-155.5 24q-162 0 -256 -79t-94 -210q0 -110 64.5 -173t198.5 -99l172 -47q94 -26 158 -54t114.5 -69.5t74 -100.5t23.5 -138q0 -174 -131 -276t-340 -102q-99 0 -180 24.5t-132.5 63.5t-86.5 89.5t-50 100t-15 98.5z" />
    <glyph glyph-name="sacute" unicode="&#x15b;" horiz-adv-x="959" 
d="M131 768q0 134 97.5 209t253.5 75q91 0 160.5 -26.5t108.5 -69t58 -88.5t19 -93h-79q0 25 -8 51t-28 54t-49.5 50t-77.5 36t-107 14q-116 0 -191 -52.5t-75 -154.5q0 -38 13.5 -67t34 -49.5t59 -38t75.5 -29.5t96 -27q157 -40 214 -67q125 -59 141 -176q3 -20 3 -42
q0 -97 -53 -165t-137.5 -99t-192.5 -31q-94 0 -168 26t-116 68t-63.5 90.5t-21.5 99.5h79q2 -35 18.5 -70t49.5 -67.5t91.5 -53t134.5 -20.5q130 0 213.5 56.5t83.5 162.5q0 28 -7.5 51t-17.5 40t-34 33t-41.5 25.5t-57 22.5t-64.5 20.5t-78 21.5q-68 18 -111.5 32.5
t-90.5 38t-73.5 50.5t-43.5 67.5t-17 91.5zM509 1201h-72l230 294h90z" />
    <glyph glyph-name="Scircumflex" unicode="&#x15c;" horiz-adv-x="1155" 
d="M106 345h83q2 -51 24 -100.5t65.5 -96t121.5 -75.5t179 -29q169 0 273.5 83.5t104.5 214.5q0 120 -76 183.5t-241 107.5l-178 48q-311 83 -311 345q0 166 120 266t316 100q194 0 310.5 -97.5t118.5 -246.5h-84q-2 49 -22.5 95t-60 86t-108 64t-155.5 24q-162 0 -256 -79
t-94 -210q0 -110 64.5 -173t198.5 -99l172 -47q94 -26 158 -54t114.5 -69.5t74 -100.5t23.5 -138q0 -174 -131 -276t-340 -102q-99 0 -180 24.5t-132.5 63.5t-86.5 89.5t-50 100t-15 98.5zM290 1512l258 228h44l258 -228h-92l-186 164h-4l-186 -164h-92z" />
    <glyph glyph-name="scircumflex" unicode="&#x15d;" horiz-adv-x="959" 
d="M218 1201l233 327h59l233 -327h-75l-186 266h-3l-187 -266h-74zM131 768q0 134 97.5 209t253.5 75q91 0 160.5 -26.5t108.5 -69t58 -88.5t19 -93h-79q0 25 -8 51t-28 54t-49.5 50t-77.5 36t-107 14q-116 0 -191 -52.5t-75 -154.5q0 -38 13.5 -67t34 -49.5t59 -38
t75.5 -29.5t96 -27q157 -40 214 -67q125 -59 141 -176q3 -20 3 -42q0 -97 -53 -165t-137.5 -99t-192.5 -31q-94 0 -168 26t-116 68t-63.5 90.5t-21.5 99.5h79q2 -35 18.5 -70t49.5 -67.5t91.5 -53t134.5 -20.5q130 0 213.5 56.5t83.5 162.5q0 28 -7.5 51t-17.5 40t-34 33
t-41.5 25.5t-57 22.5t-64.5 20.5t-78 21.5q-68 18 -111.5 32.5t-90.5 38t-73.5 50.5t-43.5 67.5t-17 91.5z" />
    <glyph glyph-name="Scedilla" unicode="&#x15e;" horiz-adv-x="1155" 
d="M559 -459q-75 -1 -125 16v62q45 -15 121 -15q61 0 106 26t45 78q0 99 -150 99h-51v48l51 114q-96 2 -174.5 27t-128.5 64t-84 89t-48.5 99t-14.5 97h83q2 -51 24 -100.5t65.5 -96t121.5 -75.5t179 -29q169 0 273.5 83.5t104.5 214.5q0 120 -76 183.5t-241 107.5l-178 48
q-311 83 -311 345q0 166 120 266t316 100q194 0 310.5 -97.5t118.5 -246.5h-84q-2 49 -22.5 95t-60 86t-108 64t-155.5 24q-162 0 -256 -79t-94 -210q0 -110 64.5 -173t198.5 -99l172 -47q94 -26 158 -54t114.5 -69.5t74 -100.5t23.5 -138q0 -162 -114.5 -262.5
t-302.5 -114.5l-45 -104q88 0 146 -38t58 -116q0 -83 -66 -126.5t-158 -44.5z" />
    <glyph glyph-name="scedilla" unicode="&#x15f;" horiz-adv-x="959" 
d="M448 -458q-74 0 -124 16v63q46 -16 120 -16q62 0 106.5 26.5t44.5 78.5q0 99 -152 99h-51v48l55 126q-90 2 -160 29t-110 69t-60 89t-20 96h79q1 -27 11 -55t32.5 -56.5t54.5 -50t82.5 -35.5t111.5 -14q131 0 215 56.5t84 162.5q0 28 -7.5 51t-17.5 40t-34 33t-41.5 25.5
t-57 22.5t-64.5 20.5t-78 21.5q-68 18 -111.5 32.5t-90.5 38t-73.5 50.5t-43.5 67.5t-17 91.5q0 134 97.5 209t253.5 75q91 0 160.5 -26.5t108.5 -69t58 -88.5t19 -93h-79q0 25 -8 51t-28 54t-49.5 50t-77.5 36t-107 14q-116 0 -191 -52.5t-75 -154.5q0 -38 13.5 -67
t34 -49.5t59 -38t75.5 -29.5t96 -27q157 -40 214 -67q125 -59 141 -176q3 -20 3 -42q0 -133 -93 -207.5t-241 -85.5l-49 -117q88 0 147 -38t59 -116q0 -83 -66 -126t-158 -45z" />
    <glyph glyph-name="Scaron" unicode="&#x160;" horiz-adv-x="1155" 
d="M106 345h83q2 -51 24 -100.5t65.5 -96t121.5 -75.5t179 -29q169 0 273.5 83.5t104.5 214.5q0 120 -76 183.5t-241 107.5l-178 48q-311 83 -311 345q0 166 120 266t316 100q194 0 310.5 -97.5t118.5 -246.5h-84q-2 49 -22.5 95t-60 86t-108 64t-155.5 24q-162 0 -256 -79
t-94 -210q0 -110 64.5 -173t198.5 -99l172 -47q94 -26 158 -54t114.5 -69.5t74 -100.5t23.5 -138q0 -174 -131 -276t-340 -102q-99 0 -180 24.5t-132.5 63.5t-86.5 89.5t-50 100t-15 98.5zM290 1737h92l186 -163h4l186 163h92l-258 -228h-44z" />
    <glyph glyph-name="scaron" unicode="&#x161;" horiz-adv-x="959" 
d="M218 1528h74l186 -266h4l186 266h74l-232 -327h-60zM131 768q0 134 97.5 209t253.5 75q91 0 160.5 -26.5t108.5 -69t58 -88.5t19 -93h-79q0 25 -8 51t-28 54t-49.5 50t-77.5 36t-107 14q-116 0 -191 -52.5t-75 -154.5q0 -38 13.5 -67t34 -49.5t59 -38t75.5 -29.5t96 -27
q157 -40 214 -67q125 -59 141 -176q3 -20 3 -42q0 -97 -53 -165t-137.5 -99t-192.5 -31q-94 0 -168 26t-116 68t-63.5 90.5t-21.5 99.5h79q2 -35 18.5 -70t49.5 -67.5t91.5 -53t134.5 -20.5q130 0 213.5 56.5t83.5 162.5q0 28 -7.5 51t-17.5 40t-34 33t-41.5 25.5t-57 22.5
t-64.5 20.5t-78 21.5q-68 18 -111.5 32.5t-90.5 38t-73.5 50.5t-43.5 67.5t-17 91.5z" />
    <glyph glyph-name="Tcedilla" unicode="&#x162;" horiz-adv-x="1067" 
d="M500 -464q-74 -1 -125 15v63q43 -15 121 -15q61 0 106 26.5t45 77.5q0 99 -153 99h-50v48l64 150h-14v1285h-444v75h967v-75h-442v-1285l-58 -139q88 0 147.5 -38t59.5 -116q0 -83 -66 -126.5t-158 -44.5z" />
    <glyph glyph-name="tcedilla" unicode="&#x163;" horiz-adv-x="632" 
d="M364 -450q-73 -1 -124 15v63q43 -15 121 -15q61 0 105.5 26t44.5 78q0 99 -152 99h-51v48l58 137q-82 17 -115 71.5t-33 164.5v727h-164v71h164v252h81v-252h257v-71h-257v-743q0 -93 40.5 -127t141.5 -34q47 0 89 7v-68q-47 -9 -104 -9q-24 0 -35 1l-49 -116
q88 0 147.5 -38t59.5 -116q0 -83 -66.5 -126.5t-158.5 -44.5z" />
    <glyph glyph-name="Tcaron" unicode="&#x164;" horiz-adv-x="1067" 
d="M251 1737h92l186 -163h4l186 163h92l-258 -228h-44zM575 0h-81v1285h-444v75h967v-75h-442v-1285z" />
    <glyph glyph-name="tcaron" unicode="&#x165;" horiz-adv-x="632" 
d="M499 1686h82l-26 -488h-56v488zM218 1035v252h81v-252h257v-71h-257v-743q0 -93 40.5 -127t141.5 -34q47 0 89 7v-68q-47 -9 -104 -9q-142 0 -195 55t-53 192v727h-164v71h164z" />
    <glyph glyph-name="Tbar" unicode="&#x166;" horiz-adv-x="1067" 
d="M841 691h-266v-691h-81v691h-268v68h268v526h-444v75h967v-75h-442v-526h266v-68z" />
    <glyph glyph-name="tbar" unicode="&#x167;" horiz-adv-x="632" 
d="M570 -1q-47 -9 -104 -9q-142 0 -195 55t-53 192v337h-150v67h150v323h-164v71h164v252h81v-252h257v-71h-257v-323h207v-67h-207v-353q0 -93 40.5 -127t141.5 -34q47 0 89 7v-68z" />
    <glyph glyph-name="Utilde" unicode="&#x168;" horiz-adv-x="1327" 
d="M258 1360v-891q0 -195 106.5 -309t298.5 -114q193 0 299 113.5t106 309.5v891h82v-896q0 -226 -129 -360.5t-358 -134.5t-357.5 134.5t-128.5 360.5v896h81zM779 1509q-45 0 -82 17.5t-57.5 38t-49.5 38t-60 17.5q-40 0 -64.5 -29.5t-24.5 -81.5h-61q0 78 40.5 122
t109.5 44q43 0 79 -17.5t56.5 -38t50.5 -38t63 -17.5q89 0 91 111h61q0 -76 -39 -121t-113 -45z" />
    <glyph glyph-name="utilde" unicode="&#x169;" horiz-adv-x="1105" 
d="M935 1035v-1035h-81v192h-4q-31 -84 -116.5 -147t-220.5 -63q-157 0 -255.5 90.5t-98.5 262.5v700h81v-685q0 -137 77.5 -215t207.5 -78q77 0 140.5 29.5t104 79.5t62.5 114t22 134v621h81zM680 1198q-39 0 -71.5 16.5t-55 39.5t-43 46t-44.5 39.5t-51 16.5
q-43 0 -71 -38.5t-29 -103.5h-63q0 93 44.5 147.5t118.5 54.5q39 0 70.5 -16.5t53 -39.5t41.5 -46t45.5 -39.5t54.5 -16.5q48 0 74 40.5t27 106.5h64q0 -90 -43.5 -148.5t-121.5 -58.5z" />
    <glyph glyph-name="Umacron" unicode="&#x16a;" horiz-adv-x="1327" 
d="M258 1360v-891q0 -195 106.5 -309t298.5 -114q193 0 299 113.5t106 309.5v891h82v-896q0 -226 -129 -360.5t-358 -134.5t-357.5 134.5t-128.5 360.5v896h81zM931 1540h-536v59h536v-59z" />
    <glyph glyph-name="umacron" unicode="&#x16b;" horiz-adv-x="1105" 
d="M935 1035v-1035h-81v192h-4q-31 -84 -116.5 -147t-220.5 -63q-157 0 -255.5 90.5t-98.5 262.5v700h81v-685q0 -137 77.5 -215t207.5 -78q77 0 140.5 29.5t104 79.5t62.5 114t22 134v621h81zM829 1270h-553v61h553v-61z" />
    <glyph glyph-name="Ubreve" unicode="&#x16c;" horiz-adv-x="1327" 
d="M258 1360v-891q0 -195 106.5 -309t298.5 -114q193 0 299 113.5t106 309.5v891h82v-896q0 -226 -129 -360.5t-358 -134.5t-357.5 134.5t-128.5 360.5v896h81zM396 1741h67q0 -78 53 -124t148 -46q94 0 144 45.5t50 124.5h67q0 -96 -67 -164t-194 -68q-128 0 -198 67.5
t-70 164.5z" />
    <glyph glyph-name="ubreve" unicode="&#x16d;" horiz-adv-x="1105" 
d="M935 1035v-1035h-81v192h-4q-31 -84 -116.5 -147t-220.5 -63q-157 0 -255.5 90.5t-98.5 262.5v700h81v-685q0 -137 77.5 -215t207.5 -78q77 0 140.5 29.5t104 79.5t62.5 114t22 134v621h81zM284 1441h67q0 -80 53.5 -130t147.5 -50t147.5 50t53.5 130h67
q0 -96 -70.5 -169t-197.5 -73t-197.5 72t-70.5 170z" />
    <glyph glyph-name="Uring" unicode="&#x16e;" horiz-adv-x="1327" 
d="M664 1509q-73 0 -123.5 50t-50.5 123q0 71 50.5 120t123.5 49q71 0 122.5 -49t51.5 -120q0 -72 -51.5 -122.5t-122.5 -50.5zM546 1680q0 -48 35 -83t83 -35t82.5 35t34.5 83q0 49 -34 83.5t-83 34.5q-48 0 -83 -34.5t-35 -83.5zM258 1360v-891q0 -195 106.5 -309
t298.5 -114q193 0 299 113.5t106 309.5v891h82v-896q0 -226 -129 -360.5t-358 -134.5t-357.5 134.5t-128.5 360.5v896h81z" />
    <glyph glyph-name="uring" unicode="&#x16f;" horiz-adv-x="1105" 
d="M935 1035v-1035h-81v192h-4q-31 -84 -116.5 -147t-220.5 -63q-157 0 -255.5 90.5t-98.5 262.5v700h81v-685q0 -137 77.5 -215t207.5 -78q77 0 140.5 29.5t104 79.5t62.5 114t22 134v621h81zM552 1199q-73 0 -123.5 50t-50.5 123q0 71 50.5 120t123.5 49q71 0 122.5 -49
t51.5 -120q0 -72 -51.5 -122.5t-122.5 -50.5zM434 1370q0 -48 35 -83t83 -35t82.5 35t34.5 83q0 49 -34 83.5t-83 34.5q-48 0 -83 -34.5t-35 -83.5z" />
    <glyph glyph-name="Uhungarumlaut" unicode="&#x170;" horiz-adv-x="1327" 
d="M258 1360v-891q0 -195 106.5 -309t298.5 -114q193 0 299 113.5t106 309.5v891h82v-896q0 -226 -129 -360.5t-358 -134.5t-357.5 134.5t-128.5 360.5v896h81zM459 1512l282 255h102l-301 -255h-83zM723 1512l282 255h102l-301 -255h-83z" />
    <glyph glyph-name="uhungarumlaut" unicode="&#x171;" horiz-adv-x="1105" 
d="M464 1203h-68l231 294h85zM682 1203h-68l231 294h84zM935 1035v-1035h-81v192h-4q-31 -84 -116.5 -147t-220.5 -63q-157 0 -255.5 90.5t-98.5 262.5v700h81v-685q0 -137 77.5 -215t207.5 -78q77 0 140.5 29.5t104 79.5t62.5 114t22 134v621h81z" />
    <glyph glyph-name="Uogonek" unicode="&#x172;" horiz-adv-x="1327" 
d="M928 -374q-78 0 -132.5 45t-54.5 128q0 115 107 205l-2 4q-99 -39 -187 -39q-223 0 -352.5 136.5t-129.5 364.5v890h82v-891q0 -195 106 -309t298 -114q193 0 299 113.5t106 309.5v891h82v-891q0 -250 -173 -413q-42 -40 -63.5 -62.5t-47.5 -55.5t-37.5 -64t-11.5 -64
q0 -55 36.5 -85.5t93.5 -30.5q46 0 85 14v-61q-40 -21 -104 -21z" />
    <glyph glyph-name="uogonek" unicode="&#x173;" horiz-adv-x="1105" 
d="M973 -342q-40 -17 -93 -17q-76 0 -126 42t-50 121q0 39 12.5 73.5t37.5 63.5t46 48t54 44v159h-4q-31 -84 -116.5 -147t-220.5 -63q-157 0 -255.5 90.5t-98.5 262.5v700h81v-685q0 -137 77.5 -215t207.5 -78q77 0 140.5 29.5t104 79.5t62.5 114t22 134v621h81v-1026
q-155 -87 -155 -193q0 -51 29.5 -78.5t83.5 -27.5q45 0 80 12v-64z" />
    <glyph glyph-name="Wcircumflex" unicode="&#x174;" horiz-adv-x="1715" 
d="M575 1512l258 228h44l258 -228h-92l-186 164h-4l-186 -164h-92zM505 0h-87l-361 1360h89l315 -1233h4l349 1233h87l348 -1233h4l316 1233h89l-361 -1360h-87l-350 1226h-5z" />
    <glyph glyph-name="wcircumflex" unicode="&#x175;" horiz-adv-x="1403" 
d="M439 1201l233 327h59l233 -327h-75l-186 266h-3l-187 -266h-74zM1362 1035l-283 -1035h-84l-292 919h-4l-292 -919h-84l-282 1035h85l239 -919h5l290 919h82l290 -919h6l238 919h86z" />
    <glyph glyph-name="Ycircumflex" unicode="&#x176;" horiz-adv-x="1097" 
d="M590 0h-81v607l-470 753h96l412 -668h5l413 668h94l-469 -751v-609zM250 1512l258 228h44l258 -228h-92l-186 164h-4l-186 -164h-92z" />
    <glyph glyph-name="ycircumflex" unicode="&#x177;" horiz-adv-x="920" 
d="M885 1035l-373 -1036l-44 -116q-44 -116 -103.5 -170t-168.5 -54q-48 0 -95 9v73q40 -9 88 -9q80 0 126 40.5t73 118.5l34 96l-387 1048h90l337 -946h4l333 946h86zM198 1201l233 327h59l233 -327h-75l-186 266h-3l-187 -266h-74z" />
    <glyph glyph-name="Ydieresis" unicode="&#x178;" horiz-adv-x="1097" 
d="M590 0h-81v607l-470 753h96l412 -668h5l413 668h94l-469 -751v-609zM402 1511q-26 0 -44.5 18.5t-18.5 44.5q0 28 18.5 46t44.5 18t44.5 -18t18.5 -46q0 -26 -18.5 -44.5t-44.5 -18.5zM692 1511q-26 0 -44.5 18.5t-18.5 44.5q0 28 18.5 46t44.5 18t44.5 -18t18.5 -46
q0 -26 -18.5 -44.5t-44.5 -18.5z" />
    <glyph glyph-name="Zacute" unicode="&#x179;" horiz-adv-x="1152" 
d="M602 1512h-72l230 294h89zM96 0v65l850 1217v4h-823v74h924v-65l-849 -1217v-5h853v-73h-955z" />
    <glyph glyph-name="zacute" unicode="&#x17a;" horiz-adv-x="908" 
d="M484 1201h-72l230 294h90zM97 0v65l623 894v4h-623v72h724v-68l-623 -891v-4h625v-72h-726z" />
    <glyph glyph-name="Zdotaccent" unicode="&#x17b;" horiz-adv-x="1152" 
d="M503 1650q0 31 21 51.5t52 20.5t52 -20.5t21 -51.5q0 -30 -21 -51t-52 -21t-52 21t-21 51zM96 0v65l850 1217v4h-823v74h924v-65l-849 -1217v-5h853v-73h-955z" />
    <glyph glyph-name="zdotaccent" unicode="&#x17c;" horiz-adv-x="908" 
d="M379 1327q0 32 22 54.5t53 22.5q32 0 54.5 -22.5t22.5 -54.5q0 -31 -22.5 -53t-54.5 -22q-31 0 -53 22t-22 53zM97 0v65l623 894v4h-623v72h724v-68l-623 -891v-4h625v-72h-726z" />
    <glyph glyph-name="Zcaron" unicode="&#x17d;" horiz-adv-x="1152" 
d="M96 0v65l850 1217v4h-823v74h924v-65l-849 -1217v-5h853v-73h-955zM296 1737h92l186 -163h4l186 163h92l-258 -228h-44z" />
    <glyph glyph-name="zcaron" unicode="&#x17e;" horiz-adv-x="908" 
d="M193 1528h74l186 -266h4l186 266h74l-232 -327h-60zM97 0v65l623 894v4h-623v72h724v-68l-623 -891v-4h625v-72h-726z" />
    <glyph glyph-name="florin" unicode="&#x192;" horiz-adv-x="1092" 
d="M201 -186l185 1024h-256l12 72h256l38 199q23 131 100.5 206t199.5 75q62 0 111 -19.5t78 -51.5t44.5 -67t18.5 -71h-79q-4 59 -54.5 97.5t-122.5 38.5q-177 0 -217 -225l-34 -182h333l-14 -72h-332l-185 -1024h-82z" />
    <glyph glyph-name="Ohorn" unicode="&#x1a0;" horiz-adv-x="1309" 
d="M1174 556q0 -271 -137.5 -429t-382.5 -158t-382 158t-137 429v244q0 271 138 431t382 160q86 0 213 -36.5t191 -36.5q74 0 112 39t38 111v101h76v-99q0 -130 -76.5 -181t-199.5 -29l-3 -5q78 -75 123 -192t45 -265v-242zM216 806v-256q0 -231 118 -369t320 -138
q203 0 321 137.5t118 369.5v256q0 231 -119 370.5t-320 139.5t-319.5 -139.5t-118.5 -370.5z" />
    <glyph glyph-name="ohorn" unicode="&#x1a1;" horiz-adv-x="1103" 
d="M545 -18q-187 0 -304.5 121t-117.5 337v150q0 217 116.5 339.5t305.5 122.5q52 0 116 -12.5t106 -12.5q66 0 110 41.5t44 110.5v118h76v-113q0 -104 -50.5 -159.5t-139.5 -60.5l-1 -5q75 -54 118 -149.5t43 -219.5v-150q0 -216 -117.5 -337t-304.5 -121zM545 979
q-153 0 -247.5 -106t-94.5 -294v-128q0 -187 93.5 -291t248.5 -104q154 0 247.5 103.5t93.5 291.5v128q0 186 -94.5 293t-246.5 107z" />
    <glyph glyph-name="Uhorn" unicode="&#x1af;" horiz-adv-x="1352" 
d="M663 -31q-227 0 -356.5 136t-129.5 365v890h82v-891q0 -195 106 -309t298 -114q193 0 299 113.5t106 309.5v891h81q75 0 116.5 40.5t41.5 111.5v103h75v-101q0 -104 -59.5 -164t-150.5 -60h-22v-821q0 -229 -130 -364.5t-357 -135.5z" />
    <glyph glyph-name="uhorn" unicode="&#x1b0;" horiz-adv-x="1171" 
d="M850 192q-31 -84 -116.5 -147t-220.5 -63q-157 0 -255.5 90.5t-98.5 262.5v700h81v-685q0 -137 77.5 -215t207.5 -78q77 0 140.5 29.5t104 79.5t62.5 114t22 134v621h85q75 0 116.5 40.5t41.5 111.5v110h76v-108q0 -110 -61.5 -166t-163.5 -56h-13v-967h-81v192h-4z" />
    <glyph glyph-name="Acaron" unicode="&#x1cd;" horiz-adv-x="1180" 
d="M146 0h-86l487 1360h86l488 -1360h-87l-161 458h-567zM592 1259h-4l-258 -731h519zM307 1737h92l186 -163h4l186 163h92l-258 -228h-44z" />
    <glyph glyph-name="acaron" unicode="&#x1ce;" horiz-adv-x="1014" 
d="M770 167q-11 -28 -35.5 -57.5t-63 -59.5t-99 -49t-130.5 -19q-152 0 -245 83.5t-93 224.5q0 132 90.5 210t260.5 78h317v147q0 127 -73 190.5t-202 63.5q-233 0 -270 -204h-78q14 127 103 202t250 75t256 -81.5t95 -230.5v-740h-79v167h-4zM452 55q134 0 227 81.5
t93 210.5v160h-315q-134 0 -201 -58t-67 -157q0 -109 73.5 -173t189.5 -64zM245 1528h74l186 -266h4l186 266h74l-232 -327h-60z" />
    <glyph glyph-name="Icaron" unicode="&#x1cf;" horiz-adv-x="502" 
d="M292 0h-81v1360h81v-1360zM-32 1737h92l186 -163h4l186 163h92l-258 -228h-44z" />
    <glyph glyph-name="icaron" unicode="&#x1d0;" horiz-adv-x="434" 
d="M-44 1528h74l186 -266h4l186 266h74l-232 -327h-60zM177 0v1035h80v-1035h-80z" />
    <glyph glyph-name="Ocaron" unicode="&#x1d1;" horiz-adv-x="1310" 
d="M372 1737h92l186 -163h4l186 163h92l-258 -228h-44zM216 806v-256q0 -232 118 -369.5t321 -137.5t320.5 137.5t117.5 369.5v256q0 231 -118.5 370.5t-319.5 139.5t-320 -139.5t-119 -370.5zM135 556v244q0 271 138 431t382 160t382 -160.5t138 -432.5v-242
q0 -271 -138 -429t-383 -158t-382 158t-137 429z" />
    <glyph glyph-name="ocaron" unicode="&#x1d2;" horiz-adv-x="1090" 
d="M283 1528h74l186 -266h4l186 266h74l-232 -327h-60zM544 1052q186 0 304.5 -124.5t118.5 -338.5v-147q0 -215 -117.5 -337.5t-305.5 -122.5t-304.5 122.5t-116.5 337.5v147q0 217 116 340t305 123zM544 979q-153 0 -247 -104t-94 -294v-130q0 -189 94 -292t248 -103
q152 0 246.5 102.5t94.5 292.5v130q0 188 -95 293t-247 105z" />
    <glyph glyph-name="Ucaron" unicode="&#x1d3;" horiz-adv-x="1327" 
d="M380 1737h92l186 -163h4l186 163h92l-258 -228h-44zM258 1360v-891q0 -195 106.5 -309t298.5 -114q193 0 299 113.5t106 309.5v891h82v-896q0 -226 -129 -360.5t-358 -134.5t-357.5 134.5t-128.5 360.5v896h81z" />
    <glyph glyph-name="ucaron" unicode="&#x1d4;" horiz-adv-x="1105" 
d="M290 1528h74l186 -266h4l186 266h74l-232 -327h-60zM935 1035v-1035h-81v192h-4q-31 -84 -116.5 -147t-220.5 -63q-157 0 -255.5 90.5t-98.5 262.5v700h81v-685q0 -137 77.5 -215t207.5 -78q77 0 140.5 29.5t104 79.5t62.5 114t22 134v621h81z" />
    <glyph glyph-name="Udieresismacron" unicode="&#x1d5;" horiz-adv-x="1327" 
d="M258 1360v-891q0 -195 106.5 -309t298.5 -114q193 0 299 113.5t106 309.5v891h82v-896q0 -226 -129 -360.5t-358 -134.5t-357.5 134.5t-128.5 360.5v896h81zM519 1511q-26 0 -44.5 18.5t-18.5 44.5q0 28 18 46t45 18t45 -18t18 -46q0 -26 -18.5 -44.5t-44.5 -18.5z
M809 1511q-26 0 -44.5 18.5t-18.5 44.5q0 28 18 46t45 18t45 -18t18 -46q0 -26 -18.5 -44.5t-44.5 -18.5zM932 1809h-536v59h536v-59z" />
    <glyph glyph-name="udieresismacron" unicode="&#x1d6;" horiz-adv-x="1105" 
d="M935 1035v-1035h-81v192h-4q-31 -84 -116.5 -147t-220.5 -63q-157 0 -255.5 90.5t-98.5 262.5v700h81v-685q0 -137 77.5 -215t207.5 -78q77 0 140.5 29.5t104 79.5t62.5 114t22 134v621h81zM406 1235q-27 0 -45.5 19t-18.5 46t18.5 46t45.5 19t45.5 -19t18.5 -46
t-18.5 -46t-45.5 -19zM705 1235q-27 0 -45.5 19t-18.5 46t18.5 46t45.5 19t45.5 -19t18.5 -46t-18.5 -46t-45.5 -19zM829 1551h-553v61h553v-61z" />
    <glyph glyph-name="Udieresisacute" unicode="&#x1d7;" horiz-adv-x="1327" 
d="M614 1708l299 230h107l-316 -230h-90zM519 1511q-26 0 -44.5 18.5t-18.5 44.5q0 28 18 46t45 18t45 -18t18 -46q0 -26 -18.5 -44.5t-44.5 -18.5zM809 1511q-26 0 -44.5 18.5t-18.5 44.5q0 28 18 46t45 18t45 -18t18 -46q0 -26 -18.5 -44.5t-44.5 -18.5zM258 1360v-891
q0 -195 106.5 -309t298.5 -114q193 0 299 113.5t106 309.5v891h82v-896q0 -226 -129 -360.5t-358 -134.5t-357.5 134.5t-128.5 360.5v896h81z" />
    <glyph glyph-name="udieresisacute" unicode="&#x1d8;" horiz-adv-x="1105" 
d="M581 1484h-72l230 294h90zM406 1235q-27 0 -45.5 19t-18.5 46t18.5 46t45.5 19t45.5 -19t18.5 -46t-18.5 -46t-45.5 -19zM705 1235q-27 0 -45.5 19t-18.5 46t18.5 46t45.5 19t45.5 -19t18.5 -46t-18.5 -46t-45.5 -19zM935 1035v-1035h-81v192h-4q-31 -84 -116.5 -147
t-220.5 -63q-157 0 -255.5 90.5t-98.5 262.5v700h81v-685q0 -137 77.5 -215t207.5 -78q77 0 140.5 29.5t104 79.5t62.5 114t22 134v621h81z" />
    <glyph glyph-name="Udieresiscaron" unicode="&#x1d9;" horiz-adv-x="1327" 
d="M460 1571q0 28 19.5 47.5t46.5 19.5q28 0 47.5 -19.5t19.5 -47.5t-19.5 -48t-47.5 -20q-27 0 -46.5 20t-19.5 48zM741 1571q0 28 19.5 47.5t46.5 19.5q28 0 48 -19.5t20 -47.5q0 -29 -19.5 -48.5t-48.5 -19.5q-27 0 -46.5 20t-19.5 48zM367 1936h99l196 -146h4l196 146
h99l-276 -205h-42zM258 1360v-891q0 -195 106.5 -309t298.5 -114q193 0 299 113.5t106 309.5v891h82v-896q0 -226 -129 -360.5t-358 -134.5t-357.5 134.5t-128.5 360.5v896h81z" />
    <glyph glyph-name="udieresiscaron" unicode="&#x1da;" horiz-adv-x="1105" 
d="M290 1805h74l186 -266h4l186 266h74l-232 -327h-60zM406 1235q-27 0 -45.5 19t-18.5 46t18.5 46t45.5 19t45.5 -19t18.5 -46t-18.5 -46t-45.5 -19zM705 1235q-27 0 -45.5 19t-18.5 46t18.5 46t45.5 19t45.5 -19t18.5 -46t-18.5 -46t-45.5 -19zM935 1035v-1035h-81v192h-4
q-31 -84 -116.5 -147t-220.5 -63q-157 0 -255.5 90.5t-98.5 262.5v700h81v-685q0 -137 77.5 -215t207.5 -78q77 0 140.5 29.5t104 79.5t62.5 114t22 134v621h81z" />
    <glyph glyph-name="Udieresisgrave" unicode="&#x1db;" horiz-adv-x="1327" 
d="M714 1708h-90l-316 230h107zM519 1511q-26 0 -44.5 18.5t-18.5 44.5q0 28 18 46t45 18t45 -18t18 -46q0 -26 -18.5 -44.5t-44.5 -18.5zM809 1511q-26 0 -44.5 18.5t-18.5 44.5q0 28 18 46t45 18t45 -18t18 -46q0 -26 -18.5 -44.5t-44.5 -18.5zM258 1360v-891
q0 -195 106.5 -309t298.5 -114q193 0 299 113.5t106 309.5v891h82v-896q0 -226 -129 -360.5t-358 -134.5t-357.5 134.5t-128.5 360.5v896h81z" />
    <glyph glyph-name="udieresisgrave" unicode="&#x1dc;" horiz-adv-x="1105" 
d="M595 1484h-72l-248 294h91zM406 1235q-27 0 -45.5 19t-18.5 46t18.5 46t45.5 19t45.5 -19t18.5 -46t-18.5 -46t-45.5 -19zM705 1235q-27 0 -45.5 19t-18.5 46t18.5 46t45.5 19t45.5 -19t18.5 -46t-18.5 -46t-45.5 -19zM935 1035v-1035h-81v192h-4q-31 -84 -116.5 -147
t-220.5 -63q-157 0 -255.5 90.5t-98.5 262.5v700h81v-685q0 -137 77.5 -215t207.5 -78q77 0 140.5 29.5t104 79.5t62.5 114t22 134v621h81z" />
    <glyph glyph-name="Adieresismacron" unicode="&#x1de;" horiz-adv-x="1180" 
d="M146 0h-86l487 1360h86l488 -1360h-87l-161 458h-567zM592 1259h-4l-258 -731h519zM445 1511q-26 0 -44.5 18.5t-18.5 44.5q0 28 18 46t45 18t45 -18t18 -46q0 -26 -18.5 -44.5t-44.5 -18.5zM735 1511q-26 0 -44.5 18.5t-18.5 44.5q0 28 18 46t45 18t45 -18t18 -46
q0 -26 -18.5 -44.5t-44.5 -18.5zM858 1809h-536v59h536v-59z" />
    <glyph glyph-name="adieresismacron" unicode="&#x1df;" horiz-adv-x="1014" 
d="M770 167q-11 -28 -35.5 -57.5t-63 -59.5t-99 -49t-130.5 -19q-152 0 -245 83.5t-93 224.5q0 132 90.5 210t260.5 78h317v147q0 127 -73 190.5t-202 63.5q-233 0 -270 -204h-78q14 127 103 202t250 75t256 -81.5t95 -230.5v-740h-79v167h-4zM452 55q134 0 227 81.5
t93 210.5v160h-315q-134 0 -201 -58t-67 -157q0 -109 73.5 -173t189.5 -64zM361 1235q-27 0 -45.5 19t-18.5 46t18.5 46t45.5 19t45.5 -19t18.5 -46t-18.5 -46t-45.5 -19zM660 1235q-27 0 -45.5 19t-18.5 46t18.5 46t45.5 19t45.5 -19t18.5 -46t-18.5 -46t-45.5 -19z
M784 1551h-553v61h553v-61z" />
    <glyph glyph-name="Adotmacron" unicode="&#x1e0;" horiz-adv-x="1180" 
d="M146 0h-86l487 1360h86l488 -1360h-87l-161 458h-567zM592 1259h-4l-258 -731h519zM517 1605q0 31 21 51.5t52 20.5t52 -20.5t21 -51.5q0 -30 -21 -51t-52 -21t-52 21t-21 51zM858 1809h-536v59h536v-59z" />
    <glyph glyph-name="adotmacron" unicode="&#x1e1;" horiz-adv-x="1014" 
d="M770 167q-11 -28 -35.5 -57.5t-63 -59.5t-99 -49t-130.5 -19q-152 0 -245 83.5t-93 224.5q0 132 90.5 210t260.5 78h317v147q0 127 -73 190.5t-202 63.5q-233 0 -270 -204h-78q14 127 103 202t250 75t256 -81.5t95 -230.5v-740h-79v167h-4zM452 55q134 0 227 81.5
t93 210.5v160h-315q-134 0 -201 -58t-67 -157q0 -109 73.5 -173t189.5 -64zM431 1327q0 32 22 54.5t53 22.5q32 0 54.5 -22.5t22.5 -54.5q0 -31 -22.5 -53t-54.5 -22q-31 0 -53 22t-22 53zM784 1551h-553v61h553v-61z" />
    <glyph glyph-name="AEmacron" unicode="&#x1e2;" horiz-adv-x="1823" 
d="M874 1284l-434 -728h502v728h-68zM942 486h-543l-290 -486h-89l809 1360h886v-76h-691v-550h657v-75h-657v-584h691v-75h-773v486zM1596 1540h-536v59h536v-59z" />
    <glyph glyph-name="aemacron" unicode="&#x1e3;" horiz-adv-x="1701" 
d="M1187 -18q-145 0 -240.5 69.5t-128.5 191.5h-4q-30 -114 -125.5 -187.5t-244.5 -73.5q-153 0 -246.5 83.5t-93.5 224.5q0 134 90.5 213t260.5 78h317v129q0 128 -74 198.5t-201 70.5q-233 0 -270 -204h-78q14 127 103 202t250 75q123 0 209.5 -55t119.5 -153h3
q44 101 134.5 154.5t208.5 53.5q188 0 294.5 -127t106.5 -362v-53h-724v-53q0 -188 88.5 -294.5t245.5 -106.5q69 0 125 19t90 50t53.5 65.5t24.5 70.5h83q-6 -47 -30.5 -93.5t-67.5 -89.5t-116 -69.5t-163 -26.5zM854 581h643v4q0 184 -86 289t-234 105t-235.5 -105
t-87.5 -289v-4zM452 55q134 0 227 81.5t93 210.5v163h-313q-135 0 -202.5 -58.5t-67.5 -159.5q0 -109 73.5 -173t189.5 -64zM1125 1270h-553v61h553v-61z" />
    <glyph glyph-name="Gcaron" unicode="&#x1e6;" horiz-adv-x="1263" 
d="M356 1737h92l186 -163h4l186 163h92l-258 -228h-44zM1115 1000h-78q-6 55 -32 108.5t-72 101t-121 77t-168 29.5q-204 0 -315.5 -137.5t-111.5 -373.5v-232q0 -243 110 -386.5t328 -143.5q176 0 285.5 94.5t109.5 259.5v186h-407v75h485v-261q0 -199 -133.5 -313.5
t-342.5 -114.5q-131 0 -231 45t-162 126.5t-93 190.5t-31 242v232q0 270 133 428t376 158q109 0 198.5 -33.5t146.5 -90t89 -125t37 -142.5z" />
    <glyph glyph-name="gcaron" unicode="&#x1e7;" horiz-adv-x="1112" 
d="M293 1528h74l186 -266h4l186 266h74l-232 -327h-60zM537 -288q150 0 236.5 76.5t86.5 202.5v257h-4q-7 -22 -21.5 -47.5t-42.5 -56.5t-64 -55.5t-90.5 -41t-116.5 -16.5q-175 0 -286.5 120t-111.5 323v134q0 108 32.5 194t88 140t127 82t152.5 28q72 0 133 -21.5
t100.5 -55.5t64 -68t37.5 -69h4v197h79v-1042q0 -161 -110.5 -257.5t-294.5 -96.5q-92 0 -166 24t-119 64.5t-69.5 88.5t-28.5 100h83q8 -80 87 -142t214 -62zM529 979q-139 0 -232 -99t-93 -286v-108q0 -178 91 -279.5t234 -101.5q103 0 179.5 53t114 137.5t37.5 187.5v114
q0 166 -91 274t-240 108z" />
    <glyph glyph-name="Kcaron" unicode="&#x1e8;" horiz-adv-x="1134" 
d="M1060 1360l-558 -604l590 -756h-106l-544 700l-170 -179v-521h-82v1360h82v-730h3l681 730h104zM269 1737h92l186 -163h4l186 163h92l-258 -228h-44z" />
    <glyph glyph-name="kcaron" unicode="&#x1e9;" horiz-adv-x="984" 
d="M252 421v-421h-81v1435h81v-911h4l543 511h108l-451 -428l475 -607h-103l-433 554zM-69 1813h92l186 -163h4l186 163h92l-258 -228h-44z" />
    <glyph glyph-name="Oogonek" unicode="&#x1ea;" horiz-adv-x="1310" 
d="M216 806v-256q0 -232 118 -369.5t321 -137.5q202 0 320 138t118 369v256q0 231 -118.5 370.5t-319.5 139.5t-320 -139.5t-119 -370.5zM651 -31q-242 0 -379 158t-137 429v244q0 271 138 431t382 160t382 -160.5t138 -432.5v-242q0 -315 -206 -499q-77 -70 -120 -128
t-43 -119q0 -54 36 -85t94 -31q48 0 85 14v-61q-38 -21 -104 -21q-79 0 -133 45t-54 128q0 111 108 208l-1 2q-83 -40 -186 -40z" />
    <glyph glyph-name="oogonek" unicode="&#x1eb;" horiz-adv-x="1090" 
d="M544 979q-153 0 -247 -104t-94 -294v-130q0 -189 94 -292t248 -103q152 0 246.5 102.5t94.5 292.5v130q0 188 -95 293t-247 105zM694 28q-57 -46 -157 -46q-179 0 -296.5 123.5t-117.5 336.5v147q0 217 116 340t305 123q186 0 304.5 -124.5t118.5 -338.5v-147
q0 -234 -156 -378q-72 -64 -109 -118t-37 -119q0 -54 36.5 -86t93.5 -32q45 0 85 14v-62q-38 -20 -105 -20q-78 0 -132 45t-54 129q0 104 109 208z" />
    <glyph glyph-name="Oogonekmacron" unicode="&#x1ec;" horiz-adv-x="1309" 
d="M216 806v-256q0 -232 118 -369.5t321 -137.5q202 0 320 138t118 369v256q0 231 -118.5 370.5t-319.5 139.5t-320 -139.5t-119 -370.5zM651 -31q-242 0 -379 158t-137 429v244q0 271 138 431t382 160t382 -160.5t138 -432.5v-242q0 -315 -206 -499q-77 -70 -120 -128
t-43 -119q0 -54 36 -85t94 -31q48 0 85 14v-61q-38 -21 -104 -21q-79 0 -133 45t-54 128q0 111 108 208l-1 2q-83 -40 -186 -40zM922 1540h-536v59h536v-59z" />
    <glyph glyph-name="oogonekmacron" unicode="&#x1ed;" horiz-adv-x="1090" 
d="M544 979q-153 0 -247 -104t-94 -294v-130q0 -189 94 -292t248 -103q152 0 246.5 102.5t94.5 292.5v130q0 188 -95 293t-247 105zM694 28q-57 -46 -157 -46q-179 0 -296.5 123.5t-117.5 336.5v147q0 217 116 340t305 123q186 0 304.5 -124.5t118.5 -338.5v-147
q0 -234 -156 -378q-72 -64 -109 -118t-37 -119q0 -54 36.5 -86t93.5 -32q45 0 85 14v-62q-38 -20 -105 -20q-78 0 -132 45t-54 129q0 104 109 208zM822 1270h-553v61h553v-61z" />
    <glyph glyph-name="Gacute" unicode="&#x1f4;" horiz-adv-x="1263" 
d="M662 1512h-72l230 294h89zM1115 1000h-78q-6 55 -32 108.5t-72 101t-121 77t-168 29.5q-204 0 -315.5 -137.5t-111.5 -373.5v-232q0 -243 110 -386.5t328 -143.5q176 0 285.5 94.5t109.5 259.5v186h-407v75h485v-261q0 -199 -133.5 -313.5t-342.5 -114.5q-131 0 -231 45
t-162 126.5t-93 190.5t-31 242v232q0 270 133 428t376 158q109 0 198.5 -33.5t146.5 -90t89 -125t37 -142.5z" />
    <glyph glyph-name="gacute" unicode="&#x1f5;" horiz-adv-x="1112" 
d="M584 1201h-72l230 294h90zM537 -288q150 0 236.5 76.5t86.5 202.5v257h-4q-7 -22 -21.5 -47.5t-42.5 -56.5t-64 -55.5t-90.5 -41t-116.5 -16.5q-175 0 -286.5 120t-111.5 323v134q0 108 32.5 194t88 140t127 82t152.5 28q72 0 133 -21.5t100.5 -55.5t64 -68t37.5 -69h4
v197h79v-1042q0 -161 -110.5 -257.5t-294.5 -96.5q-92 0 -166 24t-119 64.5t-69.5 88.5t-28.5 100h83q8 -80 87 -142t214 -62zM529 979q-139 0 -232 -99t-93 -286v-108q0 -178 91 -279.5t234 -101.5q103 0 179.5 53t114 137.5t37.5 187.5v114q0 166 -91 274t-240 108z" />
    <glyph glyph-name="Ngrave" unicode="&#x1f8;" horiz-adv-x="1334" 
d="M713 1512h-72l-247 294h90zM271 0h-81v1360h85l784 -1216h4v1216h80v-1360h-84l-784 1216h-4v-1216z" />
    <glyph glyph-name="ngrave" unicode="&#x1f9;" horiz-adv-x="1107" 
d="M598 1201h-72l-248 294h91zM171 0v1035h80v-192h4q29 85 114.5 147t218.5 62q160 0 260 -99t100 -276v-677h-81v667q0 138 -77.5 224t-213.5 86q-104 0 -179.5 -50.5t-110.5 -127.5t-35 -168v-631h-80z" />
    <glyph glyph-name="Aringacute" unicode="&#x1fa;" horiz-adv-x="1180" 
d="M146 0h-86l487 1360h86l488 -1360h-87l-161 458h-567zM592 1259h-4l-258 -731h519zM555 1806l137 139h92l-156 -139h-73zM590 1428q-69 0 -117 48t-48 117q0 68 48 115t117 47q68 0 117 -47.5t49 -114.5q0 -69 -49 -117t-117 -48zM480 1591q0 -45 33 -78t77 -33
q46 0 78.5 33t32.5 78q0 47 -32.5 79.5t-78.5 32.5q-45 0 -77.5 -33t-32.5 -79z" />
    <glyph glyph-name="aringacute" unicode="&#x1fb;" horiz-adv-x="1014" 
d="M770 167q-11 -28 -35.5 -57.5t-63 -59.5t-99 -49t-130.5 -19q-152 0 -245 83.5t-93 224.5q0 132 90.5 210t260.5 78h317v147q0 127 -73 190.5t-202 63.5q-233 0 -270 -204h-78q14 127 103 202t250 75t256 -81.5t95 -230.5v-740h-79v167h-4zM452 55q134 0 227 81.5
t93 210.5v160h-315q-134 0 -201 -58t-67 -157q0 -109 73.5 -173t189.5 -64zM542 1625h-63l152 190h88zM507 1199q-73 0 -123.5 50t-50.5 123q0 71 50.5 120t123.5 49q71 0 122.5 -49t51.5 -120q0 -72 -51.5 -122.5t-122.5 -50.5zM389 1370q0 -48 35 -83t83 -35t82.5 35
t34.5 83q0 49 -34 83.5t-83 34.5q-48 0 -83 -34.5t-35 -83.5z" />
    <glyph glyph-name="AEacute" unicode="&#x1fc;" horiz-adv-x="1823" 
d="M1354 1512h-72l230 294h89zM874 1284l-434 -728h502v728h-68zM942 486h-543l-290 -486h-89l809 1360h886v-76h-691v-550h657v-75h-657v-584h691v-75h-773v486z" />
    <glyph glyph-name="aeacute" unicode="&#x1fd;" horiz-adv-x="1701" 
d="M877 1201h-72l230 294h90zM1187 -18q-145 0 -240.5 69.5t-128.5 191.5h-4q-30 -114 -125.5 -187.5t-244.5 -73.5q-153 0 -246.5 83.5t-93.5 224.5q0 134 90.5 213t260.5 78h317v129q0 128 -74 198.5t-201 70.5q-233 0 -270 -204h-78q14 127 103 202t250 75
q123 0 209.5 -55t119.5 -153h3q44 101 134.5 154.5t208.5 53.5q188 0 294.5 -127t106.5 -362v-53h-724v-53q0 -188 88.5 -294.5t245.5 -106.5q69 0 125 19t90 50t53.5 65.5t24.5 70.5h83q-6 -47 -30.5 -93.5t-67.5 -89.5t-116 -69.5t-163 -26.5zM854 581h643v4
q0 184 -86 289t-234 105t-235.5 -105t-87.5 -289v-4zM452 55q134 0 227 81.5t93 210.5v163h-313q-135 0 -202.5 -58.5t-67.5 -159.5q0 -109 73.5 -173t189.5 -64z" />
    <glyph glyph-name="Oslashacute" unicode="&#x1fe;" horiz-adv-x="1309" 
d="M654 -31q-270 0 -407 192l-112 -133l-50 41l126 147q-76 141 -76 341v242q0 272 137.5 432t382.5 160q258 0 398 -181l118 139l52 -36l-133 -157q84 -147 84 -357v-242q0 -271 -137.5 -429.5t-382.5 -158.5zM216 550q0 -150 52 -265l731 860q-120 171 -345 171
q-201 0 -319.5 -139t-118.5 -371v-256zM654 43q203 0 321 137.5t118 369.5v256q0 161 -60 281l-732 -862q120 -182 353 -182zM680 1512h-72l230 294h89z" />
    <glyph glyph-name="oslashacute" unicode="&#x1ff;" horiz-adv-x="1090" 
d="M291 168q91 -112 254 -112q152 0 246.5 102.5t94.5 292.5v130q0 132 -48 225zM203 451q0 -135 51 -229l547 637q-91 120 -257 120q-153 0 -247 -104t-94 -294v-130zM544 -18q-191 0 -303 124l-107 -126l-49 39l115 136q-77 114 -77 287v147q0 217 116 340t305 123
q193 0 307 -132l124 143l48 -39l-132 -151q76 -116 76 -284v-147q0 -215 -117.5 -337.5t-305.5 -122.5zM574 1201h-72l230 294h90z" />
    <glyph glyph-name="Adblgrave" unicode="&#x200;" horiz-adv-x="1180" 
d="M146 0h-86l487 1360h86l488 -1360h-87l-161 458h-567zM592 1259h-4l-258 -731h519zM521 1512h-75l-309 255h102zM785 1512h-76l-308 255h101z" />
    <glyph glyph-name="adblgrave" unicode="&#x201;" horiz-adv-x="1014" 
d="M770 167q-11 -28 -35.5 -57.5t-63 -59.5t-99 -49t-130.5 -19q-152 0 -245 83.5t-93 224.5q0 132 90.5 210t260.5 78h317v147q0 127 -73 190.5t-202 63.5q-233 0 -270 -204h-78q14 127 103 202t250 75t256 -81.5t95 -230.5v-740h-79v167h-4zM452 55q134 0 227 81.5
t93 210.5v160h-315q-134 0 -201 -58t-67 -157q0 -109 73.5 -173t189.5 -64zM371 1201l-247 294h85l230 -294h-68zM589 1201l-247 294h84l231 -294h-68z" />
    <glyph glyph-name="Ainvertedbreve" unicode="&#x202;" horiz-adv-x="1180" 
d="M146 0h-86l487 1360h86l488 -1360h-87l-161 458h-567zM592 1259h-4l-258 -731h519zM590 1703q-94 0 -147.5 -50.5t-53.5 -130.5h-67q0 99 70.5 170.5t197.5 71.5q126 0 193.5 -72t67.5 -170h-67q0 81 -50.5 131t-143.5 50z" />
    <glyph glyph-name="ainvertedbreve" unicode="&#x203;" horiz-adv-x="1014" 
d="M770 167q-11 -28 -35.5 -57.5t-63 -59.5t-99 -49t-130.5 -19q-152 0 -245 83.5t-93 224.5q0 132 90.5 210t260.5 78h317v147q0 127 -73 190.5t-202 63.5q-233 0 -270 -204h-78q14 127 103 202t250 75t256 -81.5t95 -230.5v-740h-79v167h-4zM452 55q134 0 227 81.5
t93 210.5v160h-315q-134 0 -201 -58t-67 -157q0 -109 73.5 -173t189.5 -64zM239 1206q0 99 70.5 170.5t197.5 71.5q126 0 193.5 -72t67.5 -170h-67q0 81 -50.5 131t-143.5 50q-94 0 -147.5 -50.5t-53.5 -130.5h-67z" />
    <glyph glyph-name="Edblgrave" unicode="&#x204;" horiz-adv-x="1093" 
d="M507 1512h-75l-309 255h102zM771 1512h-76l-308 255h101zM966 75v-75h-776v1360h776v-76h-694v-550h660v-75h-660v-584h694z" />
    <glyph glyph-name="edblgrave" unicode="&#x205;" horiz-adv-x="1050" 
d="M535 -18q-193 0 -302.5 125.5t-109.5 350.5v110q0 231 108 357.5t294 126.5t294.5 -126.5t108.5 -360.5v-55h-725v-51q0 -191 89.5 -297.5t244.5 -106.5q129 0 205 62t90 144h81q-7 -50 -33 -97.5t-70.5 -89t-116 -67t-158.5 -25.5zM203 581h644v4q0 183 -87.5 288.5
t-234.5 105.5t-234.5 -105.5t-87.5 -288.5v-4zM389 1201l-247 294h85l230 -294h-68zM607 1201l-247 294h84l231 -294h-68z" />
    <glyph glyph-name="Einvertedbreve" unicode="&#x206;" horiz-adv-x="1093" 
d="M966 75v-75h-776v1360h776v-76h-694v-550h660v-75h-660v-584h694zM576 1703q-94 0 -147.5 -50.5t-53.5 -130.5h-67q0 99 70.5 170.5t197.5 71.5q126 0 193.5 -72t67.5 -170h-67q0 81 -50.5 131t-143.5 50z" />
    <glyph glyph-name="einvertedbreve" unicode="&#x207;" horiz-adv-x="1050" 
d="M535 -18q-193 0 -302.5 125.5t-109.5 350.5v110q0 231 108 357.5t294 126.5t294.5 -126.5t108.5 -360.5v-55h-725v-51q0 -191 89.5 -297.5t244.5 -106.5q129 0 205 62t90 144h81q-7 -50 -33 -97.5t-70.5 -89t-116 -67t-158.5 -25.5zM203 581h644v4q0 183 -87.5 288.5
t-234.5 105.5t-234.5 -105.5t-87.5 -288.5v-4zM257 1206q0 99 70.5 170.5t197.5 71.5q126 0 193.5 -72t67.5 -170h-67q0 81 -50.5 131t-143.5 50q-94 0 -147.5 -50.5t-53.5 -130.5h-67z" />
    <glyph glyph-name="Idblgrave" unicode="&#x208;" horiz-adv-x="493" 
d="M287 0h-81v1360h81v-1360zM177 1512h-75l-309 255h102zM441 1512h-76l-308 255h101z" />
    <glyph glyph-name="idblgrave" unicode="&#x209;" horiz-adv-x="434" 
d="M177 0v1035h80v-1035h-80zM82 1201l-247 294h85l230 -294h-68zM300 1201l-247 294h84l231 -294h-68z" />
    <glyph glyph-name="Iinvertedbreve" unicode="&#x20a;" horiz-adv-x="493" 
d="M287 0h-81v1360h81v-1360zM246 1703q-94 0 -147.5 -50.5t-53.5 -130.5h-67q0 99 70.5 170.5t197.5 71.5q126 0 193.5 -72t67.5 -170h-67q0 81 -50.5 131t-143.5 50z" />
    <glyph glyph-name="iinvertedbreve" unicode="&#x20b;" horiz-adv-x="434" 
d="M177 0v1035h80v-1035h-80zM-50 1206q0 99 70.5 170.5t197.5 71.5q126 0 193.5 -72t67.5 -170h-67q0 81 -50.5 131t-143.5 50q-94 0 -147.5 -50.5t-53.5 -130.5h-67z" />
    <glyph glyph-name="Odblgrave" unicode="&#x20c;" horiz-adv-x="1310" 
d="M585 1512h-75l-309 255h102zM849 1512h-76l-308 255h101zM216 806v-256q0 -232 118 -369.5t321 -137.5t320.5 137.5t117.5 369.5v256q0 231 -118.5 370.5t-319.5 139.5t-320 -139.5t-119 -370.5zM135 556v244q0 271 138 431t382 160t382 -160.5t138 -432.5v-242
q0 -271 -138 -429t-383 -158t-382 158t-137 429z" />
    <glyph glyph-name="odblgrave" unicode="&#x20d;" horiz-adv-x="1090" 
d="M544 1052q186 0 304.5 -124.5t118.5 -338.5v-147q0 -215 -117.5 -337.5t-305.5 -122.5t-304.5 122.5t-116.5 337.5v147q0 217 116 340t305 123zM544 979q-153 0 -247 -104t-94 -294v-130q0 -189 94 -292t248 -103q152 0 246.5 102.5t94.5 292.5v130q0 188 -95 293
t-247 105zM409 1201l-247 294h85l230 -294h-68zM627 1201l-247 294h84l231 -294h-68z" />
    <glyph glyph-name="Oinvertedbreve" unicode="&#x20e;" horiz-adv-x="1310" 
d="M654 1703q-94 0 -147.5 -50.5t-53.5 -130.5h-67q0 99 70.5 170.5t197.5 71.5q126 0 193.5 -72t67.5 -170h-67q0 81 -50.5 131t-143.5 50zM216 806v-256q0 -232 118 -369.5t321 -137.5t320.5 137.5t117.5 369.5v256q0 231 -118.5 370.5t-319.5 139.5t-320 -139.5
t-119 -370.5zM135 556v244q0 271 138 431t382 160t382 -160.5t138 -432.5v-242q0 -271 -138 -429t-383 -158t-382 158t-137 429z" />
    <glyph glyph-name="oinvertedbreve" unicode="&#x20f;" horiz-adv-x="1090" 
d="M544 1052q186 0 304.5 -124.5t118.5 -338.5v-147q0 -215 -117.5 -337.5t-305.5 -122.5t-304.5 122.5t-116.5 337.5v147q0 217 116 340t305 123zM544 979q-153 0 -247 -104t-94 -294v-130q0 -189 94 -292t248 -103q152 0 246.5 102.5t94.5 292.5v130q0 188 -95 293
t-247 105zM277 1206q0 99 70.5 170.5t197.5 71.5q126 0 193.5 -72t67.5 -170h-67q0 81 -50.5 131t-143.5 50q-94 0 -147.5 -50.5t-53.5 -130.5h-67z" />
    <glyph glyph-name="Rdblgrave" unicode="&#x210;" horiz-adv-x="1187" 
d="M515 1512h-75l-309 255h102zM779 1512h-76l-308 255h101zM637 1360q191 0 301 -106t110 -276q0 -152 -79.5 -244.5t-209.5 -123.5l312 -610h-95l-302 594h-402v-594h-82v1360h447zM272 668h351q159 0 250.5 82t91.5 225q0 145 -91.5 228t-248.5 83h-353v-618z" />
    <glyph glyph-name="rdblgrave" unicode="&#x211;" horiz-adv-x="669" 
d="M171 0v1035h80v-192h4q63 208 290 208q31 0 76 -7v-77q-44 8 -86 8q-139 0 -211.5 -99t-72.5 -271v-605h-80zM214 1201l-247 294h85l230 -294h-68zM432 1201l-247 294h84l231 -294h-68z" />
    <glyph glyph-name="Rinvertedbreve" unicode="&#x212;" horiz-adv-x="1187" 
d="M637 1360q191 0 301 -106t110 -276q0 -152 -79.5 -244.5t-209.5 -123.5l312 -610h-95l-302 594h-402v-594h-82v1360h447zM272 668h351q159 0 250.5 82t91.5 225q0 145 -91.5 228t-248.5 83h-353v-618zM584 1703q-94 0 -147.5 -50.5t-53.5 -130.5h-67q0 99 70.5 170.5
t197.5 71.5q126 0 193.5 -72t67.5 -170h-67q0 81 -50.5 131t-143.5 50z" />
    <glyph glyph-name="rinvertedbreve" unicode="&#x213;" horiz-adv-x="669" 
d="M171 0v1035h80v-192h4q63 208 290 208q31 0 76 -7v-77q-44 8 -86 8q-139 0 -211.5 -99t-72.5 -271v-605h-80zM82 1206q0 99 70.5 170.5t197.5 71.5q126 0 193.5 -72t67.5 -170h-67q0 81 -50.5 131t-143.5 50q-94 0 -147.5 -50.5t-53.5 -130.5h-67z" />
    <glyph glyph-name="Udblgrave" unicode="&#x214;" horiz-adv-x="1327" 
d="M595 1512h-75l-309 255h102zM859 1512h-76l-308 255h101zM258 1360v-891q0 -195 106.5 -309t298.5 -114q193 0 299 113.5t106 309.5v891h82v-896q0 -226 -129 -360.5t-358 -134.5t-357.5 134.5t-128.5 360.5v896h81z" />
    <glyph glyph-name="udblgrave" unicode="&#x215;" horiz-adv-x="1105" 
d="M935 1035v-1035h-81v192h-4q-31 -84 -116.5 -147t-220.5 -63q-157 0 -255.5 90.5t-98.5 262.5v700h81v-685q0 -137 77.5 -215t207.5 -78q77 0 140.5 29.5t104 79.5t62.5 114t22 134v621h81zM416 1201l-247 294h85l230 -294h-68zM634 1201l-247 294h84l231 -294h-68z" />
    <glyph glyph-name="Uinvertedbreve" unicode="&#x216;" horiz-adv-x="1327" 
d="M258 1360v-891q0 -195 106.5 -309t298.5 -114q193 0 299 113.5t106 309.5v891h82v-896q0 -226 -129 -360.5t-358 -134.5t-357.5 134.5t-128.5 360.5v896h81zM664 1703q-94 0 -147.5 -50.5t-53.5 -130.5h-67q0 99 70.5 170.5t197.5 71.5q126 0 193.5 -72t67.5 -170h-67
q0 81 -50.5 131t-143.5 50z" />
    <glyph glyph-name="uinvertedbreve" unicode="&#x217;" horiz-adv-x="1105" 
d="M935 1035v-1035h-81v192h-4q-31 -84 -116.5 -147t-220.5 -63q-157 0 -255.5 90.5t-98.5 262.5v700h81v-685q0 -137 77.5 -215t207.5 -78q77 0 140.5 29.5t104 79.5t62.5 114t22 134v621h81zM284 1206q0 99 70.5 170.5t197.5 71.5q126 0 193.5 -72t67.5 -170h-67
q0 81 -50.5 131t-143.5 50q-94 0 -147.5 -50.5t-53.5 -130.5h-67z" />
    <glyph glyph-name="Scommaaccent" unicode="&#x218;" horiz-adv-x="1155" 
d="M106 345h83q2 -51 24 -100.5t65.5 -96t121.5 -75.5t179 -29q169 0 273.5 83.5t104.5 214.5q0 120 -76 183.5t-241 107.5l-178 48q-311 83 -311 345q0 166 120 266t316 100q194 0 310.5 -97.5t118.5 -246.5h-84q-2 49 -22.5 95t-60 86t-108 64t-155.5 24q-162 0 -256 -79
t-94 -210q0 -110 64.5 -173t198.5 -99l172 -47q94 -26 158 -54t114.5 -69.5t74 -100.5t23.5 -138q0 -174 -131 -276t-340 -102q-99 0 -180 24.5t-132.5 63.5t-86.5 89.5t-50 100t-15 98.5zM502 -481h-60l85 335h89z" />
    <glyph glyph-name="scommaaccent" unicode="&#x219;" horiz-adv-x="959" 
d="M131 768q0 134 97.5 209t253.5 75q91 0 160.5 -26.5t108.5 -69t58 -88.5t19 -93h-79q0 25 -8 51t-28 54t-49.5 50t-77.5 36t-107 14q-116 0 -191 -52.5t-75 -154.5q0 -38 13.5 -67t34 -49.5t59 -38t75.5 -29.5t96 -27q157 -40 214 -67q125 -59 141 -176q3 -20 3 -42
q0 -97 -53 -165t-137.5 -99t-192.5 -31q-94 0 -168 26t-116 68t-63.5 90.5t-21.5 99.5h79q2 -35 18.5 -70t49.5 -67.5t91.5 -53t134.5 -20.5q130 0 213.5 56.5t83.5 162.5q0 28 -7.5 51t-17.5 40t-34 33t-41.5 25.5t-57 22.5t-64.5 20.5t-78 21.5q-68 18 -111.5 32.5
t-90.5 38t-73.5 50.5t-43.5 67.5t-17 91.5zM418 -481h-60l85 335h89z" />
    <glyph glyph-name="Tcommaaccent" unicode="&#x21a;" horiz-adv-x="1067" 
d="M472 -481h-60l85 335h89zM575 0h-81v1285h-444v75h967v-75h-442v-1285z" />
    <glyph glyph-name="tcommaaccent" unicode="&#x21b;" horiz-adv-x="632" 
d="M336 -481h-60l85 335h89zM218 1035v252h81v-252h257v-71h-257v-743q0 -93 40.5 -127t141.5 -34q47 0 89 7v-68q-47 -9 -104 -9q-142 0 -195 55t-53 192v727h-164v71h164z" />
    <glyph glyph-name="Hcaron" unicode="&#x21e;" horiz-adv-x="1334" 
d="M1143 0h-82v676h-789v-676h-82v1360h82v-609h789v609h82v-1360zM384 1737h92l186 -163h4l186 163h92l-258 -228h-44z" />
    <glyph glyph-name="hcaron" unicode="&#x21f;" horiz-adv-x="1110" 
d="M171 0v1435h81v-592h4q29 85 115.5 147t219.5 62q160 0 260.5 -99t100.5 -276v-677h-81v667q0 138 -78 224t-214 86q-79 0 -142.5 -29t-103 -78t-60.5 -110.5t-21 -128.5v-631h-81zM-69 1813h92l186 -163h4l186 163h92l-258 -228h-44z" />
    <glyph glyph-name="Adotaccent" unicode="&#x226;" horiz-adv-x="1180" 
d="M146 0h-86l487 1360h86l488 -1360h-87l-161 458h-567zM592 1259h-4l-258 -731h519zM517 1650q0 31 21 51.5t52 20.5t52 -20.5t21 -51.5q0 -30 -21 -51t-52 -21t-52 21t-21 51z" />
    <glyph glyph-name="adotaccent" unicode="&#x227;" horiz-adv-x="1014" 
d="M770 167q-11 -28 -35.5 -57.5t-63 -59.5t-99 -49t-130.5 -19q-152 0 -245 83.5t-93 224.5q0 132 90.5 210t260.5 78h317v147q0 127 -73 190.5t-202 63.5q-233 0 -270 -204h-78q14 127 103 202t250 75t256 -81.5t95 -230.5v-740h-79v167h-4zM452 55q134 0 227 81.5
t93 210.5v160h-315q-134 0 -201 -58t-67 -157q0 -109 73.5 -173t189.5 -64zM431 1327q0 32 22 54.5t53 22.5q32 0 54.5 -22.5t22.5 -54.5q0 -31 -22.5 -53t-54.5 -22q-31 0 -53 22t-22 53z" />
    <glyph glyph-name="Ecedilla" unicode="&#x228;" horiz-adv-x="1093" 
d="M540 -459q-73 -1 -125 15v63q46 -16 121 -16q61 0 106 26.5t45 78.5q0 99 -153 99h-50v48l62 145h-356v1360h776v-76h-694v-550h660v-75h-660v-584h694v-75h-353l-56 -134q88 0 147.5 -38t59.5 -116q0 -84 -66 -127t-158 -44z" />
    <glyph glyph-name="ecedilla" unicode="&#x229;" horiz-adv-x="1050" 
d="M203 581h644v4q0 183 -87.5 288.5t-234.5 105.5t-234.5 -105.5t-87.5 -288.5v-4zM512 -464q-73 -1 -124 15v63q43 -15 120 -15q61 0 106 26t45 78q0 99 -152 99h-51v48l56 133q-183 8 -286 132.5t-103 342.5v110q0 231 108 357.5t294 126.5t294.5 -126.5t108.5 -360.5
v-55h-725v-51q0 -191 89.5 -297.5t244.5 -106.5q129 0 205 62t90 144h81q-13 -100 -98.5 -182t-233.5 -95l-51 -123q88 0 147 -38t59 -116q0 -83 -66 -126.5t-158 -44.5z" />
    <glyph glyph-name="Odieresismacron" unicode="&#x22a;" horiz-adv-x="1310" 
d="M216 806v-256q0 -232 118 -369.5t321 -137.5t320.5 137.5t117.5 369.5v256q0 231 -118.5 370.5t-319.5 139.5t-320 -139.5t-119 -370.5zM135 556v244q0 271 138 431t382 160t382 -160.5t138 -432.5v-242q0 -271 -138 -429t-383 -158t-382 158t-137 429zM509 1511
q-26 0 -44.5 18.5t-18.5 44.5q0 28 18 46t45 18t45 -18t18 -46q0 -26 -18.5 -44.5t-44.5 -18.5zM799 1511q-26 0 -44.5 18.5t-18.5 44.5q0 28 18 46t45 18t45 -18t18 -46q0 -26 -18.5 -44.5t-44.5 -18.5zM922 1809h-536v59h536v-59z" />
    <glyph glyph-name="odieresismacron" unicode="&#x22b;" horiz-adv-x="1090" 
d="M399 1235q-27 0 -45.5 19t-18.5 46t18.5 46t45.5 19t45.5 -19t18.5 -46t-18.5 -46t-45.5 -19zM698 1235q-27 0 -45.5 19t-18.5 46t18.5 46t45.5 19t45.5 -19t18.5 -46t-18.5 -46t-45.5 -19zM822 1551h-553v61h553v-61zM544 1052q186 0 304.5 -124.5t118.5 -338.5v-147
q0 -215 -117.5 -337.5t-305.5 -122.5t-304.5 122.5t-116.5 337.5v147q0 217 116 340t305 123zM544 979q-153 0 -247 -104t-94 -294v-130q0 -189 94 -292t248 -103q152 0 246.5 102.5t94.5 292.5v130q0 188 -95 293t-247 105z" />
    <glyph glyph-name="Otildemacron" unicode="&#x22c;" horiz-adv-x="1310" 
d="M769 1509q-45 0 -82 17.5t-57.5 38t-49.5 38t-60 17.5q-40 0 -64.5 -29.5t-24.5 -81.5h-61q0 78 40.5 122t109.5 44q43 0 79 -17.5t56.5 -38t50.5 -38t63 -17.5q89 0 91 111h61q0 -76 -39 -121t-113 -45zM922 1809h-536v59h536v-59zM216 806v-256q0 -232 118 -369.5
t321 -137.5t320.5 137.5t117.5 369.5v256q0 231 -118.5 370.5t-319.5 139.5t-320 -139.5t-119 -370.5zM135 556v244q0 271 138 431t382 160t382 -160.5t138 -432.5v-242q0 -271 -138 -429t-383 -158t-382 158t-137 429z" />
    <glyph glyph-name="otildemacron" unicode="&#x22d;" horiz-adv-x="1090" 
d="M673 1198q-39 0 -71.5 16.5t-55 39.5t-43 46t-44.5 39.5t-51 16.5q-43 0 -71 -38.5t-29 -103.5h-63q0 93 44.5 147.5t118.5 54.5q39 0 70.5 -16.5t53 -39.5t41.5 -46t45.5 -39.5t54.5 -16.5q48 0 74 40.5t27 106.5h64q0 -90 -43.5 -148.5t-121.5 -58.5zM822 1551h-553v61
h553v-61zM544 1052q186 0 304.5 -124.5t118.5 -338.5v-147q0 -215 -117.5 -337.5t-305.5 -122.5t-304.5 122.5t-116.5 337.5v147q0 217 116 340t305 123zM544 979q-153 0 -247 -104t-94 -294v-130q0 -189 94 -292t248 -103q152 0 246.5 102.5t94.5 292.5v130q0 188 -95 293
t-247 105z" />
    <glyph glyph-name="Odotaccent" unicode="&#x22e;" horiz-adv-x="1310" 
d="M581 1650q0 31 21 51.5t52 20.5t52 -20.5t21 -51.5q0 -30 -21 -51t-52 -21t-52 21t-21 51zM216 806v-256q0 -232 118 -369.5t321 -137.5t320.5 137.5t117.5 369.5v256q0 231 -118.5 370.5t-319.5 139.5t-320 -139.5t-119 -370.5zM135 556v244q0 271 138 431t382 160
t382 -160.5t138 -432.5v-242q0 -271 -138 -429t-383 -158t-382 158t-137 429z" />
    <glyph glyph-name="odotaccent" unicode="&#x22f;" horiz-adv-x="1090" 
d="M469 1327q0 32 22 54.5t53 22.5q32 0 54.5 -22.5t22.5 -54.5q0 -31 -22.5 -53t-54.5 -22q-31 0 -53 22t-22 53zM544 1052q186 0 304.5 -124.5t118.5 -338.5v-147q0 -215 -117.5 -337.5t-305.5 -122.5t-304.5 122.5t-116.5 337.5v147q0 217 116 340t305 123zM544 979
q-153 0 -247 -104t-94 -294v-130q0 -189 94 -292t248 -103q152 0 246.5 102.5t94.5 292.5v130q0 188 -95 293t-247 105z" />
    <glyph glyph-name="Odotaccentmacron" unicode="&#x230;" horiz-adv-x="1310" 
d="M581 1605q0 31 21 51.5t52 20.5t52 -20.5t21 -51.5q0 -30 -21 -51t-52 -21t-52 21t-21 51zM922 1809h-536v59h536v-59zM216 806v-256q0 -232 118 -369.5t321 -137.5t320.5 137.5t117.5 369.5v256q0 231 -118.5 370.5t-319.5 139.5t-320 -139.5t-119 -370.5zM135 556v244
q0 271 138 431t382 160t382 -160.5t138 -432.5v-242q0 -271 -138 -429t-383 -158t-382 158t-137 429z" />
    <glyph glyph-name="odotaccentmacron" unicode="&#x231;" horiz-adv-x="1090" 
d="M544 1052q186 0 304.5 -124.5t118.5 -338.5v-147q0 -215 -117.5 -337.5t-305.5 -122.5t-304.5 122.5t-116.5 337.5v147q0 217 116 340t305 123zM544 979q-153 0 -247 -104t-94 -294v-130q0 -189 94 -292t248 -103q152 0 246.5 102.5t94.5 292.5v130q0 188 -95 293
t-247 105zM469 1327q0 32 22 54.5t53 22.5q32 0 54.5 -22.5t22.5 -54.5q0 -31 -22.5 -53t-54.5 -22q-31 0 -53 22t-22 53zM822 1551h-553v61h553v-61z" />
    <glyph glyph-name="Ymacron" unicode="&#x232;" horiz-adv-x="1097" 
d="M590 0h-81v607l-470 753h96l412 -668h5l413 668h94l-469 -751v-609zM817 1540h-536v59h536v-59z" />
    <glyph glyph-name="ymacron" unicode="&#x233;" horiz-adv-x="920" 
d="M885 1035l-373 -1036l-44 -116q-44 -116 -103.5 -170t-168.5 -54q-48 0 -95 9v73q40 -9 88 -9q80 0 126 40.5t73 118.5l34 96l-387 1048h90l337 -946h4l333 946h86zM737 1270h-553v61h553v-61z" />
    <glyph glyph-name="quoteright" unicode="&#x2019;" horiz-adv-x="419" 
d="M209 962h-69l57 398h89z" />
    <glyph glyph-name="quoteright" unicode="&#x2bc;" horiz-adv-x="419" 
d="M209 962h-69l57 398h89z" />
    <glyph glyph-name="circumflex" unicode="&#x2c6;" horiz-adv-x="805" 
d="M140 1201l233 327h59l233 -327h-75l-186 266h-3l-187 -266h-74z" />
    <glyph glyph-name="caron" unicode="&#x2c7;" horiz-adv-x="805" 
d="M139 1528h74l186 -266h4l186 266h74l-232 -327h-60z" />
    <glyph glyph-name="breve" unicode="&#x2d8;" horiz-adv-x="805" 
d="M133 1441h67q0 -80 53.5 -130t147.5 -50t147.5 50t53.5 130h67q0 -96 -70.5 -169t-197.5 -73t-197.5 72t-70.5 170z" />
    <glyph glyph-name="dotaccent" unicode="&#x2d9;" horiz-adv-x="805" 
d="M327 1327q0 32 22 54.5t53 22.5q32 0 54.5 -22.5t22.5 -54.5q0 -31 -22.5 -53t-54.5 -22q-31 0 -53 22t-22 53z" />
    <glyph glyph-name="ring" unicode="&#x2da;" horiz-adv-x="805" 
d="M408 1199q-73 0 -123.5 50t-50.5 123q0 71 50.5 120t123.5 49q71 0 122.5 -49t51.5 -120q0 -72 -51.5 -122.5t-122.5 -50.5zM290 1370q0 -48 35 -83t83 -35t82.5 35t34.5 83q0 49 -34 83.5t-83 34.5q-48 0 -83 -34.5t-35 -83.5z" />
    <glyph glyph-name="ogonek" unicode="&#x2db;" horiz-adv-x="805" 
d="M524 -278v-64q-34 -17 -94 -17q-74 0 -123.5 41.5t-49.5 119.5q0 32 11.5 64t22.5 52t39 50t37.5 39t41.5 38l69 -16q-145 -104 -145 -212q0 -51 29.5 -79t81.5 -28q45 0 80 12z" />
    <glyph glyph-name="tilde" unicode="&#x2dc;" horiz-adv-x="805" 
d="M525 1198q-39 0 -71.5 16.5t-55 39.5t-43 46t-44.5 39.5t-51 16.5q-43 0 -71 -38.5t-29 -103.5h-63q0 93 44.5 147.5t118.5 54.5q39 0 70.5 -16.5t53 -39.5t41.5 -46t45.5 -39.5t54.5 -16.5q48 0 74 40.5t27 106.5h64q0 -90 -43.5 -148.5t-121.5 -58.5z" />
    <glyph glyph-name="hungarumlaut" unicode="&#x2dd;" horiz-adv-x="805" 
d="M201 1201h-68l231 294h85zM419 1201h-68l231 294h84z" />
    <glyph glyph-name="gravecmb" unicode="&#x300;" horiz-adv-x="0" 
d="M43 1201h-72l-248 294h91z" />
    <glyph glyph-name="acutecmb" unicode="&#x301;" horiz-adv-x="0" 
d="M29 1201h-72l230 294h90z" />
    <glyph glyph-name="circumflexcmb" unicode="&#x302;" horiz-adv-x="0" 
d="M-262 1201l233 327h59l233 -327h-75l-186 266h-3l-187 -266h-74z" />
    <glyph glyph-name="tildecmb" unicode="&#x303;" horiz-adv-x="0" 
d="M128 1198q-39 0 -71.5 16.5t-55 39.5t-43 46t-44.5 39.5t-51 16.5q-43 0 -71 -38.5t-29 -103.5h-63q0 93 44.5 147.5t118.5 54.5q39 0 70.5 -16.5t53 -39.5t41.5 -46t45.5 -39.5t54.5 -16.5q48 0 74 40.5t27 106.5h64q0 -90 -43.5 -148.5t-121.5 -58.5z" />
    <glyph glyph-name="macroncmb" unicode="&#x304;" horiz-adv-x="0" 
d="M277 1270h-553v61h553v-61z" />
    <glyph glyph-name="brevecmb" unicode="&#x306;" horiz-adv-x="0" 
d="M-268 1441h67q0 -80 53.5 -130t147.5 -50t147.5 50t53.5 130h67q0 -96 -70.5 -169t-197.5 -73t-197.5 72t-70.5 170z" />
    <glyph glyph-name="dotaccentcmb" unicode="&#x307;" horiz-adv-x="0" 
d="M-76 1327q0 32 22 54.5t53 22.5q32 0 54.5 -22.5t22.5 -54.5q0 -31 -22.5 -53t-54.5 -22q-31 0 -53 22t-22 53z" />
    <glyph glyph-name="dieresiscmb" unicode="&#x308;" horiz-adv-x="0" 
d="M-146 1235q-27 0 -45.5 19t-18.5 46t18.5 46t45.5 19t45.5 -19t18.5 -46t-18.5 -46t-45.5 -19zM153 1235q-27 0 -45.5 19t-18.5 46t18.5 46t45.5 19t45.5 -19t18.5 -46t-18.5 -46t-45.5 -19z" />
    <glyph glyph-name="hookabovecmb" unicode="&#x309;" horiz-adv-x="0" 
d="M-119 1413v56q12 9 39 17t55 8q69 0 112.5 -38.5t43.5 -100.5q0 -84 -100 -138l-34 45q71 39 71 93q0 35 -27.5 59.5t-73.5 24.5q-43 0 -86 -26z" />
    <glyph glyph-name="ringcmb" unicode="&#x30a;" horiz-adv-x="0" 
d="M0 1199q-73 0 -123.5 50t-50.5 123q0 71 50.5 120t123.5 49q71 0 122.5 -49t51.5 -120q0 -72 -51.5 -122.5t-122.5 -50.5zM-118 1370q0 -48 35 -83t83 -35t82.5 35t34.5 83q0 49 -34 83.5t-83 34.5q-48 0 -83 -34.5t-35 -83.5z" />
    <glyph glyph-name="hungarumlautcmb" unicode="&#x30b;" horiz-adv-x="0" 
d="M-88 1203h-68l231 294h85zM130 1203h-68l231 294h84z" />
    <glyph glyph-name="caroncmb" unicode="&#x30c;" horiz-adv-x="0" 
d="M-262 1528h74l186 -266h4l186 266h74l-232 -327h-60z" />
    <glyph glyph-name="dblgravecmb" unicode="&#x30f;" horiz-adv-x="0" 
d="M-136 1201l-247 294h85l230 -294h-68zM82 1201l-247 294h84l231 -294h-68z" />
    <glyph glyph-name="invertedbrevecmb" unicode="&#x311;" horiz-adv-x="0" 
d="M-268 1206q0 99 70.5 170.5t197.5 71.5q126 0 193.5 -72t67.5 -170h-67q0 81 -50.5 131t-143.5 50q-94 0 -147.5 -50.5t-53.5 -130.5h-67z" />
    <glyph glyph-name="horncmb" unicode="&#x31b;" horiz-adv-x="0" 
d="M0 974v76q10 -10 45 -10q76 0 117 40.5t41 111.5v118h76v-116q0 -111 -61.5 -169.5t-162.5 -58.5q-43 0 -55 8z" />
    <glyph glyph-name="dotbelowcmb" unicode="&#x323;" horiz-adv-x="0" 
d="M-67 -287q0 30 20 50t47 20q30 0 50.5 -20t20.5 -50q0 -29 -20.5 -49t-50.5 -20q-27 0 -47 20t-20 49z" />
    <glyph glyph-name="dieresisbelowcmb" unicode="&#x324;" horiz-adv-x="0" 
d="M-149 -359q-27 0 -45.5 19t-18.5 46t18.5 46t45.5 19t45.5 -19t18.5 -46t-18.5 -46t-45.5 -19zM150 -359q-27 0 -45.5 19t-18.5 46t18.5 46t45.5 19t45.5 -19t18.5 -46t-18.5 -46t-45.5 -19z" />
    <glyph glyph-name="ringbelowcmb" unicode="&#x325;" horiz-adv-x="0" 
d="M0 -497q-73 0 -123.5 50t-50.5 123q0 71 50.5 120t123.5 49q71 0 122.5 -49t51.5 -120q0 -72 -51.5 -122.5t-122.5 -50.5zM-118 -326q0 -48 35 -83t83 -35t82.5 35t34.5 83q0 49 -34 83.5t-83 34.5q-48 0 -83 -34.5t-35 -83.5z" />
    <glyph glyph-name="commabelowcmb" unicode="&#x326;" horiz-adv-x="0" 
d="M-62 -481h-60l85 335h89z" />
    <glyph glyph-name="cedillacmb" unicode="&#x327;" horiz-adv-x="0" 
d="M-95 -198v48l65 152h67l-58 -141q88 0 147 -38t59 -116q0 -83 -66 -126.5t-158 -44.5q-71 -1 -125 15v63q45 -15 121 -15q61 0 106 26t45 78q0 99 -153 99h-50z" />
    <glyph glyph-name="ogonekcmb" unicode="&#x328;" horiz-adv-x="0" 
d="M115 -278v-64q-34 -17 -94 -17q-74 0 -123.5 41.5t-49.5 119.5q0 32 11.5 64t22.5 52t39 50t37.5 39t41.5 38l69 -16q-145 -104 -145 -212q0 -51 29.5 -79t81.5 -28q45 0 80 12z" />
    <glyph glyph-name="circumflexbelowcmb" unicode="&#x32d;" horiz-adv-x="0" 
d="M-261 -413l230 280h62l230 -280h-73l-186 229h-4l-186 -229h-73z" />
    <glyph glyph-name="brevebelowcmb" unicode="&#x32e;" horiz-adv-x="0" 
d="M196 -159h68q0 -98 -68 -170t-196 -72q-130 0 -201.5 71.5t-71.5 170.5h70q0 -80 54 -130.5t149 -50.5q94 0 145 50t51 131z" />
    <glyph glyph-name="tildebelowcmb" unicode="&#x330;" horiz-adv-x="0" 
d="M127 -382q-39 0 -71.5 16t-54.5 39t-42 46.5t-44 39.5t-50 16q-42 0 -70 -37.5t-28 -102.5h-62q0 93 43.5 145.5t116.5 52.5q38 0 69.5 -16t52.5 -39t41 -46t44.5 -39t53.5 -16q47 0 73 39.5t27 105.5h62q0 -88 -42.5 -146t-118.5 -58z" />
    <glyph glyph-name="macronbelowcmb" unicode="&#x331;" horiz-adv-x="0" 
d="M277 -303h-553v61h553v-61z" />
    <glyph glyph-name="greekquestionmark" unicode="&#x37e;" horiz-adv-x="428" 
d="M145 -259h-66l81 367h94zM117 815q0 32 23 55t54 23q32 0 55 -23t23 -55t-23 -55t-55 -23t-54.5 23t-22.5 55z" />
    <glyph glyph-name="tonosgreek" unicode="&#x384;" horiz-adv-x="656" 
d="M266 1201l78 299h93l-102 -299h-69z" />
    <glyph glyph-name="dieresistonosgreek" unicode="&#x385;" horiz-adv-x="898" 
d="M249 1235q-27 0 -45.5 19t-18.5 46t18.5 46t45.5 19t45.5 -19t18.5 -46t-18.5 -46t-45.5 -19zM647 1235q-26 0 -44.5 19t-18.5 46t18.5 46t44.5 19q28 0 46.5 -19t18.5 -46t-18.5 -46t-46.5 -19zM394 1217l38 299h93l-62 -299h-69z" />
    <glyph glyph-name="Alphatonosgreek" unicode="&#x386;" horiz-adv-x="1182" 
d="M147 0h-86l487 1360h86l488 -1360h-87l-161 458h-567zM593 1259h-4l-258 -731h519zM167 1061l78 299h93l-102 -299h-69z" />
    <glyph glyph-name="anoteleia" unicode="&#x387;" horiz-adv-x="462" 
d="M153 957q0 32 23 55t55 23t55 -23t23 -55t-23 -54.5t-55 -22.5t-55 22.5t-23 54.5z" />
    <glyph glyph-name="Epsilontonosgreek" unicode="&#x388;" horiz-adv-x="1253" 
d="M53 1061l78 299h93l-102 -299h-69zM1126 75v-75h-776v1360h776v-76h-694v-550h660v-75h-660v-584h694z" />
    <glyph glyph-name="Etatonosgreek" unicode="&#x389;" horiz-adv-x="1495" 
d="M53 1061l78 299h93l-102 -299h-69zM1304 0h-82v676h-789v-676h-82v1360h82v-609h789v609h82v-1360z" />
    <glyph glyph-name="Iotatonosgreek" unicode="&#x38a;" horiz-adv-x="653" 
d="M447 0h-81v1360h81v-1360zM53 1061l78 299h93l-102 -299h-69z" />
    <glyph glyph-name="Omicrontonosgreek" unicode="&#x38c;" horiz-adv-x="1419" 
d="M326 806v-256q0 -232 118 -369.5t321 -137.5t320.5 137.5t117.5 369.5v256q0 231 -118.5 370.5t-319.5 139.5t-320 -139.5t-119 -370.5zM245 556v244q0 271 138 431t382 160t382 -160.5t138 -432.5v-242q0 -271 -138 -429t-383 -158t-382 158t-137 429zM53 1061l78 299
h93l-102 -299h-69z" />
    <glyph glyph-name="Upsilontonosgreek" unicode="&#x38e;" horiz-adv-x="1404" 
d="M53 1061l78 299h93l-102 -299h-69zM896 0h-81v607l-470 753h96l412 -668h5l413 668h94l-469 -751v-609z" />
    <glyph glyph-name="Omegatonosgreek" unicode="&#x38f;" horiz-adv-x="1423" 
d="M862 0v100q146 43 237.5 189.5t91.5 337.5v183q0 228 -119.5 367t-319.5 139q-202 0 -321 -139t-119 -367v-183q0 -190 91 -336.5t238 -190.5v-100h-426v73h333v6q-135 49 -226 197t-91 357v171q0 273 140 430t381 157t380.5 -157t139.5 -430v-171q0 -208 -90.5 -355.5
t-228.5 -198.5v-6h335v-73h-426zM53 1061l78 299h93l-102 -299h-69z" />
    <glyph glyph-name="iotadieresistonosgreek" unicode="&#x390;" horiz-adv-x="551" 
d="M164 1035h80v-814q0 -93 41 -127t142 -34q48 0 88 7v-68q-47 -9 -103 -9q-141 0 -194.5 54t-53.5 193v798zM24 1235q-27 0 -45.5 19t-18.5 46t18.5 46t45.5 19t45.5 -19t18.5 -46t-18.5 -46t-45.5 -19zM422 1235q-26 0 -44.5 19t-18.5 46t18.5 46t44.5 19q28 0 46.5 -19
t18.5 -46t-18.5 -46t-46.5 -19zM169 1217l38 299h93l-62 -299h-69z" />
    <glyph glyph-name="Alphagreek" unicode="&#x391;" horiz-adv-x="1180" 
d="M146 0h-86l487 1360h86l488 -1360h-87l-161 458h-567zM592 1259h-4l-258 -731h519z" />
    <glyph glyph-name="Betagreek" unicode="&#x392;" horiz-adv-x="1208" 
d="M190 0v1360h441q185 0 290 -88.5t105 -244.5q0 -70 -22.5 -128.5t-59 -95.5t-75 -59.5t-77.5 -31.5v-5q63 -7 117 -30t98 -63t69.5 -103.5t25.5 -142.5q0 -170 -116.5 -269t-331.5 -99h-464zM272 1284v-548h338q146 0 239 71t93 209q0 128 -85 198t-239 70h-346zM272 661
v-586h361q188 0 286.5 76.5t98.5 215.5q0 144 -100.5 219t-258.5 75h-387z" />
    <glyph glyph-name="Gammagreek" unicode="&#x393;" horiz-adv-x="1018" 
d="M272 0h-82v1360h745v-76h-663v-1284z" />
    <glyph glyph-name="Deltagreek" unicode="&#x394;" horiz-adv-x="1217" 
d="M80 0v57l487 1303h86l484 -1299v-61h-1057zM608 1257l-439 -1186h880l-437 1186h-4z" />
    <glyph glyph-name="Epsilongreek" unicode="&#x395;" horiz-adv-x="1093" 
d="M966 75v-75h-776v1360h776v-76h-694v-550h660v-75h-660v-584h694z" />
    <glyph glyph-name="Zetagreek" unicode="&#x396;" horiz-adv-x="1152" 
d="M96 0v65l850 1217v4h-823v74h924v-65l-849 -1217v-5h853v-73h-955z" />
    <glyph glyph-name="Etagreek" unicode="&#x397;" horiz-adv-x="1334" 
d="M1143 0h-82v676h-789v-676h-82v1360h82v-609h789v609h82v-1360z" />
    <glyph glyph-name="Thetagreek" unicode="&#x398;" horiz-adv-x="1314" 
d="M929 653h-545v74h545v-74zM216 806v-256q0 -231 117.5 -369t323.5 -138t323.5 138t117.5 369v256q0 232 -118.5 371t-322.5 139t-322.5 -139.5t-118.5 -370.5zM135 556v244q0 271 138 431t384 160q247 0 384.5 -160.5t137.5 -432.5v-242q0 -270 -138 -428.5t-385 -158.5
t-384 158.5t-137 428.5z" />
    <glyph glyph-name="Iotagreek" unicode="&#x399;" horiz-adv-x="493" 
d="M287 0h-81v1360h81v-1360z" />
    <glyph glyph-name="Kappagreek" unicode="&#x39a;" horiz-adv-x="1134" 
d="M1060 1360l-558 -604l590 -756h-106l-544 700l-170 -179v-521h-82v1360h82v-730h3l681 730h104z" />
    <glyph glyph-name="Lambdagreek" unicode="&#x39b;" horiz-adv-x="1140" 
d="M568 1255l-422 -1255h-86l467 1360h86l468 -1360h-87l-422 1255h-4z" />
    <glyph glyph-name="Mugreek" unicode="&#x39c;" horiz-adv-x="1575" 
d="M267 0h-75v1360h81l512 -1160h4l514 1160h80v-1360h-75v1177h-4l-478 -1072h-77l-478 1072h-4v-1177z" />
    <glyph glyph-name="Nugreek" unicode="&#x39d;" horiz-adv-x="1334" 
d="M271 0h-81v1360h85l784 -1216h4v1216h80v-1360h-84l-784 1216h-4v-1216z" />
    <glyph glyph-name="Xigreek" unicode="&#x39e;" horiz-adv-x="1131" 
d="M127 1282v78h877v-78h-877zM204 657v78h723v-78h-723zM127 0v78h877v-78h-877z" />
    <glyph glyph-name="Omicrongreek" unicode="&#x39f;" horiz-adv-x="1310" 
d="M216 806v-256q0 -232 118 -369.5t321 -137.5t320.5 137.5t117.5 369.5v256q0 231 -118.5 370.5t-319.5 139.5t-320 -139.5t-119 -370.5zM135 556v244q0 271 138 431t382 160t382 -160.5t138 -432.5v-242q0 -271 -138 -429t-383 -158t-382 158t-137 429z" />
    <glyph glyph-name="Pigreek" unicode="&#x3a0;" horiz-adv-x="1314" 
d="M1123 0h-82v1285h-769v-1285h-82v1360h933v-1360z" />
    <glyph glyph-name="Rhogreek" unicode="&#x3a1;" horiz-adv-x="1141" 
d="M190 1360h439q200 0 311.5 -107.5t111.5 -293.5t-111 -292.5t-312 -106.5h-357v-560h-82v1360zM272 1284v-650h327q178 0 273.5 82t95.5 243q0 154 -89.5 239.5t-252.5 85.5h-354z" />
    <glyph glyph-name="Sigmagreek" unicode="&#x3a3;" horiz-adv-x="1120" 
d="M96 65l440 623l-419 607v65h901v-74h-796v-4l403 -585v-13l-428 -606v-5h822v-73h-923v65z" />
    <glyph glyph-name="Taugreek" unicode="&#x3a4;" horiz-adv-x="1067" 
d="M575 0h-81v1285h-444v75h967v-75h-442v-1285z" />
    <glyph glyph-name="Upsilongreek" unicode="&#x3a5;" horiz-adv-x="1097" 
d="M590 0h-81v607l-470 753h96l412 -668h5l413 668h94l-469 -751v-609z" />
    <glyph glyph-name="Phigreek" unicode="&#x3a6;" horiz-adv-x="1522" 
d="M800 -49h-78v116q-281 1 -434 158.5t-153 421.5v66q0 260 152 417t435 161v115h78v-115q282 -4 434.5 -159.5t152.5 -418.5v-66q0 -265 -153.5 -422t-433.5 -158v-116zM722 140v1078q-243 -3 -375 -137.5t-132 -380.5v-40q0 -250 132.5 -383.5t374.5 -136.5zM800 140
q242 3 374.5 136.5t132.5 382.5v41q0 246 -132 380.5t-375 137.5v-1078z" />
    <glyph glyph-name="Chigreek" unicode="&#x3a7;" horiz-adv-x="1144" 
d="M1089 1360l-469 -683l464 -677h-98l-414 611h-6l-414 -611h-95l465 680l-465 680h98l417 -613h5l417 613h95z" />
    <glyph glyph-name="Psigreek" unicode="&#x3a8;" horiz-adv-x="1427" 
d="M672 0v333q-505 3 -505 497v530h82v-528q0 -223 102.5 -323.5t320.5 -101.5v953h82v-953q219 1 322 101t103 324v528h82v-530q0 -252 -128 -373.5t-379 -123.5v-333h-82z" />
    <glyph glyph-name="Omegagreek" unicode="&#x3a9;" horiz-adv-x="1343" 
d="M782 0v100q146 43 237.5 189.5t91.5 337.5v183q0 228 -119.5 367t-319.5 139q-202 0 -321 -139t-119 -367v-183q0 -190 91 -336.5t238 -190.5v-100h-426v73h333v6q-135 49 -226 197t-91 357v171q0 273 140 430t381 157t380.5 -157t139.5 -430v-171q0 -208 -90.5 -355.5
t-228.5 -198.5v-6h335v-73h-426z" />
    <glyph glyph-name="Iotadieresisgreek" unicode="&#x3aa;" horiz-adv-x="493" 
d="M287 0h-81v1360h81v-1360zM100 1511q-26 0 -44.5 18.5t-18.5 44.5q0 28 18.5 46t44.5 18t44.5 -18t18.5 -46q0 -26 -18.5 -44.5t-44.5 -18.5zM390 1511q-26 0 -44.5 18.5t-18.5 44.5q0 28 18.5 46t44.5 18t44.5 -18t18.5 -46q0 -26 -18.5 -44.5t-44.5 -18.5z" />
    <glyph glyph-name="Upsilondieresisgreek" unicode="&#x3ab;" horiz-adv-x="1097" 
d="M590 0h-81v607l-470 753h96l412 -668h5l413 668h94l-469 -751v-609zM402 1511q-26 0 -44.5 18.5t-18.5 44.5q0 28 18.5 46t44.5 18t44.5 -18t18.5 -46q0 -26 -18.5 -44.5t-44.5 -18.5zM692 1511q-26 0 -44.5 18.5t-18.5 44.5q0 28 18.5 46t44.5 18t44.5 -18t18.5 -46
q0 -26 -18.5 -44.5t-44.5 -18.5z" />
    <glyph glyph-name="alphatonosgreek" unicode="&#x3ac;" horiz-adv-x="1156" 
d="M510 -18q-173 0 -279.5 121.5t-106.5 326.5v177q0 202 108.5 323.5t278.5 121.5q124 0 210.5 -61t118.5 -155h4v199h79v-814q0 -88 24.5 -122.5t83.5 -34.5q24 0 58 4v-72q-37 -5 -67 -5q-90 0 -133.5 49t-45.5 150v14h-4q-25 -92 -114.5 -157t-214.5 -65zM516 56
q148 0 237.5 107t89.5 274v158q0 168 -89.5 275.5t-239.5 107.5q-139 0 -224 -101.5t-85 -283.5v-153q0 -178 86.5 -281t224.5 -103zM483 1201l78 299h93l-102 -299h-69z" />
    <glyph glyph-name="epsilontonosgreek" unicode="&#x3ad;" horiz-adv-x="1038" 
d="M513 1201l78 299h93l-102 -299h-69zM510 -18q-180 0 -282.5 77.5t-102.5 219.5q0 94 51 160t143 88v4q-79 19 -126.5 80.5t-47.5 151.5q0 138 98 213.5t270 75.5q180 0 285 -75t123 -220h-80q-34 221 -328 221q-140 0 -213.5 -57.5t-73.5 -159.5q0 -193 272 -193h128v-73
h-132q-140 0 -214 -56t-74 -157q0 -107 80.5 -166.5t227.5 -59.5q143 0 231 61t113 172h79q-28 -145 -141.5 -226t-285.5 -81z" />
    <glyph glyph-name="etatonosgreek" unicode="&#x3ae;" horiz-adv-x="1177" 
d="M251 0v799q0 99 -22 136t-83 37q-25 0 -55 -4v71q32 6 68 6q86 0 126 -45.5t45 -145.5v-17h4q33 97 121.5 156t208.5 59q159 0 257 -99.5t98 -273.5v-1016h-81v1005q0 136 -76.5 222.5t-208.5 86.5q-141 0 -231 -97t-90 -250v-630h-81zM462 1201l78 299h93l-102 -299h-69
z" />
    <glyph glyph-name="iotatonosgreek" unicode="&#x3af;" horiz-adv-x="551" 
d="M164 1035h80v-814q0 -93 41 -127t142 -34q48 0 88 7v-68q-47 -9 -103 -9q-141 0 -194.5 54t-53.5 193v798zM175 1201l78 299h93l-102 -299h-69z" />
    <glyph glyph-name="upsilondieresistonosgreek" unicode="&#x3b0;" horiz-adv-x="1071" 
d="M295 1235q-27 0 -45.5 19t-18.5 46t18.5 46t45.5 19t45.5 -19t18.5 -46t-18.5 -46t-45.5 -19zM693 1235q-26 0 -44.5 19t-18.5 46t18.5 46t44.5 19q28 0 46.5 -19t18.5 -46t-18.5 -46t-46.5 -19zM440 1217l38 299h93l-62 -299h-69zM520 -18q-177 0 -269 100t-92 298v655
h81v-638q0 -172 68 -256.5t214 -84.5q157 0 242 108.5t85 317.5v44q0 288 -101 509h85q42 -92 69 -233t27 -277v-40q0 -245 -109.5 -374t-299.5 -129z" />
    <glyph glyph-name="alphagreek" unicode="&#x3b1;" horiz-adv-x="1156" 
d="M510 -18q-173 0 -279.5 121.5t-106.5 326.5v177q0 202 108.5 323.5t278.5 121.5q124 0 210.5 -61t118.5 -155h4v199h79v-814q0 -88 24.5 -122.5t83.5 -34.5q24 0 58 4v-72q-37 -5 -67 -5q-90 0 -133.5 49t-45.5 150v14h-4q-25 -92 -114.5 -157t-214.5 -65zM516 56
q148 0 237.5 107t89.5 274v158q0 168 -89.5 275.5t-239.5 107.5q-139 0 -224 -101.5t-85 -283.5v-153q0 -178 86.5 -281t224.5 -103z" />
    <glyph glyph-name="betagreek" unicode="&#x3b2;" horiz-adv-x="1130" 
d="M171 -336v1365q0 207 105 315.5t279 108.5q167 0 265 -95t98 -253q0 -116 -54 -198.5t-158 -121.5v-4q150 -34 225.5 -134t75.5 -253q0 -184 -112 -298t-289 -114q-127 0 -217.5 53.5t-132.5 155.5h-4v-527h-81zM602 56q146 0 235 95.5t89 239.5q0 167 -100.5 258
t-297.5 91h-92v73h97q154 0 230 75.5t76 212.5q0 127 -76.5 203t-207.5 76q-148 0 -226 -97.5t-78 -281.5v-583q0 -164 96.5 -263t254.5 -99z" />
    <glyph glyph-name="gammagreek" unicode="&#x3b3;" horiz-adv-x="995" 
d="M424 -336v330l-361 1041h87l321 -953h6q174 248 247 424t73 344q0 112 -21 185h82q20 -68 20 -187q0 -191 -83.5 -381.5t-289.5 -470.5v-332h-81z" />
    <glyph glyph-name="deltagreek" unicode="&#x3b4;" horiz-adv-x="1081" 
d="M536 -18q-187 0 -302.5 126t-115.5 338v45q0 199 101 325.5t276 139.5v3q-107 50 -157 112t-50 141q0 108 81.5 174.5t221.5 66.5q173 0 278 -75v-75q-109 76 -280 76q-106 0 -163.5 -45.5t-57.5 -118.5q0 -71 51.5 -123.5t185.5 -107.5q192 -80 272.5 -193.5
t80.5 -306.5v-26q0 -222 -117.5 -349t-304.5 -127zM538 56q156 0 248 107t92 312q0 199 -93 308t-248 109q-157 0 -248.5 -107t-91.5 -315q0 -197 91 -305.5t250 -108.5z" />
    <glyph glyph-name="epsilongreek" unicode="&#x3b5;" horiz-adv-x="1038" 
d="M510 -18q-180 0 -282.5 77.5t-102.5 219.5q0 94 51 160t143 88v4q-79 19 -126.5 80.5t-47.5 151.5q0 138 98 213.5t270 75.5q180 0 285 -75t123 -220h-80q-34 221 -328 221q-140 0 -213.5 -57.5t-73.5 -159.5q0 -193 272 -193h128v-73h-132q-140 0 -214 -56t-74 -157
q0 -107 80.5 -166.5t227.5 -59.5q143 0 231 61t113 172h79q-28 -145 -141.5 -226t-285.5 -81z" />
    <glyph glyph-name="zetagreek" unicode="&#x3b6;" horiz-adv-x="848" 
d="M657 -353q68 89 68 171q0 71 -46 118t-174 106q-216 100 -304 210t-88 288q0 230 148 444.5t403 373.5v4h-486v73h624v-74q-294 -176 -451.5 -385.5t-157.5 -429.5q0 -158 67 -245t262 -180q168 -81 225.5 -139.5t57.5 -151.5q0 -112 -85 -216z" />
    <glyph glyph-name="etagreek" unicode="&#x3b7;" horiz-adv-x="1177" 
d="M251 0v799q0 99 -22 136t-83 37q-25 0 -55 -4v71q32 6 68 6q86 0 126 -45.5t45 -145.5v-17h4q33 97 121.5 156t208.5 59q159 0 257 -99.5t98 -273.5v-1016h-81v1005q0 136 -76.5 222.5t-208.5 86.5q-141 0 -231 -97t-90 -250v-630h-81z" />
    <glyph glyph-name="thetagreek" unicode="&#x3b8;" horiz-adv-x="1093" 
d="M546 -18q-211 0 -317 168t-106 524v88q0 356 106 523.5t317 167.5t317.5 -167.5t106.5 -523.5v-88q0 -357 -106.5 -524.5t-317.5 -167.5zM546 58q175 0 258.5 150.5t83.5 476.5h-684q0 -326 83.5 -476.5t258.5 -150.5zM205 759h683q-1 321 -84 470.5t-258 149.5
t-257.5 -149.5t-83.5 -470.5z" />
    <glyph glyph-name="iotagreek" unicode="&#x3b9;" horiz-adv-x="551" 
d="M164 1035h80v-814q0 -93 41 -127t142 -34q48 0 88 7v-68q-47 -9 -103 -9q-141 0 -194.5 54t-53.5 193v798z" />
    <glyph glyph-name="kappagreek" unicode="&#x3ba;" horiz-adv-x="1069" 
d="M252 268v-268h-81v1035h81v-651h3l436 537q60 74 101 99t99 25q30 0 63 -6v-71q-28 4 -58 4q-40 0 -72 -21.5t-82 -82.5l-184 -227l431 -641h-91l-391 580z" />
    <glyph glyph-name="lambdagreek" unicode="&#x3bb;" horiz-adv-x="1027" 
d="M65 0l383 973l-70 202q-45 125 -84.5 165t-115.5 40q-29 0 -56 -4v72q32 5 63 5q101 0 157.5 -53.5t107.5 -200.5l363 -1052q16 -47 41.5 -65t72.5 -18q15 0 49 4v-72q-35 -5 -58 -5q-74 0 -112 26.5t-61 95.5l-256 746h-5l-329 -859h-90z" />
    <glyph glyph-name="mugreek" unicode="&#x3bc;" horiz-adv-x="1166" 
d="M171 -336v1371h81v-686q0 -132 73.5 -212t202.5 -80q148 0 238 100t90 255v623h81v-814q0 -89 23.5 -123t82.5 -34q34 0 58 4v-72q-37 -5 -68 -5q-87 0 -130 46.5t-44 150.5l-1 17h-4q-33 -100 -119 -161.5t-209 -61.5q-89 0 -160 37t-110 109h-4v-464h-81z" />
    <glyph glyph-name="nugreek" unicode="&#x3bd;" horiz-adv-x="995" 
d="M422 0l-359 1035h87l321 -953h6q174 248 247 424t73 344q0 112 -21 185h82q20 -68 20 -187q0 -189 -82.5 -377t-287.5 -471h-86z" />
    <glyph glyph-name="xigreek" unicode="&#x3be;" horiz-adv-x="877" 
d="M669 -353q68 91 68 171q0 70 -46 117.5t-177 106.5q-120 54 -195.5 99.5t-119.5 94.5t-60 98t-16 116q0 123 78.5 210.5t221.5 107.5v4q-241 62 -241 293q0 121 74 196t204 97v4h-285v73h638v-67l-111 -9q-227 -19 -334.5 -90t-107.5 -202q0 -255 378 -255h105v-72h-112
q-214 0 -321 -75.5t-107 -204.5q0 -117 64.5 -182.5t273.5 -161.5q162 -75 219 -135t57 -150q0 -113 -85 -217z" />
    <glyph glyph-name="omicrongreek" unicode="&#x3bf;" horiz-adv-x="1065" 
d="M532 -18q-183 0 -300 122.5t-117 337.5v147q0 217 116.5 340t300.5 123q88 0 164 -31.5t132.5 -89.5t89 -146.5t32.5 -195.5v-147q0 -215 -117.5 -337.5t-300.5 -122.5zM533 56q147 0 241 102.5t94 292.5v130q0 188 -95 293t-241 105q-147 0 -241.5 -104t-94.5 -294v-130
q0 -189 94 -292t243 -103z" />
    <glyph glyph-name="pigreek" unicode="&#x3c0;" horiz-adv-x="1243" 
d="M283 0v961h-231v74h1126v-74h-235v-737q0 -87 24 -123.5t86 -36.5q26 0 60 4v-71q-30 -6 -73 -6q-96 0 -137 54.5t-41 167.5v748h-498v-961h-81z" />
    <glyph glyph-name="rhogreek" unicode="&#x3c1;" horiz-adv-x="1081" 
d="M566 56q135 0 223 103.5t88 285.5v150q0 182 -90.5 282.5t-227.5 100.5q-155 0 -239 -102.5t-84 -285.5v-148q0 -170 93.5 -278t236.5 -108zM156 -336v935q0 212 109 332.5t295 120.5q176 0 287 -120.5t111 -326.5v-175q0 -203 -109.5 -325.5t-281.5 -122.5
q-117 0 -203.5 60.5t-122.5 152.5h-4v-531h-81z" />
    <glyph glyph-name="sigmafinalgreek" unicode="&#x3c2;" horiz-adv-x="1033" 
d="M654 -353q69 90 69 171q0 72 -44.5 118t-171.5 106q-217 100 -300.5 209t-83.5 284v60q0 214 113 335.5t296 121.5q164 0 270 -92t114 -222h-79q-17 103 -97 171.5t-205 68.5q-150 0 -241 -104t-91 -291v-37q0 -159 65.5 -247t254.5 -178q167 -80 223 -139t56 -152
q0 -111 -84 -216z" />
    <glyph glyph-name="sigmagreek" unicode="&#x3c3;" horiz-adv-x="1155" 
d="M539 -18q-190 0 -303 126.5t-113 352.5v84q0 238 111 364t320 126h537v-74h-311v-4q186 -119 186 -421v-80q0 -232 -116 -353t-311 -121zM541 56q165 0 255 106.5t90 308.5v68q0 201 -86.5 311t-250.5 110q-175 0 -260 -111.5t-85 -316.5v-59q0 -199 88 -308t249 -109z
" />
    <glyph glyph-name="taugreek" unicode="&#x3c4;" horiz-adv-x="939" 
d="M44 1035h839v-74h-398v-740q0 -93 40.5 -127t141.5 -34q53 0 93 7v-68q-47 -9 -108 -9q-141 0 -194.5 54.5t-53.5 192.5v724h-360v74z" />
    <glyph glyph-name="upsilongreek" unicode="&#x3c5;" horiz-adv-x="1071" 
d="M520 -18q-177 0 -269 100t-92 298v655h81v-638q0 -172 68 -256.5t214 -84.5q157 0 242 108.5t85 317.5v44q0 288 -101 509h85q42 -92 69 -233t27 -277v-40q0 -245 -109.5 -374t-299.5 -129z" />
    <glyph glyph-name="phigreek" unicode="&#x3c6;" horiz-adv-x="1312" 
d="M616 -336v318q-247 7 -374 137t-127 368v63q0 236 128.5 366t372.5 136v235h80v-235q247 -6 374 -137.5t127 -364.5v-63q0 -235 -126 -366.5t-375 -138.5v-318h-80zM616 56v923q-216 -7 -318 -118.5t-102 -324.5v-35q0 -217 103 -327.5t317 -117.5zM696 56
q213 5 316.5 116t103.5 329v35q0 433 -420 443v-923z" />
    <glyph glyph-name="chigreek" unicode="&#x3c7;" horiz-adv-x="1042" 
d="M81 -336l375 697l-248 508q-31 64 -56 83.5t-72 19.5q-19 0 -47 -4l-3 71q34 6 61 6q66 0 103.5 -26t72.5 -101l233 -483h5l315 600h90l-363 -676l260 -531q26 -55 54 -77.5t71 -22.5q27 0 55 4v-72q-33 -5 -62 -5q-67 0 -106 28.5t-76 104.5l-240 495h-5l-327 -619h-90z
" />
    <glyph glyph-name="psigreek" unicode="&#x3c8;" horiz-adv-x="1325" 
d="M614 -336v318q-237 2 -346 96t-109 317v640h81v-639q0 -186 88.5 -263t285.5 -77v1231h80v-1231q208 5 308.5 105.5t100.5 325.5v43q0 281 -101 505h85q42 -91 69 -232t27 -272v-41q0 -257 -122 -380.5t-367 -127.5v-318h-80z" />
    <glyph glyph-name="omegagreek" unicode="&#x3c9;" horiz-adv-x="1471" 
d="M776 377q0 -321 235 -321q238 0 238 386v37q0 169 -51.5 315.5t-135.5 240.5h88q77 -79 128.5 -235t51.5 -319v-41q0 -236 -83.5 -347t-235.5 -111q-105 0 -176.5 53.5t-97.5 162.5h-3q-26 -109 -97.5 -162.5t-176.5 -53.5q-319 0 -319 458v42q0 162 51.5 318t128.5 235
h88q-84 -94 -135.5 -240.5t-51.5 -315.5v-36q0 -387 238 -387q235 0 235 321v334h81v-334z" />
    <glyph glyph-name="iotadieresisgreek" unicode="&#x3ca;" horiz-adv-x="551" 
d="M164 1035h80v-814q0 -93 41 -127t142 -34q48 0 88 7v-68q-47 -9 -103 -9q-141 0 -194.5 54t-53.5 193v798zM63 1235q-27 0 -45.5 19t-18.5 46t18.5 46t45.5 19t45.5 -19t18.5 -46t-18.5 -46t-45.5 -19zM362 1235q-27 0 -45.5 19t-18.5 46t18.5 46t45.5 19t45.5 -19
t18.5 -46t-18.5 -46t-45.5 -19z" />
    <glyph glyph-name="upsilondieresisgreek" unicode="&#x3cb;" horiz-adv-x="1071" 
d="M356 1235q-27 0 -45.5 19t-18.5 46t18.5 46t45.5 19t45.5 -19t18.5 -46t-18.5 -46t-45.5 -19zM655 1235q-27 0 -45.5 19t-18.5 46t18.5 46t45.5 19t45.5 -19t18.5 -46t-18.5 -46t-45.5 -19zM520 -18q-177 0 -269 100t-92 298v655h81v-638q0 -172 68 -256.5t214 -84.5
q157 0 242 108.5t85 317.5v44q0 288 -101 509h85q42 -92 69 -233t27 -277v-40q0 -245 -109.5 -374t-299.5 -129z" />
    <glyph glyph-name="omicrontonosgreek" unicode="&#x3cc;" horiz-adv-x="1065" 
d="M532 -18q-183 0 -300 122.5t-117 337.5v147q0 217 116.5 340t300.5 123q88 0 164 -31.5t132.5 -89.5t89 -146.5t32.5 -195.5v-147q0 -215 -117.5 -337.5t-300.5 -122.5zM533 56q147 0 241 102.5t94 292.5v130q0 188 -95 293t-241 105q-147 0 -241.5 -104t-94.5 -294v-130
q0 -189 94 -292t243 -103zM503 1201l78 299h93l-102 -299h-69z" />
    <glyph glyph-name="upsilontonosgreek" unicode="&#x3cd;" horiz-adv-x="1071" 
d="M458 1201l78 299h93l-102 -299h-69zM520 -18q-177 0 -269 100t-92 298v655h81v-638q0 -172 68 -256.5t214 -84.5q157 0 242 108.5t85 317.5v44q0 288 -101 509h85q42 -92 69 -233t27 -277v-40q0 -245 -109.5 -374t-299.5 -129z" />
    <glyph glyph-name="omegatonosgreek" unicode="&#x3ce;" horiz-adv-x="1471" 
d="M776 377q0 -321 235 -321q238 0 238 386v37q0 169 -51.5 315.5t-135.5 240.5h88q77 -79 128.5 -235t51.5 -319v-41q0 -236 -83.5 -347t-235.5 -111q-105 0 -176.5 53.5t-97.5 162.5h-3q-26 -109 -97.5 -162.5t-176.5 -53.5q-319 0 -319 458v42q0 162 51.5 318t128.5 235
h88q-84 -94 -135.5 -240.5t-51.5 -315.5v-36q0 -387 238 -387q235 0 235 321v334h81v-334zM712 1201l78 299h93l-102 -299h-69z" />
    <glyph glyph-name="Iocyrillic" unicode="&#x401;" horiz-adv-x="1113" 
d="M441 1511q-26 0 -44.5 18.5t-18.5 44.5q0 28 18 46t45 18t45 -18t18 -46q0 -26 -18.5 -44.5t-44.5 -18.5zM731 1511q-26 0 -44.5 18.5t-18.5 44.5q0 28 18 46t45 18t45 -18t18 -46q0 -26 -18.5 -44.5t-44.5 -18.5zM976 75v-75h-776v1360h776v-76h-694v-550h660v-75h-660
v-584h694z" />
    <glyph glyph-name="Djecyrillic" unicode="&#x402;" horiz-adv-x="1527" 
d="M604 700q55 51 156 83.5t202 32.5q202 0 313.5 -112t111.5 -314q0 -179 -106.5 -289.5t-278.5 -110.5q-68 0 -100 10v72q30 -8 98 -8q134 0 219.5 91t85.5 236q0 170 -88.5 261t-254.5 91q-102 0 -204.5 -36t-157.5 -91v-616h-81v1285h-459v75h999v-75h-459v-585h4z" />
    <glyph glyph-name="Gjecyrillic" unicode="&#x403;" horiz-adv-x="1034" 
d="M611 1512h-72l230 294h89zM282 0h-82v1360h758v-76h-676v-1284z" />
    <glyph glyph-name="Ecyrillic" unicode="&#x404;" horiz-adv-x="1267" 
d="M1057 381h80v-3q0 -78 -32.5 -151t-91 -130.5t-150.5 -92.5t-203 -35q-131 0 -231.5 45t-161.5 126t-91.5 186.5t-30.5 233.5v237q0 100 19.5 188.5t60.5 163t101 128.5t144 84t186 30q113 0 206 -38t149 -99t86.5 -133t30.5 -145v-3h-80q0 59 -26 118.5t-73.5 110
t-124.5 82.5t-168 32q-106 0 -189 -40t-135 -110.5t-78.5 -162t-26.5 -198.5v-65h608v-73h-608v-115q0 -108 26 -198.5t77.5 -161t136 -110t194.5 -39.5q179 0 287.5 97.5t108.5 240.5z" />
    <glyph glyph-name="Dzecyrillic" unicode="&#x405;" horiz-adv-x="1175" 
d="M116 345h83q2 -51 24 -100.5t65.5 -96t121.5 -75.5t179 -29q169 0 273.5 83.5t104.5 214.5q0 120 -76 183.5t-241 107.5l-178 48q-311 83 -311 345q0 166 120 266t316 100q194 0 310.5 -97.5t118.5 -246.5h-84q-2 49 -22.5 95t-60 86t-108 64t-155.5 24q-162 0 -256 -79
t-94 -210q0 -110 64.5 -173t198.5 -99l172 -47q94 -26 158 -54t114.5 -69.5t74 -100.5t23.5 -138q0 -174 -131 -276t-340 -102q-99 0 -180 24.5t-132.5 63.5t-86.5 89.5t-50 100t-15 98.5z" />
    <glyph glyph-name="Icyrillic" unicode="&#x406;" horiz-adv-x="483" 
d="M282 0h-81v1360h81v-1360z" />
    <glyph glyph-name="Yicyrillic" unicode="&#x407;" horiz-adv-x="509" 
d="M296 0h-81v1360h81v-1360zM109 1511q-26 0 -44.5 18.5t-18.5 44.5q0 28 18 46t45 18t45 -18t18 -46q0 -26 -18.5 -44.5t-44.5 -18.5zM399 1511q-26 0 -44.5 18.5t-18.5 44.5q0 28 18 46t45 18t45 -18t18 -46q0 -26 -18.5 -44.5t-44.5 -18.5z" />
    <glyph glyph-name="Jecyrillic" unicode="&#x408;" horiz-adv-x="949" 
d="M69 295h81q0 -41 14 -80.5t42.5 -76.5t82.5 -60t125 -23q125 0 198 77.5t73 230.5v997h82v-998q0 -188 -94.5 -285t-260.5 -97q-89 0 -158 29.5t-108 77t-58 100.5t-19 108z" />
    <glyph glyph-name="Ljecyrillic" unicode="&#x409;" horiz-adv-x="1974" 
d="M395 902q-3 -133 -5.5 -222t-9 -186.5t-15.5 -159t-24 -124.5t-35.5 -99t-49 -66t-66 -42t-84.5 -12q-9 0 -18 1t-15 2.5t-11 2.5t-7 2l-2 1v79q21 -9 51 -9q33 0 59.5 11.5t47.5 37.5t36.5 60.5t26.5 89.5t18.5 115t12.5 145.5t7.5 172t3.5 204.5l6 454h771v-555h356
q201 0 312.5 -107.5t111.5 -293.5q0 -187 -111.5 -295.5t-312.5 -108.5h-438v1285h-610zM1446 730h-353v-655h353q163 0 253 86t90 242q0 154 -90 240.5t-253 86.5z" />
    <glyph glyph-name="Njecyrillic" unicode="&#x40a;" horiz-adv-x="2034" 
d="M1071 776v584h82v-584h357q201 0 312 -102.5t111 -283.5q0 -183 -111 -286.5t-312 -103.5h-439v702h-789v-702h-82v1360h82v-584h789zM1507 701h-354v-626h354q163 0 252.5 82t89.5 232q0 149 -89.5 230.5t-252.5 81.5z" />
    <glyph glyph-name="Tshecyrillic" unicode="&#x40b;" horiz-adv-x="1568" 
d="M604 700q55 51 156 83.5t202 32.5q197 0 306 -114.5t109 -321.5v-380h-82v381q0 176 -85.5 269t-247.5 93q-102 0 -204.5 -36t-157.5 -91v-616h-81v1285h-459v75h999v-75h-459v-585h4z" />
    <glyph glyph-name="Kjecyrillic" unicode="&#x40c;" horiz-adv-x="1176" 
d="M629 1512h-72l230 294h89zM1010 0l-722 662h-6v-662h-82v1360h82v-623h6l669 623h112l-713 -658l768 -702h-114z" />
    <glyph glyph-name="Ushortcyrillic" unicode="&#x40e;" horiz-adv-x="1086" 
d="M760 1741h68q0 -99 -69.5 -165t-200.5 -66q-132 0 -204.5 66t-72.5 165h68q0 -80 55.5 -126t153.5 -46t150 45.5t52 126.5zM951 1360h86l-432 -999q-32 -73 -57.5 -124t-59.5 -100.5t-69 -79.5t-80 -48t-98 -18q-33 0 -69 9v80q23 -9 69 -9q85 0 146 67t126 207
l-464 1015h90l415 -917h3z" />
    <glyph glyph-name="Dzhecyrillic" unicode="&#x40f;" horiz-adv-x="1344" 
d="M1061 1360h82v-1360h-434v-286h-74v286h-435v1360h82v-1286h779v1286z" />
    <glyph glyph-name="Acyrillic" unicode="&#x410;" horiz-adv-x="1200" 
d="M156 0h-86l487 1360h86l488 -1360h-87l-161 458h-567zM602 1259h-4l-258 -731h519z" />
    <glyph glyph-name="Becyrillic" unicode="&#x411;" horiz-adv-x="1173" 
d="M282 1284v-504h354q201 0 312.5 -104t111.5 -284q0 -182 -111.5 -287t-312.5 -105h-436v1360h760v-76h-678zM282 75h351q163 0 253 83t90 233q0 148 -90 231t-253 83h-351v-630z" />
    <glyph glyph-name="Vecyrillic" unicode="&#x412;" horiz-adv-x="1228" 
d="M200 0v1360h441q185 0 290 -88.5t105 -244.5q0 -70 -22.5 -128.5t-59 -95.5t-75 -59.5t-77.5 -31.5v-5q63 -7 117 -30t98 -63t69.5 -103.5t25.5 -142.5q0 -170 -116.5 -269t-331.5 -99h-464zM282 1284v-548h338q146 0 239 71t93 209q0 128 -85 198t-239 70h-346zM282 661
v-586h361q188 0 286.5 76.5t98.5 215.5q0 144 -100.5 219t-258.5 75h-387z" />
    <glyph glyph-name="Gecyrillic" unicode="&#x413;" horiz-adv-x="1034" 
d="M282 0h-82v1360h758v-76h-676v-1284z" />
    <glyph glyph-name="Decyrillic" unicode="&#x414;" horiz-adv-x="1379" 
d="M1037 74v1211h-632l-12 -391q-13 -424 -37.5 -588t-91.5 -228v-4h773zM117 -286h-73v360h102q39 20 64 52.5t44 86t30 149.5t18 219t12 317l12 462h793v-1286h180v-360h-73v286h-1109v-286z" />
    <glyph glyph-name="Iecyrillic" unicode="&#x415;" horiz-adv-x="1113" 
d="M976 75v-75h-776v1360h776v-76h-694v-550h660v-75h-660v-584h694z" />
    <glyph glyph-name="Zhecyrillic" unicode="&#x416;" horiz-adv-x="1786" 
d="M1010 702l725 -702h-114l-682 662h-6v-662h-82v662h-6l-682 -662h-112l724 701l-671 659h112l629 -623h6v623h82v-623h6l629 623h111z" />
    <glyph glyph-name="Zecyrillic" unicode="&#x417;" horiz-adv-x="1133" 
d="M392 665v73h172q142 0 231 83t89 218q0 120 -88.5 199.5t-238.5 79.5q-79 0 -143.5 -23t-104 -60t-61.5 -80t-23 -87h-81q0 56 26 111.5t74 103.5t130 78t183 30q191 0 301 -99t110 -249q0 -142 -80.5 -231t-187.5 -104v-5q86 -8 155.5 -46.5t115.5 -116t46 -182.5
q0 -173 -125 -281.5t-326 -108.5q-204 0 -325.5 97.5t-123.5 240.5h81q3 -112 105 -188t264 -76q166 0 266 88t100 226q0 150 -98.5 229.5t-272.5 79.5h-170z" />
    <glyph glyph-name="Iicyrillic" unicode="&#x418;" horiz-adv-x="1361" 
d="M1079 0v1217h-4l-795 -1217h-80v1360h82v-1216h5l794 1216h80v-1360h-82z" />
    <glyph glyph-name="Iishortcyrillic" unicode="&#x419;" horiz-adv-x="1361" 
d="M413 1745h68q0 -80 55.5 -126t153.5 -46t150 45.5t52 126.5h68q0 -99 -69.5 -165t-200.5 -66q-132 0 -204.5 66t-72.5 165zM1079 0v1217h-4l-795 -1217h-80v1360h82v-1216h5l794 1216h80v-1360h-82z" />
    <glyph glyph-name="Kacyrillic" unicode="&#x41a;" horiz-adv-x="1176" 
d="M1010 0l-722 662h-6v-662h-82v1360h82v-623h6l669 623h112l-713 -658l768 -702h-114z" />
    <glyph glyph-name="Elcyrillic" unicode="&#x41b;" horiz-adv-x="1298" 
d="M316 906l6 454h776v-1360h-82v1285h-615l-6 -383q-2 -105 -4 -180t-6 -157.5t-9.5 -139.5t-14 -117t-20 -99.5t-27.5 -78.5t-36 -62.5t-45.5 -42t-57 -26.5t-69.5 -8q-14 0 -27 2t-19 5l-7 2v79q21 -9 51 -9q34 0 60.5 11.5t47 38t36 60.5t26.5 89.5t18.5 114.5t12 145.5
t7 172.5t4.5 204z" />
    <glyph glyph-name="Emcyrillic" unicode="&#x41c;" horiz-adv-x="1592" 
d="M276 0h-75v1360h81l512 -1160h4l514 1160h80v-1360h-75v1177h-4l-478 -1072h-77l-478 1072h-4v-1177z" />
    <glyph glyph-name="Encyrillic" unicode="&#x41d;" horiz-adv-x="1354" 
d="M1153 0h-82v676h-789v-676h-82v1360h82v-609h789v609h82v-1360z" />
    <glyph glyph-name="Ocyrillic" unicode="&#x41e;" horiz-adv-x="1330" 
d="M226 806v-256q0 -232 118 -369.5t321 -137.5t320.5 137.5t117.5 369.5v256q0 231 -118.5 370.5t-319.5 139.5t-320 -139.5t-119 -370.5zM145 556v244q0 271 138 431t382 160t382 -160.5t138 -432.5v-242q0 -271 -138 -429t-383 -158t-382 158t-137 429z" />
    <glyph glyph-name="Pecyrillic" unicode="&#x41f;" horiz-adv-x="1341" 
d="M1141 0h-82v1285h-777v-1285h-82v1360h941v-1360z" />
    <glyph glyph-name="Ercyrillic" unicode="&#x420;" horiz-adv-x="1163" 
d="M200 1360h439q200 0 311.5 -107.5t111.5 -293.5t-111 -292.5t-312 -106.5h-357v-560h-82v1360zM282 1284v-650h327q178 0 273.5 82t95.5 243q0 154 -89.5 239.5t-252.5 85.5h-354z" />
    <glyph glyph-name="Escyrillic" unicode="&#x421;" horiz-adv-x="1265" 
d="M227 803v-249q0 -106 25.5 -196.5t76 -162t135.5 -112t195 -40.5q175 0 285 97t111 241h80v-3q0 -171 -132.5 -290t-343.5 -119q-132 0 -232 46t-161 127.5t-91 187.5t-30 233v231q0 126 31 233t92 189t160 128.5t227 46.5q109 0 200.5 -36.5t149.5 -96t89.5 -133
t31.5 -149.5v-3h-80q-1 62 -27.5 122t-74.5 110t-123.5 80.5t-165.5 30.5q-107 0 -190.5 -40.5t-134.5 -111.5t-77 -162.5t-26 -198.5z" />
    <glyph glyph-name="Tecyrillic" unicode="&#x422;" horiz-adv-x="1087" 
d="M585 0h-81v1285h-444v75h967v-75h-442v-1285z" />
    <glyph glyph-name="Ucyrillic" unicode="&#x423;" horiz-adv-x="1086" 
d="M951 1360h86l-432 -999q-32 -73 -57.5 -124t-59.5 -100.5t-69 -79.5t-80 -48t-98 -18q-33 0 -69 9v80q23 -9 69 -9q85 0 146 67t126 207l-464 1015h90l415 -917h3z" />
    <glyph glyph-name="Efcyrillic" unicode="&#x424;" horiz-adv-x="1509" 
d="M794 -10h-82v159q-280 3 -432.5 140.5t-152.5 385.5v18q0 250 153 388t432 142v147h82v-147q281 -2 434.5 -139.5t153.5 -387.5v-18q0 -250 -153.5 -388t-434.5 -142v-158zM208 669q0 -208 132.5 -325t371.5 -121v925q-237 -4 -370.5 -122.5t-133.5 -325.5v-31zM1300 702
q0 209 -133 326t-373 120v-925q238 4 372 122.5t134 326.5v30z" />
    <glyph glyph-name="Xacyrillic" unicode="&#x425;" horiz-adv-x="1164" 
d="M1099 1360l-469 -683l464 -677h-98l-414 611h-6l-414 -611h-95l465 680l-465 680h98l417 -613h5l417 613h95z" />
    <glyph glyph-name="Tsecyrillic" unicode="&#x426;" horiz-adv-x="1404" 
d="M1143 74h180v-360h-73v286h-107h-82h-861v1360h82v-1286h779v1286h82v-1286z" />
    <glyph glyph-name="Checyrillic" unicode="&#x427;" horiz-adv-x="1224" 
d="M1023 0h-82v657h-4q-13 -11 -35.5 -25.5t-67.5 -37t-112.5 -37t-142.5 -14.5q-198 0 -310 113.5t-112 322.5v381h82v-382q0 -179 89.5 -270.5t250.5 -91.5q75 0 143 16t114.5 41t68.5 39.5t36 27.5v620h82v-1360z" />
    <glyph glyph-name="Shacyrillic" unicode="&#x428;" horiz-adv-x="1815" 
d="M200 0v1360h82v-1286h584v1286h82v-1286h584v1286h82v-1360h-1414z" />
    <glyph glyph-name="Shchacyrillic" unicode="&#x429;" horiz-adv-x="1874" 
d="M1794 -286h-73v286h-1521v1360h82v-1286h584v1286h82v-1286h584v1286h82v-1286h180v-360z" />
    <glyph glyph-name="Hardsigncyrillic" unicode="&#x42a;" horiz-adv-x="1341" 
d="M817 0h-439v1285h-339v75h421v-555h357q200 0 311.5 -107.5t111.5 -293.5q0 -187 -111.5 -295.5t-311.5 -108.5zM814 75q163 0 252.5 86.5t89.5 241.5q0 154 -90 240.5t-252 86.5h-354v-655h354z" />
    <glyph glyph-name="Yericyrillic" unicode="&#x42b;" horiz-adv-x="1563" 
d="M1062 404q0 -190 -112.5 -297t-310.5 -107h-439v1360h82v-555h357q198 0 310.5 -106.5t112.5 -294.5zM636 730h-354v-655h354q163 0 252.5 86.5t89.5 241.5t-90 241t-252 86zM1363 0h-81v1360h81v-1360z" />
    <glyph glyph-name="Softsigncyrillic" unicode="&#x42c;" horiz-adv-x="1163" 
d="M639 0h-439v1360h82v-555h357q200 0 311.5 -107.5t111.5 -293.5q0 -187 -111.5 -295.5t-311.5 -108.5zM636 75q163 0 252.5 86.5t89.5 241.5q0 154 -90 240.5t-252 86.5h-354v-655h354z" />
    <glyph glyph-name="Ereversedcyrillic" unicode="&#x42d;" horiz-adv-x="1257" 
d="M597 -31q-110 0 -201.5 35t-150.5 92.5t-91 130.5t-32 151v3h80q0 -142 108.5 -240t285.5 -98q110 0 194.5 39.5t136 110t77.5 161t26 198.5v115h-608v73h608v65q0 107 -26.5 198.5t-78.5 162t-135 110.5t-189 40q-91 0 -168 -32t-124.5 -82.5t-73.5 -110t-26 -118.5h-80
v3q0 73 30.5 145t87 133t149 99t205.5 38q102 0 186 -30t144 -84t101 -128.5t60.5 -163t19.5 -188.5v-237q0 -128 -30.5 -233.5t-91.5 -186.5t-161.5 -126t-231.5 -45z" />
    <glyph glyph-name="IUcyrillic" unicode="&#x42e;" horiz-adv-x="1721" 
d="M1495 550v256q0 231 -116 370.5t-313 139.5q-196 0 -312 -139.5t-116 -370.5v-256q0 -232 115 -369.5t313 -137.5t313.5 137.5t115.5 369.5zM557 751v49q0 271 135 431t375 160t374.5 -160.5t134.5 -432.5v-242q0 -271 -135 -429t-375 -158t-374.5 158t-134.5 429v120
h-275v-676h-82v1360h82v-609h275z" />
    <glyph glyph-name="IAcyrillic" unicode="&#x42f;" horiz-adv-x="1228" 
d="M595 655h351v629h-351q-165 0 -255 -82t-90 -233q0 -149 90 -231.5t255 -82.5zM946 580h-345q-19 0 -27 1l-367 -581h-96l372 589q-152 25 -234.5 125t-82.5 254q0 183 112 287.5t315 104.5h435v-1360h-82v580z" />
    <glyph glyph-name="acyrillic" unicode="&#x430;" horiz-adv-x="1034" 
d="M780 167q-11 -28 -35.5 -57.5t-63 -59.5t-99 -49t-130.5 -19q-152 0 -245 83.5t-93 224.5q0 132 90.5 210t260.5 78h317v147q0 127 -73 190.5t-202 63.5q-233 0 -270 -204h-78q14 127 103 202t250 75t256 -81.5t95 -230.5v-740h-79v167h-4zM462 55q134 0 227 81.5
t93 210.5v160h-315q-134 0 -201 -58t-67 -157q0 -109 73.5 -173t189.5 -64z" />
    <glyph glyph-name="becyrillic" unicode="&#x431;" horiz-adv-x="1110" 
d="M555 966q-156 0 -248.5 -106t-92.5 -286v-127q0 -181 91.5 -286t249.5 -105t249.5 105t91.5 286v127q0 178 -93 285t-248 107zM563 1040q185 0 299.5 -126t114.5 -329v-149q0 -206 -115 -330t-308 -124t-307 125t-114 336v165q0 170 15 292t48.5 212.5t90 145.5t135 83
t188.5 33l89 4q153 5 168 57h81q-16 -70 -74 -98t-172 -34l-93 -4q-138 -7 -217.5 -53t-123 -148t-59.5 -284h4q38 107 130 166.5t220 59.5z" />
    <glyph glyph-name="vecyrillic" unicode="&#x432;" horiz-adv-x="1053" 
d="M181 0v1035h360q148 0 233.5 -68t85.5 -188q0 -54 -18 -98t-46.5 -72t-58.5 -44.5t-60 -23.5v-4q103 -12 172 -77t69 -180q0 -130 -94 -205t-265 -75h-378zM261 965v-399h274q106 0 175 52.5t69 154.5q0 93 -65.5 142.5t-181.5 49.5h-271zM261 497v-427h293
q134 0 209 54.5t75 156.5q0 107 -77.5 161.5t-200.5 54.5h-299z" />
    <glyph glyph-name="gecyrillic" unicode="&#x433;" horiz-adv-x="874" 
d="M791 966h-530v-966h-80v1035h610v-69z" />
    <glyph glyph-name="decyrillic" unicode="&#x434;" horiz-adv-x="1213" 
d="M869 70v895h-500q-12 -315 -23 -471q-12 -183 -32.5 -277.5t-65.5 -142.5v-4h621zM116 -285h-72v355h92q36 15 60.5 50.5t39 95t21.5 122.5t12 156q15 239 26 541h655v-965h178v-355h-72v285h-940v-285z" />
    <glyph glyph-name="iecyrillic" unicode="&#x435;" horiz-adv-x="1071" 
d="M545 -18q-193 0 -302.5 125.5t-109.5 350.5v110q0 231 108 357.5t294 126.5t294.5 -126.5t108.5 -360.5v-55h-725v-51q0 -191 89.5 -297.5t244.5 -106.5q129 0 205 62t90 144h81q-7 -50 -33 -97.5t-70.5 -89t-116 -67t-158.5 -25.5zM213 581h644v4q0 183 -87.5 288.5
t-234.5 105.5t-234.5 -105.5t-87.5 -288.5v-4z" />
    <glyph glyph-name="zhecyrillic" unicode="&#x436;" horiz-adv-x="1457" 
d="M687 569v466h81v-466h4l483 466h106l-519 -500l548 -535h-108l-510 499h-4v-499h-81v499h-4l-509 -499h-107l548 533l-522 502h107l483 -466h4z" />
    <glyph glyph-name="zecyrillic" unicode="&#x437;" horiz-adv-x="1023" 
d="M508 57q136 0 213 60t77 164q0 108 -78 161.5t-216 53.5h-140v69h140q111 0 182.5 53.5t71.5 154.5q0 90 -70.5 147t-184.5 57q-130 0 -202.5 -68.5t-86.5 -169.5h-79q4 59 29 113.5t69 100t114 72.5t156 27q151 0 243.5 -79t92.5 -199q0 -101 -58.5 -161.5t-126.5 -73.5
v-4q94 -15 159.5 -79t65.5 -175q0 -135 -99 -217t-273 -82q-96 0 -171 27t-119 71.5t-67.5 94.5t-28.5 104h79q18 -93 92 -157.5t216 -64.5z" />
    <glyph glyph-name="iicyrillic" unicode="&#x438;" horiz-adv-x="1131" 
d="M870 0v901h-4l-608 -901h-77v1035h80v-902h4l608 902h77v-1035h-80z" />
    <glyph glyph-name="iishortcyrillic" unicode="&#x439;" horiz-adv-x="1131" 
d="M300 1441h68q0 -84 53 -133t147 -49t144 48.5t50 133.5h68q-1 -100 -68 -171t-194 -71t-197.5 70.5t-70.5 171.5zM870 0v901h-4l-608 -901h-77v1035h80v-902h4l608 902h77v-1035h-80z" />
    <glyph glyph-name="kacyrillic" unicode="&#x43a;" horiz-adv-x="1000" 
d="M337 537l597 -537h-114l-555 499h-4v-499h-80v1035h80v-466h4l528 466h108z" />
    <glyph glyph-name="elcyrillic" unicode="&#x43b;" horiz-adv-x="1098" 
d="M280 710l5 325h633v-1035h-81v965h-476l-4 -255q-6 -315 -23 -432q-32 -222 -135 -271q-33 -15 -74 -15q-15 0 -28.5 2.5t-20.5 5.5l-6 2v76q22 -10 51 -10q36 0 63 22.5t43.5 74.5t27 99.5t15.5 137.5t6.5 145t3.5 163z" />
    <glyph glyph-name="emcyrillic" unicode="&#x43c;" horiz-adv-x="1348" 
d="M260 862v-862h-79v1035h84l408 -855h4l406 855h85v-1035h-81v862h-3l-378 -782h-64l-378 782h-4z" />
    <glyph glyph-name="encyrillic" unicode="&#x43d;" horiz-adv-x="1118" 
d="M857 0v507h-596v-507h-80v1035h80v-459h596v459h81v-1035h-81z" />
    <glyph glyph-name="ocyrillic" unicode="&#x43e;" horiz-adv-x="1110" 
d="M554 1052q186 0 304.5 -124.5t118.5 -338.5v-147q0 -215 -117.5 -337.5t-305.5 -122.5t-304.5 122.5t-116.5 337.5v147q0 217 116 340t305 123zM554 979q-153 0 -247 -104t-94 -294v-130q0 -189 94 -292t248 -103q152 0 246.5 102.5t94.5 292.5v130q0 188 -95 293
t-247 105z" />
    <glyph glyph-name="pecyrillic" unicode="&#x43f;" horiz-adv-x="1108" 
d="M847 0v965h-586v-965h-80v1035h747v-1035h-81z" />
    <glyph glyph-name="ercyrillic" unicode="&#x440;" horiz-adv-x="1130" 
d="M599 -18q-58 0 -109.5 14.5t-86.5 36t-64 51.5t-46 56.5t-28 54.5h-4v-531h-81v1371h79v-200h4q9 24 24 49t44 56t64.5 55t90 40.5t116.5 16.5q173 0 284 -121t111 -324v-178q0 -108 -32.5 -194.5t-87.5 -140.5t-126.5 -83t-151.5 -29zM597 56q135 0 227 100t92 288v153
q0 178 -90 280t-230 102q-155 0 -245.5 -111t-90.5 -270v-156q0 -167 92.5 -276.5t244.5 -109.5z" />
    <glyph glyph-name="escyrillic" unicode="&#x441;" horiz-adv-x="1052" 
d="M133 446v151q0 213 112 334t295 121q89 0 162 -28t119.5 -74t73 -100.5t29.5 -111.5h-79q-16 99 -95.5 169.5t-206.5 70.5q-150 0 -240 -103.5t-90 -289.5v-132q0 -189 90 -292.5t247 -103.5q133 0 207 65t91 157h78q-8 -56 -33 -106.5t-69 -94.5t-116.5 -70t-164.5 -26
q-190 0 -300 122.5t-110 341.5z" />
    <glyph glyph-name="tecyrillic" unicode="&#x442;" horiz-adv-x="929" 
d="M871 966h-366v-966h-81v966h-366v69h813v-69z" />
    <glyph glyph-name="ucyrillic" unicode="&#x443;" horiz-adv-x="940" 
d="M895 1035l-373 -1036l-44 -116q-44 -116 -103.5 -170t-168.5 -54q-48 0 -95 9v73q40 -9 88 -9q80 0 126 40.5t73 118.5l34 96l-387 1048h90l337 -946h4l333 946h86z" />
    <glyph glyph-name="efcyrillic" unicode="&#x444;" horiz-adv-x="1372" 
d="M726 -336h-80v318q-146 1 -260.5 52t-183.5 157.5t-69 253.5v125q0 227 144 354t369 128v283h80v-283q147 -1 261.5 -53t183.5 -160t69 -257v-126q0 -149 -68.5 -258t-183.5 -162t-262 -54v-318zM1158 571q0 194 -119 300t-313 107v-922q192 1 312 109t120 302v104z
M214 455q0 -190 119 -294t313 -105v922q-191 -1 -311.5 -110.5t-120.5 -308.5v-104z" />
    <glyph glyph-name="hacyrillic" unicode="&#x445;" horiz-adv-x="951" 
d="M792 0l-317 455h-3l-318 -455h-92l365 521l-355 514h97l308 -447h3l308 447h93l-356 -512l364 -523h-97z" />
    <glyph glyph-name="tsecyrillic" unicode="&#x446;" horiz-adv-x="1191" 
d="M1105 -285h-72v285h-852v1035h80v-965h586v965h81v-965h177v-355z" />
    <glyph glyph-name="checyrillic" unicode="&#x447;" horiz-adv-x="1060" 
d="M879 0h-81v506h-8q-48 -58 -127.5 -89.5t-175.5 -31.5q-161 0 -249.5 97t-88.5 260v293h81v-293q0 -131 69 -207t192 -76q100 0 182.5 41.5t124.5 111.5v423h81v-1035z" />
    <glyph glyph-name="shacyrillic" unicode="&#x448;" horiz-adv-x="1515" 
d="M181 0v1035h80v-965h456v965h81v-965h455v965h81v-1035h-1153z" />
    <glyph glyph-name="shchacyrillic" unicode="&#x449;" horiz-adv-x="1597" 
d="M1512 -285h-72v285h-1259v1035h80v-965h456v965h81v-965h455v965h81v-965h178v-355z" />
    <glyph glyph-name="hardsigncyrillic" unicode="&#x44a;" horiz-adv-x="1129" 
d="M653 0h-324v965h-271v70h352v-381h243q169 0 268 -88t99 -239q0 -150 -99 -238.5t-268 -88.5zM653 584h-243v-514h244q130 0 207.5 70.5t77.5 187.5t-77.5 186.5t-208.5 69.5z" />
    <glyph glyph-name="yericyrillic" unicode="&#x44b;" horiz-adv-x="1317" 
d="M1055 0v1035h81v-1035h-81zM505 584h-244v-514h244q130 0 207.5 70.5t77.5 187.5t-77.5 186.5t-207.5 69.5zM181 0v1035h80v-381h244q168 0 267.5 -88.5t99.5 -238.5t-99.5 -238.5t-267.5 -88.5h-324z" />
    <glyph glyph-name="softsigncyrillic" unicode="&#x44c;" horiz-adv-x="981" 
d="M505 584h-244v-514h244q130 0 207.5 70.5t77.5 187.5t-77.5 186.5t-207.5 69.5zM181 0v1035h80v-381h244q168 0 267.5 -88.5t99.5 -238.5t-99.5 -238.5t-267.5 -88.5h-324z" />
    <glyph glyph-name="ereversedcyrillic" unicode="&#x44d;" horiz-adv-x="1052" 
d="M510 -18q-95 0 -169.5 27t-118.5 71.5t-67.5 94.5t-28.5 104h79q8 -43 27.5 -80t54 -70t90.5 -52.5t128 -19.5q156 0 245 100t89 286v48h-501v69h501v34q0 182 -88.5 282.5t-238.5 100.5q-135 0 -212.5 -70.5t-91.5 -167.5h-80q3 57 29 111.5t72 100t120 73.5t164 28
q182 0 294.5 -118t112.5 -328v-170q0 -217 -110.5 -335.5t-299.5 -118.5z" />
    <glyph glyph-name="iucyrillic" unicode="&#x44e;" horiz-adv-x="1478" 
d="M929 -18q-182 0 -298.5 118.5t-116.5 333.5v73h-253v-507h-80v1035h80v-459h253v22q0 214 116.5 334t298.5 120q87 0 162 -30t132 -86.5t89.5 -143.5t32.5 -195v-163q0 -215 -117.5 -333.5t-298.5 -118.5zM929 978q-148 0 -241 -103t-93 -289v-142q0 -186 92 -287
t243 -101q149 0 241.5 101t92.5 287v142q0 185 -93.5 288.5t-241.5 103.5z" />
    <glyph glyph-name="iacyrillic" unicode="&#x44f;" horiz-adv-x="1030" 
d="M520 478h249v487h-249q-130 0 -207.5 -66.5t-77.5 -177.5t77.5 -177t207.5 -66zM769 0v408h-245h-13l-295 -408h-97l302 418q-125 23 -196.5 103t-71.5 200q0 144 99.5 229t267.5 85h329v-1035h-80z" />
    <glyph glyph-name="iocyrillic" unicode="&#x451;" horiz-adv-x="1071" 
d="M545 -18q-193 0 -302.5 125.5t-109.5 350.5v110q0 231 108 357.5t294 126.5t294.5 -126.5t108.5 -360.5v-55h-725v-51q0 -191 89.5 -297.5t244.5 -106.5q129 0 205 62t90 144h81q-7 -50 -33 -97.5t-70.5 -89t-116 -67t-158.5 -25.5zM213 581h644v4q0 183 -87.5 288.5
t-234.5 105.5t-234.5 -105.5t-87.5 -288.5v-4zM389 1235q-27 0 -45.5 19t-18.5 46t18.5 46t45.5 19t45.5 -19t18.5 -46t-18.5 -46t-45.5 -19zM688 1235q-27 0 -45.5 19t-18.5 46t18.5 46t45.5 19t45.5 -19t18.5 -46t-18.5 -46t-45.5 -19z" />
    <glyph glyph-name="djecyrillic" unicode="&#x452;" horiz-adv-x="1130" 
d="M880 -71v742q0 136 -76.5 221.5t-210.5 85.5q-105 0 -182 -52t-113.5 -132.5t-36.5 -176.5v-617h-80v1237h-129v67h129v131h80v-131h242v-67h-242v-408h5q12 40 37.5 77.5t65.5 71t101.5 54t135.5 20.5q158 0 256.5 -95.5t98.5 -267.5v-758q0 -143 -54.5 -206.5
t-166.5 -63.5q-45 0 -75 8v71q33 -7 65 -7q80 0 115 44.5t35 151.5z" />
    <glyph glyph-name="gjecyrillic" unicode="&#x453;" horiz-adv-x="874" 
d="M513 1201h-72l230 294h90zM791 966h-530v-966h-80v1035h610v-69z" />
    <glyph glyph-name="ecyrillic" unicode="&#x454;" horiz-adv-x="1052" 
d="M926 279q-5 -54 -28.5 -104t-67.5 -94.5t-118 -71.5t-169 -27q-189 0 -299.5 118t-110.5 336v170q0 210 112.5 328t294.5 118q90 0 164 -28t120 -73.5t71.5 -100t28.5 -111.5h-79q-14 97 -92 167.5t-213 70.5q-149 0 -238 -101t-89 -282v-34h509v-69h-509v-48
q0 -186 89 -286t245 -100q138 0 210.5 64.5t90.5 157.5h78z" />
    <glyph glyph-name="dzecyrillic" unicode="&#x455;" horiz-adv-x="979" 
d="M141 768q0 134 97.5 209t253.5 75q91 0 160.5 -26.5t108.5 -69t58 -88.5t19 -93h-79q0 25 -8 51t-28 54t-49.5 50t-77.5 36t-107 14q-116 0 -191 -52.5t-75 -154.5q0 -38 13.5 -67t34 -49.5t59 -38t75.5 -29.5t96 -27q157 -40 214 -67q125 -59 141 -176q3 -20 3 -42
q0 -97 -53 -165t-137.5 -99t-192.5 -31q-94 0 -168 26t-116 68t-63.5 90.5t-21.5 99.5h79q2 -35 18.5 -70t49.5 -67.5t91.5 -53t134.5 -20.5q130 0 213.5 56.5t83.5 162.5q0 28 -7.5 51t-17.5 40t-34 33t-41.5 25.5t-57 22.5t-64.5 20.5t-78 21.5q-68 18 -111.5 32.5
t-90.5 38t-73.5 50.5t-43.5 67.5t-17 91.5z" />
    <glyph glyph-name="icyrillic" unicode="&#x456;" horiz-adv-x="459" 
d="M187 0v1035h80v-1035h-80zM156 1307q0 30 20.5 51t50.5 21t51 -21t21 -51t-21 -50.5t-51 -20.5t-50.5 20.5t-20.5 50.5z" />
    <glyph glyph-name="yicyrillic" unicode="&#x457;" horiz-adv-x="449" 
d="M184 0v1035h81v-1035h-81zM81 1234q-29 0 -48.5 20t-19.5 48t20 48t48 20t48 -20t20 -48t-20 -48t-48 -20zM372 1234q-28 0 -47.5 20t-19.5 48t19.5 48t47.5 20t48 -20t20 -48t-20 -48t-48 -20z" />
    <glyph glyph-name="jecyrillic" unicode="&#x458;" horiz-adv-x="454" 
d="M156 1307q0 30 20.5 51t50.5 21t51 -21t21 -51t-21 -50.5t-51 -20.5t-50.5 20.5t-20.5 50.5zM267 1035v-1104q0 -143 -54.5 -206.5t-166.5 -63.5q-45 0 -75 8v71q35 -7 66 -7q80 0 115 44.5t35 151.5v1106h80z" />
    <glyph glyph-name="ljecyrillic" unicode="&#x459;" horiz-adv-x="1630" 
d="M125 -8q-15 0 -28.5 2.5t-20.5 5.5l-6 2v77q22 -10 51 -10q36 0 62.5 22.5t43 74t26.5 100t15.5 137t7 145t3.5 162.5l5 325h627v-381h244q168 0 267 -88t99 -239q0 -150 -99 -238.5t-267 -88.5h-325v965h-469l-4 -255q-6 -315 -23 -432q-32 -222 -135 -271
q-33 -15 -74 -15zM1155 584h-244v-514h244q130 0 207.5 70.5t77.5 187.5t-77.5 186.5t-207.5 69.5z" />
    <glyph glyph-name="njecyrillic" unicode="&#x45a;" horiz-adv-x="1642" 
d="M1179 524h-249v-454h249q126 0 199.5 59.5t73.5 168.5t-73 167.5t-200 58.5zM850 0v523h-589v-523h-80v1035h80v-442h589v442h80v-442h249q165 0 259.5 -77t94.5 -219q0 -141 -95 -219t-259 -78h-329z" />
    <glyph glyph-name="tshecyrillic" unicode="&#x45b;" horiz-adv-x="1130" 
d="M262 631v-631h-81v1233h-129v68h129v147h81v-147h241v-68h-241v-390h4q29 85 115.5 147t219.5 62q160 0 260.5 -99t100.5 -276v-677h-81v667q0 138 -78 224t-214 86q-79 0 -142.5 -29t-103 -78t-60.5 -110.5t-21 -128.5z" />
    <glyph glyph-name="kjecyrillic" unicode="&#x45c;" horiz-adv-x="1041" 
d="M799 1495l-248 -294h-72l230 294h90zM337 537l597 -537h-114l-555 499h-4v-499h-80v1035h80v-466h4l528 466h108z" />
    <glyph glyph-name="ushortcyrillic" unicode="&#x45e;" horiz-adv-x="940" 
d="M206 1441h68q0 -84 53 -133t147 -49t144 48.5t50 133.5h68q-1 -100 -68 -171t-194 -71t-197.5 70.5t-70.5 171.5zM895 1035l-373 -1036l-44 -116q-44 -116 -103.5 -170t-168.5 -54q-48 0 -95 9v73q40 -9 88 -9q80 0 126 40.5t73 118.5l34 96l-387 1048h90l337 -946h4
l333 946h86z" />
    <glyph glyph-name="dzhecyrillic" unicode="&#x45f;" horiz-adv-x="1108" 
d="M847 1035h81v-1035h-338v-285h-72v285h-337v1035h80v-965h586v965z" />
    <glyph glyph-name="Geupturncyrillic" unicode="&#x490;" horiz-adv-x="1034" 
d="M885 1646h73v-286v-76h-676v-1284h-82v1360h685v286z" />
    <glyph glyph-name="geupturncyrillic" unicode="&#x491;" horiz-adv-x="874" 
d="M719 1035v285h72v-354h-530v-966h-80v1035h538z" />
    <glyph glyph-name="Aringbelow" unicode="&#x1e00;" horiz-adv-x="1180" 
d="M146 0h-86l487 1360h86l488 -1360h-87l-161 458h-567zM592 1259h-4l-258 -731h519zM590 -497q-73 0 -123.5 50t-50.5 123q0 71 50.5 120t123.5 49q71 0 122.5 -49t51.5 -120q0 -72 -51.5 -122.5t-122.5 -50.5zM472 -326q0 -48 35 -83t83 -35t82.5 35t34.5 83
q0 49 -34 83.5t-83 34.5q-48 0 -83 -34.5t-35 -83.5z" />
    <glyph glyph-name="aringbelow" unicode="&#x1e01;" horiz-adv-x="1014" 
d="M770 167q-11 -28 -35.5 -57.5t-63 -59.5t-99 -49t-130.5 -19q-152 0 -245 83.5t-93 224.5q0 132 90.5 210t260.5 78h317v147q0 127 -73 190.5t-202 63.5q-233 0 -270 -204h-78q14 127 103 202t250 75t256 -81.5t95 -230.5v-740h-79v167h-4zM452 55q134 0 227 81.5
t93 210.5v160h-315q-134 0 -201 -58t-67 -157q0 -109 73.5 -173t189.5 -64zM507 -497q-73 0 -123.5 50t-50.5 123q0 71 50.5 120t123.5 49q71 0 122.5 -49t51.5 -120q0 -72 -51.5 -122.5t-122.5 -50.5zM389 -326q0 -48 35 -83t83 -35t82.5 35t34.5 83q0 49 -34 83.5
t-83 34.5q-48 0 -83 -34.5t-35 -83.5z" />
    <glyph glyph-name="Bdotaccent" unicode="&#x1e02;" horiz-adv-x="1208" 
d="M520 1650q0 31 21 51.5t52 20.5t52 -20.5t21 -51.5q0 -30 -21 -51t-52 -21t-52 21t-21 51zM190 0v1360h441q185 0 290 -88.5t105 -244.5q0 -70 -22.5 -128.5t-59 -95.5t-75 -59.5t-77.5 -31.5v-5q63 -7 117 -30t98 -63t69.5 -103.5t25.5 -142.5q0 -170 -116.5 -269
t-331.5 -99h-464zM272 1284v-548h338q146 0 239 71t93 209q0 128 -85 198t-239 70h-346zM272 661v-586h361q188 0 286.5 76.5t98.5 215.5q0 144 -100.5 219t-258.5 75h-387z" />
    <glyph glyph-name="bdotaccent" unicode="&#x1e03;" horiz-adv-x="1113" 
d="M140 1726q0 31 21 51.5t52 20.5t52 -20.5t21 -51.5q0 -30 -21 -51t-52 -21t-52 21t-21 51zM592 -18q-73 0 -134 21t-100.5 55.5t-64 69t-39.5 71.5h-4v-199h-79v1435h81v-598h4q11 30 33.5 62t62 69t103 60.5t139.5 23.5q175 0 286 -120t111 -324v-180q0 -107 -32 -193.5
t-87.5 -141t-127 -83t-152.5 -28.5zM590 56q64 0 120.5 24t101.5 70t71 121.5t26 170.5v154q0 179 -90 280.5t-229 101.5q-105 0 -183.5 -52t-117 -137t-38.5 -189v-160q0 -170 92.5 -277t246.5 -107z" />
    <glyph glyph-name="Bdotbelow" unicode="&#x1e04;" horiz-adv-x="1208" 
d="M526 -287q0 30 20 50t47 20q30 0 50.5 -20t20.5 -50q0 -29 -20.5 -49t-50.5 -20q-27 0 -47 20t-20 49zM190 0v1360h441q185 0 290 -88.5t105 -244.5q0 -70 -22.5 -128.5t-59 -95.5t-75 -59.5t-77.5 -31.5v-5q63 -7 117 -30t98 -63t69.5 -103.5t25.5 -142.5
q0 -170 -116.5 -269t-331.5 -99h-464zM272 1284v-548h338q146 0 239 71t93 209q0 128 -85 198t-239 70h-346zM272 661v-586h361q188 0 286.5 76.5t98.5 215.5q0 144 -100.5 219t-258.5 75h-387z" />
    <glyph glyph-name="bdotbelow" unicode="&#x1e05;" horiz-adv-x="1113" 
d="M489 -287q0 30 20 50t47 20q30 0 50.5 -20t20.5 -50q0 -29 -20.5 -49t-50.5 -20q-27 0 -47 20t-20 49zM592 -18q-73 0 -134 21t-100.5 55.5t-64 69t-39.5 71.5h-4v-199h-79v1435h81v-598h4q11 30 33.5 62t62 69t103 60.5t139.5 23.5q175 0 286 -120t111 -324v-180
q0 -107 -32 -193.5t-87.5 -141t-127 -83t-152.5 -28.5zM590 56q64 0 120.5 24t101.5 70t71 121.5t26 170.5v154q0 179 -90 280.5t-229 101.5q-105 0 -183.5 -52t-117 -137t-38.5 -189v-160q0 -170 92.5 -277t246.5 -107z" />
    <glyph glyph-name="Blinebelow" unicode="&#x1e06;" horiz-adv-x="1208" 
d="M190 0v1360h441q185 0 290 -88.5t105 -244.5q0 -70 -22.5 -128.5t-59 -95.5t-75 -59.5t-77.5 -31.5v-5q63 -7 117 -30t98 -63t69.5 -103.5t25.5 -142.5q0 -170 -116.5 -269t-331.5 -99h-464zM272 1284v-548h338q146 0 239 71t93 209q0 128 -85 198t-239 70h-346zM272 661
v-586h361q188 0 286.5 76.5t98.5 215.5q0 144 -100.5 219t-258.5 75h-387zM870 -303h-553v61h553v-61z" />
    <glyph glyph-name="blinebelow" unicode="&#x1e07;" horiz-adv-x="1113" 
d="M833 -303h-553v61h553v-61zM592 -18q-73 0 -134 21t-100.5 55.5t-64 69t-39.5 71.5h-4v-199h-79v1435h81v-598h4q11 30 33.5 62t62 69t103 60.5t139.5 23.5q175 0 286 -120t111 -324v-180q0 -107 -32 -193.5t-87.5 -141t-127 -83t-152.5 -28.5zM590 56q64 0 120.5 24
t101.5 70t71 121.5t26 170.5v154q0 179 -90 280.5t-229 101.5q-105 0 -183.5 -52t-117 -137t-38.5 -189v-160q0 -170 92.5 -277t246.5 -107z" />
    <glyph glyph-name="Ccedillaacute" unicode="&#x1e08;" horiz-adv-x="1245" 
d="M670 1512h-72l230 294h89zM618 -472q-73 0 -119 16v63q46 -16 120 -16q63 0 107 27t44 77q0 100 -152 100h-51v48l55 127q-125 4 -220.5 52t-152.5 129.5t-85.5 184.5t-28.5 227v231q0 126 31 233t92 189t160 128.5t227 46.5q109 0 200.5 -36.5t149.5 -96t89.5 -133
t31.5 -149.5v-3h-80q-1 62 -27.5 122t-74.5 110t-123.5 80.5t-165.5 30.5q-107 0 -190.5 -40.5t-134.5 -111.5t-77 -162.5t-26 -198.5v-249q0 -106 25.5 -196.5t76 -162t135.5 -112t195 -40.5q175 0 285 97t111 241h80v-3q0 -162 -120 -279t-316 -129l-48 -117
q89 0 147.5 -38t58.5 -116q0 -83 -66.5 -127t-162.5 -44z" />
    <glyph glyph-name="ccedillaacute" unicode="&#x1e09;" horiz-adv-x="1032" 
d="M560 1201h-72l230 294h90zM505 -459q-76 -1 -124 16v62q43 -15 120 -15q61 0 106 26t45 78q0 99 -150 99h-50v48l57 128q-179 8 -282.5 129.5t-103.5 333.5v151q0 213 112 334t295 121q89 0 162 -28t119.5 -74t73 -100.5t29.5 -111.5h-79q-16 99 -95.5 169.5t-206.5 70.5
q-150 0 -240 -103.5t-90 -289.5v-132q0 -189 90 -292.5t247 -103.5q133 0 207 65t91 157h78q-7 -53 -29.5 -100.5t-61.5 -90t-103 -70.5t-145 -34l-52 -118q88 0 146 -38t58 -116q0 -83 -66 -126.5t-158 -44.5z" />
    <glyph glyph-name="Ddotaccent" unicode="&#x1e0a;" horiz-adv-x="1294" 
d="M519 1650q0 31 21 51.5t52 20.5t52 -20.5t21 -51.5q0 -30 -21 -51t-52 -21t-52 21t-21 51zM190 1360h366q308 0 458 -177.5t150 -501.5q0 -161 -35 -284.5t-108 -213t-190 -136.5t-275 -47h-366v1360zM272 1284v-1209h284q267 0 396 158t129 448q0 288 -130 445.5
t-395 157.5h-284z" />
    <glyph glyph-name="ddotaccent" unicode="&#x1e0b;" horiz-adv-x="1112" 
d="M828 1726q0 31 21 51.5t52 20.5t52 -20.5t21 -51.5q0 -30 -21 -51t-52 -21t-52 21t-21 51zM521 1052q73 0 133.5 -21t100 -55t63.5 -68.5t38 -69.5h4v597h81v-1435h-79v202h-4q-9 -24 -23.5 -50t-43.5 -57.5t-64.5 -55.5t-90 -40.5t-116.5 -16.5q-178 0 -287.5 122
t-109.5 324v178q0 209 114 327.5t284 118.5zM525 978q-64 0 -121 -23.5t-102 -69t-71.5 -121t-26.5 -171.5v-155q0 -179 91 -280t230 -101q104 0 182 53t116 138t38 188v158q0 166 -92.5 275t-243.5 109z" />
    <glyph glyph-name="Ddotbelow" unicode="&#x1e0c;" horiz-adv-x="1294" 
d="M525 -287q0 30 20 50t47 20q30 0 50.5 -20t20.5 -50q0 -29 -20.5 -49t-50.5 -20q-27 0 -47 20t-20 49zM190 1360h366q308 0 458 -177.5t150 -501.5q0 -161 -35 -284.5t-108 -213t-190 -136.5t-275 -47h-366v1360zM272 1284v-1209h284q267 0 396 158t129 448
q0 288 -130 445.5t-395 157.5h-284z" />
    <glyph glyph-name="ddotbelow" unicode="&#x1e0d;" horiz-adv-x="1112" 
d="M491 -287q0 30 20 50t47 20q30 0 50.5 -20t20.5 -50q0 -29 -20.5 -49t-50.5 -20q-27 0 -47 20t-20 49zM521 1052q73 0 133.5 -21t100 -55t63.5 -68.5t38 -69.5h4v597h81v-1435h-79v202h-4q-9 -24 -23.5 -50t-43.5 -57.5t-64.5 -55.5t-90 -40.5t-116.5 -16.5
q-178 0 -287.5 122t-109.5 324v178q0 209 114 327.5t284 118.5zM525 978q-64 0 -121 -23.5t-102 -69t-71.5 -121t-26.5 -171.5v-155q0 -179 91 -280t230 -101q104 0 182 53t116 138t38 188v158q0 166 -92.5 275t-243.5 109z" />
    <glyph glyph-name="Dlinebelow" unicode="&#x1e0e;" horiz-adv-x="1294" 
d="M869 -303h-553v61h553v-61zM190 1360h366q308 0 458 -177.5t150 -501.5q0 -161 -35 -284.5t-108 -213t-190 -136.5t-275 -47h-366v1360zM272 1284v-1209h284q267 0 396 158t129 448q0 288 -130 445.5t-395 157.5h-284z" />
    <glyph glyph-name="dlinebelow" unicode="&#x1e0f;" horiz-adv-x="1112" 
d="M835 -303h-553v61h553v-61zM521 1052q73 0 133.5 -21t100 -55t63.5 -68.5t38 -69.5h4v597h81v-1435h-79v202h-4q-9 -24 -23.5 -50t-43.5 -57.5t-64.5 -55.5t-90 -40.5t-116.5 -16.5q-178 0 -287.5 122t-109.5 324v178q0 209 114 327.5t284 118.5zM525 978
q-64 0 -121 -23.5t-102 -69t-71.5 -121t-26.5 -171.5v-155q0 -179 91 -280t230 -101q104 0 182 53t116 138t38 188v158q0 166 -92.5 275t-243.5 109z" />
    <glyph glyph-name="Dcommaaccent" unicode="&#x1e10;" horiz-adv-x="1294" 
d="M530 -481h-60l85 335h89zM190 1360h366q308 0 458 -177.5t150 -501.5q0 -161 -35 -284.5t-108 -213t-190 -136.5t-275 -47h-366v1360zM272 1284v-1209h284q267 0 396 158t129 448q0 288 -130 445.5t-395 157.5h-284z" />
    <glyph glyph-name="dcommaaccent" unicode="&#x1e11;" horiz-adv-x="1112" 
d="M496 -481h-60l85 335h89zM521 1052q73 0 133.5 -21t100 -55t63.5 -68.5t38 -69.5h4v597h81v-1435h-79v202h-4q-9 -24 -23.5 -50t-43.5 -57.5t-64.5 -55.5t-90 -40.5t-116.5 -16.5q-178 0 -287.5 122t-109.5 324v178q0 209 114 327.5t284 118.5zM525 978q-64 0 -121 -23.5
t-102 -69t-71.5 -121t-26.5 -171.5v-155q0 -179 91 -280t230 -101q104 0 182 53t116 138t38 188v158q0 166 -92.5 275t-243.5 109z" />
    <glyph glyph-name="Dcircumflexbelow" unicode="&#x1e12;" horiz-adv-x="1294" 
d="M190 1360h366q308 0 458 -177.5t150 -501.5q0 -161 -35 -284.5t-108 -213t-190 -136.5t-275 -47h-366v1360zM272 1284v-1209h284q267 0 396 158t129 448q0 288 -130 445.5t-395 157.5h-284zM331 -413l230 280h62l230 -280h-73l-186 229h-4l-186 -229h-73z" />
    <glyph glyph-name="dcircumflexbelow" unicode="&#x1e13;" horiz-adv-x="1112" 
d="M521 1052q73 0 133.5 -21t100 -55t63.5 -68.5t38 -69.5h4v597h81v-1435h-79v202h-4q-9 -24 -23.5 -50t-43.5 -57.5t-64.5 -55.5t-90 -40.5t-116.5 -16.5q-178 0 -287.5 122t-109.5 324v178q0 209 114 327.5t284 118.5zM525 978q-64 0 -121 -23.5t-102 -69t-71.5 -121
t-26.5 -171.5v-155q0 -179 91 -280t230 -101q104 0 182 53t116 138t38 188v158q0 166 -92.5 275t-243.5 109zM297 -413l230 280h62l230 -280h-73l-186 229h-4l-186 -229h-73z" />
    <glyph glyph-name="Emacrongrave" unicode="&#x1e14;" horiz-adv-x="1093" 
d="M641 1708h-90l-316 230h107zM844 1540h-536v59h536v-59zM966 75v-75h-776v1360h776v-76h-694v-550h660v-75h-660v-584h694z" />
    <glyph glyph-name="emacrongrave" unicode="&#x1e15;" horiz-adv-x="1050" 
d="M535 -18q-193 0 -302.5 125.5t-109.5 350.5v110q0 231 108 357.5t294 126.5t294.5 -126.5t108.5 -360.5v-55h-725v-51q0 -191 89.5 -297.5t244.5 -106.5q129 0 205 62t90 144h81q-7 -50 -33 -97.5t-70.5 -89t-116 -67t-158.5 -25.5zM203 581h644v4q0 183 -87.5 288.5
t-234.5 105.5t-234.5 -105.5t-87.5 -288.5v-4zM568 1484h-72l-248 294h91zM802 1270h-553v61h553v-61z" />
    <glyph glyph-name="Emacronacute" unicode="&#x1e16;" horiz-adv-x="1093" 
d="M511 1708l299 230h107l-316 -230h-90zM844 1540h-536v59h536v-59zM966 75v-75h-776v1360h776v-76h-694v-550h660v-75h-660v-584h694z" />
    <glyph glyph-name="emacronacute" unicode="&#x1e17;" horiz-adv-x="1050" 
d="M535 -18q-193 0 -302.5 125.5t-109.5 350.5v110q0 231 108 357.5t294 126.5t294.5 -126.5t108.5 -360.5v-55h-725v-51q0 -191 89.5 -297.5t244.5 -106.5q129 0 205 62t90 144h81q-7 -50 -33 -97.5t-70.5 -89t-116 -67t-158.5 -25.5zM203 581h644v4q0 183 -87.5 288.5
t-234.5 105.5t-234.5 -105.5t-87.5 -288.5v-4zM554 1484h-72l230 294h90zM802 1270h-553v61h553v-61z" />
    <glyph glyph-name="Ecircumflexbelow" unicode="&#x1e18;" horiz-adv-x="1093" 
d="M966 75v-75h-776v1360h776v-76h-694v-550h660v-75h-660v-584h694zM315 -413l230 280h62l230 -280h-73l-186 229h-4l-186 -229h-73z" />
    <glyph glyph-name="ecircumflexbelow" unicode="&#x1e19;" horiz-adv-x="1050" 
d="M535 -18q-193 0 -302.5 125.5t-109.5 350.5v110q0 231 108 357.5t294 126.5t294.5 -126.5t108.5 -360.5v-55h-725v-51q0 -191 89.5 -297.5t244.5 -106.5q129 0 205 62t90 144h81q-7 -50 -33 -97.5t-70.5 -89t-116 -67t-158.5 -25.5zM203 581h644v4q0 183 -87.5 288.5
t-234.5 105.5t-234.5 -105.5t-87.5 -288.5v-4zM274 -413l230 280h62l230 -280h-73l-186 229h-4l-186 -229h-73z" />
    <glyph glyph-name="Etildebelow" unicode="&#x1e1a;" horiz-adv-x="1093" 
d="M703 -382q-39 0 -71.5 16t-54.5 39t-42 46.5t-44 39.5t-50 16q-42 0 -70 -37.5t-28 -102.5h-62q0 93 43.5 145.5t116.5 52.5q38 0 69.5 -16t52.5 -39t41 -46t44.5 -39t53.5 -16q47 0 73 39.5t27 105.5h62q0 -88 -42.5 -146t-118.5 -58zM966 75v-75h-776v1360h776v-76
h-694v-550h660v-75h-660v-584h694z" />
    <glyph glyph-name="etildebelow" unicode="&#x1e1b;" horiz-adv-x="1050" 
d="M662 -382q-39 0 -71.5 16t-54.5 39t-42 46.5t-44 39.5t-50 16q-42 0 -70 -37.5t-28 -102.5h-62q0 93 43.5 145.5t116.5 52.5q38 0 69.5 -16t52.5 -39t41 -46t44.5 -39t53.5 -16q47 0 73 39.5t27 105.5h62q0 -88 -42.5 -146t-118.5 -58zM535 -18q-193 0 -302.5 125.5
t-109.5 350.5v110q0 231 108 357.5t294 126.5t294.5 -126.5t108.5 -360.5v-55h-725v-51q0 -191 89.5 -297.5t244.5 -106.5q129 0 205 62t90 144h81q-7 -50 -33 -97.5t-70.5 -89t-116 -67t-158.5 -25.5zM203 581h644v4q0 183 -87.5 288.5t-234.5 105.5t-234.5 -105.5
t-87.5 -288.5v-4z" />
    <glyph glyph-name="Ecedillabreve" unicode="&#x1e1c;" horiz-adv-x="1093" 
d="M540 -459q-73 -1 -125 15v63q46 -16 121 -16q61 0 106 26.5t45 78.5q0 99 -153 99h-50v48l62 145h-356v1360h776v-76h-694v-550h660v-75h-660v-584h694v-75h-353l-56 -134q88 0 147.5 -38t59.5 -116q0 -84 -66 -127t-158 -44zM308 1741h67q0 -78 53 -124t148 -46
q94 0 144 45.5t50 124.5h67q0 -96 -67 -164t-194 -68q-128 0 -198 67.5t-70 164.5z" />
    <glyph glyph-name="ecedillabreve" unicode="&#x1e1d;" horiz-adv-x="1050" 
d="M255 1441h67q0 -80 53.5 -130t147.5 -50t147.5 50t53.5 130h67q0 -96 -70.5 -169t-197.5 -73t-197.5 72t-70.5 170zM203 581h644v4q0 183 -87.5 288.5t-234.5 105.5t-234.5 -105.5t-87.5 -288.5v-4zM512 -464q-73 -1 -124 15v63q43 -15 120 -15q61 0 106 26t45 78
q0 99 -152 99h-51v48l56 133q-183 8 -286 132.5t-103 342.5v110q0 231 108 357.5t294 126.5t294.5 -126.5t108.5 -360.5v-55h-725v-51q0 -191 89.5 -297.5t244.5 -106.5q129 0 205 62t90 144h81q-13 -100 -98.5 -182t-233.5 -95l-51 -123q88 0 147 -38t59 -116
q0 -83 -66 -126.5t-158 -44.5z" />
    <glyph glyph-name="Fdotaccent" unicode="&#x1e1e;" horiz-adv-x="1038" 
d="M443 1650q0 31 21 51.5t52 20.5t52 -20.5t21 -51.5q0 -30 -21 -51t-52 -21t-52 21t-21 51zM272 0h-82v1360h765v-76h-683v-563h627v-76h-627v-645z" />
    <glyph glyph-name="fdotaccent" unicode="&#x1e1f;" horiz-adv-x="619" 
d="M340 1720q0 31 21 51.5t52 20.5t52 -20.5t21 -51.5q0 -30 -21 -51t-52 -21t-52 21t-21 51zM218 0v964h-164v71h164v136q0 138 66 198.5t198 60.5q34 0 80 -7v-70q-37 5 -75 5q-98 0 -143 -43t-45 -147v-133h257v-71h-257v-964h-81z" />
    <glyph glyph-name="Gmacron" unicode="&#x1e20;" horiz-adv-x="1263" 
d="M1115 1000h-78q-6 55 -32 108.5t-72 101t-121 77t-168 29.5q-204 0 -315.5 -137.5t-111.5 -373.5v-232q0 -243 110 -386.5t328 -143.5q176 0 285.5 94.5t109.5 259.5v186h-407v75h485v-261q0 -199 -133.5 -313.5t-342.5 -114.5q-131 0 -231 45t-162 126.5t-93 190.5
t-31 242v232q0 270 133 428t376 158q109 0 198.5 -33.5t146.5 -90t89 -125t37 -142.5zM904 1540h-536v59h536v-59z" />
    <glyph glyph-name="gmacron" unicode="&#x1e21;" horiz-adv-x="1112" 
d="M832 1270h-553v61h553v-61zM537 -288q150 0 236.5 76.5t86.5 202.5v257h-4q-7 -22 -21.5 -47.5t-42.5 -56.5t-64 -55.5t-90.5 -41t-116.5 -16.5q-175 0 -286.5 120t-111.5 323v134q0 108 32.5 194t88 140t127 82t152.5 28q72 0 133 -21.5t100.5 -55.5t64 -68t37.5 -69h4
v197h79v-1042q0 -161 -110.5 -257.5t-294.5 -96.5q-92 0 -166 24t-119 64.5t-69.5 88.5t-28.5 100h83q8 -80 87 -142t214 -62zM529 979q-139 0 -232 -99t-93 -286v-108q0 -178 91 -279.5t234 -101.5q103 0 179.5 53t114 137.5t37.5 187.5v114q0 166 -91 274t-240 108z" />
    <glyph glyph-name="Hdotaccent" unicode="&#x1e22;" horiz-adv-x="1334" 
d="M1143 0h-82v676h-789v-676h-82v1360h82v-609h789v609h82v-1360zM594 1650q0 31 21 51.5t52 20.5t52 -20.5t21 -51.5q0 -30 -21 -51t-52 -21t-52 21t-21 51z" />
    <glyph glyph-name="hdotaccent" unicode="&#x1e23;" horiz-adv-x="1110" 
d="M171 0v1435h81v-592h4q29 85 115.5 147t219.5 62q160 0 260.5 -99t100.5 -276v-677h-81v667q0 138 -78 224t-214 86q-79 0 -142.5 -29t-103 -78t-60.5 -110.5t-21 -128.5v-631h-81zM138 1726q0 31 21 51.5t52 20.5t52 -20.5t21 -51.5q0 -30 -21 -51t-52 -21t-52 21
t-21 51z" />
    <glyph glyph-name="Hdotbelow" unicode="&#x1e24;" horiz-adv-x="1334" 
d="M1143 0h-82v676h-789v-676h-82v1360h82v-609h789v609h82v-1360zM599 -287q0 30 20 50t47 20q30 0 50.5 -20t20.5 -50q0 -29 -20.5 -49t-50.5 -20q-27 0 -47 20t-20 49z" />
    <glyph glyph-name="hdotbelow" unicode="&#x1e25;" horiz-adv-x="1110" 
d="M171 0v1435h81v-592h4q29 85 115.5 147t219.5 62q160 0 260.5 -99t100.5 -276v-677h-81v667q0 138 -78 224t-214 86q-79 0 -142.5 -29t-103 -78t-60.5 -110.5t-21 -128.5v-631h-81zM489 -287q0 30 20 50t47 20q30 0 50.5 -20t20.5 -50q0 -29 -20.5 -49t-50.5 -20
q-27 0 -47 20t-20 49z" />
    <glyph glyph-name="Hdieresis" unicode="&#x1e26;" horiz-adv-x="1334" 
d="M1143 0h-82v676h-789v-676h-82v1360h82v-609h789v609h82v-1360zM521 1511q-26 0 -44.5 18.5t-18.5 44.5q0 28 18 46t45 18t45 -18t18 -46q0 -26 -18.5 -44.5t-44.5 -18.5zM811 1511q-26 0 -44.5 18.5t-18.5 44.5q0 28 18 46t45 18t45 -18t18 -46q0 -26 -18.5 -44.5
t-44.5 -18.5z" />
    </font>
</defs>
</svg>
